<svg width="48" height="47" viewBox="0 0 48 47" fill="none" xmlns="http://www.w3.org/2000/svg">
<g opacity="0.1" clip-path="url(#clip0_2489_22353)">
<mask id="mask0_2489_22353" style="mask-type:luminance" maskUnits="userSpaceOnUse" x="0" y="0" width="48" height="47">
<path d="M47.0661 0H0.296875V46.7692H47.0661V0Z" fill="white"/>
</mask>
<g mask="url(#mask0_2489_22353)">
<path d="M47.1574 15.9428C46.9243 16.4303 46.6539 16.8108 46.0958 16.9062C45.5076 17.0069 44.8894 16.7941 44.5339 16.3276C42.6387 13.8407 40.1318 12.2747 37.1224 11.5246C36.2211 11.3 35.2759 11.2217 34.3451 11.1519C32.1379 10.9864 30.0362 11.4486 28.0232 12.3401C26.6925 12.9294 25.4967 13.7225 24.387 14.6701C23.1111 15.7594 22.1338 17.0718 21.3678 18.5397C20.7683 19.6887 20.3298 20.9122 20.2167 22.2173C20.1233 23.2951 19.977 24.3865 20.0584 25.4563C20.1427 26.5633 20.385 27.679 20.7156 28.742C21.2819 30.5631 20.9616 32.1056 19.6046 33.4477C18.0893 34.9464 16.5843 36.4557 15.0869 37.9723C14.8505 38.2118 14.7074 38.2189 14.4664 37.9753C12.7211 36.2116 10.9668 34.4565 9.2021 32.7121C8.94947 32.4624 8.92672 32.3138 9.19356 32.0573C10.0384 31.2452 10.8558 30.4045 11.6891 29.5802C11.8671 29.4042 11.9309 29.3002 11.7628 29.0221C10.5454 27.0086 9.68572 24.8462 9.25483 22.5283C8.95909 20.9373 8.85 19.3169 9.00178 17.7143C9.12333 16.4308 9.40893 15.1487 9.75726 13.9039C10.4559 11.4073 11.7462 9.19282 13.3629 7.19091C14.8843 5.30708 16.7117 3.7557 18.8324 2.54762C20.6777 1.49648 22.649 0.819121 24.7086 0.374992C25.2888 0.249875 25.8919 0.231208 26.4988 0.127071C27.7026 0.0904259 28.892 0.0904259 30.1388 0.127248C30.8028 0.232545 31.4218 0.246395 32.0135 0.380527C33.3693 0.687835 34.7005 1.0635 35.9895 1.62101C37.8641 2.43182 39.5803 3.48017 41.0679 4.85751C42.0452 5.76239 42.9242 6.78491 43.7691 7.81864C44.9585 9.27402 45.7954 10.9417 46.4253 12.709C46.6922 13.4578 46.9147 14.2224 47.1574 14.9798C47.1574 15.2869 47.1574 15.5939 47.1574 15.9428Z" fill="#D3317D"/>
<path d="M0.388672 41.6947C0.536602 41.3941 0.663604 41.1212 0.836772 40.8817C1.20917 40.3665 1.56899 39.8349 1.99911 39.3704C2.98724 38.3033 4.01435 37.2722 5.05938 36.1916C4.71663 35.8611 4.39344 35.4974 4.0183 35.1989C3.29205 34.6212 3.39435 33.5611 3.8896 33.059C4.44799 32.4929 5.38824 32.5243 6.04201 33.1863C7.39972 34.5611 8.77165 35.9218 10.1379 37.2881C11.4074 38.5576 12.6821 39.8219 13.944 41.0989C14.3591 41.519 14.6421 41.994 14.4617 42.637C14.3202 43.1412 13.9938 43.4773 13.5274 43.6144C13.0453 43.756 12.5461 43.7124 12.152 43.3202C11.7532 42.9232 11.3572 42.5232 11.1158 42.281C9.91495 43.3959 8.71285 44.4992 7.52618 45.6189C6.92322 46.1878 6.25315 46.6174 5.4234 46.8249C4.8627 46.8586 4.31269 46.8586 3.70853 46.8243C2.21062 46.5038 1.25003 45.635 0.659029 44.3148C0.585483 44.1505 0.479582 44.0007 0.388672 43.8442C0.388672 43.142 0.388672 42.4397 0.388672 41.6947Z" fill="#D3317D"/>
</g>
</g>
<defs>
<clipPath id="clip0_2489_22353">
<rect width="48" height="47" fill="white"/>
</clipPath>
</defs>
</svg>
