<svg width="32" height="32" viewBox="0 0 32 32" fill="none" xmlns="http://www.w3.org/2000/svg">
<circle cx="16" cy="16" r="16" fill="#598FE0"/>
<path d="M23.5 19.543H18.5C18.1583 19.543 17.875 19.2596 17.875 18.918C17.875 18.5763 18.1583 18.293 18.5 18.293H23.5C23.8417 18.293 24.125 18.5763 24.125 18.918C24.125 19.2596 23.8417 19.543 23.5 19.543Z" fill="white"/>
<path d="M23.5 22.875H18.5C18.1583 22.875 17.875 22.5917 17.875 22.25C17.875 21.9083 18.1583 21.625 18.5 21.625H23.5C23.8417 21.625 24.125 21.9083 24.125 22.25C24.125 22.5917 23.8417 22.875 23.5 22.875Z" fill="white"/>
<path d="M24.3333 13.0993V9.31602C24.3333 8.14102 23.8 7.66602 22.475 7.66602H19.1083C17.7833 7.66602 17.25 8.14102 17.25 9.31602V13.091C17.25 14.2743 17.7833 14.741 19.1083 14.741H22.475C23.8 14.7493 24.3333 14.2743 24.3333 13.0993Z" fill="white"/>
<path d="M14.7501 13.0993V9.31602C14.7501 8.14102 14.2167 7.66602 12.8917 7.66602H9.52508C8.20008 7.66602 7.66675 8.14102 7.66675 9.31602V13.091C7.66675 14.2743 8.20008 14.741 9.52508 14.741H12.8917C14.2167 14.7493 14.7501 14.2743 14.7501 13.0993Z" fill="white"/>
<path d="M14.7501 22.475V19.1083C14.7501 17.7833 14.2167 17.25 12.8917 17.25H9.52508C8.20008 17.25 7.66675 17.7833 7.66675 19.1083V22.475C7.66675 23.8 8.20008 24.3333 9.52508 24.3333H12.8917C14.2167 24.3333 14.7501 23.8 14.7501 22.475Z" fill="white"/>
</svg>
