<?xml version="1.0" encoding="UTF-8"?>
<svg id="Layer_2" data-name="Layer 2" xmlns="http://www.w3.org/2000/svg" viewBox="0 0 503.19 205.83">
  <defs>
    <style>
      .cls-1 {
        fill: #e4e4e4;
      }

      .cls-2 {
        stroke-dasharray: 0 0 7.95 3.97;
      }

      .cls-2, .cls-3 {
        fill: none;
        stroke: #fff;
        stroke-miterlimit: 10;
      }
    </style>
  </defs>
  <g id="Layer_1-2" data-name="Layer 1">
    <g>
      <g>
        <path class="cls-1" d="m0,.38c.43-.13.85-.25,1.28-.38.32.1.64.22.97.29,23.25,4.29,46.5,8.58,69.75,12.87,2.31.43,4.62.84,6.93,1.29,1.14.22,1.38.92.65,1.84-.1.12-.2.25-.31.37-4.24,4.94-8.48,9.89-12.74,14.8-.47.54-.6,1.04-.49,1.72.78,4.89,1.54,9.78,2.3,14.67.21,1.4-.23,1.81-1.64,1.55-4.78-.85-9.55-1.7-14.32-2.59-.67-.12-1.11.02-1.6.48-2.6,2.42-5.22,4.82-7.85,7.22-.96.88-1.35.85-2.15-.2C29.19,39.26,17.6,24.2,6.02,9.15,4.15,6.72,2.29,4.28.43,1.84L0,.38Zm6.73,2.71c-.02.08-.05.15-.07.23,19.43,8.98,38.85,17.96,58.34,26.96,4.06-4.72,8.08-9.4,12.2-14.19C53.59,11.74,30.16,7.41,6.73,3.09Zm49.18,35.56C39.61,28.02,23.31,17.39,7.01,6.76c-.04.05-.09.09-.13.14,11.68,15.24,23.36,30.48,35.1,45.8,4.96-4.45,9.9-8.73,13.93-14.05Zm5.07-1.05c.2.93.5,1.85.59,2.8.11,1.17.73,1.97,1.5,2.76.98.99,1.9,2.02,3.05,3.25-.32-2.14-.6-4.03-.89-5.91-.4-2.6-.78-5.21-1.23-7.81-.07-.38-.4-.86-.74-1.03-1.23-.65-2.52-1.19-3.99-1.86.6,2.73,1.15,5.27,1.71,7.81Zm-2.61-5.51c-.04-.19-.14-.37-.14-.55.05-2.71-1.98-3.33-4.11-4.03.32,1.65.61,3.22.92,4.8.18.94.46,1.86.54,2.8.08.85.48,1.33,1.16,1.8,1.11.77,2.11,1.69,3.26,2.64-.55-2.5-1.09-4.98-1.63-7.45Zm-.89,7.86c-1.48,1.68-2.89,3.29-4.42,5.03,3.63.65,7.1,1.28,10.56,1.9.04-.07.07-.15.11-.22-2.06-2.22-4.12-4.43-6.24-6.71Zm-7.64-10.31c-.02,2.39,1.1,3.89,3.19,4.82.34.15.64.38,1.15.69-.31-1.66-.58-3.14-.86-4.62-.18-.93-.49-1.86-.55-2.8-.06-.94-.55-1.31-1.33-1.6-.68-.25-1.32-.59-2.14-.96.21,1.6.55,3.03.54,4.46Zm-10.24-4.4c.04.23.15.53.33.65,1.28.87,2.58,1.7,4.1,2.69-.43-2.21-.8-4.17-1.21-6.12-.04-.2-.29-.41-.49-.5-1.11-.54-2.24-1.04-3.57-1.65.3,1.76.56,3.35.85,4.94Zm5.92,3.77c.07.35.36.73.66.95.77.57,1.61,1.07,2.59,1.7-.32-2.41-.6-4.59-.92-6.76-.03-.23-.28-.5-.49-.61-.93-.47-1.89-.89-3.01-1.41.41,2.17.76,4.15,1.17,6.13Zm-11.88-7.48c.03.17.15.36.29.45,1.31.87,2.63,1.73,4.12,2.7-.27-1.78-.5-3.36-.76-4.94-.02-.13-.26-.25-.43-.33-1.23-.57-2.47-1.14-3.91-1.8.25,1.42.45,2.67.68,3.91Zm-5.53-3.59c.04.19.22.38.39.5,1.13.76,2.27,1.49,3.59,2.35-.21-1.28-.38-2.39-.6-3.48-.04-.21-.23-.47-.42-.56-1.08-.53-2.18-1.01-3.41-1.57.16,1.02.28,1.9.45,2.76Zm-1.59-1.21c0-1.71-.74-2.81-2.47-3.27-.84-.22-1.61-.71-2.42-1.09-.26,1.17.2,1.85,1.17,2.39,1.23.68,2.38,1.52,3.66,2.36.03-.27.05-.33.05-.39Zm-6.37-3.73c-.06-.99-.32-1.54-1.17-1.88-1.47-.58-2.88-1.3-4.31-1.96l-.11.21c1.82,1.18,3.64,2.37,5.59,3.63Z"/>
        <path class="cls-1" d="m27.06,30.39c.18.24.31.42.45.59,2.16,2.66,4.32,5.31,6.48,7.97.12.15.24.38.38.41.34.06.69.02,1.04.02-.02-.31.07-.7-.08-.92-.44-.65-.99-1.24-1.49-1.85-1.7-2.09-3.39-4.19-5.1-6.27-.2-.24-.42-.52-.69-.62-.21-.08-.55.01-.77.14-.14.08-.16.37-.22.54Z"/>
        <path class="cls-1" d="m36.51,41.96c.19.26.29.42.41.57,1.02,1.26,2.04,2.51,3.05,3.77.35.44.76.77,1.28.35.56-.46.07-.84-.22-1.2-1.04-1.28-2.06-2.58-3.14-3.82-.19-.22-.65-.27-.98-.25-.15.01-.28.39-.4.58Z"/>
      </g>
      <g>
        <path class="cls-3" d="m76.48,55.13c1.04.83,2.09,1.66,3.13,2.49"/>
        <path class="cls-2" d="m82.73,60.09c22.28,17.64,44.95,35,70.27,47.83,19.25,9.76,40.49,17.94,62.28,20.05,20.72,2,44.63-2.4,58.33-19.5,3.62-4.51,6.07-10.19,5.73-15.96-1.05-17.53-26.02-20.69-38.61-14.45-10.99,5.45-15.64,18.03-15.18,29.7.23,5.94,1.69,11.82,4.08,17.26,48.41,110.09,201.92,90.33,268.57,39.36"/>
        <path class="cls-3" d="m499.77,163.17c1.06-.83,2.09-1.68,3.1-2.52"/>
      </g>
    </g>
  </g>
</svg>