<svg width="20" height="21" viewBox="0 0 20 21" fill="none" xmlns="http://www.w3.org/2000/svg">
<g id="design-icon">
<g id="calendar">
<path id="Vector" d="M13.9592 2.99988V1.69152C13.9592 1.34766 13.6758 1.0625 13.3342 1.0625C12.9925 1.0625 12.7092 1.34766 12.7092 1.69152V2.94956H7.29251V1.69152C7.29251 1.34766 7.00918 1.0625 6.66751 1.0625C6.32584 1.0625 6.04251 1.34766 6.04251 1.69152V2.99988C3.79251 3.20955 2.70084 4.55984 2.53418 6.56432C2.51751 6.80754 2.71751 7.00882 2.95084 7.00882H17.0508C17.2925 7.00882 17.4925 6.79915 17.4675 6.56432C17.3008 4.55984 16.2092 3.20955 13.9592 2.99988Z" fill="#434242"/>
<path id="Vector_2" d="M16.6647 8.26758H3.33138C2.87305 8.26758 2.49805 8.64499 2.49805 9.10627V14.2726C2.49805 16.7887 3.74805 18.4661 6.66471 18.4661H13.3314C16.248 18.4661 17.498 16.7887 17.498 14.2726V9.10627C17.498 8.64499 17.123 8.26758 16.6647 8.26758ZM7.67305 15.2874C7.63138 15.321 7.58971 15.3629 7.54805 15.3881C7.49805 15.4216 7.44805 15.4468 7.39805 15.4636C7.34805 15.4887 7.29805 15.5055 7.24805 15.5139C7.18971 15.5223 7.13971 15.5306 7.08138 15.5306C6.97305 15.5306 6.86471 15.5055 6.76471 15.4636C6.65638 15.4216 6.57305 15.3629 6.48971 15.2874C6.33971 15.1281 6.24805 14.91 6.24805 14.692C6.24805 14.4739 6.33971 14.2558 6.48971 14.0965C6.57305 14.021 6.65638 13.9623 6.76471 13.9204C6.91471 13.8533 7.08138 13.8365 7.24805 13.87C7.29805 13.8784 7.34805 13.8952 7.39805 13.9204C7.44805 13.9371 7.49805 13.9623 7.54805 13.9958C7.58971 14.0294 7.63138 14.0629 7.67305 14.0965C7.82305 14.2558 7.91471 14.4739 7.91471 14.692C7.91471 14.91 7.82305 15.1281 7.67305 15.2874ZM7.67305 12.352C7.51471 12.503 7.29805 12.5952 7.08138 12.5952C6.86471 12.5952 6.64805 12.503 6.48971 12.352C6.33971 12.1927 6.24805 11.9746 6.24805 11.7565C6.24805 11.5385 6.33971 11.3204 6.48971 11.1611C6.72305 10.9262 7.08971 10.8507 7.39805 10.9849C7.50638 11.0269 7.59805 11.0856 7.67305 11.1611C7.82305 11.3204 7.91471 11.5385 7.91471 11.7565C7.91471 11.9746 7.82305 12.1927 7.67305 12.352ZM10.5897 15.2874C10.4314 15.4384 10.2147 15.5306 9.99805 15.5306C9.78138 15.5306 9.56471 15.4384 9.40638 15.2874C9.25638 15.1281 9.16471 14.91 9.16471 14.692C9.16471 14.4739 9.25638 14.2558 9.40638 14.0965C9.71471 13.7862 10.2814 13.7862 10.5897 14.0965C10.7397 14.2558 10.8314 14.4739 10.8314 14.692C10.8314 14.91 10.7397 15.1281 10.5897 15.2874ZM10.5897 12.352C10.548 12.3856 10.5064 12.4191 10.4647 12.4526C10.4147 12.4862 10.3647 12.5114 10.3147 12.5281C10.2647 12.5533 10.2147 12.5701 10.1647 12.5785C10.1064 12.5868 10.0564 12.5952 9.99805 12.5952C9.78138 12.5952 9.56471 12.503 9.40638 12.352C9.25638 12.1927 9.16471 11.9746 9.16471 11.7565C9.16471 11.5385 9.25638 11.3204 9.40638 11.1611C9.48138 11.0856 9.57305 11.0269 9.68138 10.9849C9.98971 10.8507 10.3564 10.9262 10.5897 11.1611C10.7397 11.3204 10.8314 11.5385 10.8314 11.7565C10.8314 11.9746 10.7397 12.1927 10.5897 12.352ZM13.5064 15.2874C13.348 15.4384 13.1314 15.5306 12.9147 15.5306C12.698 15.5306 12.4814 15.4384 12.323 15.2874C12.173 15.1281 12.0814 14.91 12.0814 14.692C12.0814 14.4739 12.173 14.2558 12.323 14.0965C12.6314 13.7862 13.198 13.7862 13.5064 14.0965C13.6564 14.2558 13.748 14.4739 13.748 14.692C13.748 14.91 13.6564 15.1281 13.5064 15.2874ZM13.5064 12.352C13.4647 12.3856 13.423 12.4191 13.3814 12.4526C13.3314 12.4862 13.2814 12.5114 13.2314 12.5281C13.1814 12.5533 13.1314 12.5701 13.0814 12.5785C13.023 12.5868 12.9647 12.5952 12.9147 12.5952C12.698 12.5952 12.4814 12.503 12.323 12.352C12.173 12.1927 12.0814 11.9746 12.0814 11.7565C12.0814 11.5385 12.173 11.3204 12.323 11.1611C12.4064 11.0856 12.4897 11.0269 12.598 10.9849C12.748 10.9178 12.9147 10.9011 13.0814 10.9346C13.1314 10.943 13.1814 10.9598 13.2314 10.9849C13.2814 11.0017 13.3314 11.0269 13.3814 11.0604C13.423 11.094 13.4647 11.1275 13.5064 11.1611C13.6564 11.3204 13.748 11.5385 13.748 11.7565C13.748 11.9746 13.6564 12.1927 13.5064 12.352Z" fill="#434242"/>
</g>
</g>
</svg>
