<svg width="33" height="32" viewBox="0 0 33 32" fill="none" xmlns="http://www.w3.org/2000/svg">
<circle cx="16.2036" cy="16" r="16" fill="#9747FF"/>
<rect width="20" height="20" transform="translate(6.20361 6)" fill="#9747FF"/>
<path d="M22.787 17.25H9.62036C8.37036 17.25 7.87036 17.7833 7.87036 19.1083V22.475C7.87036 23.8 8.37036 24.3333 9.62036 24.3333H22.787C24.037 24.3333 24.537 23.8 24.537 22.475V19.1083C24.537 17.7833 24.037 17.25 22.787 17.25Z" stroke="white" stroke-width="1.5" stroke-linecap="round" stroke-linejoin="round"/>
<path d="M22.787 7.66699H9.62036C8.37036 7.66699 7.87036 8.20033 7.87036 9.52533V12.892C7.87036 14.217 8.37036 14.7503 9.62036 14.7503H22.787C24.037 14.7503 24.537 14.217 24.537 12.892V9.52533C24.537 8.20033 24.037 7.66699 22.787 7.66699Z" stroke="white" stroke-width="1.5" stroke-linecap="round" stroke-linejoin="round"/>
</svg>
