<svg width="37" height="37" viewBox="0 0 37 37" fill="none" xmlns="http://www.w3.org/2000/svg">
<rect x="0.0708008" y="0.5" width="36.0407" height="35.9993" rx="6.00678" fill="#4E4C4D"/>
<path d="M10.7786 8.42188C9.25638 8.42188 8.00732 9.67093 8.00732 11.1931V21.664C8.00732 23.1862 9.25638 24.4342 10.7786 24.4342H21.2445C22.7667 24.4342 24.0158 23.1862 24.0158 21.664V11.1931C24.0158 9.67093 22.7667 8.42188 21.2445 8.42188H10.7786Z" fill="white"/>
<path d="M25.2651 21.9709C25.1552 23.8919 23.4866 25.5361 21.5895 25.6868C18.7432 25.711 15.896 25.6944 13.0492 25.6963C12.571 25.6967 12.1595 26.0908 12.2498 26.5594C12.5097 27.907 13.4951 28.5762 14.8188 28.5762C18.6242 28.5801 21.9157 28.582 25.5259 28.5724C27.0618 28.5334 28.1713 27.0612 28.1713 25.5325C28.1674 22.1587 28.1789 18.7848 28.1717 15.411C28.1715 15.2935 28.1517 15.1053 28.1226 14.9916C27.7746 13.6286 27.0351 12.9266 26.132 12.6744C25.6729 12.5462 25.2769 12.9509 25.2777 13.4292C25.2808 15.259 25.2857 19.5505 25.2651 21.9709Z" fill="white"/>
</svg>
