<svg width="36" height="37" viewBox="0 0 36 37" fill="none" xmlns="http://www.w3.org/2000/svg">
<circle cx="18" cy="18.8203" r="18" fill="#75B94A"/>
<path d="M26.3333 15.9197V12.1363C26.3333 10.9613 25.8 10.4863 24.475 10.4863H21.1083C19.7833 10.4863 19.25 10.9613 19.25 12.1363V15.9113C19.25 17.0947 19.7833 17.5613 21.1083 17.5613H24.475C25.8 17.5697 26.3333 17.0947 26.3333 15.9197Z" fill="white"/>
<path d="M26.3333 25.2953V21.9286C26.3333 20.6036 25.8 20.0703 24.475 20.0703H21.1083C19.7833 20.0703 19.25 20.6036 19.25 21.9286V25.2953C19.25 26.6203 19.7833 27.1536 21.1083 27.1536H24.475C25.8 27.1536 26.3333 26.6203 26.3333 25.2953Z" fill="white"/>
<path d="M16.75 15.9197V12.1363C16.75 10.9613 16.2167 10.4863 14.8917 10.4863H11.525C10.2 10.4863 9.66669 10.9613 9.66669 12.1363V15.9113C9.66669 17.0947 10.2 17.5613 11.525 17.5613H14.8917C16.2167 17.5697 16.75 17.0947 16.75 15.9197Z" fill="white"/>
<path d="M16.75 25.2953V21.9286C16.75 20.6036 16.2167 20.0703 14.8917 20.0703H11.525C10.2 20.0703 9.66669 20.6036 9.66669 21.9286V25.2953C9.66669 26.6203 10.2 27.1536 11.525 27.1536H14.8917C16.2167 27.1536 16.75 26.6203 16.75 25.2953Z" fill="white"/>
</svg>
