<svg width="21" height="21" viewBox="0 0 21 21" fill="none" xmlns="http://www.w3.org/2000/svg">
<path d="M13.5863 2.47891L6.06133 4.97891C1.00299 6.67058 1.00299 9.42891 6.06133 11.1122L8.29466 11.8539L9.03633 14.0872C10.7197 19.1456 13.4863 19.1456 15.1697 14.0872L17.678 6.57058C18.7947 3.19558 16.9613 1.35391 13.5863 2.47891ZM13.853 6.96224L10.6863 10.1456C10.5613 10.2706 10.403 10.3289 10.2447 10.3289C10.0863 10.3289 9.928 10.2706 9.803 10.1456C9.56133 9.90391 9.56133 9.50391 9.803 9.26224L12.9697 6.07891C13.2113 5.83724 13.6113 5.83724 13.853 6.07891C14.0947 6.32058 14.0947 6.72058 13.853 6.96224Z" fill="#434242"/>
</svg>
