<svg width="21" height="21" viewBox="0 0 21 21" fill="none" xmlns="http://www.w3.org/2000/svg">
<path d="M13.5512 2.49471L6.02617 5.01078C0.967839 6.71332 0.967839 9.48939 6.02617 11.1835L8.25951 11.93L9.00117 14.1777C10.6845 19.2685 13.4512 19.2685 15.1345 14.1777L17.6428 6.61268C18.7595 3.21598 16.9262 1.36247 13.5512 2.49471ZM13.8178 7.00687L10.6512 10.2107C10.5262 10.3365 10.3678 10.3952 10.2095 10.3952C10.0512 10.3952 9.89284 10.3365 9.76784 10.2107C9.52617 9.96745 9.52617 9.56488 9.76784 9.32165L12.9345 6.11785C13.1762 5.87463 13.5762 5.87463 13.8178 6.11785C14.0595 6.36107 14.0595 6.76365 13.8178 7.00687Z" fill="#888888"/>
</svg>
