<svg width="36" height="36" viewBox="0 0 36 36" fill="none" xmlns="http://www.w3.org/2000/svg">
<circle cx="18" cy="18" r="18" fill="#75B94A"/>
<path d="M19.4416 10.9242L20.9083 13.8576C21.1083 14.2659 21.6416 14.6576 22.0916 14.7326L24.7499 15.1742C26.4499 15.4576 26.8499 16.6909 25.6249 17.9076L23.5583 19.9742C23.2083 20.3242 23.0166 20.9992 23.1249 21.4826L23.7166 24.0409C24.1833 26.0659 23.1083 26.8492 21.3166 25.7909L18.8249 24.3159C18.3749 24.0492 17.6333 24.0492 17.1749 24.3159L14.6833 25.7909C12.8999 26.8492 11.8166 26.0576 12.2833 24.0409L12.8749 21.4826C12.9833 20.9992 12.7916 20.3242 12.4416 19.9742L10.3749 17.9076C9.15826 16.6909 9.54992 15.4576 11.2499 15.1742L13.9083 14.7326C14.3499 14.6576 14.8833 14.2659 15.0833 13.8576L16.5499 10.9242C17.3499 9.33255 18.6499 9.33255 19.4416 10.9242Z" fill="white"/>
</svg>
