<svg width="41" height="41" viewBox="0 0 41 41" fill="none" xmlns="http://www.w3.org/2000/svg">
<circle cx="20.7036" cy="20.6738" r="20" fill="#EF4848"/>
<path d="M24.582 17.1627L24.3702 16.9916C25.3398 20.096 24.0523 22.4997 23.1235 22.0681C22.6346 21.8399 22.6917 21.0903 22.6917 21.0903V21.0902C22.8859 19.496 22.7641 17.879 22.3332 16.3315C21.9983 15.2992 21.4034 14.3703 20.6057 13.6344C20.1561 13.1545 19.6086 12.7765 19.0005 12.5264C19.0611 13.6553 18.7206 14.7693 18.039 15.6716C17.6747 16.2282 17.2689 16.7567 16.8249 17.2523C15.6515 18.5805 14.1848 20.2345 14.1848 22.671C14.1848 25.5636 16.6293 28.2608 19.5791 28.8227C18.9924 28.4222 18.5973 27.797 18.4872 27.0953C18.4872 27.0953 17.9819 25.1153 19.8887 22.3041C19.8887 22.3041 19.8887 23.673 21.8769 25.0257C22.5327 25.4353 22.9298 26.1553 22.9266 26.9287C22.9232 27.702 22.5199 28.4186 21.8606 28.8226C24.7777 28.2441 27.2223 25.5634 27.2223 22.6709C27.2077 21.6164 26.9641 20.5775 26.5082 19.6264C26.0523 18.6752 25.3953 17.8346 24.5823 17.1627L24.582 17.1627Z" fill="white"/>
<path d="M16.5723 12.7949C16.5723 13.4223 15.9774 13.8949 15.2686 14.7179C15.0607 14.9795 14.9262 15.2918 14.8791 15.6225C14.8317 15.9533 14.8735 16.2907 14.9998 16.6001C18.1368 14.9705 16.5723 12.7951 16.5723 12.7951V12.7949Z" fill="white"/>
</svg>
