<svg width="21" height="21" viewBox="0 0 21 21" fill="none" xmlns="http://www.w3.org/2000/svg">
<path d="M13.5936 1.69336H6.61022C3.57689 1.69336 1.76855 3.51332 1.76855 6.56616V13.5944C1.76855 15.9511 2.84355 17.5698 4.73522 18.182C5.28522 18.3749 5.91855 18.4672 6.61022 18.4672H13.5936C14.2852 18.4672 14.9186 18.3749 15.4686 18.182C17.3602 17.5698 18.4352 15.9511 18.4352 13.5944V6.56616C18.4352 3.51332 16.6269 1.69336 13.5936 1.69336ZM17.1852 13.5944C17.1852 15.3892 16.4852 16.5214 15.0769 16.9911C14.2686 15.3892 12.3519 14.2486 10.1019 14.2486C7.85189 14.2486 5.94355 15.3808 5.12689 16.9911H5.11855C3.72689 16.5382 3.01855 15.3976 3.01855 13.6028V6.56616C3.01855 4.20105 4.26022 2.9514 6.61022 2.9514H13.5936C15.9436 2.9514 17.1852 4.20105 17.1852 6.56616V13.5944Z" fill="#888888"/>
<path d="M10.1015 6.72559C8.4515 6.72559 7.11816 8.06749 7.11816 9.7281C7.11816 11.3887 8.4515 12.739 10.1015 12.739C11.7515 12.739 13.0848 11.3887 13.0848 9.7281C13.0848 8.06749 11.7515 6.72559 10.1015 6.72559Z" fill="#888888"/>
</svg>
