<svg width="134" height="27" viewBox="0 0 134 27" fill="none" xmlns="http://www.w3.org/2000/svg">
<path fill-rule="evenodd" clip-rule="evenodd" d="M133.313 6.21606C133.309 6.14103 133.285 6.06835 133.244 6.00478C133.203 5.94121 133.147 5.88888 133.08 5.85244C132.779 5.70307 132.339 5.60126 131.443 5.60126C129.422 5.60126 127.634 6.5884 126.854 8.24014V6.22253C126.854 6.18093 126.846 6.13971 126.83 6.10124C126.813 6.06276 126.79 6.0279 126.76 5.99844C126.73 5.96898 126.695 5.94555 126.656 5.9296C126.617 5.91365 126.575 5.90542 126.532 5.90542H123.505C123.463 5.90542 123.421 5.91365 123.382 5.9296C123.343 5.94555 123.308 5.96898 123.278 5.99844C123.248 6.0279 123.224 6.06276 123.208 6.10124C123.192 6.13971 123.184 6.18093 123.184 6.22253V19.824C123.184 19.9983 123.327 20.14 123.505 20.14H126.677C126.719 20.14 126.761 20.1319 126.8 20.116C126.838 20.1001 126.874 20.0768 126.904 20.0474C126.934 20.0181 126.957 19.9832 126.973 19.9449C126.99 19.9065 126.998 19.8655 126.998 19.824V13.7063C126.998 10.9732 128.93 9.6148 131.443 9.6148C132.029 9.6148 132.615 9.74258 132.909 9.83784C133.11 9.90278 133.313 9.74033 133.313 9.53143V6.21606ZM113.052 16.8019C110.884 16.8019 109.208 15.2942 109.208 13.0169C109.208 10.7395 110.885 9.23057 113.052 9.23057C115.218 9.23057 116.894 10.7395 116.894 13.0169C116.894 15.2942 115.218 16.803 113.052 16.803V16.8019ZM113.052 5.55687C108.602 5.55687 105.28 8.57577 105.28 13.0169C105.28 17.4579 108.603 20.4757 113.052 20.4757C117.499 20.4757 120.822 17.4579 120.822 13.0179C120.822 8.57575 117.499 5.55687 113.052 5.55687ZM95.4096 16.803C93.2421 16.803 91.5663 15.2942 91.5663 13.0169C91.5663 10.7395 93.2421 9.23057 95.4096 9.23057C97.5761 9.23057 99.2507 10.7395 99.2507 13.0169C99.2507 15.2942 97.5761 16.803 95.4096 16.803ZM95.4096 5.55687C90.9601 5.55687 87.6372 8.57577 87.6372 13.0169C87.6372 17.4579 90.9601 20.4757 95.4096 20.4757C99.857 20.4757 103.18 17.4579 103.18 13.0169C103.18 8.57577 99.857 5.55687 95.4096 5.55687ZM77.7918 16.8376C75.6253 16.8376 74.0068 15.3288 74.0068 13.0233C74.0068 10.7167 75.6253 9.20785 77.7918 9.20785C79.9307 9.20785 81.5768 10.6605 81.5768 13.0233C81.5768 15.357 79.9307 16.8376 77.7918 16.8376ZM84.9535 0.211995H81.7825C81.6973 0.211995 81.6156 0.245344 81.5554 0.304617C81.4951 0.36389 81.4613 0.444222 81.4613 0.528046V7.95553C80.4787 6.58846 78.8612 5.53414 76.609 5.53414C73.0836 5.53414 70.0787 8.21207 70.0787 13.0233C70.0787 17.8346 73.0826 20.5103 76.6651 20.5103C78.7744 20.5103 80.4215 19.5989 81.4623 18.1474V19.824C81.4623 19.9983 81.6054 20.14 81.7814 20.14H84.9535C85.1296 20.14 85.2737 19.9993 85.2737 19.824V0.528046C85.2737 0.444409 85.2401 0.364255 85.18 0.305013C85.12 0.245771 85.0386 0.212281 84.9535 0.211995ZM67.9783 15.8311C67.9783 19.0783 65.5808 20.4723 61.7397 20.4723C59.0847 20.4723 56.8016 19.7688 55.4955 18.3119C55.4462 18.2548 55.4184 18.1826 55.417 18.1076C55.4156 18.0327 55.4406 17.9595 55.4878 17.9006L57.3209 15.5561C57.3492 15.5207 57.3849 15.4917 57.4257 15.4713C57.4664 15.4508 57.5112 15.4393 57.557 15.4376C57.6027 15.4358 57.6483 15.4438 57.6905 15.4611C57.7328 15.4784 57.7707 15.5046 57.8017 15.5377C58.7699 16.5151 60.2598 17.1126 62.1149 17.1126C63.1822 17.1126 64.0492 16.829 64.0492 16.0312C64.0492 15.2627 63.2702 15.0918 60.8429 14.5787C58.7051 14.1523 56.0468 13.1846 56.0468 10.0813C56.0468 7.20542 58.3595 5.55475 62.1423 5.55475C64.6323 5.55475 66.4225 6.29512 67.6834 7.45978C67.8044 7.57127 67.8155 7.7596 67.7132 7.88841L65.9735 10.1139C65.9481 10.148 65.9157 10.1765 65.8784 10.1978C65.8411 10.219 65.7997 10.2323 65.7569 10.237C65.7141 10.2417 65.6707 10.2376 65.6296 10.225C65.5885 10.2123 65.5505 10.1914 65.518 10.1635C64.6653 9.41343 63.2471 8.94266 61.8541 8.94266C60.6702 8.94266 60.0056 9.31289 60.0056 9.93852C60.0056 10.6507 60.7868 10.8217 63.3571 11.3629C65.869 11.9041 67.9783 12.8425 67.9783 15.8321V15.8311ZM53.3158 15.8397C53.3158 19.0858 50.9172 20.4811 47.0761 20.4811C44.4222 20.4811 42.1391 19.7774 40.833 18.3194C40.7838 18.2625 40.7561 18.1906 40.7545 18.1158C40.7529 18.0411 40.7775 17.9681 40.8242 17.9092L42.6573 15.5636C42.6858 15.5285 42.7216 15.4997 42.7624 15.4795C42.8032 15.4592 42.848 15.4479 42.8937 15.4463C42.9394 15.4447 42.9849 15.4527 43.0271 15.47C43.0693 15.4872 43.1072 15.5133 43.1382 15.5463C44.1075 16.5226 45.5973 17.1213 47.4513 17.1213C48.5197 17.1213 49.3867 16.8377 49.3867 16.0389C49.3867 15.2704 48.6066 15.1004 46.1805 14.5873C44.0415 14.1598 41.3832 13.1921 41.3832 10.0899C41.3832 7.214 43.696 5.56334 47.4799 5.56334C49.9688 5.56334 51.7579 6.30263 53.0199 7.46837C53.1409 7.57986 53.1519 7.76711 53.0506 7.897L51.31 10.1224C51.2 10.2632 50.9909 10.2913 50.8556 10.1723C50.0018 9.42215 48.5846 8.95019 47.1917 8.95019C46.0066 8.95019 45.342 9.32148 45.342 9.94711C45.342 10.6593 46.1233 10.8304 48.6935 11.3716C51.2066 11.9117 53.3148 12.8511 53.3148 15.8397H53.3158ZM34.3105 14.3893C34.3105 15.9544 33.0122 17.3215 30.9888 17.3215C29.6596 17.3215 28.9378 16.7229 28.9378 15.8115C28.9378 15.0149 29.5452 14.4163 30.7291 14.2453L34.3105 13.8189V14.3882V14.3893ZM31.7986 5.59148C28.7728 5.59148 26.4941 6.58945 25.4753 8.56266C25.4416 8.63113 25.4336 8.70912 25.4528 8.78279C25.4719 8.85646 25.5169 8.92116 25.5797 8.96539L27.8915 10.5933C28.0367 10.6951 28.2413 10.6615 28.3283 10.5067C28.9708 9.36799 30.4078 8.97939 31.7986 8.97939C33.5029 8.97939 34.3105 9.57695 34.3105 10.4028V10.6301C34.3105 10.9721 34.1092 11.1431 33.5601 11.2005L29.6024 11.5415C26.9452 11.7969 24.9812 13.4206 24.9812 16.0108C24.9812 18.6302 27.0025 20.4517 29.8621 20.4517C32.1155 20.4517 33.5601 19.3705 34.3105 18.2318V19.8511C34.3105 20.0264 34.4536 20.1682 34.6318 20.1682H37.8029C37.8881 20.1682 37.9698 20.1348 38.0301 20.0756C38.0903 20.0163 38.1241 19.936 38.1241 19.8521V11.3705C38.1241 7.41328 36.0149 5.59148 31.7975 5.59148H31.7986ZM22.3647 0.526989V19.8229C22.3647 19.9972 22.2217 20.139 22.0434 20.139H18.8438C18.7586 20.139 18.6768 20.1056 18.6166 20.0464C18.5563 19.9871 18.5225 19.9068 18.5225 19.8229V0.521572C18.5225 0.349471 18.6633 0.210938 18.8372 0.210938H22.0434C22.2206 0.210938 22.3647 0.351641 22.3647 0.526989ZM7.89151 16.8226C5.72394 16.8226 4.10651 15.3136 4.10651 13.0081C4.10651 10.7026 5.72504 9.19265 7.89151 9.19265C10.0591 9.19265 11.6468 10.6453 11.6468 13.0081C11.6468 15.3418 10.058 16.8226 7.89151 16.8226ZM15.0522 5.89023H11.8856C11.7992 5.89023 11.7164 5.92408 11.6553 5.98417C11.5942 6.04425 11.5599 6.12567 11.5599 6.21064V7.88405C10.7511 6.60249 9.07541 5.54828 6.85172 5.54828C3.26918 5.54828 0.178467 8.19687 0.178467 12.9518C0.178467 17.6765 3.12502 20.2668 6.96723 20.2668C9.04678 20.2668 10.6642 19.4127 11.6181 18.0749V18.9862C11.6181 21.0351 10.6059 22.6588 7.37104 22.6588C5.74482 22.6588 4.43878 22.1252 3.29338 21.1261C3.25918 21.0951 3.21839 21.0719 3.17397 21.0582C3.12956 21.0445 3.08267 21.0407 3.03657 21.047C2.99048 21.0533 2.94635 21.0696 2.90743 21.0947C2.86851 21.1198 2.83574 21.1531 2.81147 21.1922L1.3756 23.5648C1.18965 23.8711 1.21491 24.0443 1.33154 24.145C2.80813 25.4082 4.72707 26.1885 7.5163 26.1885C13.5822 26.1885 15.3735 22.8591 15.3735 19.1854V6.20747C15.3736 6.16587 15.3654 6.12464 15.3494 6.08617C15.3333 6.0477 15.3096 6.01271 15.2798 5.98324C15.2499 5.95378 15.2145 5.93036 15.1754 5.91441C15.1364 5.89845 15.0945 5.89023 15.0522 5.89023Z" fill="#4A9918"/>
</svg>
