<svg width="159" height="41" viewBox="0 0 159 41" fill="none" xmlns="http://www.w3.org/2000/svg">
<path d="M21.5848 17.8295H13.2381V20.3062H19.1581C18.8648 23.7729 15.9761 25.2609 13.2481 25.2609C12.3839 25.2647 11.5276 25.0963 10.7291 24.7655C9.93071 24.4347 9.20619 23.9482 8.59785 23.3343C7.98952 22.7205 7.50957 21.9916 7.18602 21.1902C6.86248 20.3888 6.70182 19.531 6.71343 18.6669C6.71343 14.9175 9.61609 12.0309 13.2561 12.0309C16.0641 12.0309 17.7188 13.8209 17.7188 13.8209L19.4521 12.0249C19.4521 12.0249 17.2254 9.54688 13.1654 9.54688C7.99543 9.54688 3.99609 13.9102 3.99609 18.6229C3.99609 23.2409 7.75809 27.7442 13.2961 27.7442C18.1674 27.7442 21.7334 24.4069 21.7334 19.4722C21.7334 18.4309 21.5821 17.8295 21.5821 17.8295H21.5848Z" fill="#4885ED"/>
<path d="M28.4227 16.0358C24.9974 16.0358 22.5427 18.7138 22.5427 21.8358C22.5427 25.0052 24.9227 27.7325 28.4627 27.7325C31.6667 27.7325 34.2914 25.2838 34.2914 21.9038C34.2914 18.0372 31.2381 16.0352 28.4227 16.0352V16.0358ZM28.4561 18.3332C30.1401 18.3332 31.7361 19.6952 31.7361 21.8892C31.7361 24.0358 30.1467 25.4372 28.4481 25.4372C26.5814 25.4372 25.1147 23.9425 25.1147 21.8718C25.1147 19.8452 26.5681 18.3332 28.4614 18.3332H28.4561Z" fill="#DB3236"/>
<path d="M41.2101 16.0358C37.7847 16.0358 35.3301 18.7138 35.3301 21.8358C35.3301 25.0052 37.7101 27.7325 41.2501 27.7325C44.4541 27.7325 47.0787 25.2838 47.0787 21.9038C47.0787 18.0372 44.0254 16.0352 41.2101 16.0352V16.0358ZM41.2434 18.3332C42.9274 18.3332 44.5234 19.6952 44.5234 21.8892C44.5234 24.0358 42.9341 25.4372 41.2354 25.4372C39.3687 25.4372 37.9021 23.9425 37.9021 21.8718C37.9021 19.8452 39.3554 18.3332 41.2487 18.3332H41.2434Z" fill="#F4C20D"/>
<path d="M53.7521 16.043C50.6081 16.043 48.1375 18.7963 48.1375 21.887C48.1375 25.407 51.0021 27.7416 53.6974 27.7416C55.3641 27.7416 56.2508 27.0796 56.8975 26.3203V27.4736C56.8975 29.4916 55.6721 30.7003 53.8228 30.7003C52.0361 30.7003 51.1401 29.3716 50.8228 28.6183L48.5748 29.5516C49.3721 31.2383 50.9775 32.9963 53.8415 32.9963C56.9748 32.9963 59.3495 31.0276 59.3495 26.8983V16.3943H56.9068V17.385C56.1535 16.5716 55.1214 16.043 53.7534 16.043H53.7521ZM53.9788 18.3363C55.5201 18.3363 57.1028 19.6523 57.1028 21.8996C57.1028 24.1843 55.5228 25.443 53.9448 25.443C52.2688 25.443 50.7095 24.083 50.7095 21.921C50.7095 19.6756 52.3295 18.3363 53.9788 18.3363Z" fill="#4885ED"/>
<path d="M70.2666 16.0293C67.3013 16.0293 64.8113 18.3893 64.8113 21.8693C64.8113 25.5533 67.5866 27.738 70.5446 27.738C73.0193 27.738 74.5446 26.3846 75.4446 25.1713L73.4226 23.826C72.8979 24.6393 72.0206 25.436 70.5573 25.436C68.9133 25.436 68.1573 24.536 67.6886 23.6626L75.5306 20.4093L75.1306 19.456C74.3733 17.5893 72.6053 16.0293 70.2666 16.0293ZM70.3686 18.2786C71.4373 18.2786 72.2059 18.8466 72.5326 19.528L67.2953 21.7166C67.0686 20.022 68.6753 18.2786 70.3619 18.2786H70.3686Z" fill="#DB3236"/>
<path d="M61.0667 27.3903H63.6426V10.1523H61.0667V27.3903Z" fill="#3CBA54"/>
<path d="M92.848 26.6992L89.968 21.6952H88.402V26.6992H86.35V14.1892H90.67C91.63 14.1892 92.44 14.3572 93.1 14.6932C93.772 15.0292 94.27 15.4792 94.594 16.0432C94.93 16.6072 95.098 17.2372 95.098 17.9332C95.098 18.7492 94.858 19.4932 94.378 20.1652C93.91 20.8252 93.184 21.2752 92.2 21.5152L95.296 26.6992H92.848ZM88.402 20.0572H90.67C91.438 20.0572 92.014 19.8652 92.398 19.4812C92.794 19.0972 92.992 18.5812 92.992 17.9332C92.992 17.2852 92.8 16.7812 92.416 16.4212C92.032 16.0492 91.45 15.8632 90.67 15.8632H88.402V20.0572ZM106.813 21.4972C106.813 21.8692 106.789 22.2052 106.741 22.5052H99.163C99.223 23.2972 99.517 23.9332 100.045 24.4132C100.573 24.8932 101.221 25.1332 101.989 25.1332C103.093 25.1332 103.873 24.6712 104.329 23.7472H106.543C106.243 24.6592 105.697 25.4092 104.905 25.9972C104.125 26.5732 103.153 26.8612 101.989 26.8612C101.041 26.8612 100.189 26.6512 99.433 26.2312C98.689 25.7992 98.101 25.1992 97.669 24.4312C97.249 23.6512 97.039 22.7512 97.039 21.7312C97.039 20.7112 97.243 19.8172 97.651 19.0492C98.071 18.2692 98.653 17.6692 99.397 17.2492C100.153 16.8292 101.017 16.6192 101.989 16.6192C102.925 16.6192 103.759 16.8232 104.491 17.2312C105.223 17.6392 105.793 18.2152 106.201 18.9592C106.609 19.6912 106.813 20.5372 106.813 21.4972ZM104.671 20.8492C104.659 20.0932 104.389 19.4872 103.861 19.0312C103.333 18.5752 102.679 18.3472 101.899 18.3472C101.191 18.3472 100.585 18.5752 100.081 19.0312C99.577 19.4752 99.277 20.0812 99.181 20.8492H104.671ZM112.666 24.8632L115.474 16.7812H117.652L113.872 26.6992H111.424L107.662 16.7812H109.858L112.666 24.8632ZM120.248 15.4672C119.876 15.4672 119.564 15.3412 119.312 15.0892C119.06 14.8372 118.934 14.5252 118.934 14.1532C118.934 13.7812 119.06 13.4692 119.312 13.2172C119.564 12.9652 119.876 12.8392 120.248 12.8392C120.608 12.8392 120.914 12.9652 121.166 13.2172C121.418 13.4692 121.544 13.7812 121.544 14.1532C121.544 14.5252 121.418 14.8372 121.166 15.0892C120.914 15.3412 120.608 15.4672 120.248 15.4672ZM121.256 16.7812V26.6992H119.204V16.7812H121.256ZM133.04 21.4972C133.04 21.8692 133.016 22.2052 132.968 22.5052H125.39C125.45 23.2972 125.744 23.9332 126.272 24.4132C126.8 24.8932 127.448 25.1332 128.216 25.1332C129.32 25.1332 130.1 24.6712 130.556 23.7472H132.77C132.47 24.6592 131.924 25.4092 131.132 25.9972C130.352 26.5732 129.38 26.8612 128.216 26.8612C127.268 26.8612 126.416 26.6512 125.66 26.2312C124.916 25.7992 124.328 25.1992 123.896 24.4312C123.476 23.6512 123.266 22.7512 123.266 21.7312C123.266 20.7112 123.47 19.8172 123.878 19.0492C124.298 18.2692 124.88 17.6692 125.624 17.2492C126.38 16.8292 127.244 16.6192 128.216 16.6192C129.152 16.6192 129.986 16.8232 130.718 17.2312C131.45 17.6392 132.02 18.2152 132.428 18.9592C132.836 19.6912 133.04 20.5372 133.04 21.4972ZM130.898 20.8492C130.886 20.0932 130.616 19.4872 130.088 19.0312C129.56 18.5752 128.906 18.3472 128.126 18.3472C127.418 18.3472 126.812 18.5752 126.308 19.0312C125.804 19.4752 125.504 20.0812 125.408 20.8492H130.898ZM148.379 16.7812L145.301 26.6992H143.141L141.143 19.3732L139.145 26.6992H136.985L133.889 16.7812H135.977L138.047 24.7552L140.153 16.7812H142.295L144.311 24.7192L146.363 16.7812H148.379ZM153.513 26.8612C152.733 26.8612 152.031 26.7232 151.407 26.4472C150.795 26.1592 150.309 25.7752 149.949 25.2952C149.589 24.8032 149.397 24.2572 149.373 23.6572H151.497C151.533 24.0772 151.731 24.4312 152.091 24.7192C152.463 24.9952 152.925 25.1332 153.477 25.1332C154.053 25.1332 154.497 25.0252 154.809 24.8092C155.133 24.5812 155.295 24.2932 155.295 23.9452C155.295 23.5732 155.115 23.2972 154.755 23.1172C154.407 22.9372 153.849 22.7392 153.081 22.5232C152.337 22.3192 151.731 22.1212 151.263 21.9292C150.795 21.7372 150.387 21.4432 150.039 21.0472C149.703 20.6512 149.535 20.1292 149.535 19.4812C149.535 18.9532 149.691 18.4732 150.003 18.0412C150.315 17.5972 150.759 17.2492 151.335 16.9972C151.923 16.7452 152.595 16.6192 153.351 16.6192C154.479 16.6192 155.385 16.9072 156.069 17.4832C156.765 18.0472 157.137 18.8212 157.185 19.8052H155.133C155.097 19.3612 154.917 19.0072 154.593 18.7432C154.269 18.4792 153.831 18.3472 153.279 18.3472C152.739 18.3472 152.325 18.4492 152.037 18.6532C151.749 18.8572 151.605 19.1272 151.605 19.4632C151.605 19.7272 151.701 19.9492 151.893 20.1292C152.085 20.3092 152.319 20.4532 152.595 20.5612C152.871 20.6572 153.279 20.7832 153.819 20.9392C154.539 21.1312 155.127 21.3292 155.583 21.5332C156.051 21.7252 156.453 22.0132 156.789 22.3972C157.125 22.7812 157.299 23.2912 157.311 23.9272C157.311 24.4912 157.155 24.9952 156.843 25.4392C156.531 25.8832 156.087 26.2312 155.511 26.4832C154.947 26.7352 154.281 26.8612 153.513 26.8612Z" fill="#434242"/>
</svg>
