<svg width="26" height="25" viewBox="0 0 26 25" fill="none" xmlns="http://www.w3.org/2000/svg">
<path d="M17.8635 0.199219H7.86371C3.79971 0.199219 0.493408 3.50552 0.493408 7.56952V17.5693C0.493408 21.6333 3.79971 24.9396 7.86371 24.9396H17.8635C21.9275 24.9396 25.2338 21.6333 25.2338 17.5693V7.56952C25.2338 3.50552 21.9275 0.199219 17.8635 0.199219ZM22.7449 17.5693C22.7449 20.2652 20.5594 22.4508 17.8635 22.4508H7.86371C5.1678 22.4508 2.98229 20.2652 2.98229 17.5693V7.56952C2.98229 4.87357 5.1678 2.6881 7.86371 2.6881H17.8635C20.5594 2.6881 22.7449 4.87357 22.7449 7.56952V17.5693Z" fill="white"/>
<path d="M12.8638 6.1709C9.33556 6.1709 6.46509 9.04137 6.46509 12.5696C6.46509 16.0978 9.33556 18.9684 12.8638 18.9684C16.3921 18.9684 19.2626 16.0979 19.2626 12.5696C19.2626 9.04133 16.3921 6.1709 12.8638 6.1709ZM12.8638 16.4795C10.7045 16.4795 8.95397 14.729 8.95397 12.5697C8.95397 10.4103 10.7045 8.65978 12.8638 8.65978C15.0232 8.65978 16.7737 10.4103 16.7737 12.5697C16.7737 14.729 15.0232 16.4795 12.8638 16.4795Z" fill="white"/>
<path d="M19.2742 7.75209C20.121 7.75209 20.8075 7.06562 20.8075 6.21882C20.8075 5.37202 20.121 4.68555 19.2742 4.68555C18.4274 4.68555 17.741 5.37202 17.741 6.21882C17.741 7.06562 18.4274 7.75209 19.2742 7.75209Z" fill="white"/>
</svg>
