<svg width="36" height="37" viewBox="0 0 36 37" fill="none" xmlns="http://www.w3.org/2000/svg">
<circle cx="18" cy="18.7734" r="18" fill="#FFA500"/>
<path d="M18 10.4395C13.4084 10.4395 9.66669 14.1811 9.66669 18.7728C9.66669 23.3645 13.4084 27.1061 18 27.1061C22.5917 27.1061 26.3334 23.3645 26.3334 18.7728C26.3334 14.1811 22.5917 10.4395 18 10.4395ZM21.625 21.7478C21.5084 21.9478 21.3 22.0561 21.0834 22.0561C20.975 22.0561 20.8667 22.0311 20.7667 21.9645L18.1834 20.4228C17.5417 20.0395 17.0667 19.1978 17.0667 18.4561V15.0395C17.0667 14.6978 17.35 14.4145 17.6917 14.4145C18.0334 14.4145 18.3167 14.6978 18.3167 15.0395V18.4561C18.3167 18.7561 18.5667 19.1978 18.825 19.3478L21.4084 20.8895C21.7084 21.0645 21.8084 21.4478 21.625 21.7478Z" fill="white"/>
</svg>
