<svg width="33" height="32" viewBox="0 0 33 32" fill="none" xmlns="http://www.w3.org/2000/svg">
<circle cx="16.2026" cy="16" r="16" fill="#75B94A"/>
<mask id="path-2-inside-1_316_8059" fill="white">
<path d="M16.2034 21.7183C16.0197 21.7183 15.8419 21.6946 15.6937 21.6413C13.43 20.865 9.83301 18.1094 9.83301 14.0383C9.83301 11.9642 11.51 10.2812 13.5723 10.2812C14.5737 10.2812 15.51 10.6724 16.2034 11.3716C16.8967 10.6724 17.833 10.2812 18.8345 10.2812C20.8967 10.2812 22.5737 11.9701 22.5737 14.0383C22.5737 18.1153 18.9767 20.865 16.713 21.6413C16.5649 21.6946 16.3871 21.7183 16.2034 21.7183ZM13.5723 11.1701C12.0019 11.1701 10.7219 12.4561 10.7219 14.0383C10.7219 18.0857 14.6152 20.3375 15.9841 20.8057C16.0908 20.8413 16.3219 20.8413 16.4286 20.8057C17.7915 20.3375 21.6908 18.0916 21.6908 14.0383C21.6908 12.4561 20.4108 11.1701 18.8404 11.1701C17.9397 11.1701 17.1041 11.5909 16.5649 12.3198C16.3989 12.545 16.0197 12.545 15.8537 12.3198C15.3026 11.585 14.473 11.1701 13.5723 11.1701Z"/>
</mask>
<path d="M16.2034 21.7183C16.0197 21.7183 15.8419 21.6946 15.6937 21.6413C13.43 20.865 9.83301 18.1094 9.83301 14.0383C9.83301 11.9642 11.51 10.2812 13.5723 10.2812C14.5737 10.2812 15.51 10.6724 16.2034 11.3716C16.8967 10.6724 17.833 10.2812 18.8345 10.2812C20.8967 10.2812 22.5737 11.9701 22.5737 14.0383C22.5737 18.1153 18.9767 20.865 16.713 21.6413C16.5649 21.6946 16.3871 21.7183 16.2034 21.7183ZM13.5723 11.1701C12.0019 11.1701 10.7219 12.4561 10.7219 14.0383C10.7219 18.0857 14.6152 20.3375 15.9841 20.8057C16.0908 20.8413 16.3219 20.8413 16.4286 20.8057C17.7915 20.3375 21.6908 18.0916 21.6908 14.0383C21.6908 12.4561 20.4108 11.1701 18.8404 11.1701C17.9397 11.1701 17.1041 11.5909 16.5649 12.3198C16.3989 12.545 16.0197 12.545 15.8537 12.3198C15.3026 11.585 14.473 11.1701 13.5723 11.1701Z" fill="#292D32"/>
<path d="M15.6937 21.6413L16.2018 20.2299L16.1911 20.2261L16.1803 20.2224L15.6937 21.6413ZM16.2034 11.3716L15.1382 12.4278L16.2034 13.502L17.2685 12.4278L16.2034 11.3716ZM16.713 21.6413L16.2264 20.2224L16.2156 20.2261L16.2049 20.2299L16.713 21.6413ZM15.9841 20.8057L15.4987 22.225L15.5098 22.2287L15.9841 20.8057ZM16.4286 20.8057L16.9029 22.2288L16.9158 22.2243L16.4286 20.8057ZM16.5649 12.3198L15.359 11.4276L15.3573 11.43L16.5649 12.3198ZM15.8537 12.3198L17.0614 11.4299L17.0537 11.4198L15.8537 12.3198ZM16.2034 20.2183C16.1896 20.2183 16.1781 20.2178 16.1691 20.2172C16.1601 20.2166 16.1547 20.2159 16.1527 20.2156C16.1507 20.2153 16.1537 20.2157 16.1612 20.2175C16.1687 20.2193 16.1826 20.223 16.2018 20.2299L15.1857 23.0526C15.5448 23.1819 15.9061 23.2183 16.2034 23.2183V20.2183ZM16.1803 20.2224C15.2886 19.9166 14.0364 19.1747 13.0222 18.0639C12.0216 16.968 11.333 15.6064 11.333 14.0383H8.33301C8.33301 16.5413 9.44296 18.593 10.8068 20.0867C12.157 21.5656 13.8352 22.5896 15.2072 23.0601L16.1803 20.2224ZM11.333 14.0383C11.333 12.7865 12.3446 11.7812 13.5723 11.7812V8.78125C10.6754 8.78125 8.33301 11.142 8.33301 14.0383H11.333ZM13.5723 11.7812C14.1763 11.7812 14.7284 12.0144 15.1382 12.4278L17.2685 10.3155C16.2917 9.33029 14.9711 8.78125 13.5723 8.78125V11.7812ZM17.2685 12.4278C17.6784 12.0144 18.2304 11.7812 18.8345 11.7812V8.78125C17.4356 8.78125 16.1151 9.33029 15.1382 10.3155L17.2685 12.4278ZM18.8345 11.7812C20.0606 11.7812 21.0737 12.7908 21.0737 14.0383H24.0737C24.0737 11.1494 21.7328 8.78125 18.8345 8.78125V11.7812ZM21.0737 14.0383C21.0737 15.6097 20.3849 16.9712 19.3848 18.0658C18.3711 19.1755 17.119 19.9163 16.2264 20.2224L17.1996 23.0601C18.5708 22.5899 20.249 21.5678 21.5997 20.0893C22.9641 18.5958 24.0737 16.5439 24.0737 14.0383H21.0737ZM16.2049 20.2299C16.2242 20.223 16.2381 20.2193 16.2455 20.2175C16.253 20.2157 16.256 20.2153 16.254 20.2156C16.2521 20.2159 16.2467 20.2166 16.2376 20.2172C16.2287 20.2178 16.2172 20.2183 16.2034 20.2183V23.2183C16.5006 23.2183 16.862 23.1819 17.2211 23.0526L16.2049 20.2299ZM13.5723 9.67014C11.1654 9.67014 9.2219 11.6357 9.2219 14.0383H12.2219C12.2219 13.2764 12.8384 12.6701 13.5723 12.6701V9.67014ZM9.2219 14.0383C9.2219 16.5838 10.455 18.5206 11.787 19.8328C13.1002 21.1265 14.6127 21.922 15.4987 22.225L16.4695 19.3864C15.9866 19.2213 14.868 18.6568 13.8924 17.6956C12.9355 16.753 12.2219 15.5402 12.2219 14.0383H9.2219ZM15.5098 22.2287C15.7912 22.3225 16.0656 22.3324 16.2063 22.3324C16.3471 22.3324 16.6215 22.3225 16.9029 22.2287L15.9542 19.3827C16.063 19.3464 16.1407 19.3375 16.1564 19.3357C16.1829 19.3326 16.1989 19.3324 16.2063 19.3324C16.2138 19.3324 16.2298 19.3326 16.2563 19.3357C16.272 19.3375 16.3497 19.3464 16.4585 19.3827L15.5098 22.2287ZM16.9158 22.2243C17.7964 21.9219 19.3084 21.1288 20.6228 19.8357C21.9558 18.5242 23.1908 16.5871 23.1908 14.0383H20.1908C20.1908 15.5428 19.4761 16.7553 18.5188 17.6972C17.5428 18.6574 16.4237 19.2214 15.9413 19.387L16.9158 22.2243ZM23.1908 14.0383C23.1908 11.6357 21.2473 9.67014 18.8404 9.67014V12.6701C19.5743 12.6701 20.1908 13.2764 20.1908 14.0383H23.1908ZM18.8404 9.67014C17.4629 9.67014 16.1804 10.3174 15.359 11.4276L17.7707 13.2119C18.0278 12.8644 18.4165 12.6701 18.8404 12.6701V9.67014ZM15.3573 11.43C15.6063 11.092 15.9586 10.9887 16.2093 10.9887C16.46 10.9887 16.8123 11.092 17.0613 11.43L14.6462 13.2096C15.0611 13.7727 15.686 13.9887 16.2093 13.9887C16.7326 13.9887 17.3575 13.7727 17.7724 13.2096L15.3573 11.43ZM17.0537 11.4198C16.2224 10.3113 14.9502 9.67014 13.5723 9.67014V12.6701C13.9958 12.6701 14.3828 12.8586 14.6537 13.2198L17.0537 11.4198Z" fill="white" mask="url(#path-2-inside-1_316_8059)"/>
</svg>
