<svg width="24" height="23" viewBox="0 0 24 23" fill="none" xmlns="http://www.w3.org/2000/svg">
<path d="M5.37441 22.6269H0.641489V7.94453H5.37441V22.6269ZM3.0054 5.94172C1.49197 5.94172 0.264404 4.73414 0.264404 3.27621C0.264404 1.81792 1.49159 0.635742 3.0054 0.635742C4.51921 0.635742 5.7464 1.81792 5.7464 3.27621C5.7464 4.73414 4.51832 5.94172 3.0054 5.94172ZM23.0882 22.6269H18.3655V15.4796C18.3655 13.7762 18.3298 11.5918 15.9047 11.5918C13.444 11.5918 13.0669 13.4424 13.0669 15.3569V22.6269H8.33911V7.94453H12.8784V9.94734H12.9446C13.5765 8.79376 15.12 7.57636 17.4228 7.57636C22.2128 7.57636 23.0933 10.6149 23.0933 14.5617V22.6269H23.0882Z" fill="white"/>
</svg>
