<svg width="21" height="21" viewBox="0 0 21 21" fill="none" xmlns="http://www.w3.org/2000/svg">
<path d="M17.2845 7.10361C16.4095 3.22885 13.0512 1.48438 10.1012 1.48438C10.1012 1.48438 10.1012 1.48438 10.0928 1.48438C7.15115 1.48438 3.78449 3.22047 2.90949 7.09522C1.93449 11.4229 4.56782 15.0879 6.95115 17.3943C7.83449 18.2498 8.96782 18.6775 10.1012 18.6775C11.2345 18.6775 12.3678 18.2498 13.2428 17.3943C15.6262 15.0879 18.2595 11.4313 17.2845 7.10361ZM10.1012 11.3055C8.65115 11.3055 7.47615 10.1229 7.47615 8.66357C7.47615 7.20425 8.65115 6.0217 10.1012 6.0217C11.5512 6.0217 12.7262 7.20425 12.7262 8.66357C12.7262 10.1229 11.5512 11.3055 10.1012 11.3055Z" fill="#888888"/>
</svg>
