<svg width="28" height="28" viewBox="0 0 28 28" fill="none" xmlns="http://www.w3.org/2000/svg">
<path d="M25.6672 9.64899V4.93565C25.6672 3.08065 24.9205 2.33398 23.0655 2.33398H18.3522C16.4972 2.33398 15.7505 3.08065 15.7505 4.93565V9.64899C15.7505 11.504 16.4972 12.2507 18.3522 12.2507H23.0655C24.9205 12.2507 25.6672 11.504 25.6672 9.64899Z" stroke="#202020" stroke-width="1.5" stroke-linecap="round" stroke-linejoin="round"/>
<path d="M12.2504 9.94065V4.64398C12.2504 2.99898 11.5037 2.33398 9.64874 2.33398H4.93541C3.08041 2.33398 2.33374 2.99898 2.33374 4.64398V9.92898C2.33374 11.5857 3.08041 12.239 4.93541 12.239H9.64874C11.5037 12.2507 12.2504 11.5857 12.2504 9.94065Z" stroke="#202020" stroke-width="1.5" stroke-linecap="round" stroke-linejoin="round"/>
<path d="M12.2504 23.065V18.3517C12.2504 16.4967 11.5037 15.75 9.64874 15.75H4.93541C3.08041 15.75 2.33374 16.4967 2.33374 18.3517V23.065C2.33374 24.92 3.08041 25.6667 4.93541 25.6667H9.64874C11.5037 25.6667 12.2504 24.92 12.2504 23.065Z" stroke="#202020" stroke-width="1.5" stroke-linecap="round" stroke-linejoin="round"/>
<path d="M17.5005 18.084H24.5005" stroke="#202020" stroke-width="1.5" stroke-linecap="round"/>
<path d="M17.5005 22.75H24.5005" stroke="#202020" stroke-width="1.5" stroke-linecap="round"/>
</svg>
