<svg width="15" height="18" viewBox="0 0 15 18" fill="none" xmlns="http://www.w3.org/2000/svg">
<path d="M7.34741 7.11904C7.34741 6.1607 7.34741 3.24219 4.76701 3.24219C2.48089 3.24219 0.815002 5.23385 0.815002 7.98961C0.779178 9.07603 1.02051 10.1537 1.51647 11.1212C1.72495 11.5114 1.86265 11.9355 1.92364 12.3738L6.8339 12.0356L6.83373 12.0355C6.72591 11.6687 6.66282 11.2901 6.64587 10.9081C6.65811 10.4028 6.75561 9.90314 6.93404 9.4301C7.20822 8.69056 7.3482 7.90786 7.34732 7.11902L7.34741 7.11904Z" fill="#434242"/>
<path d="M4.55373 17.2465H4.76676C5.43449 17.2346 6.07283 16.969 6.552 16.5038C7.03118 16.0386 7.31547 15.4085 7.3471 14.7413C7.33889 14.2445 7.27161 13.7504 7.14666 13.2695L1.92324 13.6265H1.92342C1.90507 14.1034 1.92604 14.581 1.98598 15.0544C2.05395 15.6783 2.3575 16.2527 2.83494 16.6603C3.31219 17.0676 3.92713 17.2775 4.5538 17.2465L4.55373 17.2465Z" fill="#434242"/>
<path d="M14.9826 5.49742C14.9826 2.74157 13.3167 0.75 11.0306 0.75C8.4502 0.75 8.4502 3.66851 8.4502 4.62685V4.62703C8.45002 5.41376 8.59 6.19419 8.86348 6.93185C9.0419 7.40489 9.13942 7.9045 9.15165 8.40989C9.13417 8.83471 9.06252 9.25568 8.93863 9.66251L13.8739 9.91311C13.9362 9.475 14.0739 9.05121 14.2811 8.66049C14.7823 7.6838 15.0238 6.59456 14.9826 5.49749L14.9826 5.49742Z" fill="#434242"/>
<path d="M8.44922 12.2423C8.48085 12.9095 8.76517 13.5395 9.24432 14.0048C9.72349 14.47 10.3618 14.7356 11.0296 14.7475H11.2426C11.8684 14.7785 12.4825 14.5696 12.9595 14.1635C13.4368 13.7574 13.741 13.1845 13.8104 12.5617C13.8703 12.0904 13.8913 11.6147 13.873 11.14L8.6245 10.877C8.51511 11.3241 8.45621 11.782 8.44922 12.2423Z" fill="#434242"/>
</svg>
