<svg width="18" height="16" viewBox="0 0 18 16" fill="none" xmlns="http://www.w3.org/2000/svg">
<path d="M16.0484 0.666016H1.74849C1.45666 0.666016 1.17685 0.781878 0.970571 0.98815C0.764297 1.19442 0.648438 1.47424 0.648438 1.76607V14.2326C0.648438 14.5245 0.7643 14.8043 0.970571 15.0106C1.17685 15.2168 1.45666 15.3327 1.74849 15.3327H16.0484C16.3402 15.3327 16.62 15.2168 16.8263 15.0106C17.0326 14.8043 17.1484 14.5245 17.1484 14.2326V1.76607C17.1484 1.47424 17.0326 1.19443 16.8263 0.98815C16.62 0.781875 16.3402 0.666016 16.0484 0.666016ZM7.52345 1.76607C7.74225 1.76607 7.95212 1.8529 8.10684 2.00764C8.26158 2.16238 8.34841 2.37224 8.34841 2.59103C8.34841 2.80984 8.26158 3.0197 8.10684 3.17429C7.9521 3.32903 7.74223 3.41599 7.52345 3.41599C7.30466 3.41599 7.09478 3.32903 6.94006 3.17429C6.78532 3.01968 6.69849 2.80982 6.69849 2.59103C6.69798 2.3721 6.78468 2.162 6.93955 2.00712C7.09441 1.85225 7.3045 1.76556 7.52345 1.76607ZM5.3235 1.76607C5.5423 1.76607 5.75217 1.8529 5.90675 2.00764C6.06149 2.16238 6.14845 2.37224 6.14845 2.59103C6.14845 2.80984 6.06149 3.0197 5.90675 3.17429C5.75214 3.32903 5.54228 3.41599 5.3235 3.41599C5.10469 3.41599 4.89483 3.32903 4.74011 3.17429C4.58537 3.01968 4.49854 2.80982 4.49854 2.59103C4.49803 2.3721 4.58473 2.162 4.7396 2.00712C4.89446 1.85225 5.10455 1.76556 5.3235 1.76607ZM3.12354 1.76607C3.34235 1.76607 3.55208 1.8529 3.7068 2.00764C3.86154 2.16238 3.9485 2.37224 3.9485 2.59103C3.9485 2.80984 3.86154 3.0197 3.7068 3.17429C3.55206 3.32903 3.34233 3.41599 3.12354 3.41599C2.90474 3.41599 2.69487 3.32903 2.54016 3.17429C2.38542 3.01968 2.29846 2.80982 2.29846 2.59103C2.29807 2.3721 2.38478 2.162 2.53964 2.00712C2.69438 1.85225 2.9045 1.76556 3.12354 1.76607ZM15.4985 13.4993C15.4985 13.5479 15.4791 13.5946 15.4447 13.629C15.4103 13.6634 15.3637 13.6827 15.3151 13.6827H2.48183C2.38055 13.6827 2.29845 13.6006 2.29845 13.4993V4.69938C2.29845 4.5981 2.38055 4.51613 2.48183 4.51613H15.3151C15.3637 4.51613 15.4103 4.53544 15.4447 4.56971C15.4791 4.60411 15.4985 4.65079 15.4985 4.69938V13.4993Z" fill="#D3317D"/>
<path d="M11.2272 8.65935L7.14083 6.4117C7.01064 6.33996 6.8522 6.34213 6.72395 6.41733C6.59569 6.49252 6.51652 6.62974 6.51562 6.77833V11.4039C6.51652 11.5526 6.59568 11.6897 6.72395 11.7649C6.85221 11.8402 7.01066 11.8422 7.14083 11.7705L11.2272 9.52654C11.331 9.46925 11.4109 9.37653 11.4524 9.2654C11.4937 9.15414 11.4937 9.03176 11.4524 8.92051C11.4109 8.80925 11.331 8.71664 11.2272 8.65935Z" fill="#D3317D"/>
</svg>
