<svg width="514" height="451" viewBox="0 0 514 451" fill="none" xmlns="http://www.w3.org/2000/svg">
<path d="M52.5957 167.772V130.618L123.006 30.1633H172.316V128.783H189.975V167.772H172.316V195.294H126.905V167.772H52.5957ZM130.345 80.8493L98.6947 128.783H130.345V80.8493Z" fill="#F5F5F5"/>
<path d="M208.416 109.059C208.416 82.7605 213.768 62.0427 224.471 46.9057C235.174 31.7687 251.993 24.2002 274.927 24.2002C297.862 24.2002 314.681 31.7687 325.384 46.9057C336.24 62.0427 341.668 82.7605 341.668 109.059C341.668 135.664 336.316 156.534 325.613 171.671C314.911 186.808 298.015 194.377 274.927 194.377C251.84 194.377 234.944 186.808 224.241 171.671C213.691 156.534 208.416 135.664 208.416 109.059ZM297.174 109.059C297.174 95.2982 295.722 84.8246 292.817 77.6384C289.912 70.2992 283.949 66.6296 274.927 66.6296C265.906 66.6296 259.943 70.2992 257.038 77.6384C254.133 84.8246 252.681 95.2982 252.681 109.059C252.681 123.126 254.057 133.829 256.809 141.168C259.714 148.354 265.754 151.947 274.927 151.947C284.101 151.947 290.064 148.354 292.817 141.168C295.722 133.829 297.174 123.126 297.174 109.059Z" fill="#F5F5F5"/>
<path d="M361.902 167.772V130.618L432.312 30.1633H481.622V128.783H499.282V167.772H481.622V195.294H436.211V167.772H361.902ZM439.652 80.8493L408.001 128.783H439.652V80.8493Z" fill="#F5F5F5"/>
<g clip-path="url(#clip0_2075_18119)">
<path d="M415.721 428.278C415.721 428.278 462.302 405.234 470.312 393.205C478.322 381.177 466.548 380.531 466.548 380.531C466.548 380.531 487.335 360.25 484.411 351.71C481.486 343.171 470.57 351.329 470.57 351.329C470.57 351.329 484.083 321.136 477.781 318.151C466.041 312.564 449.574 344.684 449.574 344.684C449.574 344.684 453.115 330.731 445.014 331.182C432.824 331.869 433.328 363.428 433.328 363.428C433.328 363.428 431.951 351.326 424.604 355.257C411.435 362.296 415.721 428.278 415.721 428.278Z" fill="#E7E5E6"/>
<path d="M423.48 350.405C431.454 347.999 433.302 356.861 433.302 356.861C433.302 356.861 432.84 331.853 445.03 331.167C453.116 330.716 449.59 344.668 449.59 344.668C449.59 344.668 466.057 312.551 477.797 318.135L415.683 427.762C415.23 420.107 412.011 353.869 423.48 350.405Z" fill="#D4D2D3"/>
<path d="M416.926 428.561C416.926 428.561 455.022 433.309 464.886 429.079C474.751 424.849 467.68 419.625 467.68 419.625C467.68 419.625 488.862 415.45 490.479 408.932C492.097 402.415 482.004 403.052 482.004 403.052C482.004 403.052 502.654 389.74 499.94 385.297C494.884 377.026 471.605 390.344 471.605 390.344C471.605 390.344 479.463 383.086 474.237 380.072C466.355 375.531 453.888 395.422 453.888 395.422C453.888 395.422 454.66 390.518 448.486 389.975C437.421 388.996 416.926 428.561 416.926 428.561Z" fill="#E7E5E6"/>
<path d="M447.957 388.673C454.131 389.216 453.9 395.419 453.9 395.419C453.9 395.419 466.364 375.528 474.249 380.07C479.475 383.083 471.617 390.341 471.617 390.341C471.617 390.341 494.896 377.023 499.952 385.294L416.816 428.35C419.637 423.398 437.609 387.761 447.957 388.673Z" fill="#D4D2D3"/>
<path d="M490.078 430.723C490.078 429.839 489.607 429.119 489.026 429.119H9.13398C8.41656 429.119 7.83594 429.839 7.83594 430.723C7.83594 431.608 8.41656 432.327 9.13398 432.327H489.02C489.601 432.327 490.072 431.611 490.072 430.723H490.078Z" fill="#C1C1C1"/>
<path d="M110.841 428.378C110.841 428.378 50.1214 398.344 39.6793 382.666C29.2373 366.987 44.5888 366.111 44.5888 366.111C44.5888 366.111 17.491 339.673 21.3031 328.545C25.1151 317.416 39.3419 328.05 39.3419 328.05C39.3419 328.05 21.7287 288.709 29.9456 284.799C45.2454 277.513 66.7102 319.38 66.7102 319.38C66.7102 319.38 62.0987 301.191 72.635 301.783C88.5246 302.673 87.871 343.815 87.871 343.815C87.871 343.815 89.6646 328.041 99.2433 333.165C116.428 342.369 110.841 428.378 110.841 428.378Z" fill="#E7E5E6"/>
<path d="M102.489 328.868C94.1109 323.9 87.7179 335.577 87.7179 335.577C87.7179 335.577 88.5205 302.676 72.6309 301.786C62.0945 301.194 66.7061 319.383 66.7061 319.383C66.7061 319.383 45.2413 277.516 29.9414 284.802L110.909 427.71C111.484 417.738 113.621 335.464 102.489 328.868Z" fill="#D4D2D3"/>
<path d="M109.271 428.753C109.271 428.753 59.6115 434.941 46.7527 429.424C33.8938 423.907 43.1048 417.1 43.1048 417.1C43.1048 417.1 15.4933 411.656 13.3653 403.159C11.2374 394.663 24.4154 395.495 24.4154 395.495C24.4154 395.495 -2.503 378.139 1.03545 372.351C7.62901 361.57 37.9734 378.932 37.9734 378.932C37.9734 378.932 27.7319 369.478 34.5413 365.541C44.8162 359.618 61.0676 385.547 61.0676 385.547C61.0676 385.547 60.0583 379.143 68.108 378.447C82.5567 377.175 109.271 428.753 109.271 428.753Z" fill="#E7E5E6"/>
<path d="M68.0786 374.126C60.032 374.833 61.0868 385.538 61.0868 385.538C61.0868 385.538 46.6989 357.883 34.515 365.138C27.7603 369.161 37.1293 378.557 37.1293 378.557C37.1293 378.557 7.64217 361.561 1.05469 372.342L109.437 428.457C105.74 422.007 81.5697 372.948 68.0786 374.126Z" fill="#D4D2D3"/>
<path d="M397.919 381.833H135.287C125.255 381.833 117.123 374.727 117.123 365.974V356.529C117.123 347.767 125.255 340.67 135.287 340.67H397.935C385.924 352.14 385.714 369.673 397.454 381.357L397.919 381.833Z" fill="#989898"/>
<path d="M394.242 345.379H262.085C252.983 345.379 245.605 352.485 245.605 361.238C245.605 370.003 252.983 377.096 262.085 377.096H394.257C391.239 372.362 389.634 366.86 389.632 361.24C389.629 355.62 391.229 350.117 394.242 345.379Z" fill="#BFBFBE"/>
<path d="M437.184 379.664H106.33C96.0579 379.664 87.7285 387.526 87.7285 397.228V411.998C87.7285 421.699 96.0579 429.561 106.33 429.561H437.184L437.011 429.39C422.86 415.483 422.936 393.483 437.184 379.664Z" fill="#545153"/>
<path d="M431.33 387.051H254.462C244.187 387.051 235.857 394.913 235.857 404.611C235.857 414.313 244.187 422.175 254.462 422.175H431.327C428.138 416.875 426.453 410.803 426.454 404.612C426.454 398.422 428.14 392.35 431.33 387.051Z" fill="#BFBFBE"/>
<path d="M329.347 404.703H315.847C314.453 404.704 313.117 405.26 312.132 406.249C311.147 407.237 310.594 408.578 310.594 409.976V410.449H329.347V404.703Z" fill="#3B314A"/>
<path d="M316.398 404.724C319.624 404.724 324.442 407.468 327.16 410.841L359.176 450.674H377.978L347.53 412.793C343.949 408.335 337.596 404.724 333.343 404.727L316.398 404.724Z" fill="#545153"/>
<path d="M100.84 92.2467C100.796 92.3825 100.716 92.5033 100.607 92.5955C100.499 92.6877 100.367 92.7476 100.226 92.7685C100.085 92.7895 99.9416 92.7705 99.8111 92.7139C99.6806 92.6573 99.5684 92.5652 99.4873 92.448L96.3258 87.8733H90.7658C90.6256 87.8711 90.4887 87.8304 90.37 87.7555C90.2513 87.6806 90.1553 87.5744 90.0926 87.4486C90.0299 87.3228 90.0028 87.1821 90.0143 87.0419C90.0258 86.9017 90.0754 86.7673 90.1578 86.6534L93.5291 82.2221L91.7994 76.9217C91.7549 76.7858 91.7493 76.6401 91.7831 76.5012C91.8169 76.3623 91.8888 76.2357 91.9907 76.1357C92.0926 76.0357 92.2204 75.9663 92.3596 75.9354C92.4988 75.9045 92.6438 75.9134 92.7782 75.961L98.0221 77.7908L102.512 74.5032C102.627 74.418 102.764 74.3669 102.906 74.3558C103.049 74.3447 103.192 74.3741 103.319 74.4405C103.445 74.507 103.551 74.6079 103.623 74.7317C103.696 74.8554 103.732 74.9971 103.728 75.1406L103.6 80.7156L108.102 83.9819C108.218 84.0655 108.308 84.1799 108.362 84.3121C108.416 84.4444 108.432 84.5891 108.408 84.73C108.384 84.871 108.322 85.0024 108.228 85.1095C108.133 85.2166 108.011 85.295 107.874 85.3359L102.549 86.9462L100.84 92.2467Z" fill="#D4D2D3"/>
<path d="M479.855 98.1099L482.114 101.873C482.169 101.965 482.248 102.039 482.343 102.088C482.438 102.137 482.545 102.158 482.651 102.149C482.757 102.14 482.859 102.102 482.944 102.038C483.03 101.974 483.096 101.887 483.135 101.788L484.74 97.6982L488.996 96.707C489.1 96.6827 489.195 96.6299 489.27 96.5544C489.345 96.4789 489.398 96.3837 489.423 96.2797C489.447 96.1757 489.442 96.067 489.408 95.9657C489.374 95.8645 489.312 95.7748 489.23 95.7067L485.862 92.9253L486.239 88.5459C486.249 88.4389 486.228 88.3314 486.18 88.2356C486.131 88.1397 486.057 88.0594 485.966 88.0038C485.874 87.9482 485.769 87.9195 485.662 87.921C485.555 87.9224 485.45 87.954 485.36 88.0122L481.67 90.3757L477.636 88.6557C477.538 88.6135 477.43 88.5997 477.324 88.616C477.218 88.6323 477.119 88.678 477.038 88.7479C476.957 88.8177 476.897 88.909 476.866 89.0113C476.834 89.1136 476.831 89.2228 476.858 89.3266L477.955 93.5963L475.085 96.89C475.015 96.9709 474.969 97.0699 474.952 97.1757C474.936 97.2815 474.949 97.3899 474.99 97.4887C475.032 97.5874 475.1 97.6725 475.187 97.7344C475.274 97.7962 475.377 97.8323 475.484 97.8385L479.855 98.1099Z" fill="#D4D2D3"/>
<path d="M471.69 154.281C473.201 155.737 474.248 157.61 474.699 159.663C475.149 161.716 474.982 163.857 474.22 165.815C473.457 167.772 472.133 169.46 470.415 170.663C468.697 171.866 466.662 172.53 464.567 172.573C462.472 172.616 460.412 172.034 458.646 170.902C456.881 169.77 455.49 168.138 454.649 166.213C453.808 164.288 453.555 162.155 453.921 160.086C454.288 158.016 455.259 156.102 456.71 154.586C457.673 153.579 458.825 152.772 460.1 152.212C461.374 151.652 462.746 151.349 464.137 151.321C465.528 151.292 466.911 151.539 468.207 152.047C469.503 152.555 470.687 153.314 471.69 154.281Z" fill="#D4D2D3"/>
<path d="M471.459 163.168L466.95 164.556L465.534 169.072C465.508 169.154 465.46 169.228 465.395 169.284C465.33 169.34 465.25 169.376 465.165 169.389C465.08 169.402 464.994 169.391 464.915 169.357C464.836 169.323 464.768 169.268 464.719 169.197L462.011 165.327L457.293 165.37C457.207 165.371 457.122 165.349 457.049 165.304C456.975 165.26 456.916 165.196 456.877 165.119C456.839 165.042 456.822 164.956 456.83 164.871C456.838 164.785 456.87 164.703 456.922 164.635L459.755 160.85L458.253 156.373C458.226 156.292 458.222 156.204 458.241 156.12C458.261 156.037 458.304 155.96 458.365 155.9C458.425 155.839 458.502 155.797 458.585 155.777C458.669 155.758 458.756 155.763 458.837 155.791L463.299 157.315L467.087 154.497C467.156 154.445 467.238 154.414 467.324 154.406C467.41 154.399 467.496 154.415 467.573 154.455C467.65 154.494 467.714 154.555 467.758 154.629C467.802 154.704 467.825 154.789 467.823 154.876L467.747 159.606L471.589 162.351C471.659 162.401 471.713 162.469 471.745 162.549C471.778 162.628 471.788 162.715 471.775 162.8C471.761 162.884 471.724 162.964 471.669 163.029C471.613 163.094 471.54 163.142 471.459 163.168Z" fill="white"/>
<path d="M394.823 50.5414L394.293 54.4699C392.996 63.9091 390.029 73.0372 385.533 81.4256L385.034 82.3601C385.034 82.3601 388.96 88.4088 395.126 84.7465C397.274 74.986 400.628 65.5347 405.111 56.6116L406.9 53.5247L394.823 50.5414Z" fill="#D4D2D3"/>
<path d="M406.893 53.5309C406.682 54.1515 403.813 53.9788 400.49 53.1461C397.168 52.3134 394.611 51.1264 394.831 50.5189C395.05 49.9114 397.937 50.0641 401.26 50.8968C404.583 51.7296 407.107 52.9091 406.893 53.5309Z" fill="#888888"/>
<path d="M406.883 53.551C406.883 53.551 399.53 52.4363 397.725 50.995L397.347 52.1874C398.374 52.5699 399.423 52.8937 400.487 53.1573C403.773 53.9876 406.615 54.1478 406.883 53.551Z" fill="#706F6F"/>
<path d="M399.943 68.4341C399.268 68.9856 396.136 71.096 391.345 67.6031C391.142 68.247 390.929 68.8899 390.708 69.5318C393.879 71.6342 396.485 71.6355 398.153 71.2412C398.415 71.1781 398.745 71.0894 399.016 70.9971C399.316 70.1386 399.625 69.2843 399.943 68.4341Z" fill="#888888"/>
<path d="M392.537 67.307L387.551 60.5142L387.345 63.2322L384.75 63.7775L391.452 68.6256L392.537 67.307Z" fill="#888888"/>
<path d="M391.337 69.2453L385.014 70.4668L387.01 71.5651L386.098 73.3335L391.666 70.6858L391.337 69.2453Z" fill="#888888"/>
<path d="M390.842 71.1075C389.831 70.0219 390.013 68.2292 391.252 67.1035C392.491 65.9777 394.309 65.9501 395.318 67.03C396.326 68.1099 396.133 69.9069 394.904 71.0226C393.674 72.1384 391.851 72.1903 390.842 71.1075Z" fill="#706F6F"/>
<path d="M463.91 303.728L467.008 302.712L469.185 307.531L473.893 306.607L476.11 309.947L477.794 308.818L474.83 304.356L470.367 305.229L468.102 300.218L463.445 301.743L463.91 303.728Z" fill="#D4D2D3"/>
<path d="M76.3464 188.621C75.401 187.358 74.3583 186.718 73.2457 186.718C66.9227 186.718 65.5 205.407 65.5 211.951C65.5 219.42 66.3269 225.84 67.8863 230.521C69.3242 234.834 71.2302 237.207 73.2913 237.207C75.4648 237.207 77.4499 234.462 78.8817 229.524C82.5387 216.88 81.1859 195.105 76.3464 188.621ZM77.6232 229.378C76.4072 233.477 74.7656 235.923 73.2457 235.923C71.7257 235.923 70.0903 233.483 68.8713 229.378C67.5094 224.803 66.7616 218.621 66.7616 211.951C66.7616 205.282 67.5094 199.094 68.8713 194.525C70.0872 190.429 71.7257 187.983 73.2457 187.983C74.7656 187.983 76.4042 190.423 77.6232 194.525C78.982 199.1 79.7329 205.285 79.7329 211.951C79.7329 218.618 78.979 224.809 77.6201 229.378H77.6232Z" fill="#D4D2D3"/>
<path d="M94.7291 218.93C89.6737 210.516 66.3029 197.987 55.6571 197.987C53.2039 197.987 51.6049 198.664 50.9027 199.997C50.2461 201.241 50.465 202.794 51.5563 204.608C56.6269 213.05 79.9642 225.603 90.5735 225.603C93.048 225.603 94.6653 224.914 95.3796 223.56C96.0423 222.312 95.8235 220.751 94.7291 218.93ZM94.4069 222.764C94.0238 223.709 92.7106 224.212 90.607 224.212C83.2352 224.212 66.464 217.914 55.8973 207.667C51.8664 203.757 51.4864 201.778 51.8785 200.808C52.2707 199.839 53.5687 199.375 55.6754 199.375C59.5999 199.375 65.7314 201.077 72.0757 203.925C79.2377 207.143 85.7553 211.397 90.3942 215.908C94.419 219.808 94.799 221.791 94.4069 222.764Z" fill="#D4D2D3"/>
<path d="M94.948 199.719C94.2154 198.365 92.6194 197.679 90.2057 197.679C85.3783 197.679 77.1675 200.57 68.7804 205.227C60.3933 209.884 53.7268 215.236 51.3648 219.213C50.2887 221.043 50.0728 222.568 50.7264 223.769C51.4408 225.093 53.0185 225.764 55.417 225.764C65.9503 225.764 89.2147 212.979 94.3278 204.388C95.41 202.54 95.6228 200.969 94.948 199.719ZM83.1592 213.034C75.7053 218.252 66.993 222.296 59.8583 223.855C58.3936 224.2 56.8968 224.389 55.3927 224.419C53.5049 224.419 52.2737 223.986 51.8329 223.169C51.3921 222.351 51.5958 221.266 52.4105 219.893C54.5567 216.273 60.9435 211.076 68.6801 206.657C76.9912 201.909 85.0652 199.072 90.2817 199.072C92.6741 199.072 93.957 199.704 94.0877 200.945C94.3582 203.452 90.0659 208.197 83.1592 213.034Z" fill="#D4D2D3"/>
<path d="M77.2919 211.195C77.2913 211.994 77.0547 212.774 76.6121 213.438C76.1695 214.101 75.5407 214.618 74.8052 214.924C74.0697 215.229 73.2605 215.308 72.48 215.152C71.6994 214.996 70.9825 214.611 70.42 214.046C69.8574 213.481 69.4744 212.762 69.3193 211.979C69.1642 211.196 69.2441 210.384 69.5489 209.646C69.8536 208.909 70.3694 208.278 71.0313 207.835C71.6931 207.391 72.4711 207.154 73.267 207.154C73.7958 207.154 74.3195 207.259 74.808 207.462C75.2965 207.665 75.7403 207.963 76.1141 208.338C76.4879 208.713 76.7843 209.159 76.9864 209.649C77.1885 210.139 77.2923 210.665 77.2919 211.195Z" fill="#D4D2D3"/>
<path d="M72.09 192.266C72.09 192.865 71.913 193.45 71.5813 193.948C71.2496 194.446 70.7781 194.834 70.2265 195.064C69.675 195.293 69.068 195.353 68.4825 195.236C67.8969 195.119 67.359 194.831 66.9369 194.407C66.5147 193.984 66.2272 193.444 66.1107 192.857C65.9943 192.269 66.054 191.66 66.2825 191.107C66.511 190.553 66.8979 190.08 67.3943 189.748C67.8907 189.415 68.4743 189.237 69.0714 189.237C69.8717 189.238 70.639 189.557 71.205 190.125C71.7709 190.693 72.0892 191.463 72.09 192.266Z" fill="#D4D2D3"/>
<path d="M78.8881 230.713C80.2783 230.713 81.4052 229.583 81.4052 228.188C81.4052 226.794 80.2783 225.663 78.8881 225.663C77.498 225.663 76.3711 226.794 76.3711 228.188C76.3711 229.583 77.498 230.713 78.8881 230.713Z" fill="#D4D2D3"/>
<path d="M56.9971 216.075C56.9965 216.591 56.8435 217.095 56.5576 217.523C56.2716 217.952 55.8655 218.285 55.3905 218.482C54.9155 218.679 54.393 218.73 53.889 218.629C53.385 218.529 52.9222 218.28 52.559 217.915C52.1958 217.55 51.9486 217.086 51.8485 216.58C51.7485 216.074 51.8002 215.55 51.997 215.074C52.1938 214.598 52.5269 214.19 52.9543 213.904C53.3816 213.618 53.884 213.465 54.3979 213.465C54.7395 213.465 55.0778 213.532 55.3933 213.664C55.7088 213.795 55.9955 213.987 56.2369 214.23C56.4783 214.472 56.6697 214.76 56.8001 215.077C56.9305 215.393 56.9975 215.733 56.9971 216.075Z" fill="#D4D2D3"/>
<path d="M95.4981 204.422C95.4981 204.844 95.3733 205.257 95.1394 205.608C94.9056 205.959 94.5733 206.233 94.1845 206.394C93.7956 206.556 93.3678 206.598 92.955 206.516C92.5422 206.433 92.1631 206.23 91.8655 205.932C91.5679 205.633 91.3652 205.253 91.2831 204.838C91.201 204.424 91.2431 203.995 91.4042 203.605C91.5652 203.215 91.838 202.881 92.1879 202.647C92.5379 202.412 92.9493 202.287 93.3701 202.287C93.9345 202.287 94.4757 202.512 94.8748 202.912C95.2739 203.313 95.4981 203.856 95.4981 204.422Z" fill="#D4D2D3"/>
<path d="M63.8184 199.927C63.8184 200.349 63.6936 200.762 63.4598 201.113C63.2259 201.464 62.8936 201.738 62.5048 201.899C62.1159 202.061 61.6881 202.103 61.2753 202.021C60.8625 201.938 60.4834 201.735 60.1858 201.436C59.8882 201.138 59.6855 200.757 59.6034 200.343C59.5213 199.929 59.5634 199.5 59.7245 199.11C59.8855 198.72 60.1583 198.386 60.5082 198.152C60.8582 197.917 61.2696 197.792 61.6904 197.792C62.2548 197.792 62.7961 198.017 63.1951 198.417C63.5942 198.818 63.8184 199.361 63.8184 199.927Z" fill="#D4D2D3"/>
<path d="M506.157 244.497L496.07 247.807L496.638 249.549L506.725 246.239L506.157 244.497Z" fill="#888888"/>
<path d="M487.99 224.342L482.695 234.215L484.304 235.083L489.599 225.21L487.99 224.342Z" fill="#888888"/>
<path d="M491.672 266.309L490.283 267.5L497.862 276.396L499.25 275.205L491.672 266.309Z" fill="#888888"/>
<path d="M491.593 267.085L473.235 272.062L459.373 260.507L460.54 259.095L473.673 270.043L490.11 265.587L494.806 248.619L482.677 235.599L484.015 234.346L496.84 248.118L491.593 267.085Z" fill="#888888"/>
<path d="M463.78 258.28C464.072 259.107 464.112 260.001 463.897 260.851C463.682 261.7 463.221 262.466 462.571 263.053C461.922 263.639 461.114 264.019 460.249 264.145C459.384 264.27 458.502 264.136 457.713 263.758C456.925 263.381 456.266 262.777 455.819 262.023C455.373 261.27 455.159 260.401 455.205 259.525C455.251 258.65 455.555 257.808 456.078 257.106C456.601 256.404 457.32 255.873 458.144 255.581C458.691 255.387 459.27 255.302 459.85 255.332C460.429 255.362 460.997 255.507 461.52 255.758C462.044 256.009 462.513 256.36 462.9 256.793C463.288 257.226 463.587 257.731 463.78 258.28Z" fill="#D4D2D3"/>
<path d="M477.674 270.202C477.966 271.029 478.007 271.923 477.792 272.773C477.576 273.622 477.115 274.389 476.466 274.975C475.816 275.561 475.008 275.941 474.143 276.067C473.279 276.192 472.396 276.058 471.608 275.68C470.82 275.303 470.16 274.699 469.714 273.946C469.267 273.192 469.054 272.323 469.1 271.448C469.146 270.572 469.45 269.73 469.973 269.028C470.496 268.326 471.215 267.796 472.039 267.503C473.143 267.112 474.357 267.176 475.414 267.682C476.47 268.188 477.284 269.095 477.674 270.202Z" fill="#D4D2D3"/>
<path d="M495.075 264.893C495.366 265.719 495.407 266.613 495.192 267.463C494.977 268.313 494.515 269.079 493.866 269.665C493.217 270.252 492.409 270.632 491.544 270.757C490.679 270.883 489.797 270.748 489.008 270.371C488.22 269.993 487.561 269.389 487.114 268.636C486.668 267.883 486.454 267.013 486.5 266.138C486.546 265.263 486.85 264.421 487.373 263.719C487.896 263.017 488.615 262.486 489.439 262.194C489.986 261.999 490.565 261.915 491.144 261.946C491.723 261.976 492.291 262.121 492.814 262.371C493.338 262.622 493.807 262.974 494.195 263.406C494.583 263.839 494.882 264.344 495.075 264.893Z" fill="#D4D2D3"/>
<path d="M503.985 275.503C504.277 276.329 504.317 277.224 504.102 278.073C503.887 278.923 503.426 279.689 502.776 280.276C502.127 280.862 501.319 281.242 500.454 281.368C499.589 281.493 498.707 281.359 497.919 280.981C497.13 280.603 496.471 280 496.025 279.246C495.578 278.493 495.364 277.623 495.41 276.748C495.457 275.873 495.76 275.031 496.283 274.329C496.806 273.627 497.525 273.096 498.349 272.804C498.896 272.61 499.475 272.525 500.054 272.556C500.634 272.586 501.201 272.731 501.725 272.982C502.248 273.232 502.717 273.584 503.105 274.017C503.493 274.449 503.792 274.954 503.985 275.503Z" fill="#D4D2D3"/>
<path d="M513.467 243.291C513.759 244.118 513.8 245.012 513.585 245.862C513.369 246.711 512.908 247.478 512.259 248.064C511.609 248.65 510.801 249.03 509.936 249.156C509.072 249.281 508.189 249.147 507.401 248.769C506.612 248.392 505.953 247.788 505.507 247.035C505.06 246.281 504.847 245.412 504.893 244.537C504.939 243.661 505.243 242.819 505.766 242.117C506.289 241.415 507.008 240.885 507.831 240.592C508.936 240.202 510.149 240.266 511.206 240.772C512.263 241.278 513.076 242.184 513.467 243.291Z" fill="#D4D2D3"/>
<path d="M494.675 221.608C494.966 222.434 495.007 223.328 494.792 224.178C494.577 225.027 494.115 225.794 493.466 226.38C492.816 226.966 492.008 227.346 491.143 227.472C490.279 227.598 489.396 227.463 488.608 227.085C487.82 226.708 487.16 226.104 486.714 225.351C486.268 224.597 486.054 223.728 486.1 222.853C486.146 221.977 486.45 221.135 486.973 220.433C487.496 219.731 488.215 219.201 489.039 218.909C489.585 218.714 490.165 218.63 490.744 218.66C491.323 218.691 491.891 218.836 492.414 219.086C492.937 219.337 493.407 219.689 493.794 220.121C494.182 220.554 494.481 221.059 494.675 221.608Z" fill="#D4D2D3"/>
<path d="M500.717 246.686C501.009 247.512 501.05 248.407 500.835 249.256C500.619 250.106 500.158 250.872 499.509 251.458C498.859 252.045 498.051 252.425 497.186 252.55C496.322 252.676 495.439 252.541 494.651 252.164C493.862 251.786 493.203 251.182 492.757 250.429C492.31 249.676 492.097 248.806 492.143 247.931C492.189 247.056 492.493 246.214 493.016 245.512C493.539 244.81 494.258 244.279 495.081 243.987C496.186 243.595 497.4 243.66 498.457 244.166C499.513 244.672 500.327 245.578 500.717 246.686Z" fill="#D4D2D3"/>
<path d="M487.661 233.172C487.952 233.999 487.993 234.893 487.778 235.743C487.563 236.592 487.101 237.358 486.452 237.945C485.803 238.531 484.994 238.911 484.13 239.037C483.265 239.162 482.383 239.028 481.594 238.65C480.806 238.273 480.147 237.669 479.7 236.916C479.254 236.162 479.04 235.293 479.086 234.417C479.132 233.542 479.436 232.7 479.959 231.998C480.482 231.296 481.201 230.765 482.025 230.473C483.129 230.082 484.343 230.147 485.399 230.653C486.456 231.159 487.269 232.065 487.661 233.172Z" fill="#D4D2D3"/>
<path d="M79.3965 153.179L82.634 153.515L82.6705 158.803L87.3459 159.883L88.0177 163.835L90.0119 163.494L89.1151 158.205L84.6829 157.184L84.6464 151.682L79.7734 151.176L79.3965 153.179Z" fill="#D4D2D3"/>
<path d="M208.582 230.555L199.736 259.076L171.879 218.182V218.145C171.879 218.145 161.655 212.933 159.093 212.445C156.804 212.012 149.459 211.317 148.31 212.549C148.257 212.463 148.173 212.4 148.076 212.372C147.103 212.125 145.31 215.422 145.057 216.224C144.805 217.026 146.827 221.677 147.009 222.019C147.191 222.36 146.489 222.558 145.602 222.22C144.714 221.881 141.929 218.661 141.929 218.661C141.929 218.661 141.662 213.449 139.99 213.476C138.318 213.504 139.838 220.021 139.838 220.021L141.461 222.202L139.057 220.741C139.057 220.741 137.412 217.234 136.974 217.417C136.537 217.6 135.95 219.381 136.862 221.22C137.774 223.059 139.75 225.059 139.75 225.059L143.398 226.941C143.398 226.941 139.16 226.572 137.926 225.623C136.692 224.675 136.172 226.008 137.16 227.148C138.148 228.289 143.732 230.216 147.264 230.598C150.797 230.979 161.804 230.698 163.376 230.406C164.662 230.168 167.054 229.796 168.24 230.466C169.802 235.041 183.394 284.752 199.837 290.565C199.837 290.565 207.436 289.565 216.082 269.808C224.727 250.052 229.372 238.173 229.372 238.173L208.582 230.555ZM157.46 220.418C156.244 220.881 151.833 221.134 150.681 220.723C149.529 220.311 147.778 215.822 147.778 215.822C148.073 215.065 148.286 214.279 148.413 213.476C149.705 214.885 155.168 214.26 156.399 215.053C157.737 215.916 158.685 219.966 157.46 220.418Z" fill="#F7A491"/>
<path d="M307.504 236.819C307.504 236.819 312.547 248.527 321.877 267.972C331.206 287.418 338.827 288.153 338.827 288.153C355.057 281.785 366.928 231.634 368.332 226.993C369.503 226.279 371.907 226.569 373.196 226.764C374.789 227.002 385.8 226.898 389.308 226.395C392.816 225.892 398.336 223.763 399.288 222.598C400.239 221.433 399.683 220.116 398.467 221.11C397.251 222.104 393.032 222.616 393.032 222.616L396.61 220.61C396.61 220.61 398.51 218.545 399.346 216.672C400.182 214.8 399.546 213.046 399.102 212.875C398.659 212.705 397.136 216.27 397.136 216.27L394.783 217.813L396.33 215.577C396.33 215.577 397.625 209.014 395.953 209.042C394.281 209.069 394.193 214.287 394.193 214.287C394.193 214.287 391.518 217.606 390.645 217.975C389.773 218.344 389.062 218.179 389.232 217.822C389.402 217.465 391.259 212.747 390.98 211.957C390.7 211.168 388.797 207.929 387.834 208.209C387.737 208.24 387.655 208.306 387.606 208.395C386.414 207.203 379.094 208.154 376.826 208.667C374.282 209.24 364.244 214.809 364.244 214.809V214.842L337.815 256.676L327.99 228.481L307.504 236.819ZM379.629 211.183C380.845 210.347 386.317 210.783 387.554 209.329C387.71 210.126 387.95 210.904 388.271 211.649C388.271 211.649 386.675 216.187 385.535 216.648C384.395 217.108 379.991 217.011 378.75 216.59C377.51 216.169 378.322 212.089 379.629 211.183Z" fill="#F7A491"/>
<path d="M263.301 309.846C263.301 309.846 250.919 303.417 234.03 298.394C211.391 291.663 180.919 287.207 163.622 301.675C153.451 310.184 258.686 321.407 258.686 321.407L263.301 309.846Z" fill="#434242"/>
<path d="M377.029 307.055C377.029 307.055 367.013 292.31 341.246 292.654C331.215 292.786 317.304 294.789 304.628 297.302C282.017 301.791 260.692 309.334 260.692 309.334L258.686 321.408L377.029 307.055Z" fill="#434242"/>
<path d="M230.484 328.029L276.265 350.396L312.088 321.667L300.338 295.866L235.427 299.956L230.484 328.029Z" fill="#3B314A"/>
<path d="M240.477 164.669C235.352 154.19 235.078 134.388 239.097 122.762C242.347 113.353 250.132 107.992 260.155 106.903C271.782 105.634 279.194 107.925 288.256 113.863C297.679 120.048 308.963 126.748 319.807 129.477C333.945 133.037 348.54 135.656 361.481 142.396C370.02 146.843 377.963 153.452 381.377 162.479C386.259 175.395 380.669 190.268 371.649 200.705C358.034 216.444 336.478 224.886 315.834 222.562C299.768 220.751 284.614 212.471 274.065 200.229C269.311 194.709 265.702 190.601 260.03 186.133C252.758 180.405 244.605 173.107 240.477 164.669Z" fill="#434242"/>
<path d="M301.488 178.453C301.488 178.453 283.608 176.66 265.988 176.096C250.266 175.589 233.44 178.508 232.333 179.655C227.935 184.229 226.345 223.48 228.804 230.723C231.263 237.966 242.742 256.768 240.62 269.034C238.498 281.3 234.118 298.406 234.118 298.406C234.118 298.406 249.065 306.979 267.928 306.842C279.245 306.759 294.916 304.5 304.638 297.293C304.638 297.293 298.965 282.078 299.537 270.095C300.108 258.113 306.243 237.707 309.486 230.363C312.73 223.019 307.477 179.652 301.488 178.453Z" fill="#D3317D"/>
<path d="M239.396 182.906L232.656 179.472C232.656 179.472 225.017 181.658 221.053 187.401C217.797 192.11 203.193 234.819 203.193 234.819C203.193 234.819 223.561 242.794 230.045 242.419L239.97 216.221L239.396 182.906Z" fill="#D3317D"/>
<path d="M294.371 181.96L301.603 178.453C301.603 178.453 306.205 179.392 312.109 186.267C315.836 190.609 332.34 232.571 332.34 232.571C332.34 232.571 312.255 241.248 305.768 241.11L294.946 215.273L294.371 181.96Z" fill="#D3317D"/>
<path d="M273.883 153.439C273.883 153.439 275.099 170.966 276.221 176.55C277.367 182.317 278.902 208.841 266.955 211.991C255.008 215.142 257.96 182.024 257.659 176.178C257.358 170.331 254.619 150.279 254.619 150.279L273.883 153.439Z" fill="#F7A491"/>
<path d="M254.625 150.273C254.625 150.273 255.178 154.32 255.814 159.304C260.285 162.701 266.405 163.546 273.415 159.386C273.719 159.206 274.004 159.014 274.293 158.825C274.041 155.684 273.883 153.433 273.883 153.433L254.625 150.273Z" fill="#F47458"/>
<path d="M268.274 112.457C268.274 112.457 275.338 114.286 279.521 121.176C283.704 128.065 286.06 147.956 271.283 156.724C256.506 165.492 245.675 152.042 245.906 139.279C246.137 126.516 249.414 109.571 268.274 112.457Z" fill="#F7A491"/>
<path d="M242.722 135.165C243.855 138.285 246.242 140.277 248.054 139.615C249.865 138.953 250.413 135.885 249.27 132.765C248.127 129.645 245.758 127.657 243.947 128.315C242.135 128.974 241.588 132.048 242.722 135.165Z" fill="#F7A491"/>
<path d="M266.152 111.956C266.152 111.956 274.558 132.676 282.471 134.762C290.383 136.848 289.931 147.12 289.931 147.12C289.931 147.12 290.538 123.387 283.243 117.696C275.947 112.005 266.152 111.956 266.152 111.956Z" fill="#434242"/>
<path d="M279.163 138.9C278.005 142.182 278.859 145.479 281.069 146.266C283.279 147.052 286.012 145.027 287.17 141.746C288.329 138.464 287.474 135.168 285.264 134.381C283.054 133.594 280.325 135.634 279.163 138.9Z" fill="#F7A491"/>
<path d="M192.052 337.916C192.052 337.916 186.768 333.548 180.5 331.88C174.232 330.212 174.356 334.82 172.745 341.944C171.134 349.069 168.419 353.714 164.984 360.609C161.549 367.505 165.756 383.199 167.684 383.403C172.332 383.894 174.487 373.909 178.889 365.388C183.291 356.867 195.557 354.003 199.135 353.622C199.776 353.555 215.732 351.014 237.133 351.182C232.647 342.615 226.162 335.628 219.502 328.175C203.251 333.805 192.052 337.916 192.052 337.916Z" fill="#F7A491"/>
<path d="M380.463 314.927C378.28 303.865 369.036 299.349 358.366 299.623C333.77 300.26 264.432 316.159 223.15 329.151C225.619 338.065 223.728 343.887 226.671 353.058C270.394 350.722 352.441 343.89 376.158 330.185C379.855 328.041 381.521 320.276 380.463 314.927Z" fill="#CAB3BE"/>
<path d="M351.761 363.409C348.658 356.361 345.536 351.713 344.259 344.534C342.739 336.044 343.453 331.298 333.069 335.324C327.126 337.664 320.515 337.631 314.596 335.232C310.714 333.634 305.91 331.676 300.46 329.478C296.961 336.879 294.733 344.726 294.158 353.077C307.069 354.409 316.477 355.715 316.958 355.763C319.034 355.98 333.03 358.944 337.021 367.658C341.012 376.371 342.797 387.231 347.357 386.182C350.023 385.578 354.871 370.466 351.761 363.409Z" fill="#F7A491"/>
<path d="M188.348 295.725C178.675 295.457 161.947 297.287 159.445 308.248C158.229 313.548 158.685 321.014 160.843 326.025C163.534 332.274 169.729 335.68 175.882 338.324C187.607 343.323 260.203 351.039 297.606 354.912C302.023 346.891 305.674 337.977 305.397 330.178C269.286 315.619 206.886 296.244 188.348 295.725Z" fill="#A7929C"/>
<path d="M134.45 270.266C133.996 272.525 132.883 274.598 131.254 276.223C129.625 277.848 127.553 278.951 125.298 279.394C123.044 279.836 120.71 279.598 118.59 278.71C116.471 277.821 114.662 276.322 113.392 274.402C112.121 272.482 111.448 270.227 111.455 267.922C111.463 265.618 112.151 263.367 113.434 261.456C114.716 259.544 116.535 258.057 118.661 257.182C120.786 256.308 123.122 256.085 125.373 256.542C128.39 257.156 131.041 258.946 132.744 261.519C134.446 264.093 135.06 267.239 134.45 270.266Z" fill="#D4D2D3"/>
<path d="M116.621 268.522C116.358 270.114 116.721 271.745 117.633 273.074C118.545 274.402 119.935 275.324 121.511 275.644C123.087 275.965 124.725 275.659 126.081 274.792C127.437 273.925 128.405 272.564 128.78 270.996L116.621 268.522Z" fill="#FFFDF5"/>
</g>
<path d="M275.947 21.5418C276.321 20.5811 276.19 17.144 280.95 13.8381C282.908 12.4962 284.513 11.3525 284.948 9.7819C285.696 7.07676 282.856 5.77757 280.029 5.78977C279.325 5.79084 278.648 5.51604 278.143 5.02387C277.638 4.53171 277.344 3.86106 277.324 3.15477C277.301 2.43868 277.559 1.74223 278.044 1.21603C278.529 0.689829 279.2 0.376173 279.914 0.342889C281.782 0.259109 283.651 0.473226 285.453 0.977244C291.532 2.66986 293.356 6.80533 292.289 10.6358C291.32 14.1431 288.52 15.8479 286.237 17.2996C282.391 19.7394 282.394 22.4842 282.066 23.2435L275.947 21.5418ZM272.989 27.5742C273.667 25.1344 275.853 23.8504 278.245 24.5244C280.729 25.2167 281.853 27.4187 281.224 29.8768C280.558 32.2769 278.406 33.6158 275.922 32.9265C273.484 32.2434 272.326 29.9835 272.989 27.5833V27.5742Z" fill="#D4D2D3"/>
<defs>
<clipPath id="clip0_2075_18119">
<rect width="513" height="408" fill="white" transform="translate(0.722656 42.6748)"/>
</clipPath>
</defs>
</svg>
