<svg width="37" height="37" viewBox="0 0 37 37" fill="none" xmlns="http://www.w3.org/2000/svg">
<rect x="0.102539" y="0.5" width="35.9993" height="35.9993" rx="8" fill="#BD081C"/>
<path d="M28.1021 18.5719C28.1021 24.1315 23.6264 28.636 18.1023 28.636C17.0701 28.636 16.0782 28.4777 15.1427 28.1855C15.55 27.516 16.1588 26.4203 16.3846 25.5478C16.5056 25.077 17.0056 23.1535 17.0056 23.1535C17.3322 23.7785 18.2838 24.3101 19.2959 24.3101C22.3119 24.3101 24.4853 21.5181 24.4853 18.0484C24.4853 14.7248 21.7877 12.2372 18.3201 12.2372C14.0056 12.2372 11.7113 15.1509 11.7113 18.3284C11.7113 19.8056 12.4936 21.6439 13.7395 22.2283C13.929 22.3175 14.0298 22.277 14.0742 22.0943C14.1064 21.9564 14.2758 21.2705 14.3524 20.954C14.3766 20.8526 14.3645 20.7633 14.2839 20.6659C13.8766 20.1586 13.546 19.2334 13.546 18.369C13.546 16.1492 15.2153 14.0025 18.062 14.0025C20.5176 14.0025 22.2393 15.6866 22.2393 18.0971C22.2393 20.8201 20.8724 22.7071 19.0943 22.7071C18.1144 22.7071 17.3765 21.8914 17.6144 20.8891C17.8967 19.6919 18.441 18.4015 18.441 17.5371C18.441 16.7661 18.0298 16.1208 17.1749 16.1208C16.1709 16.1208 15.3645 17.1637 15.3645 18.5638C15.3645 19.4566 15.6629 20.0572 15.6629 20.0572C15.6629 20.0572 14.675 24.2695 14.4935 25.0568C14.2919 25.9252 14.3726 27.1507 14.4572 27.9461C10.7396 26.4811 8.10254 22.837 8.10254 18.5719C8.10254 13.0123 12.5783 8.50781 18.1023 8.50781C23.6264 8.50781 28.1021 13.0123 28.1021 18.5719Z" fill="white"/>
</svg>
