<svg width="20" height="21" viewBox="0 0 20 21" fill="none" xmlns="http://www.w3.org/2000/svg">
<g id="design-icon">
<g id="element-3">
<path id="Vector" d="M18.3333 7.66163V3.85397C18.3333 2.67141 17.8 2.19336 16.475 2.19336H13.1083C11.7833 2.19336 11.25 2.67141 11.25 3.85397V7.65324C11.25 8.84418 11.7833 9.31385 13.1083 9.31385H16.475C17.8 9.32224 18.3333 8.84418 18.3333 7.66163Z" fill="#434242"/>
<path id="Vector_2" d="M18.3333 17.0984V13.7101C18.3333 12.3766 17.8 11.8398 16.475 11.8398H13.1083C11.7833 11.8398 11.25 12.3766 11.25 13.7101V17.0984C11.25 18.432 11.7833 18.9687 13.1083 18.9687H16.475C17.8 18.9687 18.3333 18.432 18.3333 17.0984Z" fill="#434242"/>
<path id="Vector_3" d="M8.7513 7.66163V3.85397C8.7513 2.67141 8.21797 2.19336 6.89297 2.19336H3.5263C2.2013 2.19336 1.66797 2.67141 1.66797 3.85397V7.65324C1.66797 8.84418 2.2013 9.31385 3.5263 9.31385H6.89297C8.21797 9.32224 8.7513 8.84418 8.7513 7.66163Z" fill="#434242"/>
<path id="Vector_4" d="M8.7513 17.0984V13.7101C8.7513 12.3766 8.21797 11.8398 6.89297 11.8398H3.5263C2.2013 11.8398 1.66797 12.3766 1.66797 13.7101V17.0984C1.66797 18.432 2.2013 18.9687 3.5263 18.9687H6.89297C8.21797 18.9687 8.7513 18.432 8.7513 17.0984Z" fill="#434242"/>
</g>
</g>
</svg>
