<svg width="20" height="21" viewBox="0 0 20 21" fill="none" xmlns="http://www.w3.org/2000/svg">
<g id="design-icon">
<g id="Group 22234">
<path id="Vector" d="M10.2873 11.7227C10.1595 11.7656 10.0531 11.787 9.92526 11.787C9.79746 11.787 9.66978 11.7656 9.54199 11.7227L4.87891 10.244V12.9442C4.87891 13.9728 7.15728 14.8086 9.96797 14.8086C12.7787 14.8086 15.057 13.9729 15.057 12.9442L15.0568 10.2012L10.2873 11.7227Z" fill="#434242"/>
<path id="Vector_2" d="M19.0181 7.41523L10.1177 4.56489C10.0751 4.54347 10.0326 4.54347 10.0112 4.56489L0.961779 7.41523C0.876547 7.43664 0.833984 7.5009 0.833984 7.58668V7.69388C0.833984 7.77955 0.876547 7.84391 0.961779 7.86533L3.55959 8.70106C3.17631 9.36533 2.9421 10.244 2.87815 11.3584C2.55872 11.5297 2.32451 11.8726 2.32451 12.2798C2.32451 12.6013 2.47359 12.9012 2.70779 13.0941L2.17545 16.0299C2.17545 16.0513 2.15416 16.0727 2.15416 16.0941C2.15416 16.3726 2.68651 16.6085 3.32526 16.6085C3.98529 16.6085 4.49636 16.3728 4.49636 16.0941C4.49636 16.0727 4.49635 16.0513 4.47507 16.0299L4.02796 13.0511C4.24087 12.8582 4.38996 12.5797 4.38996 12.2796C4.38996 11.9153 4.2196 11.6154 3.94284 11.4225C4.02797 10.3509 4.241 9.57947 4.62428 9.04382L9.88363 10.7154C9.92619 10.7368 9.96875 10.7368 9.99014 10.7154L19.0395 7.86505C19.1246 7.84364 19.1673 7.77938 19.1673 7.6936V7.5864C19.1459 7.50062 19.1034 7.43637 19.0181 7.41495L19.0181 7.41523Z" fill="#434242"/>
</g>
</g>
</svg>
