<svg width="57" height="38" viewBox="0 0 57 38" fill="none" xmlns="http://www.w3.org/2000/svg">
<path opacity="0.05" d="M56.9492 25.4893C56.9492 27.1611 56.6009 28.7285 55.9043 30.1914C55.2773 31.6543 54.4066 32.943 53.292 34.0576C52.2471 35.1025 50.9932 35.9385 49.5303 36.5654C48.0674 37.1924 46.5 37.5059 44.8281 37.5059C43.1562 37.5059 41.5889 37.1924 40.126 36.5654C38.6631 35.9385 37.3743 35.1025 36.2598 34.0576C35.2148 32.943 34.3789 31.6543 33.752 30.1914C33.125 28.7285 32.8115 27.1611 32.8115 25.4893C32.8115 22.7028 33.2643 20.1253 34.1699 17.7568C35.0755 15.3187 36.2946 13.0547 37.8271 10.9648C39.4294 8.875 41.2406 6.95931 43.2607 5.21777C45.3506 3.47624 47.5101 1.90885 49.7393 0.515625L53.6055 3.85938C52.2819 5.04362 51.0628 6.54134 49.9482 8.35254C48.8337 10.1637 48.1022 11.9749 47.7539 13.7861C50.401 14.4131 52.5954 15.8411 54.3369 18.0703C56.0784 20.2298 56.9492 22.7028 56.9492 25.4893ZM24.8701 25.4893C24.8701 27.1611 24.5218 28.7285 23.8252 30.1914C23.1982 31.6543 22.3275 32.943 21.2129 34.0576C20.168 35.1025 18.8792 35.9385 17.3467 36.5654C15.8838 37.1924 14.3164 37.5059 12.6445 37.5059C10.9727 37.5059 9.40527 37.1924 7.94238 36.5654C6.54915 35.9385 5.29525 35.1025 4.18066 34.0576C3.13574 32.943 2.2998 31.6543 1.67285 30.1914C1.0459 28.7285 0.732422 27.1611 0.732422 25.4893C0.732422 22.7028 1.18522 20.1253 2.09082 17.7568C2.99642 15.3187 4.21549 13.0547 5.74805 10.9648C7.35026 8.875 9.16146 6.95931 11.1816 5.21777C13.2715 3.47624 15.431 1.90885 17.6602 0.515625L21.4219 3.85938C20.168 5.04362 18.9837 6.54134 17.8691 8.35254C16.7546 10.1637 16.0231 11.9749 15.6748 13.7861C18.3219 14.4131 20.5163 15.8411 22.2578 18.0703C23.9993 20.2298 24.8701 22.7028 24.8701 25.4893Z" fill="#D3317D"/>
</svg>
