<svg width="24" height="24" viewBox="0 0 24 24" fill="none" xmlns="http://www.w3.org/2000/svg">
<path d="M1.03365 11.3722C1.22372 13.6445 2.2194 15.7747 3.84169 17.3787C5.46398 18.9827 7.60631 19.9555 9.88277 20.1214C12.1592 20.2875 14.42 19.636 16.2585 18.2844L20.5765 22.5841C20.8428 22.8504 21.2039 23 21.5806 23C21.957 23 22.3184 22.8507 22.5845 22.5844C22.8508 22.3183 23.0002 21.9573 23 21.5809C23.0002 21.2048 22.8508 20.8438 22.5847 20.5778L18.281 16.2638C20.1514 13.7383 20.6622 10.4563 19.6472 7.48225C18.6324 4.50864 16.2214 2.22194 13.196 1.36398C10.1709 0.505961 6.9169 1.18571 4.48933 3.18334C2.06195 5.18075 0.770584 8.24154 1.03365 11.3722ZM10.5817 3.85729C12.3696 3.85729 14.0842 4.56694 15.3484 5.82995C16.6126 7.09297 17.3229 8.80629 17.3229 10.5925C17.3229 12.3787 16.6126 14.0917 15.3484 15.3547C14.0842 16.6178 12.3696 17.3274 10.5817 17.3274C8.7939 17.3274 7.07898 16.6178 5.81479 15.3547C4.5506 14.0917 3.84029 12.3787 3.84029 10.5925C3.84029 8.80629 4.5506 7.09297 5.81479 5.82995C7.07898 4.56694 8.7939 3.85729 10.5817 3.85729Z" fill="white"/>
</svg>
