<svg width="25" height="25" viewBox="0 0 25 25" fill="none" xmlns="http://www.w3.org/2000/svg">
<path d="M22.8321 21.0058L18.8863 17.087C21.9673 13.1411 21.6431 7.51943 18.1024 3.97889C16.2375 2.11399 13.7511 1.08691 11.1024 1.08691C8.45382 1.08691 5.96729 2.11399 4.10243 3.97889C2.23752 5.8438 1.21045 8.33023 1.21045 10.9789C1.21045 13.6275 2.23752 16.114 4.10243 17.9789C5.96734 19.8438 8.45377 20.8708 11.1024 20.8708C13.2915 20.8708 15.4538 20.1411 17.1835 18.7627L21.1023 22.7355C21.3455 22.9787 21.6428 23.0869 21.9673 23.0869C22.2916 23.0869 22.5889 22.9517 22.8323 22.7355C23.3186 22.2761 23.3186 21.4924 22.8321 21.0058L22.8321 21.0058ZM18.562 10.9788C18.562 12.9789 17.7783 14.8436 16.3729 16.2491C14.9674 17.6546 13.0756 18.4382 11.1026 18.4382C9.12964 18.4382 7.23785 17.6545 5.83235 16.2491C4.42685 14.8436 3.64321 12.9518 3.64321 10.9788C3.64321 8.97879 4.4269 7.11407 5.83235 5.70857C7.2378 4.30307 9.12964 3.51944 11.1026 3.51944C13.1026 3.51944 14.9674 4.30312 16.3729 5.70857C17.7781 7.11383 18.562 8.97874 18.562 10.9788Z" fill="#505050"/>
</svg>
