<svg width="174" height="50" viewBox="0 0 174 50" fill="none" xmlns="http://www.w3.org/2000/svg">
<g clip-path="url(#clip0_1170_2126)">
<path d="M24.778 44.159C23.9007 44.159 23.1125 44.0629 22.4005 43.8825C21.6886 43.7022 21.0656 43.4617 20.5189 43.1732C19.985 42.8726 19.54 42.56 19.1713 42.2113C18.8153 41.8627 18.5356 41.538 18.3703 41.2255H18.1924V43.6541H13.1323V35.2502H18.1924V37.0055C18.1924 38.4843 18.7391 39.5303 19.8451 40.1435C20.9512 40.7566 22.4642 41.0572 24.3839 41.0572C26.3799 41.0572 27.8801 40.6724 28.8464 39.915C29.8254 39.1576 30.3084 38.1597 30.3084 36.9213C30.3084 36.3322 30.2322 35.8032 30.0669 35.3704C29.9144 34.9376 29.6346 34.5529 29.2659 34.2523C28.8845 33.9277 28.376 33.6632 27.7403 33.4348C27.0919 33.1943 26.3037 32.9899 25.3374 32.7975L23.3795 32.3888C21.892 32.1123 20.5444 31.7275 19.2984 31.2467C18.0652 30.7658 17.01 30.1405 16.1455 29.3711C15.2682 28.6016 14.5944 27.6759 14.1112 26.6059C13.6409 25.5359 13.3993 24.2614 13.3993 22.8067C13.3993 21.5804 13.6281 20.4382 14.0986 19.4163C14.5563 18.3824 15.2301 17.4926 16.0946 16.7473C16.9718 16.0019 18.0525 15.4247 19.3493 15.016C20.6461 14.6072 22.1081 14.3908 23.7736 14.3908C24.6763 14.3908 25.4773 14.487 26.1893 14.6674C26.9012 14.8477 27.5242 15.0761 28.0581 15.3526C28.6048 15.6291 29.0498 15.9538 29.3931 16.3024C29.7364 16.6391 30.0033 16.9757 30.1813 17.2763H30.3466V14.8958H35.4066V23.2996H30.3466V21.4962C30.3466 20.0535 29.8126 19.0196 28.7446 18.4064C27.664 17.7933 26.2655 17.4926 24.5492 17.4926C22.5786 17.4926 21.1292 17.8774 20.2138 18.6589C19.2984 19.4283 18.8407 20.3661 18.8407 21.4602C18.8407 22.0853 18.9425 22.6144 19.1459 23.0472C19.3493 23.492 19.6798 23.8647 20.1375 24.2014C20.5825 24.5259 21.1674 24.8024 21.892 25.0309C22.6167 25.2714 23.5067 25.4998 24.5492 25.7042L26.3799 26.0408C27.8929 26.3534 29.2532 26.7381 30.461 27.219C31.6689 27.6999 32.6859 28.3131 33.5123 29.0585C34.3387 29.7919 34.9744 30.6695 35.4066 31.6674C35.8389 32.6773 36.055 33.8435 36.055 35.166C36.055 36.4525 35.8008 37.6427 35.2795 38.7488C34.7583 39.8428 34.0082 40.8047 33.0292 41.5982C32.0629 42.3917 30.8805 43.0169 29.4821 43.4737C28.0835 43.9306 26.5198 44.159 24.778 44.159ZM39.4623 40.937H42.0813V16.9877L39.4623 16.4587V14.1023L48.7051 12.335V25.4878H49.0102C49.4171 24.3817 50.129 23.4559 51.1589 22.6985C52.1887 21.9411 53.5617 21.5683 55.2781 21.5683C58.0751 21.5683 60.033 22.2296 61.1899 23.5642C62.3342 24.8987 62.9063 26.8945 62.9063 29.5635V40.937H65.5253V43.6541H53.8923V40.937H56.2824V29.7679C56.2824 28.3131 56.0155 27.2792 55.4815 26.654C54.9348 26.0408 54.0321 25.7282 52.7481 25.7282C52.2649 25.7282 51.7691 25.7883 51.2987 25.9206C50.8156 26.0408 50.3833 26.2331 49.9892 26.4977C49.5951 26.7501 49.2773 27.0868 49.0484 27.4836C48.8196 27.8803 48.7051 28.3732 48.7051 28.9503V40.937H51.0953V43.6541H39.4623V40.937ZM79.4722 44.159C77.6668 44.159 76.0776 43.8704 74.6918 43.3054C73.3188 42.7403 72.1491 41.9589 71.2083 40.961C70.2675 39.951 69.5428 38.7609 69.0597 37.3783C68.5639 35.9836 68.3096 34.4687 68.3096 32.8216C68.3096 31.0903 68.5639 29.5274 69.0724 28.1208C69.5809 26.7141 70.3056 25.5359 71.2591 24.574C72.2 23.6123 73.3315 22.8788 74.6537 22.3498C75.9759 21.8328 77.4507 21.5683 79.078 21.5683C80.7054 21.5683 82.1674 21.7968 83.477 22.2657C84.7865 22.7346 85.8925 23.3958 86.808 24.2614C87.7237 25.1151 88.4352 26.1731 88.931 27.3994C89.4267 28.6257 89.6685 30.0083 89.6685 31.5112V32.9058H75.3275V34.5769C75.3275 36.4285 75.8361 37.8351 76.8531 38.7849C77.8702 39.7226 79.2179 40.1915 80.9089 40.1915C82.4726 40.1915 83.744 39.8549 84.6975 39.1696C85.6637 38.4963 86.3376 37.6667 86.7444 36.6929L89.1477 38.0515C88.8807 38.7368 88.5115 39.4461 88.0158 40.1554C87.5201 40.8648 86.8839 41.5261 86.096 42.1152C85.3077 42.7043 84.367 43.1972 83.2608 43.582C82.1548 43.9667 80.8961 44.159 79.4722 44.159ZM75.3275 30.3449H82.8286V29.7679C82.8286 27.772 82.4981 26.3775 81.8242 25.5719C81.1504 24.7664 80.235 24.3696 79.078 24.3696C77.9211 24.3696 77.0057 24.7664 76.3319 25.5719C75.6581 26.3775 75.3275 27.772 75.3275 29.7679V30.3449Z" fill="#E5097F"/>
<path d="M106.197 40.8412V33.7237L105.7 34.0844L105.141 34.4091L104.531 34.7697L103.806 35.0943C103.17 35.3708 102.662 35.5271 102.293 35.5632L100.894 35.7315C98.5553 35.7315 96.6608 34.9019 95.1987 33.2428C93.7497 31.5957 93.0251 29.6601 93.0251 27.4359C93.0251 23.8531 94.5635 21.5448 97.6401 20.5228C98.6698 20.1741 99.7886 19.9938 100.971 19.9938C101.683 19.9938 102.318 20.0659 102.903 20.2103C103.463 20.3425 104.073 20.5709 104.709 20.8955L105.357 21.2682L106.197 21.7852L103.488 24.4302L102.98 24.0575L102.598 23.793L101.657 23.264L100.997 23.0596C100.577 23.0596 100.195 23.1678 99.8519 23.3722C99.5087 23.5886 99.1533 23.8892 98.8223 24.2739L98.2251 25.6445L97.9963 27.1233V27.8566C97.9963 28.7103 98.3265 29.5518 99.0008 30.3934C99.3691 30.8864 99.903 31.2832 100.589 31.5837C101.276 31.8842 101.975 32.0286 102.688 32.0286C103.056 32.0286 103.349 31.9925 103.578 31.9204L104.531 31.4514L105.357 30.8142L106.197 29.8644V17.3609H50.6631L52.4684 13.8262H127.746V17.3609H111.892V22.3142L113.062 21.5327L114.244 20.8354L115.909 20.2103L117.703 19.9938C121.834 19.9938 123.894 22.5787 123.894 27.7605V29.2874C123.818 29.636 123.78 29.9006 123.78 30.0809C123.78 30.4295 123.652 31.1629 123.397 32.293L123.283 32.7739L123.118 33.303L117.257 37.4147L117.703 35.984L117.982 34.7697L118.477 31.8242L118.706 29.2392L118.542 27.3277C118.275 25.957 117.791 25.1155 117.079 24.8029C116.672 24.5504 116.228 24.4302 115.744 24.4302C115.185 24.4302 114.511 24.7307 113.736 25.3319L112.731 26.3298L111.892 27.4959V37.6792L106.197 40.8412Z" fill="#434242"/>
<path d="M109.796 11.7941L106.211 8.40371L109.822 4.98926L113.534 8.37966L109.796 11.7941Z" fill="#434242"/>
<path d="M120.067 47.7424C118.542 48.8124 116.787 49.3414 114.816 49.3414C113.85 49.3414 112.757 49.2452 111.536 49.0288C109.337 48.6801 107.074 47.9347 104.722 46.8166C103.755 46.3717 102.98 45.9149 102.382 45.434L105.662 42.6447L107.303 43.7989L108.574 44.5924C109.514 45.1815 110.671 45.6865 112.044 46.1073C113.239 46.4319 114.346 46.5882 115.376 46.5882C116.164 46.5882 116.8 46.3236 117.308 45.7947C117.588 45.4941 117.804 45.1575 117.957 44.7728C118.02 44.5684 118.058 44.2437 118.058 43.7989L117.766 42.9574C117.549 42.4523 117.156 42.1157 116.596 41.9354L115.618 41.8032C115.109 41.8032 114.689 41.8753 114.346 42.0195L112.566 42.777L111.765 43.1737L110.633 43.7989V39.8074L111.396 39.5429L112.693 39.1341L114.804 38.6532L116.533 38.521C117.156 38.4608 117.816 38.581 118.542 38.8696C119.902 39.4347 120.982 40.3364 121.758 41.5747C122.076 42.1999 122.215 42.8491 122.177 43.5344C122.114 45.3619 121.415 46.7685 120.067 47.7424Z" fill="#434242"/>
<path d="M145.051 24.0094C145.941 25.9089 146.385 27.8206 146.385 29.7562C146.385 31.1028 146.182 32.3291 145.775 33.4593C144.847 36.0201 143.335 37.7634 141.249 38.6771C140.182 39.1339 139.025 39.3623 137.791 39.3623C134.74 39.3623 132.363 37.8716 130.647 34.8779C130.125 33.9642 129.629 32.7499 129.146 31.235C128.917 30.6099 128.6 29.0229 128.192 26.4861L127.862 21.9535L133.215 20.7392C133.215 22.218 133.316 23.7088 133.494 25.2237L133.888 28.3857C134.181 30.7421 134.803 32.6658 135.731 34.1445C136.469 35.4069 137.372 36.0441 138.415 36.0441C139.825 36.0441 140.703 35.2867 141.034 33.7719L141.198 32.1367V30.9706C141.122 30.7662 141.046 30.5016 140.969 30.189L140.474 28.1212L139.749 26.2817C139.559 25.8609 139.279 25.4161 138.91 24.9591L136.177 25.8609L137.575 21.7972L139.635 21.4245L141.148 21.0999L142.483 20.9436L144.046 20.8955L150.187 20.7392V17.3609H124.34V13.8262H163.918V17.3609H155.883V37.6792L150.187 40.8412V24.0094H145.051Z" fill="#434242"/>
<path fill-rule="evenodd" clip-rule="evenodd" d="M0.203613 13.3937L15.0913 1.29883L34.6576 2.77762L27.6397 8.39222L9.49731 13.9347L0.203613 13.3937Z" fill="#393D48"/>
<path d="M27.0536 6.56395L29.1259 12.924C28.9734 12.3349 24.9686 12.7196 20.1882 13.8017C15.6113 14.8476 11.1742 17.9735 11.0089 18.5987L9.68674 14.4508L8.86035 12.1545C10.8818 9.82209 17.5438 5.37371 27.0536 6.56395Z" fill="url(#paint0_linear_1170_2126)"/>
<path fill-rule="evenodd" clip-rule="evenodd" d="M22.1479 5.67479L24.7924 12.9846L27.5513 13.2611L24.8814 5.48242L22.1479 5.67479Z" fill="#EBECEC" fill-opacity="0.188235"/>
<path fill-rule="evenodd" clip-rule="evenodd" d="M20.0996 5.81934L22.9983 13.4778L23.9137 13.2253L20.9515 5.87945L20.0996 5.81934Z" fill="#EBECEC" fill-opacity="0.188235"/>
<path d="M3.15198 12.2754L4.69033 16.4353L4.27077 16.5675L2.73242 12.4196L3.15198 12.2754Z" fill="#393D48"/>
<path fill-rule="evenodd" clip-rule="evenodd" d="M4.68995 16.3628C5.21121 16.3267 5.65618 16.6994 5.69433 17.1923C5.73247 17.6853 5.33834 18.1181 4.81709 18.1542C4.29583 18.1782 3.83813 17.8176 3.79999 17.3126C3.77456 16.8197 4.16869 16.3988 4.68995 16.3628Z" fill="#393D48"/>
<path fill-rule="evenodd" clip-rule="evenodd" d="M7.56313 21.4489L5.3001 22.1943L4.75342 17.2529L7.56313 21.4489Z" fill="#393D48"/>
<path fill-rule="evenodd" clip-rule="evenodd" d="M169.014 9.16163C167.679 9.25777 166.726 9.82286 166.103 10.472C165.441 11.1453 164.92 12.1312 164.984 13.4416C165.047 14.656 165.721 15.6538 166.357 16.1828C167.234 16.9163 168.251 17.301 169.497 17.2529C170.603 17.2048 171.735 16.6758 172.408 15.9424C172.498 15.8582 172.574 15.774 172.65 15.6779C173.273 14.9205 173.591 13.9827 173.527 12.9728C173.438 11.3017 172.281 9.9912 170.845 9.45012C170.323 9.24572 169.65 9.12557 169.014 9.16163ZM169.04 9.59444C167.832 9.67861 166.993 10.1835 166.446 10.7606C165.849 11.3738 165.378 12.2634 165.441 13.4176C165.544 15.3293 167.323 16.9523 169.484 16.8201C170.044 16.784 170.552 16.6517 170.985 16.4354C172.866 15.5096 173.629 13.3695 172.675 11.5662C172.345 10.9771 171.862 10.4841 171.303 10.1475C171.112 10.0392 170.895 9.93104 170.666 9.84687C170.184 9.66657 169.624 9.55838 169.04 9.59444Z" fill="black"/>
<path fill-rule="evenodd" clip-rule="evenodd" d="M171.52 14.6073H172.067V11.806H171.177C171.151 11.8421 170.935 12.6356 170.91 12.7558C170.872 12.888 170.681 13.6454 170.63 13.7056L170.096 11.7939H169.193V14.6193H169.753V12.4312C169.791 12.4912 170.211 14.1023 170.274 14.3428C170.287 14.4029 170.312 14.5952 170.363 14.6193H170.922C170.986 14.4149 171.151 13.7657 171.215 13.5132C171.317 13.1525 171.418 12.7798 171.52 12.4191V14.6073Z" fill="black"/>
<path fill-rule="evenodd" clip-rule="evenodd" d="M167.322 12.2866V14.619H167.932V12.2746H168.809V11.8057H166.444V12.2746H167.284C167.334 12.2746 167.309 12.2626 167.322 12.2866Z" fill="black"/>
</g>
<defs>
<linearGradient id="paint0_linear_1170_2126" x1="11.4749" y1="15.9405" x2="26.1731" y2="8.381" gradientUnits="userSpaceOnUse">
<stop stop-color="#393D48"/>
<stop offset="0.670588" stop-color="#535660"/>
<stop offset="1" stop-color="#393D48"/>
</linearGradient>
<clipPath id="clip0_1170_2126">
<rect width="173.333" height="49.1739" fill="white" transform="translate(0.203613 0.5)"/>
</clipPath>
</defs>
</svg>
