<svg width="240" height="268" viewBox="0 0 240 268" fill="none" xmlns="http://www.w3.org/2000/svg">
<g clip-path="url(#clip0_4_3)">
<g clip-path="url(#clip1_4_3)">
<path d="M261.601 381.672L-1.20601 379.243L-1.30511 379.24L-1.30192 379.147L-1.26311 371.505L0.215385 62.7046L0.259384 55.1819L0.257284 54.9697L0.471584 54.9694L211.375 56.9224L211.675 57.0657L228.37 64.8215L262.932 80.8735L261.634 373.945H261.643L261.601 381.672Z" fill="#FCFEFF"/>
<path d="M261.601 381.683L-1.31101 379.339L-1.40881 379.335L-1.40561 379.243L0.0315876 54.9601L0.0295868 54.7479L0.243786 54.7475L211.371 56.7762L211.407 56.7775L211.433 56.7864L262.981 80.7477L263.052 80.7754L263.049 80.843L261.638 373.925H261.647L261.601 381.683ZM261.601 381.683L261.643 373.946H261.634L262.816 80.8532L262.884 80.9577L211.322 57.0396L211.384 57.0498L0.257187 55.171L0.479986 54.9588L-1.20351 379.25L-1.29811 379.154L261.601 381.683Z" fill="#263238"/>
<path d="M0.28401 54.9701L0.286009 55.1823L0.499609 54.9698L0.28401 54.9701ZM-1.30289 379.17L-1.30609 379.263L-1.20829 379.266L-1.30289 379.17ZM-1.16179 371.531L0.45701 62.7053L0.500309 55.1807L0.286009 55.1823L0.24271 62.7056L-1.26349 371.527L-1.30289 379.17L-1.20519 379.174L-1.16179 371.531ZM211.381 56.9041L0.49831 54.9698L0.500309 55.1807L211.681 57.0473L211.381 56.9041ZM-1.20519 379.174L-1.20829 379.266L261.574 381.672L-1.20519 379.174Z" fill="#263238"/>
<path d="M214.324 57.0757L231.198 65.3076L29.1106 63.8015L9.8544 63.6546L0.569296 63.5794L0.351196 63.581L0.412197 55.559L0.410797 55.3333L0.628897 55.3318L214.02 56.933L214.324 57.0757Z" fill="#1581AF"/>
<path d="M120.518 85.5134L19.5656 84.7324L18.7419 211.739L119.695 212.52L120.518 85.5134Z" fill="#DBDBDB"/>
<path d="M175.048 85.4141L130.546 85.0723L130.526 88.0665L175.028 88.4083L175.048 85.4141Z" fill="#455A64"/>
<path d="M63.0555 212.016L18.5535 211.674L18.5326 214.867L63.0346 215.209L63.0555 212.016Z" fill="#455A64"/>
<path d="M129.97 95.145C136.858 95.062 143.753 95.044 150.646 95.046L171.316 95.121L191.989 95.361C198.879 95.468 205.769 95.586 212.656 95.775C205.769 95.855 198.874 95.874 191.98 95.874L171.31 95.799L150.636 95.565C143.748 95.437 136.858 95.334 129.97 95.145Z" fill="#A6A6A6"/>
<path d="M129.944 99.272C136.832 99.189 143.727 99.171 150.611 99.173L171.281 99.248L191.955 99.488C198.844 99.595 205.734 99.713 212.621 99.901C205.734 99.982 198.839 100 191.954 100.001L171.284 99.926L150.61 99.692C143.722 99.577 136.832 99.461 129.944 99.272Z" fill="#A6A6A6"/>
<path d="M129.917 103.399C136.805 103.316 143.699 103.298 150.584 103.3L171.254 103.374L191.928 103.615C198.816 103.722 205.706 103.84 212.594 104.028C205.706 104.109 198.812 104.127 191.918 104.127L171.248 104.053L150.574 103.819C143.695 103.704 136.805 103.588 129.917 103.399Z" fill="#A6A6A6"/>
<path d="M129.882 107.526C136.769 107.443 143.664 107.424 150.558 107.427L171.228 107.502L191.9 107.742C198.79 107.849 205.68 107.967 212.568 108.155C205.68 108.236 198.786 108.255 191.892 108.255L171.222 108.18L150.548 107.946C143.659 107.831 136.769 107.715 129.882 107.526Z" fill="#A6A6A6"/>
<path d="M129.856 111.667C133.296 111.554 136.746 111.522 140.19 111.492C143.634 111.462 147.084 111.492 150.525 111.499C153.96 111.549 157.417 111.571 160.855 111.656C164.294 111.741 167.744 111.823 171.19 111.99C167.75 112.103 164.3 112.14 160.858 112.165C157.415 112.19 153.962 112.165 150.521 112.155C147.086 112.106 143.63 112.083 140.191 111.999C136.752 111.914 133.301 111.824 129.856 111.667Z" fill="#A6A6A6"/>
<path d="M129.795 119.907C136.682 119.824 143.577 119.805 150.462 119.807L171.132 119.882L191.805 120.123C198.694 120.23 205.584 120.347 212.472 120.536C205.584 120.616 198.689 120.635 191.796 120.635L171.125 120.56L150.452 120.327C143.572 120.212 136.682 120.095 129.795 119.907Z" fill="#A6A6A6"/>
<path d="M129.768 124.034C136.655 123.951 143.55 123.932 150.434 123.934L171.104 124.009L191.778 124.25C198.667 124.357 205.557 124.474 212.444 124.663C205.557 124.743 198.662 124.762 191.777 124.763L171.107 124.688L150.434 124.454C143.545 124.339 136.655 124.222 129.768 124.034Z" fill="#A6A6A6"/>
<path d="M129.732 128.163C136.62 128.08 143.515 128.061 150.408 128.064L171.078 128.138L191.751 128.379C198.641 128.486 205.531 128.604 212.418 128.792C205.53 128.882 198.636 128.891 191.742 128.891L171.072 128.817L150.398 128.583C143.519 128.468 136.629 128.352 129.732 128.163Z" fill="#A6A6A6"/>
<path d="M129.706 132.29C136.594 132.207 143.489 132.188 150.373 132.19L171.043 132.265L191.717 132.505C198.606 132.613 205.496 132.73 212.383 132.919C205.496 132.999 198.601 133.018 191.716 133.018L171.046 132.944L150.372 132.71C143.484 132.595 136.594 132.478 129.706 132.29Z" fill="#A6A6A6"/>
<path d="M129.68 136.429C133.121 136.316 136.57 136.284 140.014 136.254C143.458 136.223 146.907 136.253 150.35 136.261C153.784 136.31 157.241 136.333 160.68 136.418C164.119 136.503 167.568 136.585 171.015 136.752C167.574 136.865 164.125 136.902 160.681 136.927C157.237 136.952 153.787 136.927 150.345 136.917C146.911 136.868 143.454 136.845 140.015 136.76C136.576 136.675 133.126 136.595 129.68 136.429Z" fill="#A6A6A6"/>
<path d="M129.618 144.671C136.506 144.588 143.4 144.569 150.294 144.571L170.964 144.646L191.636 144.887C198.527 144.994 205.416 145.111 212.304 145.3C205.416 145.39 198.522 145.399 191.637 145.4L170.967 145.325L150.293 145.091C143.395 144.976 136.505 144.859 129.618 144.671Z" fill="#A6A6A6"/>
<path d="M129.592 148.796C136.48 148.713 143.374 148.694 150.259 148.696L170.929 148.771L191.602 149.011C198.491 149.118 205.381 149.236 212.269 149.425C205.381 149.505 198.487 149.524 191.593 149.524L170.923 149.449L150.249 149.215C143.369 149.101 136.479 148.984 129.592 148.796Z" fill="#A6A6A6"/>
<path d="M129.557 152.925C136.444 152.842 143.339 152.823 150.224 152.825L170.894 152.9L191.567 153.14C198.456 153.247 205.346 153.365 212.233 153.554C205.346 153.634 198.451 153.653 191.567 153.653L170.897 153.578L150.223 153.344C143.334 153.229 136.444 153.113 129.557 152.925Z" fill="#A6A6A6"/>
<path d="M129.529 157.073C132.969 156.96 136.419 156.929 139.863 156.898C143.307 156.868 146.756 156.898 150.198 156.906C153.633 156.955 157.09 156.977 160.529 157.062C163.967 157.147 167.417 157.23 170.863 157.396C167.423 157.509 163.973 157.546 160.53 157.571C157.086 157.597 153.636 157.572 150.194 157.561C146.76 157.512 143.303 157.49 139.864 157.405C136.425 157.32 132.975 157.231 129.529 157.073Z" fill="#A6A6A6"/>
<path d="M129.468 165.313C136.356 165.23 143.25 165.212 150.135 165.214L170.805 165.289L191.477 165.529C198.367 165.636 205.257 165.754 212.145 165.942C205.257 166.032 198.363 166.041 191.478 166.042L170.808 165.967L150.134 165.733C143.245 165.618 136.356 165.502 129.468 165.313Z" fill="#A6A6A6"/>
<path d="M129.442 169.442C136.33 169.359 143.224 169.34 150.109 169.343L170.779 169.417L191.452 169.658C198.341 169.765 205.231 169.883 212.119 170.071C205.231 170.152 198.337 170.17 191.443 170.17L170.773 170.096L150.099 169.862C143.219 169.747 136.33 169.631 129.442 169.442Z" fill="#A6A6A6"/>
<path d="M129.415 173.569C136.302 173.486 143.197 173.467 150.091 173.47L170.761 173.545L191.433 173.785C198.323 173.892 205.213 174.01 212.101 174.198C205.213 174.288 198.319 174.297 191.425 174.298L170.755 174.223L150.081 173.989C143.192 173.874 136.302 173.758 129.415 173.569Z" fill="#A6A6A6"/>
<path d="M129.38 177.694C136.267 177.611 143.162 177.592 150.046 177.594L170.716 177.669L191.381 177.909C198.271 178.017 205.16 178.134 212.047 178.323C205.159 178.412 198.265 178.422 191.38 178.422L170.71 178.347L150.036 178.114C143.157 177.999 136.267 177.883 129.38 177.694Z" fill="#A6A6A6"/>
<path d="M129.354 181.835C132.794 181.722 136.243 181.69 139.687 181.66C143.131 181.63 146.58 181.66 150.023 181.667C153.457 181.717 156.914 181.739 160.353 181.824C163.792 181.909 167.241 181.991 170.688 182.158C167.247 182.271 163.798 182.308 160.354 182.333C156.91 182.358 153.46 182.333 150.019 182.323C146.584 182.274 143.127 182.251 139.688 182.166C136.25 182.082 132.799 182.002 129.354 181.835Z" fill="#A6A6A6"/>
<path d="M121.428 225.519L31.8219 224.834L31.7949 228.947L121.401 229.632L121.428 225.519Z" fill="#EBEBEB"/>
<path d="M96.607 225.33L31.8259 224.834L31.7989 228.962L96.58 229.459L96.607 225.33Z" fill="#6EA21F"/>
<path d="M121.35 236.318L31.7437 235.633L31.7166 239.755L121.323 240.44L121.35 236.318Z" fill="#EBEBEB"/>
<path d="M113.915 236.267L31.7422 235.639L31.7151 239.766L113.888 240.394L113.915 236.267Z" fill="#6EA21F"/>
<path d="M121.27 247.124L31.6637 246.439L31.6366 250.562L121.243 251.247L121.27 247.124Z" fill="#EBEBEB"/>
<path d="M101.501 246.97L31.6692 246.436L31.6421 250.569L101.474 251.104L101.501 246.97Z" fill="#6EA21F"/>
<path d="M121.201 257.921L31.5947 257.236L31.5677 261.359L121.174 262.043L121.201 257.921Z" fill="#EBEBEB"/>
<path d="M108.595 257.822L31.5922 257.232L31.5651 261.362L108.568 261.951L108.595 257.822Z" fill="#6EA21F"/>
<path d="M25.2755 223.51L18.5546 223.457L18.5114 230.193L25.2323 230.245L25.2755 223.51Z" fill="#EA1C2D"/>
<path d="M25.1973 234.308L18.4763 234.256L18.4331 240.991L25.1541 241.044L25.1973 234.308Z" fill="#455A64"/>
<path d="M25.1279 245.115L18.407 245.062L18.3638 251.798L25.0848 251.851L25.1279 245.115Z" fill="#C7C7C7"/>
<path d="M25.075 255.903L18.3514 255.852L18.3095 262.59L25.0331 262.641L25.075 255.903Z" fill="#EA1C2D"/>
<path d="M24.9968 266.7L18.2732 266.648L18.2313 273.387L24.9549 273.438L24.9968 266.7Z" fill="#263238"/>
<path d="M199.444 208.464L142.354 208.021L142.335 211.005L199.424 211.447L199.444 208.464Z" fill="#455A64"/>
<path d="M163.953 222.884L142.251 222.715L142.232 225.723L163.934 225.892L163.953 222.884Z" fill="#C7C7C7"/>
<path d="M163.759 248.603L142.057 248.434L142.038 251.442L163.74 251.611L163.759 248.603Z" fill="#C7C7C7"/>
<path d="M186.085 224.501C190.846 224.407 195.605 224.376 200.364 224.364L214.637 224.399L228.922 224.589C233.683 224.676 238.435 224.78 243.194 224.948C238.432 225.05 233.673 225.079 228.915 225.092L214.642 225.056L200.362 224.867C195.591 224.78 190.843 224.67 186.085 224.501Z" fill="#A6A6A6"/>
<path d="M186.049 228.636C190.811 228.534 195.57 228.504 200.328 228.492L214.602 228.519L228.887 228.708C233.648 228.795 238.4 228.899 243.159 229.067C238.398 229.169 233.638 229.199 228.88 229.211L214.607 229.176L200.327 228.986C195.569 228.909 190.808 228.803 186.049 228.636Z" fill="#A6A6A6"/>
<path d="M186.023 232.755C190.785 232.661 195.544 232.63 200.302 232.618L214.575 232.653L228.86 232.843C233.622 232.93 238.374 233.034 243.133 233.202C238.371 233.304 233.612 233.333 228.854 233.346L214.581 233.31L200.301 233.121C195.543 233.034 190.782 232.923 186.023 232.755Z" fill="#A6A6A6"/>
<path d="M185.996 236.899C188.011 236.781 190.014 236.726 192.027 236.69C194.04 236.654 196.049 236.67 198.062 236.66C200.071 236.703 202.082 236.711 204.091 236.783C206.1 236.854 208.108 236.933 210.124 237.086C208.108 237.203 206.105 237.258 204.092 237.296C202.079 237.334 200.068 237.315 198.056 237.325C196.047 237.285 194.036 237.273 192.028 237.202C190.02 237.131 188.002 237.052 185.996 236.899Z" fill="#A6A6A6"/>
<path d="M185.9 250.29C190.661 250.196 195.42 250.166 200.179 250.153L214.452 250.188L228.737 250.378C233.498 250.465 238.25 250.569 243.009 250.737C238.248 250.839 233.489 250.868 228.73 250.881L214.457 250.845L200.177 250.656C195.406 250.569 190.658 250.473 185.9 250.29Z" fill="#A6A6A6"/>
<path d="M185.865 254.417C190.626 254.323 195.385 254.292 200.144 254.28L214.417 254.315L228.702 254.505C233.463 254.592 238.215 254.696 242.974 254.864C238.212 254.966 233.453 254.995 228.695 255.008L214.422 254.972L200.142 254.783C195.384 254.696 190.623 254.6 185.865 254.417Z" fill="#A6A6A6"/>
<path d="M185.839 258.544C190.6 258.45 195.359 258.419 200.118 258.407L214.391 258.442L228.676 258.632C233.437 258.719 238.189 258.823 242.948 258.991C238.186 259.093 233.427 259.122 228.669 259.135L214.396 259.099L200.116 258.91C195.358 258.823 190.597 258.727 185.839 258.544Z" fill="#A6A6A6"/>
<path d="M185.811 262.69C187.827 262.571 189.83 262.515 191.843 262.479C193.855 262.443 195.864 262.459 197.877 262.449C199.886 262.492 201.897 262.5 203.906 262.572C205.916 262.643 207.923 262.723 209.939 262.875C207.923 262.992 205.92 263.047 203.907 263.085C201.894 263.123 199.883 263.104 197.871 263.114C195.862 263.074 193.851 263.062 191.843 262.992C189.835 262.923 187.817 262.841 185.811 262.69Z" fill="#A6A6A6"/>
<path d="M174.625 223.418L174.709 236.441L174.729 249.463L174.64 275.519L174.546 277.116L174.363 290.139L174.104 303.169L174.02 290.136L173.998 277.115L173.92 275.512L174.189 249.462L174.372 236.439L174.625 223.418Z" fill="#8DD6FF"/>
<path d="M175.978 224.456C175.976 224.722 175.896 224.981 175.747 225.201C175.598 225.421 175.387 225.592 175.141 225.691C174.895 225.791 174.625 225.816 174.366 225.762C174.106 225.707 173.868 225.577 173.681 225.388C173.495 225.198 173.369 224.957 173.319 224.696C173.269 224.435 173.298 224.164 173.401 223.919C173.505 223.675 173.678 223.466 173.9 223.32C174.121 223.174 174.381 223.097 174.647 223.1C174.823 223.101 174.997 223.137 175.159 223.206C175.322 223.275 175.469 223.375 175.593 223.501C175.717 223.627 175.814 223.776 175.88 223.94C175.946 224.104 175.98 224.279 175.978 224.456Z" fill="#8DD6FF"/>
<path d="M175.793 250.245C175.791 250.511 175.711 250.77 175.562 250.99C175.413 251.21 175.202 251.381 174.956 251.481C174.71 251.58 174.441 251.605 174.181 251.551C173.921 251.497 173.683 251.366 173.497 251.177C173.31 250.987 173.184 250.746 173.134 250.485C173.085 250.224 173.113 249.953 173.216 249.709C173.32 249.464 173.493 249.255 173.715 249.109C173.937 248.963 174.196 248.887 174.462 248.889C174.638 248.89 174.812 248.926 174.975 248.995C175.137 249.064 175.284 249.164 175.408 249.29C175.532 249.416 175.629 249.565 175.696 249.729C175.762 249.893 175.795 250.068 175.793 250.245Z" fill="#8DD6FF"/>
<path d="M129.121 209.916L129.185 223.522L129.189 237.127L129.084 264.331L128.824 291.539L128.636 305.136L128.383 318.741L128.308 305.137L128.305 291.53L128.42 264.325L128.68 237.117L128.86 223.52L129.121 209.916Z" fill="#455A64"/>
<path d="M210.656 56.7598L262.775 82.3348L236.064 88.3592L210.656 56.7598Z" fill="#DBDBDB"/>
<path d="M116.367 68.1255C116.35 68.0306 116.341 67.9346 116.34 67.8383C116.328 67.627 116.315 67.3478 116.294 66.9934C116.263 66.2256 116.215 65.133 116.157 63.7387C116.107 62.316 116.041 60.5911 115.968 58.5888C115.96 57.5213 115.89 56.455 115.758 55.3956C115.674 54.829 115.491 54.2817 115.217 53.7792C114.933 53.2566 114.484 52.8428 113.941 52.6022C113.345 52.3779 112.7 52.3139 112.072 52.4165C111.443 52.519 110.852 52.7845 110.358 53.1867C109.297 54.1126 108.556 55.351 108.239 56.7253C107.514 59.7909 107.338 62.9618 107.719 66.0904C107.867 67.7467 108.033 69.4578 108.257 71.1939C108.442 72.9554 108.91 74.6756 109.644 76.2872C110.426 77.9334 111.757 79.2538 113.408 80.0189C114.243 80.3968 115.162 80.5455 116.073 80.4496C116.993 80.3378 117.863 79.9731 118.589 79.3957C120.035 78.2034 121.019 76.5404 121.369 74.6954C121.696 72.8889 121.808 71.0497 121.703 69.2164C121.62 65.5767 121.526 62.0717 121.453 58.7256C121.411 57.056 121.373 55.4267 121.338 53.8377C121.303 52.2512 121.279 50.7177 121.123 49.2483C121.006 47.8298 120.697 46.4339 120.202 45.0995C119.739 43.8771 119.012 42.7724 118.073 41.8647C116.396 40.3393 114.229 39.4689 111.967 39.4125C110.262 39.3148 108.574 39.7799 107.159 40.7366C106.287 41.3728 105.594 42.2242 105.148 43.2083C104.85 43.8872 104.764 44.2694 104.742 44.2608C104.815 43.8868 104.93 43.522 105.083 43.1733C105.507 42.1569 106.197 41.2742 107.079 40.6178C108.509 39.6095 110.234 39.1093 111.98 39.1968C114.304 39.2326 116.537 40.1092 118.269 41.6651C119.244 42.5964 120.002 43.7319 120.489 44.9905C121.003 46.3479 121.327 47.7705 121.449 49.2172C121.612 50.7032 121.643 52.2506 121.685 53.831C121.727 55.4114 121.773 57.0427 121.815 58.7136C121.908 62.0482 121.999 65.5663 122.099 69.2074C122.213 71.0708 122.101 72.941 121.766 74.777C121.397 76.7128 120.364 78.4575 118.846 79.7084C118.064 80.3288 117.125 80.719 116.135 80.8356C115.156 80.9399 114.168 80.78 113.271 80.3727C111.539 79.5675 110.142 78.1803 109.322 76.4517C108.576 74.8036 108.101 73.0458 107.915 71.2463C107.693 69.4969 107.534 67.7984 107.387 66.1262C107.009 62.9541 107.202 59.7405 107.955 56.6377C108.293 55.1983 109.082 53.9056 110.206 52.9485C110.743 52.5175 111.384 52.2357 112.064 52.1311C112.745 52.0265 113.441 52.1029 114.083 52.3525C114.674 52.6219 115.162 53.0758 115.475 53.6463C115.759 54.1788 115.947 54.757 116.03 55.3545C116.157 56.4256 116.216 57.5036 116.207 58.582C116.258 60.5823 116.295 62.3153 116.33 63.734C116.358 65.1323 116.379 66.2225 116.391 66.9886C116.39 67.3492 116.395 67.6264 116.4 67.837C116.393 67.9336 116.382 68.0299 116.367 68.1255Z" fill="#263238"/>
<path d="M103.907 171.532L98.759 165.297L36.9355 177.029C36.9355 177.029 31.3184 203.323 31.5174 205.054C31.4985 207.253 31.2999 209.446 30.9234 211.612L114.768 212.478C114.759 212.468 117.689 189.915 103.907 171.532Z" fill="#263238"/>
<path d="M52.2431 190.288C52.1462 190.523 52.0128 190.741 51.8477 190.934C51.5605 191.327 51.1369 191.885 50.5651 192.547C49.8924 193.326 49.1325 194.024 48.3003 194.628C47.2624 195.359 46.0908 195.878 44.8521 196.157C42.6304 196.66 40.3407 196.796 38.0736 196.56C37.391 196.497 36.7124 196.396 36.041 196.257C35.7863 196.235 35.5379 196.165 35.3079 196.053C35.3231 195.984 36.3828 196.139 38.092 196.239C40.3231 196.374 42.5616 196.196 44.7421 195.71C45.9275 195.443 47.0522 194.957 48.0586 194.277C48.8765 193.702 49.6344 193.047 50.3207 192.32C51.5115 191.08 52.1862 190.24 52.2431 190.288Z" fill="#455A64"/>
<path d="M70.346 212.1C70.2502 211.827 70.1956 211.542 70.184 211.254C70.1094 210.704 70.0123 209.908 69.9217 208.928C69.7335 206.96 69.5423 204.229 69.4716 201.213C69.401 198.196 69.4642 195.462 69.5654 193.484C69.6163 192.5 69.6685 191.699 69.724 191.152C69.7227 190.862 69.7652 190.574 69.8501 190.297C69.9305 191.361 69.943 192.428 69.8878 193.494C69.8731 195.47 69.8564 198.191 69.9277 201.2C69.999 204.208 70.1396 206.925 70.2479 208.895C70.3502 209.96 70.383 211.03 70.346 212.1Z" fill="#455A64"/>
<path d="M76.229 211.217C76.107 211.215 75.986 206.661 75.958 201.048C75.929 195.435 76.01 190.873 76.141 190.876C76.273 190.878 76.384 195.431 76.413 201.044C76.441 206.657 76.351 211.219 76.229 211.217Z" fill="#455A64"/>
<path d="M108.18 182.736C108.204 182.765 107.983 182.984 107.557 183.38C107.13 183.775 106.524 184.319 105.72 184.955C104.782 185.715 103.772 186.382 102.704 186.946C101.383 187.648 99.934 188.078 98.442 188.21C96.938 188.321 95.432 188.015 94.088 187.327C93.007 186.774 92.008 186.074 91.119 185.247C90.519 184.7 89.952 184.118 89.421 183.503C89.21 183.294 89.028 183.058 88.88 182.801C88.937 182.745 89.789 183.685 91.333 185.001C92.223 185.774 93.21 186.428 94.269 186.946C95.556 187.576 96.986 187.853 98.413 187.75C99.845 187.622 101.239 187.22 102.52 186.567C103.574 186.031 104.579 185.404 105.525 184.694C107.151 183.484 108.133 182.68 108.18 182.736Z" fill="#455A64"/>
<path d="M111.324 199.995C111.063 200.162 110.782 200.296 110.487 200.392L108.162 201.357C106.198 202.18 103.512 203.367 100.612 204.823C97.713 206.28 95.16 207.74 93.329 208.83C92.483 209.341 91.765 209.767 91.167 210.124C90.913 210.306 90.636 210.452 90.344 210.559C90.558 210.334 90.8 210.138 91.065 209.976C91.55 209.62 92.263 209.138 93.16 208.553C95.499 207.045 97.916 205.662 100.401 204.41C102.887 203.157 105.436 202.034 108.039 201.047C109.04 200.672 109.859 200.387 110.423 200.21C110.713 200.098 111.016 200.025 111.324 199.995Z" fill="#455A64"/>
<path d="M56.9201 188.049C56.8579 188.061 56.6924 187.608 56.4747 186.837C56.1944 185.837 56.0253 184.81 55.9705 183.773C55.9131 182.722 56.064 181.67 56.4145 180.679C56.6979 179.925 56.9962 179.522 57.0441 179.553C56.6192 180.912 56.4104 182.331 56.4255 183.756C56.4887 184.768 56.6118 185.776 56.7941 186.773C56.9063 187.189 56.9489 187.62 56.9201 188.049Z" fill="#455A64"/>
<path d="M60.5383 188.586C60.362 188.18 60.2547 187.748 60.221 187.307C60.0211 186.263 59.9229 185.202 59.928 184.139C59.9412 183.544 60.022 182.952 60.1688 182.375C60.3041 181.904 60.5019 181.453 60.7571 181.035C60.9657 180.631 61.2791 180.291 61.6644 180.05C61.4795 180.44 61.2717 180.819 61.042 181.185C60.6025 182.109 60.3783 183.122 60.3861 184.146C60.36 185.352 60.5007 186.459 60.5436 187.267C60.6203 187.704 60.6185 188.15 60.5383 188.586Z" fill="#455A64"/>
<path d="M83.011 188.442C83.115 186.274 82.854 184.103 82.238 182.021C81.474 179.99 80.381 178.099 79.002 176.424C79.548 176.782 80.024 177.236 80.407 177.764C82.412 180.23 83.448 183.344 83.319 186.518C83.331 187.173 83.227 187.824 83.011 188.442Z" fill="#455A64"/>
<path d="M87.14 187.386C86.923 185.399 86.56 183.431 86.055 181.497C85.391 179.61 84.592 177.773 83.665 176C84.1 176.411 84.463 176.893 84.737 177.425C85.485 178.659 86.075 179.981 86.494 181.361C86.916 182.738 87.169 184.162 87.246 185.601C87.301 186.198 87.265 186.8 87.14 187.386Z" fill="#455A64"/>
<path d="M72.064 183.043C72.048 183.025 72.24 182.822 72.7 182.654C73.269 182.47 73.882 182.467 74.453 182.648C75.024 182.829 75.525 183.184 75.886 183.663C76.213 184.139 76.376 184.709 76.348 185.286C76.318 185.919 76.098 186.527 75.717 187.032C75.512 187.308 75.253 187.541 74.956 187.716C74.659 187.89 74.331 188.004 73.989 188.05C73.333 188.125 72.67 187.98 72.104 187.637C71.538 187.294 71.101 186.772 70.8627 186.154C70.6952 185.607 70.6939 185.022 70.8589 184.475C70.9679 183.99 71.209 183.545 71.555 183.19C72.083 182.718 72.767 182.46 73.475 182.468C73.604 182.46 73.734 182.478 73.856 182.52C73.978 182.562 74.091 182.628 74.188 182.715C73.956 182.66 73.717 182.636 73.479 182.642C72.84 182.7 72.24 182.975 71.779 183.422C71.499 183.75 71.308 184.146 71.226 184.57C71.093 185.044 71.104 185.547 71.258 186.015C71.476 186.533 71.855 186.967 72.338 187.253C72.821 187.538 73.383 187.66 73.94 187.6C74.491 187.498 74.989 187.21 75.353 186.784C75.717 186.358 75.924 185.82 75.941 185.259C75.977 184.771 75.854 184.284 75.589 183.872C75.346 183.514 75.012 183.228 74.621 183.043C74.043 182.755 73.384 182.675 72.755 182.816C72.31 182.933 72.087 183.08 72.064 183.043Z" fill="#455A64"/>
<path d="M25.4785 93.9907C24.951 94.5309 10.2799 102.176 7.6909 107.706C5.1019 113.236 6.4521 136.841 6.6843 140.922C6.9166 145.004 13.4869 160.915 13.4869 160.915C13.4869 160.915 11.263 167.333 13.0885 171.573C14.2789 174.199 16.2102 176.42 18.644 177.962L33.2778 171.529L27.9963 131.457L25.4785 93.9907Z" fill="#1794C9"/>
<path d="M23.4126 135.412C23.8564 134.883 24.4274 134.571 24.7938 134.17C25.1602 133.768 25.8861 133.645 26.1971 134.084C26.5516 134.587 26.0629 135.235 25.6078 135.65C27.0141 135.836 28.2461 134.003 29.5733 134.505C29.7753 134.614 29.9532 134.764 30.0964 134.944C30.2396 135.124 30.3451 135.331 30.4065 135.553C30.468 135.775 30.4841 136.007 30.4541 136.235C30.424 136.463 30.3483 136.683 30.2314 136.881C29.7225 137.664 28.9764 138.263 28.1026 138.59C27.2296 138.908 26.4281 139.396 25.744 140.026C25.416 140.381 25.1761 140.946 25.4645 141.339C25.9484 142.003 27.2848 141.387 27.7023 142.097C27.9925 142.577 27.5412 143.146 27.1343 143.524C25.645 144.896 24.1476 146.269 22.6648 147.642C22.3023 148.041 21.8398 148.336 21.3253 148.495C21.067 148.568 20.7903 148.541 20.5513 148.417C20.3123 148.294 20.129 148.084 20.0387 147.83C20.0222 147.567 20.0897 147.306 20.2312 147.084C20.3728 146.862 20.5811 146.692 20.8261 146.597C21.3195 146.418 21.7989 146.203 22.2603 145.953C22.4867 145.819 22.652 145.601 22.7213 145.346C22.7907 145.091 22.7586 144.819 22.632 144.587C22.2222 144.079 21.4088 144.401 20.8534 144.762C19.152 145.872 17.4563 146.981 15.7663 148.091C15.4163 148.37 14.9967 148.547 14.5529 148.604C14.3309 148.623 14.1102 148.554 13.937 148.414C13.7638 148.273 13.6513 148.071 13.6231 147.849C13.6475 147.617 13.7394 147.397 13.8875 147.217C14.8918 145.774 16.2029 144.573 17.7265 143.7C18.3277 143.42 18.8793 143.043 19.3594 142.585C19.5958 142.352 19.7533 142.05 19.8097 141.723C19.8661 141.395 19.8187 141.058 19.674 140.759C18.6624 141.56 17.5611 142.24 16.3924 142.786C15.9771 142.986 15.3951 143.118 15.1302 142.745C14.8653 142.372 15.2175 141.843 15.5591 141.514C17.3717 139.724 19.1844 137.937 20.9973 136.153C21.1966 135.897 21.4455 135.683 21.7291 135.526C22.0126 135.368 22.325 135.269 22.6477 135.235L23.4126 135.412Z" fill="white"/>
<path d="M37.7546 81.9593L33.2473 88.7629L22.2517 96.11C19.9359 106.357 18.9884 116.869 19.434 127.37C19.434 127.37 30.9163 169.501 31.1403 171.313C31.5388 174.682 37.3595 178.005 37.3595 178.005C37.3595 178.005 60.2241 180.237 68.1867 179.8C76.149 179.364 96.209 169.027 98.141 167.579C100.072 166.131 102.815 158.65 102.815 158.65L92.218 118.12L93.82 90.4089L73.369 83.1758L66.7441 77.0354L37.7546 81.9593Z" fill="#1794C9"/>
<path d="M56.5938 116.413C56.6057 116.419 56.6492 116.31 56.716 116.086C56.7999 115.833 56.8986 115.519 57.0253 115.127C57.2947 114.287 57.6857 113.068 58.2222 111.536C59.6839 107.353 61.4301 103.275 63.4485 99.331L63.0714 99.311C64.5196 103.029 66.1429 107.203 67.8493 111.606C68.0005 111.997 68.1474 112.379 68.2864 112.735L68.627 113.598L68.7261 112.672C69.6054 104.271 70.3931 96.721 70.9706 91.2144C71.231 88.5131 71.447 86.3187 71.598 84.7518C71.658 84.0247 71.706 83.4431 71.747 82.9912C71.776 82.7894 71.782 82.585 71.766 82.3818C71.706 82.5788 71.667 82.782 71.653 82.9875C71.592 83.4329 71.515 84.0124 71.423 84.7311C71.235 86.3021 70.9739 88.4943 70.6521 91.1814C70.0364 96.683 69.2018 104.233 68.2726 112.623L68.705 112.567C68.5659 112.21 68.4159 111.819 68.2678 111.438C66.5453 107.04 64.9063 102.873 63.4489 99.157L63.2828 98.726L63.0793 99.134C61.0736 103.105 59.3707 107.221 57.9854 111.449C57.4828 112.997 57.1252 114.23 56.8993 115.09C56.8029 115.488 56.7144 115.806 56.6497 116.063C56.6165 116.177 56.5977 116.294 56.5938 116.413Z" fill="#263238"/>
<g opacity="0.3">
<path d="M71.692 82.5782C72.682 94.7507 71.812 107.006 69.1125 118.92C65.5401 116.207 63.0323 112.322 62.0266 107.941C61.121 110.808 59.3672 113.333 56.9983 115.178C58.4175 109.699 60.4974 104.412 63.192 99.437C63.192 99.437 68.582 113.216 68.435 112.861C69.5828 102.673 70.6689 92.6762 71.69 82.5732" fill="black"/>
</g>
<path d="M94.119 116.097C94.563 115.568 95.134 115.256 95.5 114.855C95.867 114.454 96.592 114.331 96.903 114.769C97.258 115.273 96.769 115.921 96.314 116.336C97.72 116.521 98.952 114.688 100.28 115.19C100.482 115.3 100.66 115.449 100.803 115.629C100.946 115.81 101.051 116.017 101.113 116.239C101.174 116.461 101.19 116.693 101.16 116.921C101.13 117.149 101.055 117.369 100.938 117.566C100.428 118.348 99.682 118.946 98.809 119.272C97.936 119.59 97.135 120.078 96.451 120.707C96.123 121.062 95.883 121.628 96.171 122.02C96.655 122.684 97.99 122.067 98.409 122.778C98.699 123.259 98.249 123.828 97.841 124.207C96.351 125.579 94.854 126.952 93.371 128.325C93.009 128.724 92.546 129.018 92.032 129.178C91.774 129.251 91.497 129.224 91.258 129.1C91.019 128.977 90.836 128.767 90.745 128.513C90.729 128.25 90.796 127.989 90.938 127.767C91.079 127.545 91.288 127.375 91.533 127.279C92.026 127.101 92.506 126.886 92.967 126.636C93.194 126.502 93.359 126.284 93.428 126.029C93.498 125.774 93.465 125.502 93.338 125.27C92.929 124.762 92.115 125.083 91.56 125.445C89.872 126.555 88.165 127.664 86.473 128.774C86.123 129.053 85.703 129.23 85.259 129.287C85.037 129.306 84.817 129.237 84.644 129.097C84.47 128.956 84.358 128.754 84.33 128.532C84.354 128.3 84.446 128.08 84.594 127.9C85.598 126.457 86.909 125.256 88.433 124.383C89.034 124.102 89.586 123.726 90.066 123.268C90.302 123.035 90.46 122.733 90.516 122.406C90.573 122.078 90.525 121.741 90.381 121.442C89.369 122.243 88.268 122.923 87.099 123.469C86.684 123.669 86.102 123.801 85.837 123.428C85.572 123.055 85.924 122.526 86.266 122.197C88.078 120.407 89.891 118.62 91.704 116.836C91.903 116.58 92.152 116.366 92.436 116.209C92.719 116.051 93.032 115.952 93.354 115.918L94.119 116.097Z" fill="white"/>
<path d="M93.436 90.3721C93.436 90.3721 104.674 95.426 107.096 102.667C109.518 109.907 118.283 143.925 117.042 149.889C115.8 155.853 113.242 162.697 107.979 162.538C102.716 162.378 97.14 156.496 97.14 156.496L93.09 148.393L94.04 140.361L90.548 118.456L93.436 90.3721Z" fill="#1794C9"/>
<path d="M37.9819 86.8377C37.9874 86.8821 56.4991 116.879 56.4991 116.879L62.0983 89.999L63.4889 78.9918L39.3752 84.3882L37.9819 86.8377Z" fill="#AE7461"/>
<g opacity="0.3">
<path d="M84.645 87.6405C83.919 87.3186 83.131 87.1629 82.338 87.1846C81.545 87.2064 80.767 87.405 80.061 87.7661C71.64 90.8761 62.448 94.7317 59.3267 103.166L58.7806 108.383C59.2547 111.591 62.3233 113.953 65.5137 114.507C68.7501 114.868 72.021 114.329 74.97 112.952C77.666 111.876 80.262 110.563 82.727 109.03C84.192 108.323 85.328 107.077 85.9 105.551C86.407 103.409 84.76 101.366 84.531 99.167C84.309 97.128 85.355 95.191 85.925 93.2219C86.496 91.2526 86.394 88.7144 84.645 87.6405Z" fill="black"/>
</g>
<path d="M19.42 127.408C19.506 127.574 19.5703 127.75 19.6112 127.932C19.7258 128.327 19.882 128.839 20.0727 129.46C20.4639 130.789 21.0042 132.727 21.654 135.121C22.9666 139.909 24.5861 146.572 26.4327 153.91C27.3557 157.583 28.278 161.064 29.1129 164.235C29.5428 165.821 29.9194 167.334 30.3496 168.718C30.735 170.007 31.2445 171.255 31.8709 172.445C32.789 174.161 34.0633 175.661 35.6078 176.844C36.7159 177.669 37.4116 178.01 37.3814 178.051C37.2048 177.992 37.0356 177.912 36.8774 177.813C36.4043 177.565 35.9471 177.288 35.5081 176.983C33.8929 175.832 32.5568 174.332 31.599 172.594C30.9473 171.393 30.4127 170.133 30.0026 168.83C29.5561 167.435 29.1624 165.921 28.7224 164.343C27.8605 161.177 26.9305 157.692 25.9981 154.021C24.1943 146.695 22.5558 140.067 21.3535 135.201C20.7542 132.838 20.264 130.905 19.9158 129.509C19.7608 128.874 19.6396 128.356 19.5429 127.954C19.4814 127.777 19.4401 127.594 19.42 127.408Z" fill="#263238"/>
<path d="M56.3056 117.812C56.2956 117.82 56.2254 117.726 56.1032 117.528C55.9566 117.305 55.7801 117.027 55.5565 116.682C55.0791 115.94 54.3863 114.864 53.4722 113.523C50.9791 109.862 48.2383 106.375 45.2692 103.089L45.6283 102.972C45.1902 106.938 44.7007 111.391 44.1905 116.085C44.1452 116.501 44.1021 116.908 44.0599 117.289L43.9538 118.21L43.6188 117.342C40.5984 109.456 37.886 102.368 35.9052 97.198C34.9555 94.6564 34.1795 92.5929 33.6287 91.1186C33.3827 90.4319 33.186 89.8825 33.0303 89.4565C32.95 89.2691 32.8908 89.0735 32.8538 88.873C32.9634 89.0475 33.0528 89.2339 33.1203 89.4286C33.2942 89.8429 33.5184 90.3827 33.7922 91.0533C34.3807 92.5217 35.1991 94.5716 36.2044 97.084C38.2211 102.238 40.9783 109.314 44.0444 117.177L43.6121 117.235C43.6542 116.854 43.6981 116.438 43.7426 116.031C44.2701 111.337 44.7765 106.887 45.224 102.92L45.273 102.46L45.5753 102.802C48.5389 106.117 51.2478 109.652 53.6787 113.377C54.5642 114.741 55.2284 115.84 55.6687 116.612C55.8646 116.971 56.0325 117.256 56.1612 117.486C56.2228 117.588 56.2714 117.698 56.3056 117.812Z" fill="#263238"/>
<path d="M88.462 142.049C88.541 142.144 80.912 149.016 71.426 157.393C61.9394 165.77 54.1645 172.493 54.0868 172.394C54.009 172.296 61.6359 165.428 71.132 157.052C80.627 148.675 88.381 141.955 88.462 142.049Z" fill="#263238"/>
<path d="M72.208 178.661C72.008 177.744 71.863 176.817 71.776 175.883C71.526 174.163 71.142 171.802 70.5436 169.228C69.9452 166.653 69.2606 164.354 68.7309 162.705C68.4009 161.826 68.1237 160.928 67.9006 160.016C68.3647 160.837 68.7434 161.703 69.0309 162.601C69.8242 164.731 70.4763 166.911 70.9829 169.127C71.494 171.342 71.863 173.587 72.087 175.849C72.223 176.78 72.264 177.722 72.208 178.661Z" fill="#263238"/>
<path d="M17.7723 125.809C15.8503 124.533 14.0122 123.135 12.2697 121.623C10.4336 120.223 8.69049 118.705 7.05139 117.078C8.97349 118.353 10.8116 119.751 12.554 121.264C14.3921 122.661 16.1354 124.179 17.7723 125.809Z" fill="#263238"/>
<path d="M107.979 162.531C107.878 162.542 107.775 162.542 107.674 162.531C107.431 162.509 107.135 162.492 106.78 162.469C106.3 162.431 105.825 162.348 105.361 162.221C104.728 162.077 104.108 161.882 103.507 161.636C101.901 160.941 100.455 159.923 99.258 158.645C97.733 156.993 96.582 155.03 95.885 152.892L95.887 152.865C95.358 149.493 94.776 145.749 94.152 141.81C93.019 134.307 91.991 127.517 91.232 122.538C90.883 120.113 90.6 118.126 90.402 116.69C90.318 116.035 90.251 115.504 90.198 115.097C90.164 114.911 90.151 114.722 90.159 114.533C90.223 114.709 90.266 114.891 90.288 115.077C90.365 115.483 90.46 116.011 90.578 116.66C90.821 118.091 91.148 120.071 91.552 122.485C92.335 127.464 93.409 134.242 94.596 141.732C95.198 145.679 95.775 149.419 96.287 152.79L96.28 152.763C96.944 154.85 98.046 156.77 99.512 158.396C100.659 159.662 102.05 160.682 103.602 161.392C105.008 161.956 106.478 162.338 107.979 162.531Z" fill="#263238"/>
<path d="M23.3662 155.661C22.7893 155.769 22.2069 155.845 21.6216 155.89C20.2408 156.109 18.91 156.571 17.6908 157.255C16.4753 157.947 15.3885 158.844 14.4782 159.907C14.1339 160.38 13.7656 160.836 13.3747 161.271C13.5471 160.695 13.8366 160.162 14.225 159.704C15.0968 158.539 16.2019 157.57 17.4698 156.859C18.7376 156.147 20.1403 155.709 21.588 155.572C22.18 155.474 22.7863 155.505 23.3662 155.661Z" fill="#263238"/>
<path d="M23.6045 154.675C20.9052 155.809 17.9713 156.273 15.0529 156.025C15.0473 155.892 16.9824 155.797 19.3355 155.424C21.6886 155.052 23.5623 154.549 23.6045 154.675Z" fill="#263238"/>
<path d="M25.097 106.186C25.5408 105.657 26.1118 105.344 26.4782 104.943C26.8446 104.542 27.5705 104.419 27.8815 104.857C28.236 105.361 27.7473 106.009 27.2922 106.424C28.6985 106.609 29.9305 104.777 31.2577 105.278C31.4597 105.388 31.6376 105.537 31.7808 105.718C31.924 105.898 32.0295 106.105 32.0909 106.327C32.1524 106.549 32.1685 106.781 32.1384 107.009C32.1083 107.237 32.0326 107.457 31.9158 107.655C31.4055 108.437 30.6587 109.034 29.7846 109.36C28.9117 109.678 28.1103 110.166 27.4261 110.795C27.0981 111.15 26.8582 111.716 27.1466 112.108C27.6305 112.772 28.967 112.155 29.3844 112.866C29.6746 113.347 29.2233 113.916 28.8163 114.295C27.327 115.667 25.8297 117.039 24.3468 118.413C23.9843 118.812 23.5218 119.106 23.0072 119.265C22.749 119.337 22.4734 119.308 22.235 119.185C21.9967 119.062 21.8131 118.853 21.7207 118.601C21.704 118.338 21.7713 118.077 21.9129 117.855C22.0545 117.633 22.263 117.462 22.5081 117.367C23.0015 117.189 23.4809 116.974 23.9423 116.724C24.3665 116.421 24.6443 115.772 24.3132 115.366C23.9035 114.858 23.0901 115.179 22.5347 115.541C20.8465 116.651 19.1398 117.76 17.4476 118.869C17.0976 119.148 16.678 119.326 16.2342 119.383C16.0122 119.401 15.7915 119.333 15.6183 119.192C15.4451 119.052 15.3326 118.85 15.3044 118.628C15.3288 118.396 15.4207 118.176 15.5687 117.996C16.5731 116.553 17.8842 115.352 19.4078 114.478C20.009 114.198 20.5605 113.822 21.0407 113.363C21.2771 113.131 21.4346 112.829 21.491 112.502C21.5474 112.174 21.5 111.837 21.3553 111.537C20.3437 112.339 19.2424 113.019 18.0737 113.565C17.6584 113.765 17.0764 113.897 16.8115 113.524C16.5466 113.151 16.8988 112.622 17.2404 112.293C19.0538 110.503 20.8666 108.716 22.6786 106.932C22.8779 106.676 23.1268 106.462 23.4103 106.304C23.6939 106.147 24.0063 106.048 24.329 106.014L25.097 106.186Z" fill="white"/>
<path d="M60.4352 121.168C60.8791 120.638 61.45 120.327 61.8164 119.925C62.1828 119.524 62.9087 119.401 63.2197 119.839C63.5742 120.343 63.0855 120.991 62.6304 121.406C64.0367 121.591 65.2687 119.759 66.5959 120.261C66.7979 120.37 66.9758 120.52 67.119 120.7C67.2622 120.88 67.3677 121.087 67.4291 121.309C67.4906 121.531 67.5067 121.763 67.4766 121.991C67.4466 122.219 67.3708 122.439 67.254 122.637C66.745 123.42 65.999 124.019 65.1251 124.346C64.2521 124.665 63.4505 125.153 62.7665 125.783C62.4385 126.138 62.1985 126.703 62.487 127.096C62.9709 127.76 64.3072 127.144 64.7248 127.854C65.0149 128.334 64.5636 128.903 64.1567 129.282C62.6673 130.655 61.1701 132.027 59.6872 133.401C59.3247 133.8 58.8622 134.094 58.3476 134.253C58.0893 134.327 57.8126 134.299 57.5737 134.176C57.3347 134.052 57.1514 133.842 57.061 133.589C57.0444 133.326 57.1117 133.064 57.2533 132.843C57.3949 132.621 57.6033 132.45 57.8484 132.355C58.3419 132.177 58.8213 131.962 59.2827 131.712C59.5094 131.577 59.6749 131.359 59.7442 131.105C59.8135 130.85 59.7813 130.578 59.6543 130.346C59.2445 129.837 58.4312 130.159 57.8758 130.521C56.1875 131.631 54.4809 132.739 52.7887 133.849C52.4386 134.128 52.019 134.306 51.5752 134.363C51.3532 134.381 51.1326 134.313 50.9594 134.172C50.7861 134.032 50.6737 133.829 50.6455 133.608C50.6699 133.375 50.7618 133.156 50.9098 132.975C51.9142 131.533 53.2253 130.332 54.7488 129.458C55.3501 129.178 55.9016 128.801 56.3818 128.343C56.6182 128.11 56.7756 127.809 56.832 127.481C56.8885 127.154 56.841 126.817 56.6964 126.517C55.6848 127.318 54.5835 127.999 53.4148 128.545C52.9994 128.745 52.4175 128.877 52.1525 128.504C51.8876 128.131 52.2386 127.602 52.5815 127.273C54.394 125.483 56.2067 123.696 58.0196 121.912C58.219 121.655 58.4679 121.442 58.7514 121.284C59.035 121.126 59.3474 121.028 59.67 120.994L60.4352 121.168Z" fill="white"/>
<path d="M43.5738 154.539C44.0177 154.009 44.5886 153.698 44.955 153.297C45.3215 152.896 46.0473 152.772 46.3583 153.211C46.7128 153.714 46.2241 154.363 45.769 154.777C47.1753 154.963 48.4073 153.13 49.7345 153.632C49.9365 153.741 50.1145 153.891 50.2576 154.071C50.4008 154.251 50.5063 154.458 50.5677 154.68C50.6292 154.902 50.6454 155.134 50.6153 155.362C50.5852 155.59 50.5095 155.81 50.3927 156.008C49.8836 156.791 49.1376 157.39 48.2638 157.717C47.3909 158.036 46.5894 158.523 45.9052 159.153C45.5773 159.508 45.3373 160.073 45.6257 160.466C46.1096 161.13 47.4461 160.512 47.8635 161.224C48.1537 161.704 47.7024 162.273 47.2942 162.651C45.8049 164.023 44.3075 165.396 42.8247 166.769C42.4622 167.168 41.9997 167.462 41.4852 167.622C41.2269 167.693 40.9513 167.664 40.713 167.541C40.4746 167.418 40.291 167.209 40.1986 166.957C40.1819 166.694 40.2493 166.433 40.3908 166.211C40.5324 165.989 40.7409 165.818 40.986 165.724C41.4795 165.545 41.9589 165.33 42.4202 165.08C42.6469 164.946 42.8124 164.728 42.8818 164.473C42.9511 164.218 42.9189 163.946 42.7918 163.714C42.3821 163.206 41.5687 163.527 41.0133 163.889C39.3119 164.999 37.6162 166.108 35.9262 167.218C35.5762 167.497 35.1566 167.674 34.7128 167.731C34.4906 167.75 34.2698 167.681 34.0966 167.54C33.9233 167.399 33.811 167.197 33.7831 166.975C33.8075 166.743 33.8995 166.523 34.0475 166.343C35.0519 164.9 36.3629 163.699 37.8865 162.825C38.4878 162.545 39.0393 162.169 39.5194 161.71C39.7558 161.477 39.9133 161.176 39.9697 160.848C40.0261 160.521 39.9787 160.184 39.834 159.884C38.8224 160.686 37.7212 161.366 36.5524 161.912C36.1371 162.112 35.5551 162.244 35.2902 161.871C35.0253 161.498 35.3775 160.969 35.7191 160.64C37.5317 158.85 39.3444 157.063 41.1573 155.279C41.3566 155.022 41.6055 154.809 41.8891 154.651C42.1726 154.494 42.4851 154.395 42.8077 154.361L43.5738 154.539Z" fill="white"/>
<path d="M85.171 155.129C85.614 154.599 86.185 154.288 86.552 153.886C86.918 153.485 87.644 153.362 87.955 153.8C88.31 154.304 87.821 154.952 87.366 155.367C88.772 155.552 90.004 153.72 91.33 154.221C91.532 154.331 91.71 154.48 91.853 154.661C91.996 154.841 92.102 155.048 92.163 155.27C92.225 155.492 92.241 155.724 92.211 155.952C92.181 156.18 92.105 156.4 91.988 156.598C91.479 157.381 90.733 157.98 89.859 158.307C88.986 158.625 88.185 159.113 87.501 159.742C87.173 160.098 86.933 160.663 87.221 161.055C87.705 161.719 89.041 161.103 89.459 161.813C89.749 162.294 89.298 162.863 88.891 163.242C87.401 164.614 85.904 165.987 84.421 167.36C84.059 167.759 83.596 168.053 83.082 168.213C82.823 168.286 82.547 168.259 82.308 168.135C82.069 168.012 81.886 167.802 81.795 167.548C81.778 167.285 81.846 167.024 81.987 166.802C82.129 166.58 82.337 166.409 82.583 166.315C83.076 166.136 83.556 165.922 84.017 165.671C84.243 165.537 84.409 165.319 84.478 165.064C84.548 164.809 84.515 164.537 84.388 164.305C83.979 163.797 83.165 164.119 82.611 164.48C80.923 165.591 79.216 166.699 77.524 167.809C77.174 168.088 76.755 168.265 76.311 168.323C76.089 168.341 75.868 168.273 75.695 168.132C75.522 167.991 75.409 167.789 75.381 167.567C75.405 167.335 75.497 167.115 75.645 166.935C76.65 165.492 77.961 164.291 79.484 163.418C80.086 163.138 80.637 162.761 81.117 162.303C81.354 162.07 81.511 161.769 81.568 161.441C81.624 161.113 81.576 160.776 81.432 160.477C80.42 161.278 79.319 161.958 78.15 162.505C77.735 162.705 77.153 162.837 76.888 162.463C76.623 162.09 76.975 161.561 77.317 161.233C79.13 159.442 80.943 157.655 82.755 155.871C82.954 155.615 83.203 155.402 83.487 155.244C83.77 155.086 84.083 154.987 84.405 154.953L85.171 155.129Z" fill="white"/>
<path d="M69.0117 158.384C68.9937 158.391 68.9266 158.262 68.8078 158.006C68.6678 157.705 68.4996 157.331 68.2938 156.885C67.853 155.914 67.2522 154.491 66.5294 152.712C65.0887 149.172 63.2361 144.221 61.4723 138.658C59.7085 133.095 58.3682 127.98 57.5108 124.255C57.0777 122.396 56.7545 120.88 56.5478 119.83C56.4566 119.349 56.3875 118.949 56.3203 118.62C56.2893 118.481 56.2722 118.338 56.2694 118.195C56.335 118.325 56.3821 118.464 56.4092 118.607C56.4955 118.93 56.5917 119.323 56.7166 119.798C56.9973 120.899 57.3671 122.383 57.8132 124.183C58.7515 127.879 60.1375 132.972 61.8928 138.527C63.6481 144.081 65.4486 149.035 66.8085 152.602C67.4797 154.333 68.0301 155.756 68.4359 156.824C68.6059 157.285 68.7615 157.667 68.8678 157.973C68.9801 158.241 69.0295 158.377 69.0117 158.384Z" fill="#263238"/>
<path d="M117.112 149.195C117.065 149.847 113.95 150.936 113.306 150.818L112.573 150.516C112.046 150.968 111.432 151.193 111.026 151.534C110.619 151.874 109.861 151.886 109.632 151.401C109.365 150.852 109.946 150.282 110.456 149.943C109.095 149.542 107.592 151.168 106.361 150.464C106.179 150.324 106.028 150.148 105.915 149.948C105.802 149.748 105.73 149.527 105.704 149.299C105.677 149.071 105.696 148.84 105.76 148.62C105.824 148.399 105.931 148.194 106.075 148.015C106.696 147.315 107.53 146.839 108.448 146.66C109.36 146.483 110.228 146.125 111.001 145.609C111.208 145.483 111.368 145.292 111.455 145.066C111.543 144.839 111.553 144.59 111.485 144.357C111.104 143.624 109.698 144.024 109.389 143.262C109.18 142.745 109.703 142.248 110.174 141.94C111.864 140.813 114.171 139.235 115.847 138.111C115.816 138.101 117.307 146.222 117.112 149.195Z" fill="white"/>
<g opacity="0.3">
<path d="M54.3542 171.929C67.5152 166.181 79.67 156.122 86.872 143.677L54.3542 171.929Z" fill="black"/>
</g>
<g opacity="0.3">
<path d="M13.3656 161.263C16.2818 156.189 21.2475 155.16 25.9444 155.647C26.0144 155.376 25.9823 155.087 25.8541 154.838C25.726 154.588 25.5108 154.394 25.2495 154.292C24.7168 154.11 24.1463 154.068 23.5935 154.172C21.2801 154.3 19.0119 154.861 16.9062 155.825C15.9332 156.341 15.1068 157.095 14.5038 158.018C13.9008 158.941 13.5409 160.002 13.4577 161.102" fill="black"/>
</g>
<g opacity="0.3">
<path d="M32.9759 89.0424C35.1649 101.057 39.1727 112.67 44.8603 123.478C47.6107 119.932 49.0294 115.529 48.8686 111.036C50.4847 113.571 52.8314 115.555 55.597 116.723C52.8097 111.798 49.434 107.231 45.5446 103.123C45.5446 103.123 43.8986 117.831 43.9488 117.449C40.2068 107.906 36.5738 98.531 32.9763 89.0371" fill="black"/>
</g>
<path d="M92.684 107.863L87.589 98.024L87.975 88.8255L90.832 82.7596C90.832 82.7596 92.715 82.4803 92.828 84.7123C92.795 86.3804 92.418 88.0232 91.72 89.5371L92.6 94.0946C92.6 94.0946 92.975 94.6094 93.525 92.794C94.076 90.9787 94.585 77.2026 94.667 76.2559C94.749 75.3092 95.012 73.0747 96.389 73.4065C97.765 73.7384 98.047 75.6274 97.973 76.5748C97.899 77.5222 98.118 86.8083 98.118 86.8083C98.118 86.8083 98.375 87.6627 98.715 87.5782C99.054 87.4938 99.284 77.6792 99.348 76.1269C99.412 74.5745 99.369 71.1408 101.173 71.2922C102.976 71.4436 102.827 73.168 102.768 75.0561C102.71 76.9442 102.973 87.614 102.973 87.614C102.973 87.614 103.192 88.2987 103.519 87.4348C103.846 86.571 105.171 75.1196 105.417 74.5998C105.662 74.08 106.772 73.4676 107.484 74.8357C108.195 76.2038 107.734 79.2151 107.157 84.5632C106.635 89.3734 106.314 91.3673 106.836 91.7887C107.359 92.2101 109.643 89.429 109.643 89.429C109.643 89.429 112.655 83.2904 114.724 83.7008C116.793 84.1112 115.25 85.6099 114.766 87.0559C114.354 88.2795 110.058 95.421 109.976 95.479C109.894 95.537 105.155 108.491 105.155 108.491L111.748 124.361C112.922 127.123 113.198 130.185 112.536 133.11C112.191 135.015 111.282 136.77 109.928 138.149C108.573 139.527 106.836 140.465 104.941 140.84C103.527 141.16 102.049 141.045 100.7 140.51C99.351 139.975 98.194 139.045 97.381 137.84C96.056 136.08 95.26 133.979 95.085 131.783C94.569 125.84 92.684 107.866 92.684 107.866V107.863Z" fill="#AE7461"/>
<path d="M99.168 101.698C99.091 101.682 99.238 100.995 99.14 99.894C99.005 98.466 98.447 97.11 97.539 96.001C96.821 95.096 95.815 94.4662 94.69 94.2174C93.989 94.0678 93.258 94.1671 92.623 94.4982L92.541 94.5441L92.513 94.4632C92.414 94.2004 92.382 94.0672 92.409 94.055C92.437 94.0428 92.522 94.1608 92.659 94.3923L92.54 94.3552C92.855 94.1257 93.213 93.962 93.592 93.8739C93.971 93.7858 94.365 93.7751 94.749 93.8423C95.983 94.0538 97.097 94.713 97.879 95.694C98.851 96.867 99.404 98.333 99.449 99.856C99.514 100.484 99.418 101.118 99.168 101.698Z" fill="#77574A"/>
<path d="M104.752 95.093C104.82 95.204 103.964 95.821 103.097 96.766C102.62 97.39 102.105 97.984 101.555 98.544C101.798 97.767 102.212 97.054 102.765 96.457C103.317 95.86 103.996 95.394 104.752 95.093Z" fill="#77574A"/>
<path d="M17.5412 171.048C17.3034 174.944 18.482 178.795 20.8585 181.889C22.6124 184.166 24.4848 186.349 26.468 188.429L40.7939 196.454C40.7939 196.454 44.6296 197.387 48.8812 193.923C50.2291 192.942 51.3726 191.705 52.2474 190.284C52.2474 190.284 56.5488 192.683 58.2956 192.759C61.2502 192.887 60.9634 190.764 60.9634 190.764C60.9634 190.764 51.5917 184.462 49.4363 182.155C47.2808 179.847 40.6652 177.874 35.8331 178.076L33.1163 177.286L32.4357 173.465C32.4357 173.465 27.7393 164.916 22.5369 167.308C17.3345 169.7 17.5412 171.048 17.5412 171.048Z" fill="#AE7461"/>
<path d="M47.4368 10.8115C47.5182 10.1835 47.7238 9.5781 48.0415 9.031C48.3591 8.4839 48.7825 8.006 49.2867 7.6253C49.7909 7.2446 50.3658 6.9688 50.9778 6.8141C51.5897 6.6594 52.2264 6.6289 52.8503 6.7243C53.6153 5.3544 54.8777 4.33393 56.3745 3.87557C57.8712 3.41721 59.4868 3.55635 60.8844 4.26399C62.1828 4.98795 63.1656 6.18359 64.435 6.96059C65.6554 7.70839 67.0765 8.0308 68.3656 8.6527C69.0337 8.9098 69.6281 9.3289 70.0957 9.8724C70.5634 10.416 70.8899 11.0671 71.046 11.7679C71.059 12.5664 70.8199 13.3484 70.362 14.0014C69.9041 14.6543 69.2515 15.1445 68.4981 15.4012C66.9791 15.8837 65.3733 16.028 63.7927 15.8241C64.1178 16.0587 64.3466 16.404 64.4366 16.7954C64.5266 17.1869 64.4717 17.5977 64.2819 17.9513C63.8716 18.6475 63.2246 19.1716 62.4598 19.4272C61.2166 19.9044 59.8663 20.0283 58.5572 19.7855C57.248 19.5428 56.0306 18.9426 55.0389 18.051L52.0708 15.7667C51.4411 15.7508 50.8208 15.6096 50.2458 15.3511C49.6709 15.0927 49.1528 14.7222 48.7217 14.2611C48.2905 13.8001 47.9549 13.2577 47.7343 12.6655C47.5138 12.0733 47.4126 11.4431 47.4368 10.8115Z" fill="#263238"/>
<path d="M54.8453 20.7622C55.1378 21.0142 55.5122 21.1497 55.8975 21.1432C56.2828 21.1367 56.6522 20.9886 56.9358 20.727C57.2068 20.451 57.3972 20.1057 57.4863 19.7286C57.5754 19.3515 57.5598 18.957 57.4411 18.5881C57.1902 17.8497 56.6884 17.2232 56.0236 16.8185C55.364 16.418 54.65 16.116 53.9038 15.9221C52.7696 15.5589 51.5956 15.3361 50.4078 15.2585C49.9868 15.2171 49.5619 15.2681 49.1625 15.408C48.9646 15.4826 48.7902 15.6089 48.6572 15.7738C48.5242 15.9387 48.4375 16.1363 48.406 16.3461C48.3586 16.9371 48.8764 17.4064 49.3533 17.763C51.1332 19.0827 53.0295 20.2366 55.0184 21.2102" fill="#1794C9"/>
<path d="M56.5766 20.4756C59.3873 17.3259 66.384 17.7532 68.059 19.7973C69.2945 19.2035 70.7105 19.1096 72.014 19.5351C73.317 19.9605 74.407 20.8728 75.059 22.0827L82.51 23.6632C83.805 23.8277 85.039 24.3171 86.096 25.0862C86.609 25.4876 86.959 26.0634 87.078 26.7052C87.198 27.347 87.08 28.0105 86.746 28.5708C87.37 28.7867 87.932 29.1524 88.383 29.6362C88.833 30.1199 89.159 30.7069 89.332 31.3459C89.505 31.985 89.52 32.6567 89.374 33.3025C89.229 33.9483 88.929 34.5486 88.499 35.0509C88.752 35.3411 88.944 35.68 89.062 36.047C89.18 36.414 89.223 36.8012 89.187 37.1851C89.15 37.569 89.037 37.9414 88.852 38.2795C88.668 38.6176 88.416 38.9143 88.113 39.1515C90.19 41.6153 91.833 44.4173 92.969 47.4363C93.56 48.659 93.701 50.0522 93.366 51.3687C93.266 51.6845 93.099 51.9748 92.877 52.22C92.656 52.4651 92.383 52.6593 92.08 52.7892C91.776 52.9191 91.448 52.9817 91.118 52.9727C90.788 52.9637 90.464 52.8833 90.168 52.737C90.536 53.2537 90.749 53.8657 90.781 54.5001C90.813 55.1346 90.662 55.7647 90.347 56.3155C91.604 56.3397 91.997 58.2881 91.14 59.2143C90.654 59.6157 90.09 59.9124 89.485 60.086C88.88 60.2596 88.245 60.3063 87.621 60.2233C86.366 60.0525 85.089 60.2802 83.97 60.8744C83.982 61.0283 84.026 61.178 84.098 61.3146C84.17 61.4512 84.268 61.572 84.387 61.6698C85.455 62.4672 86.177 63.6469 86.401 64.9638C86.625 66.2806 86.336 67.6333 85.592 68.7409C85.443 68.9502 85.307 69.1477 85.181 69.3266C84.154 70.4293 82.917 71.3149 81.544 71.9313C78.709 73.4428 77.012 73.168 73.837 73.6523C74.72 75.7028 69.5931 80.2912 63.6532 75.855C53.1167 78.9619 42.1867 80.5215 31.2033 80.4854C29.464 80.5035 27.3735 80.2816 26.5807 78.7214C25.8623 78.8646 25.1192 78.8223 24.4214 78.5984C23.7235 78.3745 23.0936 77.9764 22.5909 77.4414C21.5994 76.3616 20.8011 75.118 20.2313 73.7656C18.7238 73.3382 17.3848 72.453 16.3983 71.2316C15.4117 70.0101 14.8259 68.5123 14.7214 66.9438C13.6962 66.1427 12.8479 65.1365 12.2304 63.9892C11.6129 62.8419 11.2396 61.5785 11.1342 60.279C10.4198 60.0262 9.76501 59.6281 9.21101 59.1095C8.65691 58.591 8.21561 57.9631 7.91461 57.2654C7.61361 56.5677 7.45951 55.8152 7.46191 55.0551C7.46431 54.295 7.62321 53.5436 7.92861 52.8482C8.53621 49.2299 9.73471 45.7373 11.4757 42.5113C9.47491 42.0919 8.70161 39.396 9.51461 37.5142C10.5151 35.7145 12.0205 34.2497 13.8439 33.302C12.3556 33.7138 11.0385 31.8433 11.3828 30.3312C11.9015 28.8544 12.9825 27.6446 14.3889 26.9669C16.3234 25.7841 18.393 24.8394 20.5528 24.1534C21.2428 21.5121 24.5779 18.4885 27.0313 17.299C36.9042 12.4958 43.8542 11.2544 56.566 20.469" fill="#263238"/>
<path d="M64.2106 36.4524C64.342 34.3606 64.6913 32.286 62.6251 31.9687L41.5425 25.5763C34.7432 24.5406 29.8275 32.7768 29.0846 39.6393C28.2654 47.2615 27.5588 56.607 28.2032 62.3498C28.5405 65.6273 29.7935 68.7428 31.8178 71.337C33.842 73.9311 36.555 75.8983 39.6439 77.0116C39.6439 76.9996 39.3816 84.0174 39.3816 84.0174C40.2583 89.4103 45.5048 94.4504 47.685 96.613C55.1451 95.216 63.4572 79.7817 63.4572 79.7817L64.2106 36.4524Z" fill="#AE7461"/>
<path d="M39.6391 77.0193C44.5802 76.4154 49.3528 74.8363 53.682 72.3728C53.682 72.3728 51.0332 79.6091 39.5383 80.4913L39.6391 77.0193Z" fill="#6F4439"/>
<path d="M31.6854 39.1785C31.9496 39.5495 33.0497 39.2266 34.3599 39.2693C35.6701 39.2697 36.7598 39.6223 37.0344 39.2581C37.1532 39.0793 36.9986 38.7149 36.5283 38.3505C35.8974 37.9132 35.1511 37.674 34.3844 37.6632C33.6177 37.6524 32.8653 37.8705 32.2227 38.2898C31.7394 38.6354 31.5731 38.9931 31.6854 39.1785Z" fill="#263238"/>
<path d="M23.9417 45.1465C23.9863 43.3297 24.6575 41.5849 25.8407 40.2098C26.5815 39.5633 27.2888 38.8791 27.9596 38.1599C29.2454 36.4623 29.0665 34.1069 29.614 32.0513C29.9801 30.7223 30.6566 29.5001 31.5873 28.4862C32.5181 27.4722 33.6763 26.6956 34.9661 26.2208C37.1091 25.4565 39.5389 25.5592 41.5525 24.4888C43.0406 23.6939 44.1719 22.325 45.7022 21.6203C48.685 20.2519 52.1452 21.7956 54.9637 23.4783C55.5242 25.7317 54.1077 27.6678 52.7375 29.5324C52.047 30.4635 51.1633 31.233 50.1476 31.7879C49.1318 32.3428 48.0081 32.6698 46.854 32.7463C45.0673 32.8532 42.9833 32.4471 41.7265 33.7259C40.4063 35.0708 40.9179 37.4369 39.8276 38.9794C38.2738 41.1845 34.7478 40.3406 32.4253 41.7026C30.6336 42.7545 29.8775 44.9055 28.9721 46.7821C28.0666 48.6587 26.5102 50.6213 24.4369 50.5319C24.0706 48.7611 23.9045 46.9545 23.9417 45.1465Z" fill="#263238"/>
<path d="M50.5073 27.5625C55.7419 27.4906 60.9413 28.4373 65.8183 30.3502C67.3196 30.7974 68.6402 31.7128 69.5888 32.9638C70.225 34.1868 70.5002 35.5664 70.3821 36.9406C70.329 41.2394 68.6046 46.4987 66.967 50.4735L61.62 53.6826C57.5054 52.7006 59.397 45.5644 59.5982 41.9895C58.1661 41.3312 56.9463 40.2831 56.0775 38.9642C55.2086 37.6453 54.7255 36.1084 54.683 34.528C53.5108 33.756 52.5267 32.729 51.8038 31.5231C51.0809 30.3173 50.6378 28.9636 50.5073 27.5625Z" fill="#263238"/>
<path d="M61.6955 52.1423C61.8613 49.686 64.8637 49.2083 66.9766 50.4814C68.1321 51.1816 69.0012 52.5564 68.854 55.1624C68.4504 62.1202 61.5788 60.2772 61.5734 60.0811C61.5668 59.9551 61.5061 55.0174 61.6955 52.1423Z" fill="#AE7461"/>
<path d="M63.8349 57.5675C63.8652 57.549 63.9537 57.6577 64.1504 57.7651C64.43 57.9038 64.7518 57.9295 65.0495 57.837C65.5147 57.579 65.9024 57.2007 66.1726 56.7413C66.4427 56.2819 66.5853 55.7582 66.5856 55.2246C66.6381 54.6282 66.5568 54.0275 66.3476 53.4667C66.2944 53.246 66.1893 53.0412 66.0411 52.8695C65.8929 52.6979 65.7059 52.5644 65.4957 52.4802C65.3588 52.4348 65.2103 52.4393 65.0764 52.4928C64.9424 52.5464 64.8315 52.6456 64.7631 52.773C64.6615 52.9639 64.6972 53.1017 64.6562 53.1137C64.6378 53.1322 64.5136 52.9877 64.5849 52.7014C64.6325 52.531 64.738 52.3828 64.8831 52.2826C65.0837 52.1519 65.3269 52.1045 65.5617 52.1502C65.8426 52.2239 66.1001 52.3686 66.3095 52.5706C66.5189 52.7725 66.6734 53.0249 66.7581 53.3038C67.0202 53.9242 67.1247 54.6002 67.0622 55.2711C67.0605 55.8929 66.8759 56.5003 66.5317 57.0171C66.1876 57.5339 65.6991 57.9372 65.1275 58.1763C64.9379 58.2206 64.7408 58.2211 64.5509 58.1776C64.3611 58.1342 64.1835 58.048 64.0317 57.9255C63.8415 57.7319 63.8111 57.5755 63.8349 57.5675Z" fill="#6F4439"/>
<path d="M64.6047 60.493L64.6219 60.5832C64.6385 60.6763 64.6706 60.7659 64.717 60.8483C64.8931 61.1761 65.1776 61.4321 65.5213 61.5723C66.0629 61.8094 66.6473 61.9318 67.238 61.9319C67.6104 61.9424 67.983 61.9186 68.351 61.8606C68.7725 61.8043 69.1825 61.6813 69.5657 61.4964L69.4825 61.454C69.5779 62.0439 69.8237 62.599 70.196 63.0654C70.5682 63.5319 71.054 63.8938 71.607 64.1159C72.16 64.3381 72.76 64.413 73.35 64.3333C73.94 64.2536 74.499 64.022 74.973 63.6611L74.854 63.6426C74.958 63.7999 75.092 63.9349 75.249 64.0396C75.405 64.1444 75.581 64.2168 75.766 64.2525C76.142 64.3311 76.533 64.298 76.891 64.1574C77.263 64.0165 77.58 63.7585 77.795 63.4219C78.006 63.0751 78.127 62.6803 78.146 62.2741C78.175 61.4364 77.909 60.615 77.395 59.9542C76.861 59.2835 76.245 58.6819 75.563 58.1629L75.552 58.3246C75.84 58.1426 76.087 57.9016 76.277 57.6173C76.467 57.3331 76.595 57.0118 76.652 56.6746C76.79 55.9866 76.721 55.273 76.455 54.6239C76.165 53.9725 75.754 53.3822 75.245 52.8844C74.73 52.3848 74.183 51.9192 73.608 51.4909L73.619 51.646C73.868 51.3761 74.057 51.0569 74.175 50.7089C74.293 50.361 74.337 49.9921 74.304 49.626C74.253 48.8745 73.981 48.1549 73.523 47.5579C72.588 46.5239 71.434 45.7129 70.1465 45.1843L70.2006 45.3036C70.3801 44.5788 70.3819 43.821 70.2059 43.0952C70.0299 42.3693 69.6813 41.697 69.1901 41.1357C68.6989 40.5744 68.0796 40.1409 67.3852 39.8723C66.6907 39.6037 65.9419 39.5079 65.2028 39.5932L65.3098 39.7125C65.4224 39.1134 65.3966 38.4963 65.2344 37.9086C65.0722 37.321 64.7779 36.7785 64.3741 36.3228C64.0182 35.884 63.572 35.5276 63.0663 35.2779C62.5605 35.0281 62.007 34.891 61.4437 34.8759L61.5336 34.966C61.517 34.3734 61.3668 33.7922 61.0943 33.2661C60.8218 32.7401 60.434 32.2828 59.9602 31.9288C59.5562 31.6027 59.0901 31.3628 58.5905 31.2238C58.091 31.0849 57.5685 31.0498 57.0551 31.1207L57.133 31.187C57.0941 30.5545 56.9017 29.941 56.5727 29.4001C56.2957 28.9163 55.9383 28.4836 55.5161 28.1206C54.8625 27.5214 54.028 27.1591 53.1457 27.0914L52.8816 27.0727C52.7984 27.0727 52.7152 27.0846 52.6373 27.0912C52.4828 27.1098 52.3337 27.1097 52.1963 27.1388C51.9723 27.1853 51.7517 27.2473 51.5362 27.3242C51.3751 27.3958 51.2444 27.4501 51.1493 27.4912C51.1058 27.5072 51.0638 27.5271 51.0239 27.5508C51.0239 27.5508 51.0715 27.5389 51.156 27.5084C51.2405 27.4779 51.3817 27.425 51.552 27.3587C51.7675 27.2861 51.9882 27.2303 52.2122 27.1919C52.3442 27.1614 52.4921 27.1681 52.6466 27.1496C52.7245 27.1496 52.8011 27.1377 52.8843 27.1377C52.9674 27.1377 53.0506 27.1497 53.1404 27.1616C54.0006 27.2437 54.8102 27.6072 55.4448 28.1962C55.8512 28.5577 56.1953 28.9842 56.4631 29.4583C56.7785 29.9802 56.9601 30.5723 56.9918 31.1817V31.2599L57.0697 31.248C57.5627 31.1841 58.0635 31.2217 58.5416 31.3586C59.0198 31.4955 59.4652 31.7287 59.8506 32.0441C60.3033 32.3852 60.673 32.8249 60.932 33.3301C61.1911 33.8352 61.3326 34.3928 61.3461 34.9607V35.0415H61.4359C61.9728 35.0596 62.4997 35.1934 62.9807 35.4339C63.4618 35.6744 63.8856 36.016 64.2236 36.4354C64.6064 36.8693 64.8855 37.3851 65.0394 37.9437C65.1934 38.5022 65.2181 39.0886 65.1117 39.6581L65.0814 39.7906L65.2134 39.7721C65.9239 39.6852 66.6449 39.7736 67.3139 40.0295C67.9829 40.2854 68.5797 40.7012 69.0526 41.2409C69.5255 41.7805 69.8603 42.4277 70.0279 43.1264C70.1955 43.8251 70.1909 44.5542 70.0145 45.2505L69.996 45.334L70.0739 45.3699C71.332 45.8859 72.459 46.6763 73.376 47.6838C73.81 48.2451 74.067 48.9237 74.114 49.6326C74.146 49.9686 74.106 50.3075 73.999 50.6272C73.891 50.9469 73.718 51.2402 73.49 51.4882L73.407 51.5717L73.502 51.6433C74.676 52.4046 75.638 53.4542 76.295 54.6928C76.544 55.3045 76.61 55.9755 76.486 56.6242C76.433 56.9335 76.316 57.2283 76.143 57.4897C75.97 57.751 75.744 57.9731 75.48 58.1417L75.361 58.2132L75.468 58.3034C76.137 58.811 76.741 59.3992 77.267 60.0549C77.76 60.68 78.017 61.4592 77.994 62.2555C77.996 62.6235 77.889 62.9839 77.687 63.2906C77.485 63.5974 77.196 63.8368 76.858 63.9784C76.547 64.1225 76.197 64.1571 75.864 64.0767C75.531 63.9962 75.235 63.8055 75.023 63.5352L74.976 63.4636L74.905 63.518C74.409 63.8904 73.82 64.1182 73.203 64.176C72.587 64.2339 71.966 64.1196 71.41 63.8458C70.9468 63.6061 70.5449 63.263 70.235 62.8427C69.9252 62.4225 69.7156 61.9365 69.6225 61.4222L69.6106 61.344L69.5393 61.3798C69.1672 61.5626 68.7697 61.6876 68.3602 61.7506C67.9983 61.8124 67.6314 61.8403 67.2643 61.8339C66.684 61.8426 66.108 61.7305 65.5728 61.5047C65.2373 61.3726 64.9546 61.133 64.7685 60.8231C64.7049 60.7178 64.6501 60.6074 64.6047 60.493Z" fill="#455A64"/>
<path d="M91.025 53.0514C91.127 52.9215 91.216 52.7811 91.289 52.6327C91.503 52.2042 91.629 51.7368 91.658 51.2584C91.714 50.4886 91.515 49.7218 91.092 49.0767C90.808 48.6488 90.438 48.2848 90.006 48.008C89.574 47.7311 89.089 47.5474 88.583 47.4684L88.642 47.5519C88.873 46.3682 88.649 45.1404 88.016 44.1151C87.673 43.5397 87.21 43.0461 86.658 42.6688C86.053 42.308 85.415 42.006 84.753 41.767C84.426 41.6317 84.121 41.4485 83.847 41.2234C83.573 40.9913 83.357 40.6986 83.215 40.3684C82.906 39.699 82.81 38.9104 82.423 38.192C82.008 37.4576 81.384 36.8647 80.631 36.4896C79.877 36.1145 79.029 35.9744 78.196 36.0875L78.315 36.2068C78.434 35.3617 78.358 34.5003 78.093 33.689C77.828 32.8777 77.381 32.1381 76.787 31.5272C76.193 30.9162 75.467 30.4502 74.665 30.165C73.863 29.8798 73.007 29.783 72.162 29.882L72.276 29.996C72.373 29.0679 72.205 28.1311 71.79 27.2954C71.376 26.4598 70.7324 25.76 69.9357 25.2784C69.1389 24.7968 68.2218 24.5534 67.2922 24.5766C66.3625 24.5998 65.459 24.8888 64.6876 25.4096L64.8011 25.4216C64.109 24.758 63.2822 24.2523 62.3774 23.9392C61.5749 23.6436 60.7385 23.4505 59.8879 23.3647C58.5126 23.2109 57.1211 23.3035 55.7783 23.638C54.9158 23.8442 54.0916 24.1872 53.3367 24.6539C53.1389 24.7776 52.95 24.9153 52.7716 25.0659C52.707 25.1138 52.6453 25.1656 52.5868 25.2209C52.5987 25.2395 52.8509 25.0235 53.3605 24.7016C54.1193 24.2551 54.9431 23.9306 55.8021 23.74C57.1356 23.4216 58.515 23.343 59.8761 23.5078C60.7138 23.5975 61.5367 23.7946 62.3247 24.0943C63.2045 24.4043 64.007 24.9018 64.677 25.5528L64.7312 25.6071L64.7906 25.5647C65.5319 25.0634 66.4007 24.7853 67.2945 24.7633C68.1883 24.7413 69.07 24.9762 69.8353 25.4405C70.6007 25.9047 71.218 26.5789 71.614 27.3834C72.011 28.188 72.17 29.0894 72.072 29.9814L72.06 30.1139L72.192 30.0954C73.005 30.0002 73.829 30.0933 74.601 30.3678C75.372 30.6423 76.071 31.0907 76.643 31.6786C77.215 32.2664 77.645 32.9781 77.9 33.7587C78.155 34.5394 78.228 35.3683 78.114 36.1816L78.096 36.3141L78.228 36.2903C79.019 36.1856 79.823 36.3197 80.538 36.6753C81.253 37.031 81.847 37.5921 82.243 38.2873C82.613 38.9567 82.714 39.7454 83.036 40.4452C83.194 40.7989 83.428 41.1131 83.722 41.3652C84.012 41.5968 84.333 41.7877 84.675 41.9327C85.325 42.1632 85.951 42.4554 86.545 42.8053C87.08 43.1665 87.531 43.6396 87.866 44.1919C88.484 45.1813 88.71 46.367 88.498 47.5148L88.487 47.5863L88.558 47.5983C89.048 47.6707 89.518 47.844 89.938 48.1073C90.358 48.3706 90.72 48.7182 91 49.1283C91.42 49.7526 91.625 50.4973 91.584 51.2491C91.563 51.72 91.452 52.1824 91.257 52.6115C91.121 52.9017 91.02 53.0461 91.025 53.0514Z" fill="#455A64"/>
<path d="M24.6992 54.9218C24.7428 54.8342 24.7675 54.7385 24.7715 54.6407C24.7756 54.5429 24.759 54.4454 24.7228 54.3545C24.6421 54.1297 24.5019 53.9312 24.3173 53.7804C24.0646 53.5784 23.7726 53.4316 23.4602 53.3494C23.0783 53.2526 22.7129 53.0993 22.3759 52.8945C22.0019 52.6167 21.7279 52.2245 21.5952 51.7769C21.4358 51.2628 21.377 50.7227 21.4218 50.1863C21.4454 49.6124 21.5351 49.0027 21.5349 48.3519C21.3962 46.9533 21.1004 45.5748 20.6531 44.2427C20.4689 43.4937 20.4364 42.7153 20.5574 41.9536C20.6139 41.556 20.7555 41.1754 20.9724 40.838C21.1893 40.5006 21.4764 40.2143 21.814 39.9989C22.5858 39.6222 23.4022 39.3454 24.2436 39.1751C24.6873 39.0515 25.1079 38.856 25.4887 38.5962C25.8696 38.3109 26.1709 37.9322 26.3639 37.4962C26.7028 36.6123 26.9482 35.6949 27.0961 34.7593C27.1888 34.2956 27.3513 33.8487 27.5778 33.434C27.8116 33.0303 28.1717 32.7154 28.6022 32.5382C29.2278 32.3701 29.8719 32.2812 30.5196 32.2736C30.8542 32.2452 31.1819 32.1625 31.4901 32.0287C31.8002 31.8851 32.0657 31.6598 32.2585 31.3768C32.5823 30.8225 32.8267 30.225 32.9843 29.6021C33.1607 29.0228 33.4566 28.4873 33.8528 28.0304C34.2296 27.5938 34.6922 27.2401 35.2116 26.9914C35.7309 26.7427 36.2959 26.6044 36.8711 26.5851C37.9515 26.5543 39.0034 26.937 39.8135 27.6555L39.9034 27.739L39.9574 27.625C40.3514 26.77 40.9228 26.0095 41.6334 25.3943C42.344 24.7791 43.1774 24.3235 44.0779 24.0579C44.83 23.8434 45.6161 23.7748 46.394 23.8557C47.0559 23.9155 47.7016 24.0953 48.2997 24.3864C49.1408 24.8007 49.8442 25.451 50.3245 26.2585C50.4553 26.471 50.571 26.6925 50.6706 26.9213C50.7063 26.9929 50.7301 27.0473 50.7539 27.095C50.7776 27.1427 50.7829 27.1546 50.7829 27.1493C50.7829 27.144 50.783 27.1255 50.7645 27.0897C50.746 27.0539 50.7222 26.9823 50.6931 26.9107C50.6057 26.6786 50.4983 26.4546 50.372 26.2413C49.9017 25.4097 49.1973 24.7359 48.3472 24.3043C47.7399 23.9988 47.0818 23.8082 46.4059 23.7417C45.6112 23.6486 44.8062 23.7114 44.0356 23.9267C43.1113 24.1932 42.2547 24.6554 41.5235 25.2821C40.7923 25.9088 40.2034 26.6856 39.7964 27.56L39.939 27.5296C39.0953 26.7771 37.9991 26.3732 36.8711 26.3995C36.2678 26.4168 35.6748 26.5595 35.1293 26.8185C34.5839 27.0775 34.098 27.4473 33.7022 27.9044C33.2866 28.3795 32.9761 28.9378 32.7915 29.5424C32.6408 30.1475 32.4044 30.7278 32.0894 31.2654C31.9032 31.5112 31.6639 31.7115 31.3895 31.8512C31.1151 31.9909 30.8127 32.0665 30.505 32.0722C29.8389 32.0796 29.1765 32.1716 28.5336 32.346C28.0598 32.5399 27.664 32.8868 27.4087 33.3319C27.1699 33.7631 26.9994 34.229 26.9033 34.7129C26.7615 35.6345 26.5223 36.5382 26.1896 37.4087C26.0116 37.8134 25.733 38.1652 25.3804 38.4304C25.021 38.6791 24.6224 38.8649 24.2013 38.9802C23.3442 39.1573 22.5134 39.4444 21.7295 39.8345C21.3574 40.0601 21.0464 40.3741 20.8238 40.7488C20.6098 41.1112 20.4644 41.5102 20.395 41.9257C20.2714 42.7118 20.308 43.5148 20.5025 44.2864C20.951 45.6086 21.2546 46.9758 21.4081 48.3638C21.4083 48.9974 21.3305 49.6071 21.3069 50.1929C21.2668 50.7466 21.3337 51.303 21.5041 51.8313C21.6515 52.2972 21.9436 52.7037 22.3376 52.9913C22.6849 53.1946 23.06 53.3456 23.4509 53.4396C23.7554 53.512 24.0416 53.6475 24.2909 53.8374C24.47 53.9809 24.6097 54.168 24.6964 54.381C24.7632 54.5549 24.7642 54.7472 24.6992 54.9218Z" fill="#455A64"/>
<path d="M11.242 44.1358C11.2723 44.0955 11.2963 44.0508 11.3132 44.0033C11.3608 43.9079 11.4268 43.7767 11.5033 43.615C11.6696 43.2559 11.9138 42.755 12.2174 42.1031C12.521 41.4511 12.884 40.6335 13.3843 39.7431C13.9099 38.7087 14.7146 37.8433 15.7067 37.2456C16.2665 36.9409 16.9149 36.7383 17.5646 36.4509C17.9015 36.3052 18.2194 36.1188 18.5114 35.8959C18.817 35.655 19.0602 35.3437 19.2204 34.9883C19.5477 34.2648 19.5594 33.4458 19.8207 32.6997C19.9418 32.3225 20.1743 31.9912 20.4873 31.7497C20.8281 31.5175 21.204 31.3422 21.6005 31.2305C22.0238 31.1138 22.4347 30.9559 22.8273 30.759C23.2381 30.5382 23.5692 30.1934 23.7739 29.7733C24.0933 28.9043 24.2935 27.9958 24.3689 27.0726C24.4347 26.6198 24.5904 26.185 24.8268 25.7938C24.9536 25.6057 25.1162 25.4445 25.3052 25.3195C25.4941 25.1945 25.7058 25.1081 25.9281 25.0652C26.8393 24.8746 27.8219 25.1982 28.8335 25.0355C29.3419 24.9461 29.8089 24.697 30.1672 24.3242C30.4984 23.9603 30.788 23.5603 31.0305 23.1316C31.2643 22.7189 31.5185 22.3183 31.7923 21.9312C32.0513 21.5576 32.4019 21.2574 32.8103 21.0594C33.6624 20.7777 34.5834 20.7864 35.4304 21.0839C36.2802 21.3548 37.1794 21.4324 38.0626 21.3112C38.883 21.1036 39.6595 20.7496 40.355 20.2662C40.9975 19.8221 41.6816 19.4419 42.3977 19.131C43.7269 18.6846 45.1576 18.6389 46.5128 18.9995C47.6357 19.2865 48.6788 19.8266 49.5626 20.5787C50.2233 21.1519 50.7903 21.8256 51.243 22.575C51.5232 23.0526 51.7644 23.5522 51.9645 24.0687C52.0305 24.2357 52.0834 24.3736 52.1257 24.4664C52.168 24.5591 52.1851 24.5989 52.1851 24.5989C52.176 24.5499 52.1618 24.5019 52.1429 24.4558C52.1067 24.3541 52.0592 24.2167 52.0001 24.0436C51.8197 23.5142 51.5882 23.0037 51.309 22.5193C50.8616 21.754 50.2967 21.0642 49.6352 20.4754C48.7427 19.7044 47.6878 19.1464 46.5498 18.8432C45.166 18.4611 43.7005 18.5004 42.3395 18.9561C41.6121 19.269 40.9162 19.6509 40.2612 20.0966C39.5848 20.5677 38.8306 20.9147 38.0335 21.1217C37.1771 21.2296 36.3075 21.1498 35.4846 20.8878C35.0405 20.7733 34.5884 20.6935 34.1321 20.6489C33.6544 20.6059 33.1736 20.6818 32.7323 20.8699C32.2918 21.0836 31.9128 21.4064 31.6311 21.8079C31.351 22.1996 31.0928 22.6065 30.8575 23.0269C30.6271 23.4455 30.3474 23.8347 30.0245 24.1863C29.6969 24.5278 29.2697 24.756 28.8044 24.838C27.8575 24.9928 26.8801 24.6705 25.8857 24.873C25.3863 24.9713 24.9456 25.2631 24.6591 25.6851C24.4053 26.0995 24.2374 26.561 24.1655 27.042C24.0928 27.947 23.9007 28.8382 23.5943 29.6924C23.406 30.0753 23.1045 30.3904 22.7308 30.5946C22.3487 30.7821 21.951 30.9358 21.5423 31.0542C21.1254 31.1708 20.7308 31.3566 20.3751 31.6039C20.0338 31.8689 19.7806 32.2316 19.6489 32.644C19.385 33.4391 19.3694 34.2462 19.0658 34.9207C18.7398 35.5647 18.1819 36.0601 17.5051 36.3065C16.8673 36.5926 16.2189 36.8018 15.6419 37.1184C14.6314 37.7339 13.816 38.6248 13.2905 39.6874C12.7902 40.5951 12.451 41.41 12.1474 42.0726C11.8438 42.7351 11.63 43.2373 11.469 43.5964C11.3977 43.7634 11.337 43.8946 11.2961 43.994C11.2712 44.0383 11.253 44.0861 11.242 44.1358Z" fill="#455A64"/>
<path d="M18.6147 36.8595C18.5743 36.8452 18.532 36.8371 18.4893 36.8356C18.3608 36.8292 18.233 36.858 18.1197 36.919C17.912 37.0507 17.7402 37.2322 17.6198 37.4471C17.4993 37.662 17.434 37.9037 17.4296 38.1503C17.43 38.5026 17.4803 38.853 17.579 39.191C17.6955 39.583 17.7556 39.9897 17.7575 40.3987C17.7073 40.8623 17.5392 41.3051 17.2694 41.6845C17.0055 42.1033 16.6558 42.5155 16.3826 43.0179C16.2232 43.2761 16.1249 43.5676 16.0952 43.8701C16.0656 44.1725 16.1053 44.4777 16.2115 44.7624C16.4321 45.3537 16.8613 45.8509 17.0687 46.4541C17.2516 47.0927 17.1837 47.7774 16.879 48.367C16.6152 49.0006 16.2193 49.6222 15.9554 50.3274C15.8101 50.686 15.7353 51.0695 15.7353 51.4568C15.7428 51.8555 15.8328 52.2482 15.9996 52.6102C16.3796 53.3115 16.8216 53.9771 17.3202 54.599C17.8294 55.2173 18.0908 56.0039 18.0534 56.8051C17.8671 57.6186 17.5854 58.407 17.2144 59.1539C17.052 59.561 16.9653 59.9945 16.9587 60.4331C16.9692 60.8698 17.0814 61.2979 17.2864 61.6833C17.7065 62.3954 18.2082 63.0558 18.7812 63.6509C19.3168 64.2166 19.7284 64.8887 19.9896 65.6238C20.1816 66.3626 20.4225 67.0876 20.711 67.7941C20.8766 68.1363 21.1167 68.4367 21.4135 68.6732C21.7107 68.8874 22.0432 69.0472 22.3958 69.1454C22.7226 69.2395 23.0429 69.3556 23.3543 69.4929C23.6461 69.6385 23.9167 69.8237 24.1584 70.0433C24.5999 70.4882 24.982 70.9887 25.2953 71.5323C25.611 72.052 25.9095 72.5612 26.2422 73.0146C26.8358 73.856 27.6836 74.4829 28.6598 74.8022C29.3879 75.046 30.1613 75.1219 30.9225 75.0242C31.4022 74.9669 31.8688 74.8295 32.3032 74.6176C32.4532 74.5436 32.5983 74.4599 32.7375 74.3671C32.1682 74.6679 31.5492 74.8622 30.9106 74.9407C30.1629 75.0243 29.4059 74.9385 28.6954 74.6895C27.7485 74.3694 26.9298 73.7508 26.361 72.9258C26.0401 72.4777 25.7482 71.9685 25.4366 71.4435C25.1223 70.8832 24.7336 70.3684 24.2811 69.9134C24.0276 69.6799 23.7432 69.4827 23.4361 69.3272C23.1157 69.1888 22.7878 69.0687 22.4538 68.9677C22.1225 68.8724 21.81 68.7208 21.5296 68.5194C21.254 68.3009 21.0337 68.0202 20.8865 67.7C20.6061 67.0006 20.3713 66.2836 20.1837 65.5536C19.9113 64.7958 19.4875 64.1019 18.9383 63.5144C18.3788 62.9283 17.8875 62.2802 17.4738 61.5826C17.2845 61.2247 17.1805 60.8276 17.1699 60.4225C17.1779 60.0106 17.2606 59.6037 17.4138 59.2216C17.7914 58.4596 18.0771 57.6551 18.2647 56.825C18.312 56.397 18.2548 55.9639 18.098 55.5629C17.9442 55.1782 17.7422 54.8147 17.4971 54.4811C17.0062 53.871 16.5696 53.2188 16.1923 52.532C16.0368 52.1964 15.9517 51.8322 15.9426 51.4621C15.9466 51.0988 16.0172 50.7393 16.1509 50.4017C16.4015 49.7204 16.7815 49.104 17.0612 48.4466C17.3808 47.8141 17.4467 47.0826 17.2455 46.4025C17.013 45.7568 16.5786 45.2662 16.3699 44.7107C16.2702 44.4457 16.2323 44.1613 16.259 43.8794C16.2857 43.5975 16.3763 43.3255 16.5239 43.0842C16.7878 42.6004 17.1256 42.1882 17.3922 41.7588C17.6649 41.3559 17.8303 40.8895 17.8724 40.4041C17.8664 39.984 17.8001 39.5669 17.6754 39.1659C17.5713 38.8392 17.5169 38.4986 17.5141 38.1557C17.5143 37.9191 17.5718 37.6861 17.6817 37.4769C17.7916 37.2677 17.9505 37.0885 18.1448 36.9548C18.29 36.8811 18.4523 36.8481 18.6147 36.8595Z" fill="#455A64"/>
<path d="M68.7044 59.355C69.0807 59.4975 69.431 59.7013 69.7412 59.9584C70.6149 60.6558 71.213 61.6428 71.427 62.7423C71.587 63.4974 71.568 64.2794 71.373 65.026C71.138 65.8792 70.7027 66.6638 70.1048 67.3147C69.4516 68.0448 68.621 68.5926 67.6939 68.9046C66.6936 69.2376 65.6164 69.2604 64.6026 68.9701C63.5897 68.6858 62.6752 68.1248 61.9611 67.3497C61.2992 66.6208 60.8606 65.716 60.698 64.7435C60.5618 63.9265 60.6138 63.0891 60.85 62.2956C61.0863 61.5021 61.5005 60.7735 62.0609 60.1658C62.5176 59.7248 63.0558 59.3778 63.6453 59.1443C64.0821 58.959 64.5433 58.8382 65.0146 58.7855C65.3121 58.7528 65.6127 58.7632 65.9073 58.8162C66.0107 58.8339 66.1112 58.8661 66.2058 58.9117C65.8166 58.8395 65.4183 58.8313 65.0265 58.8875C63.9639 59.0564 62.9786 59.5483 62.2036 60.2971C61.6744 60.8871 61.2862 61.5906 61.0686 62.3539C60.8509 63.1173 60.8095 63.9205 60.9475 64.7025C61.1078 65.624 61.5273 66.4805 62.1565 67.1708C62.8384 67.9102 63.7134 68.4427 64.6817 68.7077C65.644 68.985 66.6671 68.9645 67.6173 68.6488C68.4592 68.3634 69.2207 67.8799 69.8381 67.2385C70.4555 66.5972 70.9108 65.8167 71.166 64.9623C71.361 64.2491 71.389 63.5002 71.249 62.774C71.053 61.7087 70.5004 60.7425 69.6817 60.0366C69.0913 59.546 68.6859 59.3842 68.7044 59.355Z" fill="#E0E0E0"/>
<path d="M39.3152 57.3223C38.4685 57.0146 37.5868 56.8144 36.6908 56.7264C36.2763 56.664 35.8869 56.5632 35.8301 56.2755C35.8147 55.8422 35.9311 55.4145 36.1637 55.0493L37.537 51.9238C38.7997 49.2808 39.8488 46.54 40.674 43.728C39.2034 46.2628 37.9376 48.9122 36.8888 51.6505C36.428 52.7489 35.9882 53.7979 35.5696 54.7973C35.2852 55.2891 35.1825 55.866 35.2796 56.4265C35.3337 56.5769 35.4213 56.7129 35.5357 56.8242C35.6501 56.9354 35.7883 57.0189 35.9398 57.0683C36.1673 57.1423 36.4033 57.1869 36.6421 57.201C37.5269 57.3571 38.4278 57.3997 39.3231 57.3277" fill="#263238"/>
<path d="M46.2755 39.087C46.4157 39.5387 48.0533 39.4027 49.9553 39.7211C51.8639 40.0011 53.3803 40.6334 53.6536 40.252C53.775 40.0666 53.5213 39.636 52.9202 39.1774C52.1116 38.6118 51.1854 38.2383 50.2116 38.0852C49.2378 37.9321 48.2422 38.0034 47.3002 38.2937C46.5845 38.5466 46.216 38.8776 46.2755 39.087Z" fill="#263238"/>
<path d="M44.4605 59.738C44.3619 59.5073 44.1786 59.3235 43.9487 59.2247C43.7188 59.126 43.4598 59.1198 43.2256 59.2075L38.7361 60.8591L38.2369 61.0419C38.4538 61.9607 38.7878 62.8478 39.2307 63.681C39.4345 64.0394 39.7141 64.3486 40.0498 64.5868C40.3855 64.8251 40.7691 64.9866 41.1736 65.0599C41.8379 65.1062 42.4996 64.9408 43.0645 64.5873C43.5353 64.3696 43.955 64.0547 44.2963 63.6631C44.6375 63.2715 44.8925 62.812 45.0448 62.3147C45.063 61.4207 44.8604 60.5359 44.4552 59.7393" fill="#6F4439"/>
<path d="M46.2743 50.3949C46.2528 50.8016 46.3905 51.2007 46.658 51.5071C46.9255 51.8134 47.3016 52.0029 47.7061 52.0349C47.9033 52.0594 48.1034 52.0441 48.2945 51.9898C48.4856 51.9354 48.664 51.8433 48.819 51.7187C48.974 51.5941 49.1026 51.4396 49.1972 51.2643C49.2918 51.0889 49.3504 50.8964 49.3697 50.6979C49.3912 50.2915 49.2539 49.8927 48.987 49.5861C48.72 49.2796 48.3446 49.0897 47.9404 49.0567C47.7432 49.0321 47.5431 49.0475 47.3519 49.1017C47.1607 49.156 46.9822 49.2482 46.8271 49.3728C46.6719 49.4974 46.5432 49.6519 46.4485 49.8272C46.3538 50.0025 46.295 50.1951 46.2756 50.3936" fill="#263238"/>
<path d="M31.8108 50.3955C31.7893 50.802 31.9268 51.2009 32.194 51.5073C32.4612 51.8136 32.8371 52.0032 33.2413 52.0355C33.4385 52.06 33.6385 52.0447 33.8297 51.9904C34.0208 51.9361 34.1991 51.8439 34.3542 51.7193C34.5092 51.5947 34.6378 51.4402 34.7324 51.2649C34.827 51.0896 34.8856 50.897 34.9049 50.6986C34.926 50.2924 34.7886 49.8938 34.5217 49.5876C34.2548 49.2814 33.8795 49.0916 33.4756 49.0586C33.2784 49.0341 33.0783 49.0494 32.8871 49.1037C32.6958 49.158 32.5174 49.2501 32.3623 49.3747C32.2072 49.4993 32.0784 49.6538 31.9837 49.8291C31.889 50.0045 31.8302 50.197 31.8108 50.3955Z" fill="#263238"/>
<path d="M30.7581 44.2597C30.9074 44.4956 32.0959 43.6851 33.6241 43.8564C35.1522 44.0025 36.1615 45.0415 36.3529 44.8401C36.4467 44.7527 36.3145 44.3433 35.8772 43.8755C35.3083 43.2793 34.5467 42.9052 33.7285 42.82C32.9103 42.7349 32.0887 42.9442 31.4104 43.4106C30.8901 43.7801 30.6828 44.155 30.7581 44.2597Z" fill="#263238"/>
<path d="M45.3511 45.5182C45.5598 45.7593 46.8685 44.7384 48.7057 44.7561C50.5428 44.746 51.8758 45.7702 52.0817 45.5292C52.1808 45.422 51.972 44.9901 51.3881 44.5263C50.6127 43.9329 49.6646 43.6111 48.6895 43.6103C47.7225 43.6052 46.7817 43.9243 46.0165 44.517C45.4474 44.9791 45.248 45.4109 45.3564 45.5182" fill="#263238"/>
<path d="M40.1542 64.4938C40.141 64.5084 40.2863 64.6887 40.6455 64.8598C41.1749 65.0744 41.7571 65.1209 42.3134 64.9928C43.1414 64.8224 43.9031 64.4168 44.5078 63.8243C44.8786 63.4634 45.1388 63.0036 45.2575 62.499C45.3679 61.9616 45.3519 61.4056 45.2109 60.8753C45.0803 60.3622 44.8905 59.8662 44.6453 59.3973C44.5856 59.2549 44.4966 59.1268 44.3841 59.0212C44.2717 58.9157 44.1384 58.8351 43.9929 58.7847C43.7154 58.7412 43.4314 58.7876 43.1821 58.9171L40.9546 59.8191C40.252 60.0604 39.5781 60.3785 38.945 60.7676C39.6761 60.6378 40.3908 60.4278 41.0761 60.1413L43.3406 59.336C43.7975 59.1452 44.0114 59.1705 44.2215 59.6145C44.4431 60.0521 44.6163 60.5126 44.7382 60.9879C44.8779 61.4208 44.9003 61.8832 44.8032 62.3276C44.706 62.772 44.4929 63.1824 44.1855 63.5167C43.6492 64.066 42.9765 64.4616 42.2367 64.6627C41.7385 64.8042 41.2116 64.81 40.7102 64.6795C40.3563 64.5774 40.1819 64.4541 40.1529 64.4925" fill="#263238"/>
</g>
</g>
<defs>
<clipPath id="clip0_4_3">
<rect width="240" height="268" fill="white"/>
</clipPath>
<clipPath id="clip1_4_3">
<rect width="320" height="296" fill="white" transform="translate(-29 -5)"/>
</clipPath>
</defs>
</svg>
