<svg width="241" height="249" viewBox="0 0 241 249" fill="none" xmlns="http://www.w3.org/2000/svg">
<path d="M111.447 65.3614H144.277C144.277 65.3614 148.706 35.2206 174.336 34.962C199.965 34.7033 206.902 57.5654 204.797 65.3614C202.692 73.1575 201.84 90.0656 178.2 95.9123C154.56 101.759 157.01 98.466 157.01 98.466V173.583H192.525V127.814C192.525 127.814 240.45 112.986 240.19 65.3602C239.929 17.7347 199.47 -4.95453 160.846 1.383C106.134 13.161 111.447 65.3614 111.447 65.3614Z" fill="white"/>
<path d="M194.181 180.525H157.762V213.304H194.181V180.525Z" fill="white"/>
<path d="M216.093 55.8019C214.53 48.2317 206.853 23.6348 173.721 25.0365C157.271 25.7292 148.178 33.548 143.446 39.9852C140.369 44.1436 138.189 48.8999 137.044 53.951L137.009 54.1604H118.66V53.9081C118.648 50.1314 118.915 46.3591 119.459 42.6222L119.962 42.7294C119.423 46.3483 119.159 50.003 119.17 53.6621H136.594C137.778 48.6224 139.968 43.8764 143.032 39.7114C147.83 33.1771 157.045 25.2409 173.707 24.5382C187.298 23.9628 198.163 27.6924 206.006 35.6033C211.372 41.1568 215.046 48.1328 216.597 55.7111L216.093 55.8019Z" fill="#D3317D"/>
<path d="M185.636 173.898H158.165V95.3469L158.464 95.3973C184.407 99.9849 195.664 88.4454 200.074 81.1565C202.627 77.0438 204.178 72.3849 204.602 67.5577C205.025 62.7305 204.309 57.8711 202.511 53.3738C200.242 47.9485 193.113 35.3769 175.751 35.6671C167.252 35.8147 155.833 38.5059 149.675 50.4883C147.418 54.9954 146.145 59.9337 145.939 64.9739V65.2262H111.465V64.9739C111.435 62.0581 111.465 52.1752 111.465 52.0742V51.7942L115.714 52.2433V58.6149L140.576 58.5796C141.657 53.3574 143.729 48.3928 146.679 43.9565C151.177 37.2694 159.777 29.3535 175.257 29.3535C175.424 29.3535 175.587 29.3535 175.759 29.3535C187.081 29.4797 196.428 33.4717 202.78 40.9132C209.63 48.9301 211.696 59.5221 210.711 66.4589C210.711 66.5914 210.061 82.5595 198.104 93.207C189.763 100.633 178.019 103.757 163.194 102.493V126.889H168.3V107.409L168.574 107.434C173.208 107.683 177.855 107.33 182.399 106.384C189.38 104.947 199.001 101.414 205.225 92.7351C216.41 77.1279 216.536 68.3061 216.627 61.8638C216.627 61.344 216.643 60.8393 216.653 60.3498L216.597 59.0653H224.213L224.233 59.3C224.249 59.4577 225.453 75.3754 212.241 93.2247C204.022 104.337 194.395 111.487 185.125 113.368L185.023 112.863C194.161 111.008 203.686 103.928 211.83 92.9193C224.051 76.4049 223.833 61.5938 223.736 59.5751H217.12L217.15 60.3498C217.14 60.8544 217.13 61.3591 217.125 61.8638C217.033 68.378 216.911 77.2919 205.631 93.0279C199.305 101.846 189.544 105.429 182.479 106.886C177.98 107.809 173.384 108.17 168.797 107.961V127.419H162.664V101.959L162.938 101.985C177.743 103.294 189.456 100.218 197.741 92.8512C209.534 82.3614 210.183 66.5977 210.183 66.4387C211.158 59.5839 209.117 49.1597 202.374 41.2703C196.114 33.931 186.9 29.9957 175.731 29.8733C160.169 29.7055 151.569 37.5899 147.091 44.2315C144.132 48.668 142.073 53.6471 141.035 58.8837L140.999 59.0981L115.203 59.1335V52.7114L111.969 52.3695C111.969 53.9643 111.944 61.8499 111.969 64.7342H145.437C145.686 59.7062 146.975 54.7852 149.22 50.2839C152.682 43.5401 160.09 35.4412 175.747 35.1712C175.956 35.1712 176.163 35.1712 176.366 35.1712C193.573 35.1712 200.7 47.7403 202.985 53.1984C204.814 57.7704 205.543 62.7108 205.113 67.6187C204.684 72.5265 203.108 77.2636 200.513 81.4454C196.743 87.6795 188.05 96.9757 169.711 96.9808C166.011 96.959 162.321 96.6213 158.679 95.9714V173.403H185.644V173.908L185.636 173.898Z" fill="#D3317D"/>
<path d="M192.744 173.641H192.241V127.759L192.435 127.709C201.113 125.024 209.195 120.687 216.24 114.935C227.09 106.112 240.021 89.8894 240.021 62.6921C240.021 41.3264 231.411 24.1597 215.123 13.0479C203.413 5.29495 189.774 0.988553 175.751 0.616338C161.357 0.616338 126.651 4.29672 115.233 38.3589C114.32 41.4684 113.622 44.6379 113.147 47.8444L112.644 47.7775C113.124 44.5419 113.826 41.3435 114.745 38.205C126.27 3.82106 161.246 0.101562 175.746 0.101562C189.869 0.475491 203.607 4.81158 215.402 12.6189C231.837 23.8266 240.523 41.1334 240.523 62.6808C240.523 90.0862 227.48 106.443 216.538 115.332C209.483 121.071 201.409 125.415 192.742 128.135L192.744 173.641Z" fill="#D3317D"/>
<path d="M188.967 144.146H188.464L188.5 123.641L188.713 123.606C193.323 122.647 197.758 120.982 201.863 118.667C211.936 113.092 220.246 104.788 225.846 94.7014C236.497 76.0004 234.563 61.6069 234.543 61.4644C233.286 43.0082 226.055 28.6349 213.052 18.7317C199.466 8.38579 183.818 6.18285 175.695 5.79046C166.263 5.56869 156.878 7.19729 148.066 10.5849C134.192 16.0494 124.987 25.3052 120.696 38.0901L120.214 37.9273C124.55 24.986 133.861 15.628 147.878 10.108C156.756 6.69527 166.212 5.05385 175.716 5.27569C183.895 5.66808 199.659 7.88994 213.351 18.3192C226.476 28.3144 233.776 42.8101 235.041 61.4038C235.061 61.53 237.026 76.0825 226.277 94.9462C220.623 105.122 212.236 113.498 202.07 119.12C197.976 121.403 193.57 123.069 188.992 124.065L188.967 144.146Z" fill="#D3317D"/>
<path d="M188.926 169.263H168.552V168.758H188.418L188.443 152.912H188.946L188.926 169.263Z" fill="#D3317D"/>
<path d="M168.552 169.264H163.094V133.238H168.806V164.732H168.303V133.748H163.606V168.754H168.557L168.552 169.264Z" fill="#D3317D"/>
<path d="M133.302 48.074H124.204L124.214 47.8091C124.273 40.6199 126.935 33.6978 131.703 28.3334C133.627 26.1721 135.904 24.3554 138.436 22.9611L133.597 18.776L133.928 18.3887L139.354 23.0835L138.994 23.2462C138.857 23.3068 125.403 29.7036 124.727 47.558H133.098C133.504 45.7739 136.708 32.8945 145.43 29.5043L142.582 26.5178C141.516 26.8446 134.413 29.479 130.463 42.6285L129.975 42.4809C134.321 28.0003 142.266 26.0535 142.602 25.9829L142.744 25.9526L146.338 29.7188L145.968 29.8512C136.626 33.1392 133.584 47.7157 133.554 47.8633L133.514 48.0677H133.3L133.302 48.074Z" fill="#D3317D"/>
<path d="M148.605 26.5883L137.278 16.0178L137.624 15.6456L148.605 25.8906C150.037 24.6886 151.611 23.6682 153.292 22.8524C157.975 20.5763 163.06 19.253 168.254 18.9588C181.953 17.9898 191.714 20.5852 196.045 23.1641L199.807 16.8139C196.902 15.5346 170.07 4.342 148.153 17.0839L147.902 16.6411C171.215 3.08786 199.991 16.3307 200.282 16.4632L200.533 16.5805L196.217 23.8643L195.999 23.7268C191.851 21.1479 182.107 18.4869 168.288 19.466C155.128 20.3984 148.843 26.3574 148.776 26.418L148.605 26.5883Z" fill="#D3317D"/>
<path d="M183.925 162.495L183.422 162.484L184.199 119.054H184.45C199.011 118.947 219.355 98.0708 225.177 81.6838C233.306 58.8242 226.701 42.8145 219.724 33.411C215.132 27.2789 209.319 22.1723 202.656 18.4157L198.955 25.1481C201.447 26.208 220.329 34.9339 220.481 55.3937L228.493 55.4605V55.9652L219.978 55.8933V55.641C219.978 34.0154 198.721 25.5897 198.507 25.5077L198.233 25.4005L202.447 17.7344L202.666 17.8416C209.491 21.6269 215.438 26.8231 220.115 33.0868C227.167 42.5924 233.853 58.77 225.645 81.8491C222.365 91.0746 215.562 100.683 206.987 108.21C199.046 115.172 190.74 119.397 184.694 119.55L183.925 162.495Z" fill="#D3317D"/>
<path d="M179.665 162.745H172.736V162.485L173.542 117.633L173.522 114.646H179.777V157.089H179.275V115.155H174.04L174.055 117.637L173.253 162.234H179.663L179.665 162.745Z" fill="#D3317D"/>
<path d="M223.83 108.029C223.399 107.494 220.606 104.671 219.91 103.967L219.839 103.895L219.767 103.823C219.731 103.793 219.706 103.752 219.694 103.707C219.682 103.662 219.684 103.614 219.7 103.571L219.894 103.398C219.949 103.388 219.986 103.382 220.107 103.485L220.123 103.47L220.265 103.617C220.523 103.862 221.006 104.357 221.975 105.339C223.249 106.644 224.006 107.439 224.225 107.709L223.83 108.029Z" fill="#D3317D"/>
<path d="M207.71 8.73719L204.589 12.7109L204.987 13.0266L208.109 9.05282L207.71 8.73719Z" fill="#D3317D"/>
<path d="M206.065 62.9473C205.659 62.9473 205.274 62.9473 204.934 62.9322L204.949 62.4275C205.756 62.4527 206.797 62.4426 207.807 62.4275C208.818 62.4123 209.873 62.4022 210.69 62.4275L210.675 62.9322C209.868 62.9069 208.828 62.9221 207.817 62.9322C207.229 62.9423 206.63 62.9473 206.065 62.9473Z" fill="#D3317D"/>
<path d="M127.454 58.9258H126.946V64.7561H127.454V58.9258Z" fill="#D3317D"/>
<path d="M174.466 30.0059H173.958V35.0211H174.466V30.0059Z" fill="#D3317D"/>
<path d="M220.043 92.5507L219.84 93.0176L225.658 95.5746L225.862 95.1077L220.043 92.5507Z" fill="#D3317D"/>
<path d="M196.008 101.433L195.604 101.742L199.308 106.613L199.712 106.304L196.008 101.433Z" fill="#D3317D"/>
<path d="M237.766 43.4692L231.806 45.1328L231.942 45.6242L237.902 43.9606L237.766 43.4692Z" fill="#D3317D"/>
<path d="M193.155 213.648H158.073V186.855H158.575V213.14H192.647V181.227H158.324V180.723H193.152L193.155 213.648Z" fill="#D3317D"/>
<path d="M188.951 208.097H163.094V192.312H183.925V201.73H168.552V197.188H178.625V197.693H169.06V201.214H183.417V192.815H163.605V207.577H188.447V187.302H158.327V186.797H188.951V208.097Z" fill="#D3317D"/>
<path d="M169.607 207.844H169.1V213.389H169.607V207.844Z" fill="#D3317D"/>
<path d="M192.901 195.631H188.697V196.141H192.901V195.631Z" fill="#D3317D"/>
<path d="M173.248 192.568H172.741V197.186H173.248V192.568Z" fill="#D3317D"/>
<path d="M163.347 200.117H158.327V200.627H163.347V200.117Z" fill="#D3317D"/>
<path d="M225.943 57.9215C225.612 57.6399 225.228 57.4305 224.812 57.3067C224.397 57.1828 223.961 57.1473 223.531 57.2023L217.231 57.1102C216.25 57.1606 215.278 56.8954 214.458 56.3532C213.657 55.8152 213.051 55.0313 212.731 54.1187L212.48 53.2986C211.967 51.6471 211.434 49.94 210.795 48.3238C210.429 47.379 210.01 46.4564 209.538 45.5606C209.304 45.1178 209.045 44.6938 208.776 44.2611C208.507 43.8283 208.233 43.3993 207.964 43.0069C203.678 36.6915 197.535 31.8757 190.393 29.2304C184.027 26.9592 177.215 26.2396 170.517 27.1309C167.523 27.5164 164.573 28.1924 161.709 29.1497L159.698 29.8789C159.272 30.0467 158.854 30.2208 158.441 30.3987C158.217 30.4959 157.988 30.5867 157.766 30.6839C156.521 31.2201 155.315 31.8437 154.157 32.5499C152.005 33.854 150.057 35.4695 148.375 37.3444C147.604 38.2018 146.895 39.1129 146.253 40.071C145.72 40.881 145.192 41.7578 144.592 42.8341C143.838 44.1955 143.171 45.4837 142.531 46.7378C142.323 47.1403 142.12 47.5327 141.922 47.92C141.775 48.2001 141.628 48.4752 141.491 48.7452C140.932 49.8943 140.289 51.0001 139.567 52.0533C138.378 53.8721 136.649 55.2699 134.626 56.0492C134.404 56.135 134.175 56.2017 133.941 56.2485L133.723 56.304C133.616 56.3192 133.519 56.3343 133.428 56.3494C133.281 56.3747 133.149 56.3949 133.038 56.405C132.652 56.4302 132.458 56.4453 132.458 56.4453C132.408 56.4473 132.361 56.4692 132.327 56.5061C132.293 56.543 132.275 56.592 132.277 56.6422C132.279 56.6923 132.301 56.7397 132.338 56.7738C132.375 56.8078 132.423 56.8258 132.473 56.8238C132.473 56.8238 132.672 56.8238 133.058 56.8037C133.183 56.8037 133.332 56.7734 133.504 56.7481C133.591 56.733 133.681 56.7229 133.803 56.7027C133.875 56.6876 133.95 56.6674 134.027 56.6522C134.279 56.6016 134.527 56.5316 134.768 56.4428C136.885 55.6529 138.698 54.2093 139.946 52.3196C140.686 51.2486 141.346 50.1243 141.921 48.9559L142.352 48.1358C142.56 47.7434 142.768 47.3409 142.98 46.9283C143.62 45.6944 144.28 44.415 145.031 43.0751C145.626 42.0152 146.148 41.1484 146.676 40.3536C147.308 39.4181 148.005 38.5289 148.762 37.6926C150.417 35.864 152.329 34.2878 154.438 33.0142C155.576 32.3248 156.76 31.7152 157.982 31.1898C158.206 31.0977 158.435 31.0018 158.662 30.9097C159.073 30.7369 159.484 30.5628 159.901 30.405L161.902 29.6859C164.732 28.7443 167.646 28.0821 170.604 27.7088C177.209 26.8383 183.926 27.5562 190.201 29.8032C197.215 32.4124 203.245 37.1511 207.453 43.3602C207.704 43.7274 207.986 44.1551 208.25 44.5942C208.514 45.0332 208.767 45.4357 208.991 45.8559C209.451 46.7316 209.86 47.6336 210.215 48.5572C210.844 50.157 211.346 51.7783 211.886 53.4904L212.144 54.3257C212.511 55.3714 213.206 56.2693 214.125 56.8844C215.049 57.4965 216.141 57.7998 217.247 57.7512L223.579 57.8433C223.922 57.798 224.27 57.8229 224.604 57.9166C224.937 58.0103 225.248 58.1707 225.518 58.3883C225.75 58.6502 225.923 58.9592 226.026 59.2942C226.128 59.6293 226.158 59.9826 226.112 60.3301L226.082 61.1717C226.067 61.6763 226.047 62.1911 226.016 62.7008C225.99 62.986 225.965 63.2711 225.944 63.5626C225.904 64.0673 225.862 64.5821 225.807 65.0918C225.443 68.3216 224.817 71.516 223.933 74.6429C222.089 81.1215 219.311 87.2947 215.689 92.9666C213.589 96.3161 211.167 99.4508 208.458 102.326C205.812 105.14 202.784 107.564 199.462 109.528C196.193 111.407 192.74 112.942 189.157 114.11L188.43 114.35C187.802 114.559 187.151 114.773 186.506 114.962L185.176 115.364C184.701 115.497 184.248 115.698 183.83 115.961C182.993 116.492 182.338 117.268 181.952 118.183C181.76 118.637 181.64 119.119 181.596 119.61C181.571 119.952 181.571 120.277 181.576 120.594V121.007C181.576 131.425 181.337 141.252 181.103 150.758C181.011 154.499 180.921 158.149 180.852 161.7C180.84 162.498 180.92 163.295 181.091 164.075C181.235 164.896 181.639 165.648 182.243 166.22C182.587 166.484 182.998 166.645 183.429 166.685C183.86 166.725 184.294 166.641 184.68 166.444C185.058 166.269 185.391 166.01 185.655 165.687C185.905 165.372 186.101 165.017 186.235 164.638C186.617 163.392 186.797 162.093 186.767 160.789L186.788 160.234C186.818 158.858 186.808 157.493 186.803 156.172V155.596C186.803 154.322 186.788 153.114 186.803 151.901V151.713C186.795 150.474 186.897 149.238 187.107 148.017C187.157 147.742 187.259 147.48 187.406 147.242C187.591 147.036 187.82 146.874 188.076 146.768C188.311 146.642 188.574 146.572 188.841 146.566C189.108 146.56 189.373 146.617 189.614 146.733C189.82 146.905 189.984 147.121 190.096 147.365C190.207 147.61 190.263 147.876 190.259 148.145C190.291 148.56 190.298 148.977 190.279 149.394C190.279 149.577 190.279 149.756 190.279 149.934L189.985 173.645C189.914 174.203 189.909 174.767 189.97 175.327C189.999 175.894 190.205 176.438 190.559 176.881C190.765 177.105 191.041 177.253 191.341 177.299C191.6 177.329 191.834 177.359 192.062 177.366C192.52 177.391 192.961 177.401 193.418 177.401H193.728C195.216 177.401 196.5 177.361 197.546 177.324L200.425 177.198C201.024 177.168 201.329 177.142 201.329 177.142C201.377 177.138 201.422 177.115 201.455 177.077C201.487 177.04 201.503 176.992 201.501 176.943C201.495 176.895 201.473 176.85 201.438 176.816C201.403 176.783 201.357 176.763 201.308 176.76C201.308 176.76 201.004 176.76 200.405 176.785L197.425 176.882C196.333 176.913 194.978 176.949 193.415 176.933C192.952 176.933 192.535 176.923 192.09 176.893L191.876 176.877C191.703 176.893 191.528 176.872 191.362 176.818C191.196 176.764 191.043 176.677 190.911 176.562C190.628 176.188 190.465 175.737 190.444 175.267C190.389 174.731 190.397 174.19 190.469 173.656L190.829 149.936C190.829 149.758 190.829 149.579 190.839 149.401C190.859 148.965 190.85 148.527 190.814 148.092C190.787 147.756 190.712 147.426 190.591 147.113C190.461 146.764 190.225 146.466 189.916 146.261C189.599 146.063 189.228 145.97 188.855 145.996C188.507 146.021 188.167 146.109 187.85 146.256C187.512 146.396 187.211 146.612 186.97 146.887C186.77 147.19 186.63 147.529 186.559 147.886C186.342 149.128 186.234 150.386 186.235 151.647V151.887C186.215 153.121 186.22 154.348 186.225 155.643V156.173C186.225 157.488 186.235 158.849 186.204 160.21L186.189 160.73C186.214 161.981 186.044 163.227 185.687 164.426C185.588 164.744 185.425 165.04 185.209 165.294C184.993 165.548 184.728 165.755 184.43 165.903C184.145 166.052 183.824 166.117 183.504 166.09C183.184 166.062 182.879 165.945 182.623 165.75C182.125 165.259 181.795 164.622 181.679 163.931C181.52 163.2 181.447 162.452 181.46 161.704C181.531 158.233 181.618 154.668 181.719 151.011C181.963 141.429 182.222 131.52 182.222 121V120.583C182.222 120.272 182.222 119.952 182.242 119.655C182.28 119.23 182.385 118.814 182.551 118.421C182.885 117.626 183.456 116.953 184.185 116.495C184.553 116.267 184.951 116.092 185.367 115.975L186.697 115.572C187.347 115.385 188.007 115.165 188.641 114.956L189.373 114.716C192.999 113.535 196.495 111.983 199.804 110.083C201.476 109.086 203.081 107.979 204.608 106.77C206.144 105.541 207.593 104.206 208.943 102.774C211.682 99.8703 214.129 96.7033 216.249 93.3186C219.907 87.5935 222.71 81.362 224.57 74.822C225.465 71.6622 226.099 68.4334 226.464 65.1687C226.519 64.6489 226.561 64.1291 226.601 63.6143C226.621 63.3292 226.646 63.044 226.673 62.7576C226.703 62.2428 226.723 61.7281 226.738 61.2133C226.748 60.9282 226.758 60.6481 226.768 60.3667C226.813 59.9236 226.762 59.4761 226.619 59.0543C226.477 58.6325 226.246 58.2462 225.943 57.9215Z" fill="#1794C9" stroke="#1794C9"/>
<path d="M142.935 51.9336L138.023 53.1587L135.989 54.9756L138.697 55.6657L144.66 53.9473L142.935 51.9336Z" fill="#455A64"/>
<path d="M160.743 54.2307L153.348 45.1465H145.771L140.972 50.7106C141.002 51.0293 141.103 51.3374 141.266 51.6127C140.832 51.4824 140.376 51.4402 139.925 51.4885C139.475 51.5368 139.038 51.6747 138.641 51.8941L143.02 63.5017L151.327 71.8555L161.838 68.9258L160.743 54.2307ZM149.293 58.4852L145.405 56.6254C144.834 54.9835 143.876 53.5045 142.613 52.3142C142.749 52.3213 142.884 52.3213 143.02 52.3142C143.535 52.2272 144.033 52.0567 144.493 51.8095C147.818 50.1327 148.745 49.7668 148.745 49.7668L150.864 53.6731L149.293 58.4852Z" fill="#FFBE9D"/>
<path d="M154.962 51.4411C154.794 51.5672 153.658 50.2854 152.408 48.5808C151.549 47.6182 150.883 46.499 150.444 45.284C150.613 45.1578 151.749 46.4397 152.998 48.1442C153.86 49.1046 154.527 50.2244 154.962 51.4411Z" fill="#EB996E"/>
<path d="M149.293 58.486C147.826 58.2583 146.393 57.8468 145.027 57.2609L144.873 57.2041L144.816 57.0212C144.59 56.2406 144.284 55.4854 143.904 54.7678C143.575 54.0658 143.111 53.4364 142.538 52.9165C141.964 52.3967 141.294 51.9966 140.565 51.7397C139.433 51.529 138.679 52.0072 138.642 51.8658C138.628 51.8242 138.767 51.6829 139.09 51.5138C139.571 51.2693 140.112 51.1715 140.647 51.2325C141.494 51.4313 142.284 51.8214 142.958 52.373C143.631 52.9246 144.171 53.6233 144.535 54.4157C144.951 55.1774 145.263 55.9923 145.461 56.8382L145.251 56.5985C146.665 57.0728 148.021 57.7059 149.293 58.486Z" fill="#EB996E"/>
<path d="M144.124 54.09L161.44 49.4696C161.602 49.4267 161.754 49.3511 161.887 49.2475C162.019 49.144 162.129 49.0145 162.211 48.867C162.292 48.7195 162.343 48.557 162.359 48.3893C162.376 48.2216 162.359 48.0522 162.309 47.8912C162.215 47.5901 162.011 47.3357 161.738 47.179C161.465 47.0223 161.143 46.9748 160.836 47.0459L142.397 52.0612C143.073 52.644 143.656 53.3284 144.124 54.09Z" fill="#455A64"/>
<path d="M34.3501 72.4891L46.4366 123.755L75.1477 119.923L73.0427 103.567C73.0427 103.567 83.5116 103.736 84.4228 93.8333C84.7169 90.5365 82.1769 75.9701 79.6659 62.7702C79.0902 59.7405 77.9199 56.856 76.2232 54.2847C74.5264 51.7134 72.3371 49.5067 69.7827 47.7929C67.2283 46.0792 64.3598 44.8927 61.3442 44.3026C58.3287 43.7125 55.2263 43.7305 52.2178 44.3557C49.1823 44.983 46.303 46.2155 43.7506 47.9803C41.1982 49.745 39.0246 52.0061 37.3584 54.6295C35.6923 57.2529 34.5675 60.1854 34.0508 63.2531C33.534 66.3209 33.6358 69.4616 34.3501 72.4891Z" fill="#FFBE9D"/>
<path d="M60.8444 42.5352C63.314 43.4373 62.1728 45.2706 62.7057 46.3834C63.0553 47.1597 63.5553 47.8585 64.1765 48.439C64.7977 49.0195 65.5277 49.4702 66.324 49.7648C68.4605 50.624 73.3192 52.9695 74.6099 55.4071C75.9006 57.8447 76.0954 58.3948 75.8567 59.7612C75.6179 61.1277 78.3564 67.2886 78.6379 68.5276C79.1708 70.8516 80.1951 77.685 80.1951 77.685L78.1327 78.7839C78.1327 78.7839 77.0519 71.2894 74.6137 71.3311C72.1755 71.3727 71.5974 73.9226 71.4718 74.6115C70.7514 75.6645 70.224 76.8383 69.9146 78.0774C69.3817 81.3578 69.6192 86.122 69.3679 89.1223C68.9909 93.7566 63.9235 100.618 63.9235 100.618L41.4711 102.703C41.4711 102.703 31.2912 79.599 30.6377 73.5706C29.9842 67.5422 32.279 59.4685 35.6648 54.0445C37.3 51.709 39.3052 49.6581 41.6006 47.9732C43.2329 46.8402 44.9392 45.8189 46.7081 44.916C50.5875 42.9888 54.9079 42.1331 59.2257 42.4368L60.8444 42.5352Z" fill="#202020"/>
<path d="M78.2583 86.1973C78.2998 86.2112 78.2169 86.5632 77.7808 87.0287C77.1374 87.6657 76.2713 88.0248 75.3677 88.0293C74.7012 88.0125 74.0459 87.853 73.4458 87.5614C72.8456 87.2698 72.3144 86.8529 71.8877 86.3386C70.8826 85.0839 70.2676 83.5599 70.1194 81.9567C69.6895 79.1152 70.1351 76.2096 71.3963 73.6295C71.8047 72.8464 72.4116 72.1853 73.1558 71.7129C73.4143 71.5133 73.7285 71.4 74.0544 71.3887C73.1133 71.9934 72.3559 72.8463 71.8651 73.854C70.8113 76.3701 70.4637 79.1277 70.8597 81.828C70.9961 83.2927 71.5352 84.6905 72.4168 85.8654C72.776 86.3253 73.2253 86.7064 73.737 86.985C74.2486 87.2637 74.8118 87.434 75.3916 87.4855C76.1879 87.5202 76.9716 87.2763 77.6086 86.7953C78.0334 86.4648 78.2018 86.1683 78.2583 86.1973Z" fill="#EB996E"/>
<path d="M75.5638 82.7864C75.6342 82.857 75.0863 83.2091 74.3071 82.7864C73.8882 82.4701 73.5529 82.0556 73.3303 81.5793C73.1077 81.1029 73.0047 80.5791 73.0302 80.0535C73.012 79.0316 73.3493 78.0353 73.9841 77.2362C74.4755 76.6305 74.938 76.4476 74.9807 76.5182C74.2731 77.5642 73.8522 78.7787 73.7604 80.0397C73.7319 80.8902 74.0339 81.7186 74.6024 82.3498C75.0863 82.7574 75.55 82.6854 75.5638 82.7864Z" fill="#EB996E"/>
<path d="M29.8032 130.232C29.8032 130.232 11.4768 137.91 9.16059 146.053C6.59299 155.069 3.95501 174.89 3.95501 174.89V227.141C3.95501 227.141 0.026303 244.737 0.755236 252.147C1.48417 259.557 9.48358 272.713 9.48358 272.713L22.4071 266.416L26.4501 248.025L27.1941 191.942L25.7212 164.147L29.8032 130.232Z" fill="#D3317D"/>
<path d="M29.8046 130.233L41.9853 120.456L42.5747 112.129L73.9515 106.748L77.4705 113.877L91.5728 117.695L100.999 114.863L103.3 120.258L115.017 156.365L106.163 209.348C106.163 209.348 111.411 237.468 110.737 252.147L26.092 250.977C23.9027 248.301 23.5659 243.496 24.0007 237.819L22.8696 166.62L29.8046 130.233Z" fill="#D3317D"/>
<path d="M99.8274 126.654C99.6005 126.756 99.3593 126.823 99.1123 126.851C98.5505 126.963 97.863 127.118 97.021 127.288C95.0981 127.666 92.474 128.19 89.3031 128.823C82.7917 130.133 73.7969 132.021 63.9325 134.346C54.068 136.67 45.1712 139.014 38.7579 140.755C35.6285 141.614 33.0609 142.304 31.1657 142.825C30.3375 143.051 29.65 143.22 29.0895 143.374C28.8488 143.454 28.5986 143.502 28.3455 143.516C28.5633 143.386 28.7999 143.291 29.0468 143.234C29.5935 143.051 30.2671 142.825 31.0815 142.558C32.8498 141.98 35.4312 141.192 38.6222 140.262C45.0066 138.388 53.8757 135.979 63.7691 133.64C73.6625 131.301 82.6711 129.498 89.2101 128.33C92.4777 127.738 95.132 127.288 96.9845 127.02C97.8404 126.894 98.5417 126.794 99.1035 126.71C99.3414 126.66 99.5847 126.642 99.8274 126.654Z" fill="#263238"/>
<path d="M44.637 207.983C45.2005 207.377 45.8102 206.816 46.4606 206.306C47.7513 205.193 49.4768 203.699 51.5543 201.896C55.8336 198.163 61.6576 192.894 67.8321 186.794C74.0067 180.693 79.3254 174.917 83.1133 170.678C84.9382 168.621 86.4388 166.917 87.5761 165.631C88.0901 164.987 88.6532 164.384 89.2602 163.828C88.8226 164.528 88.33 165.192 87.7873 165.814C86.8045 167.068 85.3454 168.857 83.4929 171.026C79.8017 175.365 74.5119 181.212 68.3373 187.325C62.1628 193.438 56.2546 198.665 51.8911 202.3C49.7018 204.117 47.9059 205.568 46.6428 206.527C46.008 207.057 45.3378 207.544 44.637 207.983Z" fill="#263238"/>
<path d="M101.147 188.711C101.029 188.919 100.888 189.113 100.726 189.289C100.361 189.711 99.9254 190.219 99.3925 190.838C98.2275 192.191 96.5019 194.078 94.3126 196.375C88.579 202.341 82.5168 207.981 76.1546 213.266C69.7885 218.55 63.1313 223.469 56.2145 228.002C53.5627 229.734 51.3734 231.086 49.8439 231.975C49.1426 232.384 48.5532 232.72 48.0756 232.984C47.8782 233.121 47.6601 233.226 47.4296 233.294C47.4158 233.267 47.6119 233.125 47.9914 232.858C48.4539 232.548 49.0157 232.182 49.6893 231.722C51.1774 230.765 53.3101 229.342 55.9204 227.552C61.1549 223.988 68.2369 218.847 75.6783 212.676C83.1197 206.505 89.4589 200.476 93.9343 195.982C96.1651 193.743 97.956 191.897 99.1826 190.615C99.7582 190.037 100.221 189.544 100.614 189.15C100.774 188.984 100.953 188.836 101.147 188.711Z" fill="#263238"/>
<path d="M84.4192 244.709C84.237 244.568 87.5901 240.708 90.257 235.073C92.9653 229.466 93.8639 224.423 94.0877 224.475C94.0803 225.596 93.9148 226.711 93.5962 227.786C92.9691 230.41 92.0658 232.96 90.9017 235.393C89.7429 237.825 88.3267 240.125 86.6777 242.254C86.0494 243.179 85.2883 244.007 84.4192 244.709Z" fill="#263238"/>
<path d="M101.427 117.273L133.113 115.977L148.619 108.567L150.331 86.8014L148.927 71.4087L162.258 67.4355C162.258 67.4355 173.33 95.9626 172.964 106.345C172.839 109.839 172.628 113.285 172.418 116.319C172.184 119.46 171.156 122.49 169.433 125.122C167.71 127.755 165.347 129.903 162.567 131.365L115.024 156.37L101.427 117.273Z" fill="#D3317D"/>
<path d="M25.6081 178.074C24.7567 176.049 24.1398 173.932 23.7694 171.765C22.9412 168.232 22.436 165.331 22.6471 165.285C23.4908 167.313 24.1074 169.429 24.4858 171.594C25.0966 173.706 25.473 175.879 25.6081 178.074Z" fill="#263238"/>
<path d="M25.3417 167.623C25.4063 167.9 25.4392 168.184 25.4398 168.468C25.4674 169.103 25.5093 169.92 25.5654 170.92C25.6496 173.146 25.7477 176.189 25.8884 179.922C26.0845 187.619 26.366 198.067 26.6739 209.633C26.9763 215.102 26.8401 220.587 26.2667 226.035C25.9437 228.558 25.2286 230.867 24.8629 233.036C24.6938 234.088 24.6139 235.153 24.6241 236.219C24.5537 237.248 24.4834 238.248 24.4281 239.206C24.1117 242.176 24.192 245.175 24.6668 248.123C24.8221 248.909 25.1203 249.659 25.5466 250.335C25.7406 250.541 25.9231 250.758 26.0933 250.984C26.0795 250.998 26.0229 250.956 25.9111 250.871C25.7364 250.744 25.5763 250.598 25.4335 250.435C24.9266 249.773 24.5678 249.009 24.3815 248.195C23.7775 245.23 23.6166 242.192 23.904 239.179C23.9605 238.236 24.002 237.235 24.0586 236.207C24.0288 235.118 24.0944 234.03 24.2546 232.953C24.6053 230.713 25.2927 228.431 25.5881 225.952C26.1212 220.54 26.2385 215.096 25.9387 209.667C25.7137 198.115 25.5177 187.648 25.3631 179.956C25.3216 176.223 25.2927 173.166 25.2789 170.954C25.2789 169.953 25.2927 169.137 25.2927 168.502C25.281 168.208 25.2974 167.914 25.3417 167.623Z" fill="#263238"/>
<path d="M111.292 144.658C110.673 143.55 110.174 142.379 109.804 141.164C108.975 138.966 107.91 135.909 106.815 132.5C105.72 129.091 104.804 125.977 104.205 123.71C103.815 122.498 103.538 121.253 103.376 119.99C103.928 121.133 104.37 122.327 104.696 123.555C105.495 126.02 106.456 128.992 107.502 132.26C108.549 135.528 109.496 138.501 110.295 140.98C110.747 142.17 111.081 143.402 111.292 144.658Z" fill="#263238"/>
<path d="M16.0955 236.788C14.0121 235.952 12.1733 234.6 10.7503 232.859C9.32721 231.117 8.36616 229.043 7.95654 226.828C8.91424 228.776 10.0365 230.637 11.3109 232.392C13.5681 235.201 16.206 236.596 16.0955 236.788Z" fill="#263238"/>
<path d="M164.939 75.6523C164.966 75.8782 161.459 76.3854 157.361 77.7796C153.249 79.146 150.135 80.8506 150.037 80.6676C154.427 77.6052 159.598 75.8652 164.94 75.6523H164.939Z" fill="#263238"/>
<path d="M160.799 69.9385C160.826 70.0369 160.505 70.1782 160.392 70.6009C160.251 71.0374 160.476 71.5875 161.093 71.474C161.207 71.4588 161.315 71.4123 161.405 71.3395C161.495 71.2668 161.563 71.1705 161.602 71.0614C161.641 70.9523 161.649 70.8345 161.626 70.721C161.603 70.6075 161.549 70.5026 161.47 70.4179C161.218 70.052 160.88 70.0394 160.867 69.9385C160.81 69.854 161.288 69.6142 161.834 70.0647C161.992 70.1978 162.115 70.3673 162.193 70.5587C162.272 70.7501 162.302 70.9577 162.283 71.1636C162.242 71.4302 162.116 71.6761 161.923 71.8642C161.731 72.0522 161.483 72.1722 161.216 72.2058C160.983 72.262 160.739 72.2474 160.515 72.1639C160.291 72.0804 160.096 71.9318 159.956 71.7369C159.816 71.5421 159.737 71.3098 159.729 71.0698C159.721 70.8297 159.785 70.5927 159.911 70.3889C160.294 69.7694 160.813 69.8388 160.799 69.9385Z" fill="#263238"/>
<path d="M77.6136 113.864C77.1733 114.043 76.7107 114.162 76.2387 114.216C75.1867 114.413 73.9098 114.652 72.4356 114.934C69.0423 115.553 64.6901 116.357 59.8905 117.23C55.0908 118.146 50.7549 118.962 47.3591 119.597C45.8861 119.865 44.6093 120.09 43.5561 120.287C43.0943 120.412 42.6161 120.464 42.1384 120.442C42.5704 120.236 43.0283 120.089 43.4995 120.006C44.3793 119.766 45.6599 119.457 47.2598 119.09C50.4458 118.357 54.8659 117.413 59.7635 116.498C64.6612 115.584 69.1228 114.858 72.3653 114.414C73.979 114.188 75.2986 114.019 76.2098 113.921C76.6744 113.852 77.145 113.833 77.6136 113.864Z" fill="#263238"/>
<path d="M20.7821 163.563C20.7255 163.577 20.6275 163.185 20.4591 162.478C20.2557 161.47 20.1243 160.448 20.0657 159.421C19.9012 156.036 20.0185 152.643 20.4164 149.278C20.8236 145.334 21.3564 141.798 21.7071 139.248C21.8398 137.855 22.0556 136.472 22.3531 135.105C22.4564 136.506 22.4092 137.913 22.2123 139.303C22.0024 141.881 21.5525 145.431 21.1453 149.361C20.7626 152.696 20.575 156.05 20.5835 159.406C20.6225 161.958 20.9078 163.535 20.7821 163.563Z" fill="#263238"/>
<path d="M55.3574 189.768C55.1752 189.669 59.6795 180.738 65.4054 169.791C71.1313 158.845 75.9296 150.068 76.1119 150.167C76.2941 150.265 71.7898 159.197 66.0639 170.143C60.338 181.09 55.5409 189.868 55.3574 189.768Z" fill="#263238"/>
<path d="M121.34 139.377C121.032 140.444 120.628 141.482 120.133 142.476C119.348 144.368 118.308 146.998 117.354 149.956C116.4 152.915 115.698 155.662 115.235 157.663C115.05 158.76 114.773 159.839 114.407 160.889C114.364 159.771 114.473 158.653 114.73 157.564C115.19 154.912 115.832 152.295 116.653 149.732C117.475 147.17 118.479 144.67 119.655 142.251C120.094 141.226 120.66 140.26 121.34 139.377Z" fill="#263238"/>
<path d="M18.2407 156.395C17.6538 156.599 17.0538 156.764 16.4447 156.888C15.3363 157.169 13.7929 157.564 12.1227 158.071C10.4524 158.579 8.93674 159.072 7.85716 159.452C7.28234 159.687 6.69137 159.88 6.08887 160.029C6.63016 159.72 7.1985 159.461 7.78679 159.255C8.85379 158.832 10.3544 158.283 12.0385 157.79C13.7226 157.297 15.2659 156.917 16.4033 156.691C17.0059 156.538 17.6208 156.439 18.2407 156.395Z" fill="#E0E0E0"/>
<path d="M70.2752 159.24C70.3028 159.325 60.3265 162.268 48.005 165.833C35.6835 169.397 25.6645 172.228 25.6506 172.141C25.6368 172.054 35.5993 169.113 47.9208 165.549C60.2423 161.984 70.2463 159.156 70.2752 159.24Z" fill="#E0E0E0"/>
<path d="M110.903 147.349C110.931 147.42 102.02 150.731 90.9908 154.732C79.9612 158.732 71.0079 161.916 70.9803 161.846C70.9526 161.777 79.8632 158.465 90.8927 154.464C101.922 150.463 110.871 147.265 110.903 147.349Z" fill="#E0E0E0"/>
<path d="M107.181 132.91C107.181 132.91 106.885 133.009 106.311 133.163C105.665 133.332 104.823 133.571 103.797 133.839C101.524 134.444 98.3807 135.276 94.5362 136.29C86.7065 138.347 75.9007 141.15 63.9173 144.137C51.9339 147.123 41.0577 149.673 33.1576 151.421C29.2703 152.266 26.0995 152.956 23.7983 153.449C22.7464 153.661 21.9044 153.844 21.2445 153.97C20.6551 154.083 20.3459 154.14 20.3459 154.14C20.3459 154.14 20.64 154.055 21.2257 153.914C21.8855 153.759 22.7275 153.576 23.7656 153.336C26.053 152.815 29.2239 152.096 33.0973 151.209C40.9836 149.406 51.8446 146.813 63.8293 143.84C75.7574 140.826 86.5481 138.092 94.4621 136.078C98.3217 135.092 101.465 134.303 103.752 133.711C104.79 133.459 105.632 133.249 106.278 133.08C106.875 132.967 107.181 132.91 107.181 132.91Z" fill="#E0E0E0"/>
<path d="M89.6398 116.64C89.6536 116.724 76.318 120.106 59.8629 124.219C43.4079 128.332 30.0295 131.587 30.0156 131.517C30.0018 131.446 43.3375 128.051 59.7925 123.937C76.2476 119.824 89.6247 116.569 89.6398 116.64Z" fill="#E0E0E0"/>
<path d="M119.697 117.219C119.711 117.219 119.724 117.303 119.753 117.486C119.781 117.726 119.81 117.98 119.851 118.243C119.936 118.906 120.006 119.863 120.076 121.047C120.25 124.13 120.24 127.221 120.049 130.303C119.846 133.385 119.457 136.453 118.884 139.488C118.659 140.657 118.449 141.587 118.294 142.235C118.224 142.487 118.169 142.739 118.098 142.968C118.056 143.136 118.028 143.22 118.014 143.22C118 143.22 118.014 143.122 118.042 142.952C118.084 142.713 118.126 142.459 118.182 142.206C118.337 141.374 118.492 140.473 118.685 139.445C119.078 137.121 119.527 133.881 119.766 130.274C119.966 127.202 120.003 124.122 119.878 121.047C119.821 120.018 119.78 119.089 119.737 118.243C119.723 117.976 119.709 117.723 119.696 117.486C119.687 117.397 119.687 117.308 119.697 117.219Z" fill="#E0E0E0"/>
<path d="M141.42 141.589C141.406 141.589 141.393 141.505 141.364 141.322C141.336 141.069 141.293 140.817 141.252 140.547C141.168 139.885 141.042 138.907 140.845 137.73C140.357 134.637 139.673 131.578 138.796 128.572C137.91 125.568 136.836 122.622 135.583 119.753C135.105 118.654 134.703 117.767 134.404 117.161C134.292 116.922 134.179 116.682 134.081 116.457C134.01 116.288 133.983 116.205 133.983 116.205C133.983 116.205 134.039 116.276 134.137 116.431C134.263 116.642 134.376 116.867 134.514 117.107C134.837 117.699 135.268 118.572 135.771 119.671C137.092 122.524 138.199 125.472 139.083 128.49C139.971 131.505 140.628 134.585 141.047 137.701C141.215 138.898 141.313 139.87 141.356 140.546C141.37 140.813 141.384 141.067 141.413 141.321C141.424 141.41 141.427 141.5 141.42 141.589Z" fill="#E0E0E0"/>
<path d="M159.425 130.769C159.282 130.473 159.16 130.167 159.06 129.853C158.78 129.096 158.471 128.261 158.12 127.33C157.306 125.203 156.11 122.315 154.57 119.216C153.03 116.117 151.441 113.412 150.234 111.482C149.701 110.65 149.229 109.903 148.789 109.211C148.595 108.942 148.422 108.66 148.27 108.365C148.493 108.606 148.694 108.865 148.873 109.14C149.25 109.645 149.772 110.402 150.403 111.352C152.018 113.836 153.494 116.408 154.823 119.058C156.143 121.715 157.305 124.448 158.303 127.243C158.68 128.314 158.976 129.187 159.145 129.807C159.273 130.116 159.367 130.439 159.425 130.769Z" fill="#E0E0E0"/>
<path d="M171.549 101.835C171.257 101.812 170.966 101.77 170.679 101.708C169.949 101.582 169.178 101.441 168.336 101.286C166.357 100.934 163.62 100.483 160.59 100.061C157.56 99.638 154.795 99.3566 152.798 99.1585C151.942 99.074 151.164 99.0034 150.426 98.9327C150.134 98.9147 149.844 98.8772 149.557 98.8204C149.846 98.802 150.137 98.802 150.426 98.8204C150.988 98.8343 151.801 98.8911 152.798 98.9617C154.809 99.103 157.574 99.3705 160.614 99.7793C163.654 100.188 166.395 100.681 168.359 101.089C169.342 101.286 170.142 101.467 170.688 101.594C170.98 101.655 171.268 101.736 171.549 101.835Z" fill="#E0E0E0"/>
<path d="M168.18 82.6173C167.947 82.646 167.712 82.6506 167.478 82.6312C167.03 82.6173 166.384 82.6034 165.584 82.6173C163.502 82.6392 161.424 82.818 159.368 83.1523C157.311 83.4979 155.283 84.0067 153.306 84.6739C152.552 84.9262 151.931 85.1533 151.51 85.3047C151.3 85.4037 151.078 85.4745 150.85 85.5154C151.045 85.3881 151.252 85.2795 151.467 85.1912C151.874 84.9943 152.472 84.7546 153.235 84.4733C155.207 83.7519 157.242 83.2142 159.312 82.8671C161.384 82.5202 163.484 82.3694 165.584 82.4167C166.222 82.4221 166.859 82.4596 167.494 82.529C167.725 82.5229 167.957 82.5527 168.18 82.6173Z" fill="#E0E0E0"/>
<path d="M57.2801 182.88C57.294 182.965 50.3678 184.585 41.8016 186.515C33.2354 188.446 26.2816 189.952 26.254 189.868C26.2263 189.783 33.1663 188.163 41.7325 186.233C50.2987 184.302 57.2663 182.796 57.2801 182.88Z" fill="#E0E0E0"/>
<path d="M67.1032 186.416C65.4642 186.456 63.8242 186.399 62.1917 186.246C60.5498 186.195 58.9128 186.04 57.2903 185.782C58.9293 185.742 60.5693 185.798 62.2018 185.951C63.8426 186.019 65.4787 186.174 67.1032 186.416Z" fill="#E0E0E0"/>
<path d="M112.33 169.075C112.344 169.159 104.317 171.3 94.3955 173.878C84.4745 176.456 76.4047 178.486 76.3921 178.399C76.3795 178.312 84.4053 176.173 94.3264 173.595C104.247 171.018 112.302 168.99 112.33 169.075Z" fill="#E0E0E0"/>
<path d="M45.0994 206.365C45.1133 206.449 41.0777 207.238 36.0908 208.131C31.1039 209.024 27.042 209.68 27.0257 209.596C27.0093 209.511 31.0386 208.723 36.0343 207.829C41.03 206.936 45.0856 206.295 45.0994 206.365Z" fill="#E0E0E0"/>
<path d="M92.979 195.56C92.9929 195.645 83.8435 197.166 72.5475 198.967C61.2516 200.767 52.0733 202.165 52.062 202.095C52.0507 202.024 61.1976 200.488 72.4935 198.688C83.7894 196.888 92.979 195.476 92.979 195.56Z" fill="#E0E0E0"/>
<path d="M108.724 196.898C108.522 196.951 108.315 196.979 108.107 196.982C107.545 197.039 106.984 197.081 106.409 197.137C104.977 197.264 102.999 197.462 100.824 197.729C98.6483 197.997 96.6839 198.307 95.2524 198.547C94.6907 198.645 94.1301 198.73 93.5683 198.814C93.3612 198.855 93.151 198.879 92.9399 198.885C93.1343 198.804 93.3364 198.742 93.5432 198.702C93.9366 198.604 94.5122 198.476 95.2135 198.336C96.6311 198.055 98.5955 197.717 100.785 197.434C102.974 197.151 104.952 196.997 106.398 196.929C107.113 196.886 107.702 196.873 108.109 196.873C108.314 196.86 108.52 196.869 108.724 196.898Z" fill="#E0E0E0"/>
<path d="M60.661 223.932C60.5564 224.002 60.4432 224.059 60.3242 224.101C60.015 224.227 59.6958 224.368 59.3414 224.51C58.4855 224.862 57.2224 225.341 55.6653 225.89C47.4899 228.747 38.9721 230.5 30.3361 231.102C28.6797 231.214 27.3337 231.271 26.4074 231.285C26.0141 231.285 25.6634 231.299 25.3404 231.299C25.2146 231.309 25.0881 231.304 24.9634 231.285C25.0821 231.253 25.2049 231.238 25.3278 231.242C25.6508 231.228 26.0015 231.2 26.3949 231.171C27.3211 231.128 28.6571 231.03 30.3097 230.904C38.9157 230.187 47.405 228.437 55.5961 225.692C57.1684 225.171 58.4302 224.72 59.3012 224.396C59.6656 224.27 60.0024 224.144 60.3066 224.03C60.4207 223.984 60.5396 223.951 60.661 223.932Z" fill="#E0E0E0"/>
<path d="M108.667 215.943C108.667 215.943 108.499 216.014 108.165 216.14C107.746 216.282 107.255 216.45 106.692 216.645C105.415 217.081 103.535 217.687 101.219 218.411C96.5873 219.848 90.1187 221.679 82.906 223.356C75.6933 225.033 69.0814 226.258 64.2981 227.015C61.8989 227.393 59.9622 227.677 58.6149 227.846C58.0117 227.917 57.5065 227.988 57.0716 228.043C56.8902 228.067 56.7077 228.081 56.5249 228.085C56.5249 228.085 56.7071 228.043 57.0578 227.972L58.6011 227.72C60.0741 227.48 61.9831 227.17 64.2705 226.79C69.055 225.974 75.6368 224.734 82.8494 223.057C90.0621 221.38 96.5169 219.577 101.162 218.197L106.663 216.52C107.239 216.337 107.73 216.196 108.151 216.056C108.485 215.985 108.667 215.943 108.667 215.943Z" fill="#E0E0E0"/>
<path d="M87.0155 239.809C87.0155 239.809 86.8057 239.865 86.3985 239.935C85.9071 240.019 85.3176 240.118 84.6164 240.245C83.0592 240.513 80.8133 240.851 78.0208 241.232C72.4356 241.989 64.6901 242.824 56.1013 243.302C47.5124 243.78 39.7116 243.782 34.0837 243.627C31.2635 243.556 28.99 243.457 27.4228 243.359C26.7077 243.316 26.1182 243.274 25.613 243.247C25.2058 243.219 24.9846 243.19 24.9846 243.19C24.9846 243.19 25.2096 243.176 25.613 243.19C26.1157 243.204 26.7077 243.218 27.4228 243.247C28.995 243.303 31.2823 243.373 34.0837 243.416C39.7103 243.514 47.4986 243.473 56.0874 243.007C64.6763 242.541 72.408 241.745 77.9919 241.021C80.7844 240.669 83.0441 240.359 84.6013 240.138L86.3972 239.886C86.8057 239.822 87.0155 239.809 87.0155 239.809Z" fill="#E0E0E0"/>
<path d="M109.496 236.525C109.24 236.555 108.981 236.564 108.724 236.553C108.05 236.539 107.363 236.539 106.619 236.525C104.837 236.497 102.381 236.483 99.6726 236.539C96.9642 236.594 94.5085 236.694 92.7264 236.778C91.9824 236.821 91.2949 236.849 90.6213 236.877C90.3653 236.913 90.1056 236.913 89.8496 236.877C90.1035 236.819 90.3615 236.782 90.6213 236.764C91.1127 236.708 91.8278 236.638 92.7264 236.568C94.4947 236.426 96.9642 236.286 99.6726 236.243C102.381 236.201 104.851 236.243 106.633 236.328C107.512 236.371 108.246 236.412 108.738 236.44C108.993 236.442 109.247 236.471 109.496 236.525Z" fill="#E0E0E0"/>
<path d="M25.7476 180.273C25.7614 180.358 20.738 181.315 14.522 182.428C8.30595 183.541 3.26752 184.386 3.25369 184.302C3.23987 184.217 8.26322 183.26 14.4793 182.147C20.6953 181.034 25.7337 180.19 25.7476 180.273Z" fill="#E0E0E0"/>
<path d="M24.9884 202.379C25.0022 202.463 20.3156 202.984 14.5194 203.548C8.7231 204.112 4.03656 204.506 4.02274 204.421C4.00891 204.337 8.69545 203.816 14.4917 203.252C20.288 202.688 24.9884 202.294 24.9884 202.379Z" fill="#E0E0E0"/>
<path d="M26.885 220.142C26.885 220.227 22.03 220.437 16.0239 220.622C10.0177 220.806 5.16278 220.889 5.14896 220.805C5.13513 220.72 10.0039 220.509 16.0101 220.325C22.0162 220.141 26.885 220.063 26.885 220.142Z" fill="#E0E0E0"/>
<path d="M22.7727 242.021C22.5073 242.05 22.2397 242.054 21.9734 242.035C21.4707 242.021 20.7242 241.978 19.813 241.909C17.4366 241.693 15.081 241.288 12.7687 240.697C10.453 240.106 8.18677 239.333 5.99092 238.387C5.14888 238.021 4.47525 237.711 4.02658 237.471C3.78302 237.367 3.55233 237.234 3.33911 237.076C3.59433 237.149 3.84316 237.244 4.08313 237.358C4.54562 237.568 5.23434 237.851 6.07638 238.189C8.28263 239.068 10.5418 239.807 12.8404 240.401C15.1439 240.986 17.4832 241.419 19.8432 241.697C20.7418 241.809 21.4845 241.879 21.9897 241.922C22.253 241.933 22.515 241.966 22.7727 242.021Z" fill="#E0E0E0"/>
<path d="M23.9377 248.121C23.7185 248.336 23.479 248.53 23.2226 248.699C22.745 249.065 22.0438 249.558 21.1741 250.15C18.8644 251.681 16.4495 253.047 13.9476 254.235C11.4484 255.427 8.86399 256.43 6.21586 257.236C5.21044 257.546 4.37719 257.771 3.78776 257.912C3.49569 258.005 3.19439 258.067 2.88916 258.095C3.17168 257.976 3.46232 257.877 3.75885 257.8C4.32064 257.631 5.1476 257.377 6.14674 257.043C11.3788 255.31 16.3792 252.94 21.0358 249.985C21.9344 249.421 22.6495 248.942 23.1409 248.618C23.3916 248.43 23.6582 248.263 23.9377 248.121Z" fill="#E0E0E0"/>
<path d="M38.7565 252.401C38.7565 252.401 38.7565 252.006 38.7703 251.274C38.7979 250.472 38.8407 249.401 38.8822 248.048C38.9802 245.174 39.1071 241.145 39.2592 236.201C39.5394 226.198 39.7782 212.379 39.6664 197.107C39.5545 181.835 39.1197 168.016 38.6987 158.014C38.4737 153.07 38.2915 149.041 38.152 146.181C38.0816 144.842 38.0401 143.772 37.9974 142.968C37.9697 142.235 37.9697 141.842 37.9697 141.842C37.9697 141.842 38.0125 142.22 38.0678 142.968C38.1239 143.772 38.1939 144.843 38.2776 146.181C38.4599 148.97 38.6848 153.013 38.906 158.014C39.3836 168.017 39.8461 181.837 39.958 197.107C40.0698 212.377 39.7895 226.212 39.4552 236.22C39.2868 241.221 39.1184 245.264 38.9777 248.067L38.8093 251.279C38.7992 252.021 38.7565 252.401 38.7565 252.401Z" fill="#E0E0E0"/>
<path d="M63.5803 173.652C63.4961 173.666 62.4153 165.424 61.1522 155.254C59.8892 145.083 58.9353 136.833 59.0157 136.813C59.0962 136.792 60.1807 145.04 61.4438 155.225C62.6968 165.383 63.657 173.642 63.5803 173.652Z" fill="#E0E0E0"/>
<path d="M61.3208 190.333C60.9059 188.51 60.5875 186.667 60.3669 184.81C60.0445 182.969 59.8242 181.112 59.707 179.246C60.1219 181.069 60.4403 182.912 60.6609 184.769C60.9825 186.61 61.2028 188.467 61.3208 190.333Z" fill="#E0E0E0"/>
<path d="M67.0604 220.621C66.9762 220.621 66.8493 213.506 66.7802 204.716C66.7111 195.925 66.7098 188.811 66.794 188.811C66.8782 188.811 67.0039 195.925 67.0743 204.716C67.1446 213.506 67.1446 220.621 67.0604 220.621Z" fill="#E0E0E0"/>
<path d="M66.6118 251.964C66.5276 251.978 65.5875 245.541 64.5067 237.595C63.4258 229.649 62.6127 223.184 62.6969 223.184C62.7811 223.184 63.7212 229.608 64.802 237.567C65.8816 245.498 66.696 251.95 66.6118 251.964Z" fill="#E0E0E0"/>
<path d="M94.3125 191.305C94.2283 191.319 92.0818 178.119 89.4991 161.819C86.9164 145.519 84.8829 132.295 84.9671 132.295C85.0513 132.295 87.1979 145.481 89.7944 161.781C92.362 178.062 94.393 191.29 94.3125 191.305Z" fill="#E0E0E0"/>
<path d="M90.86 229.721C90.7758 229.735 90.0456 223.861 89.2262 216.6C88.4068 209.338 87.8085 203.47 87.8789 203.455C87.9493 203.44 88.6933 209.316 89.5127 216.577C90.3321 223.838 90.9442 229.721 90.86 229.721Z" fill="#E0E0E0"/>
<path d="M152.871 115.133C151.088 116.753 149.199 118.249 147.215 119.613C145.071 121.11 142.841 122.479 140.536 123.712C137.705 125.204 134.78 126.508 131.78 127.615C128.761 128.682 125.676 129.553 122.546 130.222C119.988 130.749 117.402 131.126 114.8 131.348C112.408 131.57 110.003 131.631 107.602 131.531C107.768 131.51 107.936 131.5 108.104 131.503C108.525 131.49 108.984 131.476 109.536 131.476C110.785 131.462 112.581 131.363 114.784 131.151C117.372 130.901 119.944 130.506 122.488 129.968C128.725 128.646 134.751 126.465 140.394 123.488C142.699 122.273 144.934 120.928 147.087 119.459C148.926 118.205 150.371 117.12 151.325 116.331C151.76 115.993 152.124 115.701 152.447 115.448C152.582 115.335 152.724 115.229 152.871 115.133Z" fill="#E0E0E0"/>
<path d="M152.997 115.161C152.989 115.038 152.993 114.916 153.01 114.795C153.038 114.47 153.081 114.118 153.108 113.739C153.22 112.654 153.347 111.358 153.502 109.836C153.825 106.539 154.203 101.99 154.428 96.9466C154.653 91.9036 154.695 87.3388 154.667 84.028C154.653 82.5064 154.639 81.1968 154.624 80.1168C154.624 79.7219 154.624 79.3837 154.61 79.0456C154.6 78.9235 154.604 78.8006 154.624 78.6797C154.656 78.7989 154.67 78.9222 154.667 79.0456C154.681 79.3698 154.708 79.7219 154.737 80.1168C154.794 81.0467 154.835 82.3878 154.878 84.028C154.962 87.3388 154.948 91.9175 154.723 96.9605C154.498 102.004 154.095 106.568 153.718 109.851C153.536 111.499 153.367 112.824 153.227 113.74C153.17 114.118 153.115 114.473 153.072 114.796C153.022 115.033 152.997 115.161 152.997 115.161Z" fill="#E0E0E0"/>
<path d="M164.77 77.6875C164.77 77.6875 164.854 78.0256 164.98 78.6741C165.106 79.3227 165.317 80.2803 165.608 81.5054C166.184 83.9569 167.194 87.4506 168.344 91.8034C169.844 96.8751 170.481 102.164 170.23 107.449C170.076 110.707 169.191 113.888 167.641 116.754C166.09 119.621 163.915 122.099 161.276 124.002C158.61 126.012 155.822 127.852 152.926 129.511C150.161 131.174 147.482 132.751 144.913 134.231C139.776 137.189 135.09 139.767 131.132 141.88C127.175 143.994 123.947 145.655 121.706 146.783C120.639 147.318 119.77 147.741 119.125 148.065C118.536 148.361 118.213 148.488 118.213 148.488C118.213 148.488 118.507 148.319 119.092 148.008C119.738 147.67 120.594 147.22 121.646 146.67C123.863 145.514 127.077 143.825 131.02 141.682C134.964 139.54 139.623 136.948 144.758 133.976C147.326 132.483 150.007 130.905 152.772 129.242C155.656 127.586 158.435 125.751 161.093 123.747C163.7 121.865 165.851 119.417 167.386 116.585C168.922 113.754 169.802 110.612 169.962 107.392C170.222 102.132 169.605 96.8664 168.137 91.811C167.015 87.4581 166.032 83.9506 165.498 81.4991C164.964 79.0476 164.77 77.6875 164.77 77.6875Z" fill="#E0E0E0"/>
<path d="M9.38672 227.003C9.38672 227.003 9.40054 226.708 9.44327 226.13C9.49983 225.481 9.55512 224.651 9.63933 223.637C9.82156 221.383 10.0742 218.27 10.3833 214.479C11.0004 206.745 11.7721 196.059 12.4319 184.233C13.0917 172.407 13.5265 161.692 13.7792 153.93C13.891 150.126 13.9903 147.014 14.0594 144.745C14.0871 143.731 14.1151 142.9 14.1436 142.252C14.1713 141.674 14.1864 141.379 14.1864 141.379C14.1864 141.379 14.2002 141.674 14.2002 142.252C14.2002 142.901 14.1864 143.731 14.1725 144.745C14.1298 147.016 14.0607 150.126 13.9765 153.93C13.7804 161.692 13.3732 172.413 12.7197 184.233C12.0662 196.052 11.2467 206.745 10.5832 214.479C10.2325 218.265 9.95478 221.382 9.75495 223.637C9.65693 224.646 9.57272 225.483 9.50359 226.116C9.42944 226.708 9.38672 227.003 9.38672 227.003Z" fill="#E0E0E0"/>
<path d="M13.0767 267.448C13.0191 267.342 12.9768 267.228 12.951 267.11C12.853 266.8 12.755 266.479 12.6419 266.11C12.3754 265.237 12.0135 263.965 11.6176 262.39C10.5881 258.263 9.81492 254.076 9.3026 249.853C8.79799 245.631 8.56374 241.382 8.60131 237.131C8.61513 235.491 8.65787 234.186 8.71317 233.271C8.74081 232.893 8.7559 232.538 8.78355 232.229C8.78004 232.106 8.79443 231.983 8.82627 231.863C8.84605 231.984 8.8507 232.107 8.8401 232.229C8.8401 232.553 8.82627 232.892 8.82627 233.271C8.79862 234.187 8.78355 235.497 8.79863 237.131C8.84217 245.624 9.84948 254.084 11.8011 262.347C12.1781 263.926 12.5024 265.208 12.7412 266.095C12.8392 266.46 12.9234 266.799 13.0076 267.104C13.0385 267.217 13.0616 267.332 13.0767 267.448Z" fill="#E0E0E0"/>
<path d="M22.0437 263.193C22.0437 263.193 22.0298 262.854 22.0298 262.206C22.0298 261.488 22.0437 260.543 22.0437 259.375C22.0713 256.825 22.1002 253.288 22.1417 248.949C22.2121 240.144 22.2536 227.987 22.1555 214.561C22.0575 201.136 21.8464 188.978 21.6528 180.174C21.5548 175.835 21.4706 172.298 21.414 169.75C21.3864 168.58 21.3713 167.636 21.3575 166.918C21.3436 166.27 21.3575 165.932 21.3575 165.932C21.3575 165.932 21.3851 166.27 21.414 166.918C21.4417 167.636 21.4844 168.581 21.5259 169.75C21.6101 172.299 21.7219 175.836 21.8627 180.16C22.114 188.95 22.3654 201.104 22.4521 214.548C22.5388 227.991 22.4659 240.131 22.3541 248.935C22.2837 253.274 22.2133 256.811 22.1719 259.361C22.1442 260.53 22.1153 261.474 22.1015 262.192C22.0713 262.84 22.0437 263.193 22.0437 263.193Z" fill="#E0E0E0"/>
<path d="M39.4024 140.984C39.3182 140.984 39.0518 137.01 38.7992 132.109C38.5466 127.207 38.4221 123.234 38.49 123.219C38.5579 123.204 38.8407 127.192 39.0794 132.094C39.3471 136.997 39.4866 140.97 39.4024 140.984Z" fill="#E0E0E0"/>
<path d="M60.1834 135.123C60.0992 135.123 59.7058 131.085 59.3036 126.079C58.9015 121.072 58.6438 117.021 58.7142 117.006C58.7846 116.991 59.1918 121.043 59.594 126.05C59.9961 131.056 60.2538 135.111 60.1834 135.123Z" fill="#E0E0E0"/>
<path d="M82.7903 129.953C82.7061 129.981 81.5838 126.276 80.2503 121.697C78.9169 117.119 77.9203 113.385 77.9881 113.358C78.056 113.33 79.1946 117.034 80.5281 121.613C81.8615 126.192 82.8544 129.925 82.7903 129.953Z" fill="#E0E0E0"/>
<path d="M75.3098 109.369C75.2025 109.414 75.0889 109.443 74.973 109.454C74.6638 109.51 74.3446 109.566 73.9902 109.637C72.9659 109.82 71.7732 110.032 70.3832 110.268C67.338 110.802 63.1278 111.592 58.5117 112.564C53.8955 113.535 49.7268 114.508 46.7105 115.24C45.3356 115.578 44.1567 115.859 43.1462 116.113C42.7956 116.198 42.4726 116.268 42.1785 116.339C42.0664 116.38 41.9473 116.399 41.8279 116.396C41.9287 116.341 42.0378 116.303 42.1509 116.283C42.445 116.199 42.768 116.1 43.1048 116.002C44.1014 115.734 45.2803 115.41 46.6414 115.044C49.6438 114.256 53.7975 113.255 58.4287 112.284C63.0599 111.312 67.2689 110.565 70.3279 110.072L73.9625 109.523C74.3132 109.48 74.65 109.439 74.9591 109.397C75.0743 109.372 75.1922 109.363 75.3098 109.369Z" fill="#E0E0E0"/>
<path d="M47.7675 119.557C47.6129 116.871 47.6549 114.178 47.8932 111.498C48.0253 112.837 48.0535 114.184 47.9774 115.527C48.0041 116.873 47.934 118.22 47.7675 119.557Z" fill="#E0E0E0"/>
<path d="M68.3512 115.907C67.7151 113.513 67.2647 111.073 67.0039 108.609C67.6399 111.003 68.0903 113.443 68.3512 115.907Z" fill="#E0E0E0"/>
</svg>
