<svg width="33" height="32" viewBox="0 0 33 32" fill="none" xmlns="http://www.w3.org/2000/svg">
<circle cx="16.2036" cy="16" r="16" fill="#EF4848"/>
<path d="M16.2035 6.83301C11.1489 6.83301 7.03687 10.9451 7.03687 15.9997C7.03687 21.0543 11.1489 25.1663 16.2035 25.1663C21.2582 25.1663 25.3702 21.0543 25.3702 15.9997C25.3702 10.9451 21.2582 6.83301 16.2035 6.83301ZM16.2035 23.7561C11.9267 23.7561 8.44712 20.2765 8.44712 15.9997C8.44712 11.7228 11.9267 8.24326 16.2035 8.24326C20.4804 8.24326 23.9599 11.7228 23.9599 15.9997C23.9599 20.2765 20.4804 23.7561 16.2035 23.7561ZM21.1394 15.2945H16.9087L16.9088 9.7208C16.9088 9.33139 16.5932 9.0156 16.2036 9.0156C15.8142 9.0156 15.4984 9.33123 15.4984 9.7208V15.9997C15.4984 16.3891 15.814 16.7049 16.2036 16.7049H21.1395C21.5289 16.7049 21.8447 16.3892 21.8447 15.9997C21.8447 15.6103 21.5289 15.2945 21.1395 15.2945L21.1394 15.2945Z" fill="white"/>
</svg>
