<svg width="123" height="31" viewBox="0 0 123 31" fill="none" xmlns="http://www.w3.org/2000/svg">
<path d="M32.1028 10.832H44.4716V13.1397H39.6082V26.1124H36.9339V13.1397H32.092V10.832H32.1028ZM43.9432 15.0484H46.2294V17.1836H46.2725C46.348 16.8816 46.4882 16.5905 46.6931 16.3101C46.898 16.0297 47.146 15.7601 47.4371 15.5337C47.7283 15.2965 48.0518 15.1131 48.4077 14.9622C48.7635 14.822 49.1302 14.7465 49.4968 14.7465C49.7772 14.7465 49.9821 14.7573 50.0899 14.7681C50.1977 14.7788 50.3056 14.8004 50.4242 14.8112V17.162C50.2517 17.1297 50.0791 17.1081 49.8958 17.0865C49.7125 17.065 49.5399 17.0542 49.3674 17.0542C48.9576 17.0542 48.5694 17.1405 48.2028 17.3022C47.8361 17.464 47.5234 17.712 47.2538 18.0247C46.9842 18.3482 46.7686 18.7364 46.6068 19.2109C46.445 19.6854 46.3696 20.2246 46.3696 20.8392V26.1016H43.9325V15.0484H43.9432ZM61.6284 26.1124H59.2344V24.5704H59.1913C58.8893 25.1311 58.4472 25.5732 57.8541 25.9075C57.261 26.2418 56.6571 26.4144 56.0425 26.4144C54.5867 26.4144 53.5299 26.0585 52.8829 25.336C52.2358 24.6135 51.9123 23.5244 51.9123 22.0686V15.0484H54.3494V21.8313C54.3494 22.8019 54.5328 23.492 54.9102 23.891C55.2768 24.29 55.8052 24.4949 56.4738 24.4949C56.9914 24.4949 57.412 24.4194 57.7571 24.2576C58.1021 24.0959 58.3825 23.891 58.5874 23.6214C58.8031 23.3626 58.954 23.0391 59.0511 22.6724C59.1481 22.3058 59.1913 21.9068 59.1913 21.4755V15.0592H61.6284V26.1124ZM65.7801 22.5646C65.8556 23.2763 66.1252 23.7724 66.5889 24.0635C67.0633 24.3439 67.6241 24.4949 68.2819 24.4949C68.5083 24.4949 68.7671 24.4733 69.0583 24.441C69.3495 24.4086 69.6298 24.3331 69.8779 24.2361C70.1367 24.139 70.3416 23.9881 70.5141 23.7939C70.6758 23.5998 70.7513 23.3518 70.7405 23.0391C70.7298 22.7264 70.6111 22.4676 70.3955 22.2735C70.1798 22.0686 69.9102 21.9176 69.5759 21.7882C69.2416 21.6696 68.8642 21.5617 68.4328 21.4755C68.0015 21.3892 67.5702 21.2921 67.128 21.1951C66.6751 21.098 66.233 20.9686 65.8124 20.8285C65.3919 20.6883 65.0144 20.4942 64.6801 20.2461C64.3459 20.0089 64.0763 19.6962 63.8822 19.3187C63.6773 18.9413 63.5802 18.4776 63.5802 17.9169C63.5802 17.313 63.7312 16.8169 64.0224 16.4072C64.3135 15.9974 64.6909 15.6739 65.1331 15.4259C65.586 15.1778 66.082 15.0053 66.632 14.8975C67.182 14.8004 67.7104 14.7465 68.2064 14.7465C68.7779 14.7465 69.3279 14.8112 69.8455 14.9298C70.3631 15.0484 70.8376 15.2425 71.2582 15.5229C71.6787 15.7925 72.0238 16.1484 72.3042 16.5797C72.5845 17.011 72.7571 17.5394 72.8326 18.1541H70.2876C70.169 17.5718 69.9102 17.1728 69.4897 16.9787C69.0691 16.7738 68.5838 16.6768 68.0446 16.6768C67.8721 16.6768 67.6672 16.6875 67.43 16.7199C67.1927 16.7522 66.9771 16.8062 66.7614 16.8816C66.5565 16.9571 66.384 17.0757 66.233 17.2267C66.0928 17.3777 66.0173 17.5718 66.0173 17.8198C66.0173 18.1218 66.1252 18.359 66.33 18.5423C66.5349 18.7256 66.8045 18.8766 67.1388 19.006C67.4731 19.1246 67.8505 19.2325 68.2819 19.3187C68.7132 19.405 69.1554 19.5021 69.6083 19.5991C70.0504 19.6962 70.4817 19.8256 70.9131 19.9658C71.3444 20.1059 71.7219 20.3001 72.0562 20.5481C72.3904 20.7961 72.66 21.098 72.8649 21.4647C73.0698 21.8313 73.1776 22.295 73.1776 22.8342C73.1776 23.492 73.0267 24.042 72.7247 24.5057C72.4228 24.9586 72.0346 25.336 71.5601 25.6164C71.0856 25.8968 70.5464 26.1124 69.9641 26.2418C69.3818 26.3712 68.7995 26.4359 68.228 26.4359C67.527 26.4359 66.88 26.3604 66.2869 26.1987C65.6938 26.0369 65.1762 25.7997 64.7449 25.487C64.3135 25.1635 63.9684 24.7645 63.7204 24.29C63.4724 23.8155 63.343 23.244 63.3214 22.5862H65.7801V22.5646ZM73.8247 15.0484H75.6687V11.7271H78.1058V15.0484H80.3056V16.8709H78.1058V22.7803C78.1058 23.0391 78.1165 23.2548 78.1381 23.4489C78.1597 23.6322 78.2136 23.7939 78.2891 23.9234C78.3646 24.0528 78.4832 24.1498 78.6449 24.2145C78.8067 24.2792 79.0116 24.3116 79.292 24.3116C79.4645 24.3116 79.637 24.3116 79.8096 24.3008C79.9821 24.29 80.1547 24.2684 80.3272 24.2253V26.1124C80.0576 26.1448 79.788 26.1663 79.54 26.1987C79.2812 26.231 79.0224 26.2418 78.7528 26.2418C78.1058 26.2418 77.5882 26.1771 77.1999 26.0585C76.8117 25.9399 76.499 25.7566 76.2833 25.5193C76.0569 25.2821 75.9167 24.9909 75.8304 24.6351C75.7549 24.2792 75.701 23.8694 75.6902 23.4165V16.8924H73.8462V15.0484H73.8247ZM82.031 15.0484H84.3387V16.5474H84.3818C84.7269 15.9003 85.2014 15.4474 85.8161 15.167C86.4307 14.8867 87.0885 14.7465 87.811 14.7465C88.6845 14.7465 89.4394 14.8975 90.0864 15.2102C90.7334 15.5121 91.2726 15.9327 91.7039 16.4719C92.1353 17.011 92.448 17.6365 92.6637 18.3482C92.8793 19.0599 92.9872 19.8256 92.9872 20.6343C92.9872 21.3784 92.8901 22.1009 92.696 22.7911C92.5019 23.492 92.2107 24.1067 91.8225 24.6459C91.4343 25.185 90.9383 25.6056 90.3344 25.9291C89.7305 26.2526 89.0296 26.4144 88.21 26.4144C87.8542 26.4144 87.4983 26.382 87.1424 26.3173C86.7866 26.2526 86.4415 26.1448 86.118 26.0046C85.7945 25.8644 85.4818 25.6811 85.2122 25.4546C84.9318 25.2282 84.7053 24.9694 84.5112 24.6782H84.4681V30.1994H82.031V15.0484ZM90.5501 20.5912C90.5501 20.0952 90.4854 19.6099 90.356 19.1354C90.2266 18.6609 90.0325 18.2512 89.7736 17.8845C89.5148 17.5179 89.1913 17.2267 88.8139 17.011C88.4257 16.7954 87.9836 16.6768 87.4875 16.6768C86.4631 16.6768 85.6866 17.0326 85.169 17.7443C84.6514 18.4561 84.3926 19.405 84.3926 20.5912C84.3926 21.152 84.4573 21.6696 84.5975 22.1441C84.7377 22.6185 84.9318 23.0283 85.2122 23.3734C85.4818 23.7185 85.8053 23.9881 86.1827 24.1822C86.5601 24.387 87.0023 24.4841 87.4983 24.4841C88.0591 24.4841 88.5227 24.3655 88.911 24.139C89.2992 23.9126 89.6119 23.6106 89.8599 23.2548C90.1079 22.8881 90.2913 22.4783 90.3991 22.0146C90.4961 21.551 90.5501 21.0765 90.5501 20.5912ZM94.8527 10.832H97.2898V13.1397H94.8527V10.832ZM94.8527 15.0484H97.2898V26.1124H94.8527V15.0484ZM99.4681 10.832H101.905V26.1124H99.4681V10.832ZM109.378 26.4144C108.494 26.4144 107.707 26.2634 107.017 25.9722C106.327 25.6811 105.744 25.2713 105.259 24.7645C104.784 24.2469 104.418 23.6322 104.17 22.9205C103.922 22.2088 103.792 21.4215 103.792 20.5696C103.792 19.7285 103.922 18.9521 104.17 18.2404C104.418 17.5287 104.784 16.914 105.259 16.3964C105.733 15.8788 106.327 15.4798 107.017 15.1886C107.707 14.8975 108.494 14.7465 109.378 14.7465C110.263 14.7465 111.05 14.8975 111.74 15.1886C112.43 15.4798 113.012 15.8896 113.498 16.3964C113.972 16.914 114.339 17.5287 114.587 18.2404C114.835 18.9521 114.964 19.7285 114.964 20.5696C114.964 21.4215 114.835 22.2088 114.587 22.9205C114.339 23.6322 113.972 24.2469 113.498 24.7645C113.023 25.2821 112.43 25.6811 111.74 25.9722C111.05 26.2634 110.263 26.4144 109.378 26.4144ZM109.378 24.4841C109.917 24.4841 110.392 24.3655 110.791 24.139C111.19 23.9126 111.513 23.6106 111.772 23.244C112.031 22.8773 112.214 22.4568 112.344 21.9931C112.462 21.5294 112.527 21.0549 112.527 20.5696C112.527 20.0952 112.462 19.6315 112.344 19.157C112.225 18.6825 112.031 18.2727 111.772 17.9061C111.513 17.5394 111.19 17.2483 110.791 17.0218C110.392 16.7954 109.917 16.6768 109.378 16.6768C108.839 16.6768 108.365 16.7954 107.966 17.0218C107.567 17.2483 107.243 17.5502 106.984 17.9061C106.726 18.2727 106.542 18.6825 106.413 19.157C106.294 19.6315 106.229 20.0952 106.229 20.5696C106.229 21.0549 106.294 21.5294 106.413 21.9931C106.531 22.4568 106.726 22.8773 106.984 23.244C107.243 23.6106 107.567 23.9126 107.966 24.139C108.365 24.3763 108.839 24.4841 109.378 24.4841ZM115.676 15.0484H117.52V11.7271H119.957V15.0484H122.157V16.8709H119.957V22.7803C119.957 23.0391 119.968 23.2548 119.989 23.4489C120.011 23.6322 120.065 23.7939 120.14 23.9234C120.216 24.0528 120.334 24.1498 120.496 24.2145C120.658 24.2792 120.863 24.3116 121.143 24.3116C121.316 24.3116 121.488 24.3116 121.661 24.3008C121.833 24.29 122.006 24.2684 122.178 24.2253V26.1124C121.909 26.1448 121.639 26.1663 121.391 26.1987C121.132 26.231 120.874 26.2418 120.604 26.2418C119.957 26.2418 119.439 26.1771 119.051 26.0585C118.663 25.9399 118.35 25.7566 118.135 25.5193C117.908 25.2821 117.768 24.9909 117.682 24.6351C117.606 24.2792 117.552 23.8694 117.541 23.4165V16.8924H115.697V15.0484H115.676Z" fill="#191919"/>
<path d="M29.256 10.8319H18.0841L14.6334 0.199219L11.1718 10.8319L0 10.8211L9.04746 17.3991L5.58592 28.021L14.6334 21.4537L23.6701 28.021L20.2193 17.3991L29.256 10.8319Z" fill="#00B67A"/>
<path d="M20.9956 19.8032L20.2192 17.3984L14.6333 21.4531L20.9956 19.8032Z" fill="#005128"/>
</svg>
