<svg width="24" height="19" viewBox="0 0 24 19" fill="none" xmlns="http://www.w3.org/2000/svg">
<path d="M20.6611 5.15249C20.6756 5.34784 20.6756 5.54323 20.6756 5.73857C20.6756 11.6969 15.9679 18.5623 7.36365 18.5623C4.71284 18.5623 2.25036 17.8227 0.178955 16.539C0.555586 16.5808 0.917681 16.5948 1.3088 16.5948C3.49604 16.5948 5.50953 15.8832 7.1174 14.6692C5.06049 14.6273 3.33673 13.3296 2.74283 11.5434C3.03256 11.5853 3.32224 11.6132 3.62646 11.6132C4.04652 11.6132 4.46662 11.5574 4.8577 11.4597C2.71389 11.0411 1.10597 9.22707 1.10597 7.03629V6.9805C1.72882 7.31539 2.45314 7.5247 3.2208 7.55258C1.96058 6.74323 1.13496 5.3618 1.13496 3.79893C1.13496 2.96171 1.36668 2.19424 1.77229 1.52444C4.07546 4.25943 7.53746 6.04551 11.4195 6.2409C11.3471 5.906 11.3036 5.55719 11.3036 5.20833C11.3036 2.72448 13.3895 0.701172 15.9823 0.701172C17.3295 0.701172 18.5462 1.24538 19.4009 2.12448C20.4583 1.92913 21.4722 1.55236 22.3703 1.03607C22.0226 2.08265 21.2839 2.96175 20.3134 3.51987C21.255 3.42224 22.1676 3.17101 23.0077 2.8222C22.3704 3.71522 21.5737 4.51057 20.6611 5.15249Z" fill="white"/>
</svg>
