<svg width="37" height="37" viewBox="0 0 37 37" fill="none" xmlns="http://www.w3.org/2000/svg">
<rect x="0.103516" y="0.5" width="35.9993" height="35.9993" rx="8" fill="#1DA1F2"/>
<path d="M26.577 15.155C26.5906 15.3445 26.5906 15.5341 26.5906 15.7236C26.5906 21.5036 22.1912 28.1635 14.1506 28.1635C11.6734 28.1635 9.37224 27.4461 7.43652 26.2008C7.78848 26.2413 8.12686 26.2549 8.49236 26.2549C10.5363 26.2549 12.4179 25.5646 13.9205 24.3869C11.9983 24.3463 10.3875 23.0874 9.83245 21.3547C10.1032 21.3953 10.3739 21.4224 10.6582 21.4224C11.0507 21.4224 11.4433 21.3682 11.8088 21.2735C9.80541 20.8674 8.30282 19.1077 8.30282 16.9824V16.9283C8.88486 17.2532 9.56174 17.4562 10.2791 17.4833C9.10145 16.6981 8.3299 15.3581 8.3299 13.842C8.3299 13.0298 8.54644 12.2853 8.92549 11.6355C11.0778 14.2887 14.313 16.0213 17.9407 16.2109C17.8731 15.886 17.8324 15.5476 17.8324 15.2092C17.8324 12.7997 19.7817 10.8369 22.2047 10.8369C23.4636 10.8369 24.6006 11.3648 25.3993 12.2176C26.3874 12.0281 27.335 11.6626 28.1743 11.1618C27.8494 12.177 27.159 13.0298 26.2521 13.5713C27.132 13.4765 27.9848 13.2328 28.7699 12.8945C28.1744 13.7608 27.4298 14.5323 26.577 15.155Z" fill="white"/>
</svg>
