<svg width="20" height="20" viewBox="0 0 20 20" fill="none" xmlns="http://www.w3.org/2000/svg">
<path d="M13.493 1.66797H6.50964C3.4763 1.66797 1.66797 3.4763 1.66797 6.50964V13.493C1.66797 15.8346 2.74297 17.443 4.63464 18.0513C5.18464 18.243 5.81797 18.3346 6.50964 18.3346H13.493C14.1846 18.3346 14.818 18.243 15.368 18.0513C17.2596 17.443 18.3346 15.8346 18.3346 13.493V6.50964C18.3346 3.4763 16.5263 1.66797 13.493 1.66797ZM17.0846 13.493C17.0846 15.2763 16.3846 16.4013 14.9763 16.868C14.168 15.2763 12.2513 14.143 10.0013 14.143C7.7513 14.143 5.84297 15.268 5.0263 16.868H5.01797C3.6263 16.418 2.91797 15.2846 2.91797 13.5013V6.50964C2.91797 4.15964 4.15964 2.91797 6.50964 2.91797H13.493C15.843 2.91797 17.0846 4.15964 17.0846 6.50964V13.493Z" fill="#434242"/>
<path d="M10.0029 6.66797C8.35286 6.66797 7.01953 8.0013 7.01953 9.6513C7.01953 11.3013 8.35286 12.643 10.0029 12.643C11.6529 12.643 12.9862 11.3013 12.9862 9.6513C12.9862 8.0013 11.6529 6.66797 10.0029 6.66797Z" fill="#434242"/>
</svg>
