<svg width="37" height="37" viewBox="0 0 37 37" fill="none" xmlns="http://www.w3.org/2000/svg">
<rect x="0.102051" y="0.5" width="35.9993" height="35.9993" rx="8" fill="#25D366"/>
<path fill-rule="evenodd" clip-rule="evenodd" d="M22.5071 20.4129C22.2689 20.2907 21.0909 19.7142 20.8716 19.6327C20.6522 19.5513 20.4956 19.5137 20.3327 19.7549C20.1697 19.9962 19.706 20.532 19.5713 20.6949C19.4366 20.8578 19.2925 20.8766 19.0543 20.7544C18.349 20.472 17.698 20.0691 17.1306 19.5638C16.6071 19.0795 16.1574 18.5211 15.7959 17.9064C15.769 17.8676 15.7504 17.8237 15.7412 17.7774C15.732 17.7311 15.7325 17.6834 15.7424 17.6373C15.7524 17.5912 15.7718 17.5476 15.7993 17.5093C15.8268 17.471 15.8619 17.4387 15.9024 17.4145C16.0121 17.3079 16.1405 17.1356 16.2627 16.9946C16.3604 16.8727 16.4406 16.7377 16.5008 16.5936C16.5323 16.5274 16.547 16.4545 16.5437 16.3813C16.5404 16.3081 16.5193 16.2369 16.482 16.1738C16.4194 16.0547 15.94 14.8766 15.7457 14.3941C15.5515 13.9116 15.351 13.9931 15.2037 13.9837C15.0564 13.9743 14.9061 13.9837 14.7463 13.9837C14.626 13.9904 14.5083 14.0217 14.4006 14.0756C14.2928 14.1295 14.1972 14.2048 14.1196 14.297C13.8486 14.5536 13.6339 14.8639 13.4893 15.2081C13.3448 15.5522 13.2735 15.9227 13.28 16.2959C13.28 17.474 14.1384 18.6113 14.2575 18.7743C14.3766 18.9372 15.9275 21.3372 18.34 22.3711C18.7854 22.5634 19.2403 22.7328 19.7029 22.8787C20.191 23.0272 20.7071 23.0594 21.2099 22.9727C21.6705 22.9069 22.6261 22.3962 22.8266 21.8353C22.9838 21.4782 23.0328 21.0828 22.9676 20.698C22.9112 20.5915 22.7514 20.532 22.5102 20.4098L22.5071 20.4129ZM24.9196 11.6401C23.2755 9.99846 21.0911 9.0099 18.7727 8.85832C16.4544 8.70674 14.1598 9.40247 12.316 10.8161C10.4722 12.2297 9.20468 14.2649 8.74918 16.5431C8.29367 18.8214 8.68123 21.1875 9.83976 23.2014L8.47998 28.1612L13.5619 26.8296C14.9658 27.5931 16.5382 27.9938 18.1363 27.9951C20.0322 27.9957 21.8856 27.434 23.4621 26.3811C25.0387 25.3282 26.2676 23.8314 26.9934 22.08C27.7191 20.3286 27.9092 18.4013 27.5395 16.5419C27.1698 14.6824 26.257 12.9744 24.9165 11.6338L24.9196 11.6401ZM18.1426 26.3784C16.7099 26.3812 15.303 25.998 14.0695 25.2693L13.7781 25.0938L10.7797 25.874L11.5849 22.9351L11.3969 22.6218C10.465 21.1234 10.0573 19.3579 10.2378 17.6027C10.4183 15.8474 11.1768 14.2019 12.3942 12.9246C13.6115 11.6472 15.2187 10.8105 16.9632 10.5458C18.7078 10.2812 20.4908 10.6036 22.0322 11.4624C23.5736 12.3212 24.7861 13.6677 25.479 15.2905C26.172 16.9132 26.3062 18.7202 25.8607 20.4275C25.4151 22.1348 24.415 23.6457 23.0174 24.7229C21.6198 25.8 19.904 26.3824 18.1395 26.3784H18.1426Z" fill="white"/>
</svg>
