<svg width="174" height="53" viewBox="0 0 174 53" fill="none" xmlns="http://www.w3.org/2000/svg">
<g clip-path="url(#clip0_118_1786)">
<path d="M25.2189 46.7429C24.3417 46.7429 23.5534 46.6412 22.8415 46.4504C22.1295 46.2598 21.5065 46.0055 20.9598 45.7003C20.4259 45.3825 19.9809 45.052 19.6122 44.6832C19.2562 44.3145 18.9766 43.9713 18.8112 43.6407H18.6333V46.2089H13.5732V37.322H18.6333V39.1782C18.6333 40.7421 19.18 41.8481 20.286 42.4965C21.3921 43.1449 22.9051 43.4628 24.8248 43.4628C26.8208 43.4628 28.321 43.0559 29.2873 42.2549C30.2663 41.454 30.7494 40.3988 30.7494 39.0892C30.7494 38.4663 30.6731 37.9068 30.5078 37.4492C30.3553 36.9915 30.0755 36.5847 29.7068 36.2669C29.3254 35.9236 28.8169 35.6438 28.1812 35.4023C27.5328 35.148 26.7446 34.9318 25.7783 34.7284L23.8204 34.2962C22.3329 34.0038 20.9853 33.5969 19.7393 33.0884C18.5061 32.5799 17.4509 31.9187 16.5864 31.1051C15.7091 30.2914 15.0353 29.3125 14.5521 28.1809C14.0818 27.0494 13.8402 25.7018 13.8402 24.1634C13.8402 22.8666 14.0691 21.6588 14.5395 20.5782C14.9972 19.4848 15.671 18.544 16.5355 17.7557C17.4127 16.9675 18.4934 16.3572 19.7902 15.925C21.087 15.4927 22.549 15.2639 24.2145 15.2639C25.1172 15.2639 25.9182 15.3655 26.6302 15.5563C27.3421 15.747 27.9651 15.9885 28.4991 16.2809C29.0458 16.5733 29.4907 16.9166 29.834 17.2853C30.1773 17.6413 30.4442 17.9973 30.6222 18.3152H30.7875V15.7978H35.8475V24.6846H30.7875V22.7776C30.7875 21.2519 30.2535 20.1586 29.1855 19.5102C28.1049 18.8618 26.7064 18.544 24.9901 18.544C23.0195 18.544 21.5701 18.9508 20.6547 19.7772C19.7393 20.5908 19.2816 21.5826 19.2816 22.7395C19.2816 23.4006 19.3834 23.96 19.5868 24.4177C19.7902 24.8881 20.1207 25.2822 20.5784 25.6382C21.0235 25.9814 21.6083 26.2738 22.3329 26.5155C23.0576 26.7697 23.9476 27.0113 24.9901 27.2274L26.8208 27.5834C28.3338 27.9139 29.6941 28.3207 30.9019 28.8293C32.1098 29.3379 33.1268 29.9863 33.9533 30.7745C34.7796 31.55 35.4153 32.4781 35.8475 33.5334C36.2798 34.6013 36.496 35.8346 36.496 37.233C36.496 38.5934 36.2417 39.8521 35.7204 41.0217C35.1992 42.1786 34.4491 43.1958 33.4701 44.0349C32.5038 44.874 31.3214 45.5351 29.923 46.0182C28.5245 46.5013 26.9607 46.7429 25.2189 46.7429ZM39.9032 43.3356H42.5222V18.01L39.9032 17.4506V14.9587L49.146 13.0898V26.9985H49.4512C49.858 25.8289 50.5699 24.8499 51.5998 24.049C52.6296 23.248 54.0026 22.8539 55.719 22.8539C58.516 22.8539 60.4739 23.5531 61.6309 24.9644C62.7751 26.3756 63.3472 28.4861 63.3472 31.3085V43.3356H65.9662V46.2089H54.3332V43.3356H56.7234V31.5246C56.7234 29.9863 56.4564 28.8929 55.9224 28.2318C55.3757 27.5834 54.4731 27.2528 53.189 27.2528C52.7058 27.2528 52.21 27.3163 51.7396 27.4562C51.2565 27.5834 50.8242 27.7868 50.4301 28.0665C50.036 28.3335 49.7182 28.6895 49.4893 29.1091C49.2605 29.5286 49.146 30.0498 49.146 30.6601V43.3356H51.5362V46.2089H39.9032V43.3356ZM79.9131 46.7429C78.1077 46.7429 76.5185 46.4377 75.1327 45.8402C73.7597 45.2427 72.59 44.4163 71.6492 43.361C70.7084 42.293 69.9837 41.0345 69.5006 39.5724C69.0048 38.0976 68.7505 36.4957 68.7505 34.7539C68.7505 32.9231 69.0048 31.2703 69.5133 29.7829C70.0218 28.2953 70.7465 27.0494 71.7 26.0323C72.6409 25.0153 73.7724 24.2397 75.0946 23.6803C76.4168 23.1336 77.8916 22.8539 79.5189 22.8539C81.1463 22.8539 82.6084 23.0954 83.9179 23.5913C85.2274 24.0872 86.3335 24.7864 87.2489 25.7017C88.1646 26.6045 88.8762 27.7233 89.3719 29.02C89.8676 30.3168 90.1094 31.7789 90.1094 33.3681V34.8429H75.7684V36.6101C75.7684 38.568 76.277 40.0555 77.294 41.0599C78.3112 42.0515 79.6588 42.5473 81.3498 42.5473C82.9135 42.5473 84.1849 42.1914 85.1384 41.4667C86.1047 40.7547 86.7785 39.8775 87.1853 38.8477L89.5886 40.2844C89.3216 41.009 88.9524 41.7591 88.4567 42.5092C87.961 43.2593 87.3248 43.9586 86.537 44.5816C85.7486 45.2045 84.8079 45.7257 83.7017 46.1326C82.5957 46.5395 81.337 46.7429 79.9131 46.7429ZM75.7684 32.1348H83.2695V31.5246C83.2695 29.4141 82.939 27.9394 82.2652 27.0875C81.5913 26.2357 80.6759 25.8161 79.5189 25.8161C78.362 25.8161 77.4467 26.2357 76.7728 27.0875C76.099 27.9394 75.7684 29.4141 75.7684 31.5246V32.1348Z" fill="#E5097F"/>
<path d="M106.638 43.2336V35.7071L106.142 36.0885L105.583 36.4318L104.972 36.8132L104.248 37.1564C103.612 37.4489 103.103 37.6141 102.735 37.6523L101.336 37.8303C98.9968 37.8303 97.1022 36.953 95.6402 35.1986C94.1911 33.4568 93.4666 31.4099 93.4666 29.0579C93.4666 25.2692 95.0049 22.8282 98.0816 21.7476C99.1112 21.3788 100.23 21.1881 101.412 21.1881C102.125 21.1881 102.76 21.2644 103.345 21.417C103.905 21.5568 104.515 21.7983 105.15 22.1416L105.798 22.5358L106.638 23.0825L103.93 25.8795L103.421 25.4853L103.04 25.2056L102.099 24.6462L101.438 24.4301C101.019 24.4301 100.636 24.5445 100.293 24.7607C99.9501 24.9895 99.5948 25.3074 99.2637 25.7142L98.6666 27.1635L98.4378 28.7273V29.5028C98.4378 30.4055 98.768 31.2954 99.4422 32.1854C99.8106 32.7067 100.344 33.1263 101.031 33.4441C101.717 33.7619 102.417 33.9145 103.129 33.9145C103.497 33.9145 103.79 33.8764 104.019 33.8001L104.972 33.3042L105.798 32.6304L106.638 31.626V18.4039H51.1045L52.9098 14.666H128.187V18.4039H112.333V23.6418L113.503 22.8155L114.685 22.0781L116.351 21.417L118.144 21.1881C122.275 21.1881 124.335 23.9216 124.335 29.4012V31.0158C124.259 31.3844 124.221 31.6642 124.221 31.8549C124.221 32.2236 124.094 32.9991 123.839 34.1942L123.724 34.7027L123.56 35.2622L117.699 39.6102L118.144 38.0973L118.423 36.8132L118.919 33.6984L119.148 30.9649L118.983 28.9435C118.716 27.4941 118.232 26.6042 117.521 26.2735C117.114 26.0066 116.669 25.8795 116.185 25.8795C115.626 25.8795 114.952 26.1973 114.177 26.833L113.173 27.8882L112.333 29.1214V39.8899L106.638 43.2336Z" fill="white"/>
<path d="M110.238 12.5172L106.652 8.93197L110.264 5.32129L113.976 8.90654L110.238 12.5172Z" fill="white"/>
<path d="M120.507 50.531C118.982 51.6625 117.227 52.2219 115.256 52.2219C114.29 52.2219 113.197 52.1202 111.977 51.8913C109.777 51.5227 107.514 50.7344 105.162 49.552C104.196 49.0816 103.42 48.5985 102.822 48.09L106.103 45.1404L107.743 46.3609L109.015 47.2C109.955 47.823 111.112 48.357 112.485 48.8019C113.68 49.1452 114.787 49.3105 115.816 49.3105C116.604 49.3105 117.24 49.0307 117.749 48.4714C118.028 48.1535 118.245 47.7976 118.397 47.3907C118.46 47.1746 118.499 46.8313 118.499 46.3609L118.206 45.471C117.99 44.937 117.596 44.581 117.036 44.3903L116.058 44.2505C115.549 44.2505 115.13 44.3267 114.787 44.4793L113.006 45.2802L112.206 45.6998L111.074 46.3609V42.14L111.836 41.8603L113.133 41.428L115.244 40.9194L116.973 40.7796C117.596 40.716 118.257 40.8432 118.982 41.1483C120.342 41.7459 121.423 42.6994 122.198 44.0089C122.516 44.67 122.656 45.3565 122.618 46.0812C122.555 48.0137 121.855 49.5012 120.507 50.531Z" fill="white"/>
<path d="M145.491 25.4344C146.381 27.4432 146.826 29.4647 146.826 31.5116C146.826 32.9355 146.623 34.2323 146.216 35.4275C145.287 38.1354 143.775 39.9789 141.69 40.9452C140.622 41.4283 139.465 41.6698 138.232 41.6698C135.18 41.6698 132.803 40.0933 131.087 36.9276C130.565 35.9614 130.07 34.6773 129.586 33.0754C129.357 32.4143 129.04 30.7361 128.633 28.0535L128.302 23.2604L133.655 21.9764C133.655 23.5402 133.756 25.1166 133.934 26.7186L134.328 30.0623C134.621 32.5541 135.244 34.5883 136.172 36.1521C136.909 37.487 137.812 38.1608 138.855 38.1608C140.266 38.1608 141.143 37.3599 141.474 35.758L141.639 34.0289V32.7957C141.562 32.5796 141.486 32.2998 141.41 31.9693L140.914 29.7826L140.19 27.8374C139.999 27.3924 139.719 26.922 139.351 26.4388L136.617 27.3924L138.015 23.0951L140.075 22.7011L141.588 22.3578L142.923 22.1925L144.487 22.1416L150.628 21.9764V18.4039H124.78V14.666H164.358V18.4039H156.323V39.8899L150.628 43.2336V25.4344H145.491Z" fill="white"/>
<path fill-rule="evenodd" clip-rule="evenodd" d="M0.644531 14.2089L15.5322 1.41895L35.0985 2.98272L28.0806 8.92L9.93823 14.781L0.644531 14.2089Z" fill="white"/>
<path d="M27.494 6.98748L29.5663 13.713C29.4138 13.0901 25.409 13.4969 20.6287 14.6411C16.0517 15.7472 11.6146 19.0527 11.4494 19.7138L10.1272 15.3276L9.30078 12.8993C11.3222 10.4329 17.9842 5.72883 27.494 6.98748Z" fill="url(#paint0_linear_118_1786)"/>
<path fill-rule="evenodd" clip-rule="evenodd" d="M22.5889 6.0462L25.2333 13.7761L27.9922 14.0685L25.3223 5.84277L22.5889 6.0462Z" fill="#EBECEC" fill-opacity="0.188235"/>
<path fill-rule="evenodd" clip-rule="evenodd" d="M20.541 6.19922L23.4398 14.2978L24.3551 14.0309L21.3929 6.26279L20.541 6.19922Z" fill="#EBECEC" fill-opacity="0.188235"/>
<path d="M3.59338 13.0264L5.13173 17.4253L4.71218 17.5651L3.17383 13.1789L3.59338 13.0264Z" fill="white"/>
<path fill-rule="evenodd" clip-rule="evenodd" d="M5.13135 17.3483C5.65262 17.3101 6.09759 17.7043 6.13573 18.2255C6.17387 18.7468 5.77975 19.2045 5.25849 19.2426C4.73724 19.268 4.27954 18.8867 4.2414 18.3526C4.21597 17.8314 4.6101 17.3864 5.13135 17.3483Z" fill="white"/>
<path fill-rule="evenodd" clip-rule="evenodd" d="M8.00405 22.7261L5.74102 23.5144L5.19434 18.2891L8.00405 22.7261Z" fill="white"/>
<path fill-rule="evenodd" clip-rule="evenodd" d="M169.455 9.73329C168.12 9.83495 167.167 10.4325 166.544 11.119C165.883 11.831 165.362 12.8736 165.425 14.2593C165.488 15.5434 166.163 16.5986 166.798 17.158C167.676 17.9336 168.692 18.3404 169.939 18.2895C171.045 18.2387 172.176 17.6793 172.85 16.9037C172.939 16.8147 173.015 16.7257 173.092 16.6241C173.715 15.8231 174.032 14.8315 173.969 13.7635C173.879 11.9963 172.722 10.6105 171.286 10.0384C170.765 9.82221 170.091 9.69515 169.455 9.73329ZM169.481 10.191C168.273 10.28 167.434 10.8139 166.887 11.4242C166.29 12.0726 165.819 13.0134 165.883 14.2339C165.985 16.2554 167.764 17.9717 169.926 17.8319C170.486 17.7937 170.993 17.6538 171.426 17.425C173.307 16.4461 174.07 14.183 173.117 12.276C172.787 11.653 172.303 11.1317 171.744 10.7758C171.553 10.6613 171.337 10.5469 171.108 10.4579C170.625 10.2672 170.065 10.1528 169.481 10.191Z" fill="white"/>
<path fill-rule="evenodd" clip-rule="evenodd" d="M168.033 11.8525V16.0064H168.956V14.2525H169.593C169.861 14.5014 170.056 14.7789 170.295 15.0833C170.564 15.4256 170.756 15.7756 170.802 16.0064H171.726C171.541 15.4987 171.264 15.0052 170.983 14.6475C170.86 14.4912 170.725 14.339 170.589 14.1955C170.728 14.1506 170.871 14.0781 170.999 13.9753C171.252 13.7722 171.449 13.45 171.449 13.0064C171.449 12.6391 171.297 12.3399 171.058 12.1383C170.828 11.9433 170.533 11.8525 170.251 11.8525H168.033ZM168.956 12.591V13.5141H170.251C170.305 13.5141 170.43 13.4848 170.537 13.399C170.629 13.3252 170.71 13.2089 170.71 13.0064C170.71 12.8567 170.654 12.7636 170.582 12.7021C170.501 12.6341 170.382 12.591 170.251 12.591H168.956Z" fill="white"/>
</g>
<defs>
<linearGradient id="paint0_linear_118_1786" x1="11.9154" y1="16.9029" x2="26.946" y2="9.59255" gradientUnits="userSpaceOnUse">
<stop stop-color="white"/>
<stop offset="0.670588" stop-color="#E3E3E6"/>
<stop offset="1" stop-color="#E0E0E0"/>
</linearGradient>
<clipPath id="clip0_118_1786">
<rect width="173.333" height="52" fill="white" transform="translate(0.644531 0.574219)"/>
</clipPath>
</defs>
</svg>
