<svg width="20" height="21" viewBox="0 0 20 21" fill="none" xmlns="http://www.w3.org/2000/svg">
<g id="design-icon">
<g id="call">
<path id="Vector" d="M9.20964 12.9753L7.66797 14.5169C7.34297 14.8419 6.8263 14.8419 6.49297 14.5253C6.4013 14.4336 6.30964 14.3503 6.21797 14.2586C5.35964 13.3919 4.58464 12.4836 3.89297 11.5336C3.20964 10.5836 2.65964 9.63359 2.25964 8.69193C1.86797 7.74193 1.66797 6.83359 1.66797 5.96693C1.66797 5.40026 1.76797 4.85859 1.96797 4.35859C2.16797 3.85026 2.48464 3.38359 2.9263 2.96693C3.45964 2.44193 4.04297 2.18359 4.65964 2.18359C4.89297 2.18359 5.1263 2.23359 5.33464 2.33359C5.5513 2.43359 5.74297 2.58359 5.89297 2.80026L7.8263 5.52526C7.9763 5.73359 8.08464 5.92526 8.15964 6.10859C8.23464 6.28359 8.2763 6.45859 8.2763 6.61693C8.2763 6.81693 8.21797 7.01693 8.1013 7.20859C7.99297 7.40026 7.83464 7.60026 7.63464 7.80026L7.0013 8.45859C6.90964 8.55026 6.86797 8.65859 6.86797 8.79193C6.86797 8.85859 6.8763 8.91693 6.89297 8.98359C6.91797 9.05026 6.94297 9.10026 6.95964 9.15026C7.10964 9.42526 7.36797 9.78359 7.73464 10.2169C8.10964 10.6503 8.50964 11.0919 8.94297 11.5336C9.0263 11.6169 9.11797 11.7003 9.2013 11.7836C9.53464 12.1086 9.54297 12.6419 9.20964 12.9753Z" fill="#434242"/>
<path id="Vector_2" d="M18.3064 15.7898C18.3064 16.0232 18.2647 16.2648 18.1814 16.4982C18.1564 16.5648 18.1314 16.6315 18.098 16.6982C17.9564 16.9982 17.773 17.2815 17.5314 17.5482C17.123 17.9982 16.673 18.3232 16.1647 18.5315C16.1564 18.5315 16.148 18.5398 16.1397 18.5398C15.648 18.7398 15.1147 18.8482 14.5397 18.8482C13.6897 18.8482 12.7814 18.6482 11.823 18.2398C10.8647 17.8315 9.90638 17.2815 8.95638 16.5898C8.63138 16.3482 8.30638 16.1065 7.99805 15.8482L10.723 13.1232C10.9564 13.2982 11.1647 13.4315 11.3397 13.5232C11.3814 13.5398 11.4314 13.5648 11.4897 13.5898C11.5564 13.6148 11.623 13.6232 11.698 13.6232C11.8397 13.6232 11.948 13.5732 12.0397 13.4815L12.673 12.8565C12.8814 12.6482 13.0814 12.4898 13.273 12.3898C13.4647 12.2732 13.6564 12.2148 13.8647 12.2148C14.023 12.2148 14.1897 12.2482 14.373 12.3232C14.5564 12.3982 14.748 12.5065 14.9564 12.6482L17.7147 14.6065C17.9314 14.7565 18.0814 14.9315 18.173 15.1398C18.2564 15.3482 18.3064 15.5565 18.3064 15.7898Z" fill="#434242"/>
</g>
</g>
</svg>
