<svg width="49" height="49" viewBox="0 0 49 49" fill="none" xmlns="http://www.w3.org/2000/svg">
<rect x="2.82422" y="2.41602" width="44" height="44" rx="4" fill="#FF0000"/>
<rect x="13.6992" y="13.291" width="22.25" height="22.25" rx="4" fill="white"/>
<path d="M43.9884 14.8166C43.5283 13.0844 42.1729 11.7202 40.452 11.2573C37.3326 10.416 24.8242 10.416 24.8242 10.416C24.8242 10.416 12.3159 10.416 9.19648 11.2573C7.47551 11.7203 6.12009 13.0844 5.66006 14.8166C4.82422 17.9563 4.82422 24.5069 4.82422 24.5069C4.82422 24.5069 4.82422 31.0575 5.66006 34.1972C6.12009 35.9294 7.47551 37.2368 9.19648 37.6997C12.3159 38.541 24.8242 38.541 24.8242 38.541C24.8242 38.541 37.3325 38.541 40.452 37.6997C42.1729 37.2368 43.5283 35.9294 43.9884 34.1972C44.8242 31.0575 44.8242 24.5069 44.8242 24.5069C44.8242 24.5069 44.8242 17.9563 43.9884 14.8166ZM20.7333 30.4544V18.5594L31.1878 24.5071L20.7333 30.4544Z" fill="#FF0000"/>
</svg>
