<svg width="21" height="21" viewBox="0 0 21 21" fill="none" xmlns="http://www.w3.org/2000/svg">
<path d="M9.30925 13.0544L7.76758 14.606C7.44258 14.9331 6.92591 14.9331 6.59258 14.6144C6.50091 14.5221 6.40925 14.4383 6.31758 14.346C5.45924 13.4738 4.68424 12.5596 3.99258 11.6035C3.30924 10.6474 2.75924 9.69126 2.35924 8.74354C1.96758 7.78743 1.76758 6.87326 1.76758 6.00102C1.76758 5.43071 1.86758 4.88556 2.06758 4.38234C2.26758 3.87074 2.58424 3.40108 3.02591 2.98173C3.55924 2.45335 4.14258 2.19336 4.75925 2.19336C4.99258 2.19336 5.22591 2.24368 5.43425 2.34432C5.65091 2.44497 5.84258 2.59593 5.99258 2.81399L7.92591 5.55651C8.07591 5.76619 8.18425 5.95908 8.25924 6.1436C8.33425 6.31972 8.37591 6.49585 8.37591 6.6552C8.37591 6.85648 8.31758 7.05777 8.20091 7.25067C8.09258 7.44357 7.93425 7.64485 7.73424 7.84614L7.10091 8.50871C7.00924 8.60096 6.96758 8.70999 6.96758 8.84418C6.96758 8.91128 6.97591 8.96999 6.99258 9.03708C7.01758 9.10418 7.04258 9.1545 7.05925 9.20482C7.20925 9.48159 7.46758 9.84223 7.83424 10.2783C8.20924 10.7145 8.60924 11.159 9.04258 11.6035C9.12591 11.6873 9.21758 11.7712 9.30091 11.8551C9.63424 12.1822 9.64258 12.7189 9.30925 13.0544Z" fill="#888888"/>
<path d="M18.4099 15.889C18.4099 16.1238 18.3682 16.3671 18.2849 16.6019C18.2599 16.669 18.2349 16.7361 18.2016 16.8032C18.0599 17.1051 17.8766 17.3903 17.6349 17.6586C17.2266 18.1115 16.7766 18.4386 16.2682 18.6483C16.2599 18.6483 16.2516 18.6567 16.2432 18.6567C15.7516 18.858 15.2182 18.967 14.6432 18.967C13.7932 18.967 12.8849 18.7657 11.9266 18.3548C10.9682 17.9438 10.0099 17.3903 9.0599 16.6941C8.7349 16.4509 8.4099 16.2077 8.10156 15.9477L10.8266 13.2052C11.0599 13.3813 11.2682 13.5155 11.4432 13.6078C11.4849 13.6245 11.5349 13.6497 11.5932 13.6749C11.6599 13.7 11.7266 13.7084 11.8016 13.7084C11.9432 13.7084 12.0516 13.6581 12.1432 13.5658L12.7766 12.9368C12.9849 12.7271 13.1849 12.5678 13.3766 12.4671C13.5682 12.3497 13.7599 12.291 13.9682 12.291C14.1266 12.291 14.2932 12.3246 14.4766 12.4C14.6599 12.4755 14.8516 12.5846 15.0599 12.7271L17.8182 14.6981C18.0349 14.849 18.1849 15.0251 18.2766 15.2348C18.3599 15.4445 18.4099 15.6542 18.4099 15.889Z" fill="#888888"/>
</svg>
