<svg width="111" height="34" viewBox="0 0 111 34" fill="none" xmlns="http://www.w3.org/2000/svg">
<g clip-path="url(#clip0_6032_60490)">
<path d="M15.9279 30.1932C15.3705 30.1932 14.8696 30.1284 14.4171 30.0068C13.9647 29.8853 13.5688 29.7233 13.2214 29.5288C12.8821 29.3263 12.5993 29.1156 12.365 28.8806C12.1388 28.6456 11.961 28.4269 11.856 28.2162H11.7429V29.8529H8.52734V24.1893H11.7429V25.3723C11.7429 26.3689 12.0903 27.0738 12.7932 27.487C13.4961 27.9002 14.4575 28.1028 15.6775 28.1028C16.9459 28.1028 17.8993 27.8435 18.5133 27.333C19.1354 26.8226 19.4424 26.1501 19.4424 25.3155C19.4424 24.9185 19.394 24.562 19.2889 24.2703C19.192 23.9786 19.0142 23.7194 18.7799 23.5168C18.5375 23.2981 18.2144 23.1198 17.8104 22.9658C17.3984 22.8038 16.8975 22.666 16.2834 22.5364L15.0392 22.2609C14.0939 22.0746 13.2376 21.8153 12.4458 21.4912C11.6621 21.1671 10.9915 20.7457 10.4421 20.2272C9.88467 19.7086 9.45646 19.0848 9.14942 18.3637C8.85052 17.6425 8.69697 16.7837 8.69697 15.8033C8.69697 14.9768 8.84243 14.2071 9.14137 13.5184C9.43223 12.8216 9.86043 12.222 10.4098 11.7197C10.9673 11.2173 11.654 10.8284 12.4781 10.5529C13.3022 10.2774 14.2313 10.1316 15.2897 10.1316C15.8633 10.1316 16.3723 10.1964 16.8248 10.318C17.2772 10.4395 17.6731 10.5934 18.0124 10.7798C18.3598 10.9661 18.6426 11.1849 18.8607 11.4199C19.0789 11.6468 19.2485 11.8736 19.3616 12.0762H19.4667V10.4719H22.6822V16.1355H19.4667V14.9201C19.4667 13.9478 19.1273 13.251 18.4487 12.8378C17.7619 12.4246 16.8732 12.222 15.7825 12.222C14.5302 12.222 13.6092 12.4813 13.0275 13.008C12.4458 13.5265 12.1549 14.1585 12.1549 14.8958C12.1549 15.3171 12.2196 15.6737 12.3488 15.9653C12.4781 16.2652 12.6881 16.5163 12.979 16.7432C13.2618 16.9619 13.6335 17.1483 14.0939 17.3023C14.5545 17.4643 15.12 17.6182 15.7825 17.756L16.9459 17.9828C17.9074 18.1935 18.7718 18.4528 19.5394 18.7769C20.3069 19.101 20.9532 19.5142 21.4784 20.0166C22.0036 20.5108 22.4076 21.1023 22.6822 21.7748C22.9569 22.4554 23.0943 23.2413 23.0943 24.1326C23.0943 24.9996 22.9327 25.8017 22.6014 26.5471C22.2702 27.2844 21.7935 27.9326 21.1714 28.4674C20.5574 29.0022 19.806 29.4235 18.9173 29.7313C18.0285 30.0393 17.0348 30.1932 15.9279 30.1932ZM25.2595 28.0218H26.9239V11.8817L25.2595 11.5252V9.93713L31.1331 8.74609V17.6101H31.3271C31.5856 16.8647 32.038 16.2408 32.6925 15.7304C33.3469 15.2199 34.2194 14.9687 35.3101 14.9687C37.0876 14.9687 38.3318 15.4143 39.067 16.3138C39.7942 17.2131 40.1577 18.5581 40.1577 20.3569V28.0218H41.822V29.8529H34.4295V28.0218H35.9484V20.4946C35.9484 19.5142 35.7788 18.8174 35.4394 18.3961C35.092 17.9828 34.5184 17.7722 33.7024 17.7722C33.3953 17.7722 33.0803 17.8127 32.7813 17.9018C32.4743 17.9828 32.1996 18.1125 31.9492 18.2908C31.6987 18.4609 31.4967 18.6878 31.3513 18.9552C31.2059 19.2225 31.1331 19.5547 31.1331 19.9437V28.0218H32.6521V29.8529H25.2595V28.0218ZM50.685 30.1932C49.5378 30.1932 48.5279 29.9987 47.6472 29.618C46.7747 29.2371 46.0314 28.7105 45.4335 28.038C44.8356 27.3573 44.3751 26.5552 44.0681 25.6235C43.753 24.6836 43.5914 23.6626 43.5914 22.5526C43.5914 21.3858 43.753 20.3326 44.0761 19.3846C44.3993 18.4366 44.8599 17.6425 45.4658 16.9943C46.0637 16.3462 46.7827 15.8519 47.623 15.4954C48.4632 15.147 49.4004 14.9687 50.4346 14.9687C51.4687 14.9687 52.3978 15.1227 53.23 15.4387C54.0622 15.7547 54.765 16.2003 55.3468 16.7837C55.9287 17.359 56.3809 18.072 56.6959 18.8984C57.0109 19.7249 57.1646 20.6567 57.1646 21.6695V22.6094H48.0512V23.7356C48.0512 24.9834 48.3744 25.9313 49.0207 26.5714C49.667 27.2034 50.5234 27.5194 51.598 27.5194C52.5917 27.5194 53.3997 27.2925 54.0056 26.8307C54.6196 26.3769 55.0479 25.8179 55.3064 25.1616L56.8336 26.0772C56.664 26.539 56.4294 27.017 56.1143 27.4951C55.7993 27.9731 55.395 28.4188 54.8944 28.8158C54.3934 29.2128 53.7956 29.545 53.0926 29.8043C52.3898 30.0636 51.5899 30.1932 50.685 30.1932ZM48.0512 20.8835H52.818V20.4946C52.818 19.1496 52.6079 18.2097 52.1797 17.6669C51.7515 17.124 51.1698 16.8566 50.4346 16.8566C49.6994 16.8566 49.1177 17.124 48.6894 17.6669C48.2612 18.2097 48.0512 19.1496 48.0512 20.4946V20.8835Z" fill="white"/>
<path d="M67.6675 27.9542V23.1576L67.3519 23.4007L66.9967 23.6194L66.609 23.8625L66.1485 24.0812C65.7443 24.2676 65.421 24.3729 65.1869 24.3972L64.298 24.5107C62.8115 24.5107 61.6076 23.9516 60.6785 22.8335C59.7576 21.7235 59.2972 20.419 59.2972 18.92C59.2972 16.5054 60.2748 14.9498 62.23 14.2611C62.8842 14.0261 63.5953 13.9046 64.3465 13.9046C64.7992 13.9046 65.2029 13.9532 65.5747 14.0505C65.9304 14.1395 66.3182 14.2935 66.7219 14.5123L67.1338 14.7635L67.6675 15.1119L65.9464 16.8944L65.6231 16.6432L65.3808 16.465L64.7827 16.1084L64.363 15.9707C64.0964 15.9707 63.8536 16.0436 63.6355 16.1814C63.4174 16.3272 63.1916 16.5298 62.9812 16.7891L62.6017 17.7127L62.4563 18.7093V19.2036C62.4563 19.7789 62.6662 20.346 63.0946 20.9132C63.3287 21.2454 63.668 21.5128 64.1042 21.7153C64.5404 21.9179 64.9848 22.0151 65.4375 22.0151C65.6716 22.0151 65.8577 21.9908 66.0031 21.9422L66.609 21.6262L67.1338 21.1968L67.6675 20.5567V12.1302H32.377L33.5242 9.74805H81.3613V12.1302H71.2865V15.4683L72.03 14.9417L72.7812 14.4718L73.8398 14.0505L74.9793 13.9046C77.6047 13.9046 78.9138 15.6466 78.9138 19.1388V20.1678C78.8654 20.4027 78.8411 20.581 78.8411 20.7025C78.8411 20.9375 78.7602 21.4318 78.5982 22.1934L78.5255 22.5175L78.4209 22.874L74.6962 25.645L74.9793 24.6808L75.1566 23.8625L75.4716 21.8774L75.617 20.1353L75.5124 18.8471C75.3428 17.9234 75.0354 17.3563 74.5833 17.1455C74.3244 16.9754 74.0419 16.8944 73.7346 16.8944C73.3793 16.8944 72.9508 17.0969 72.4585 17.5021L71.8202 18.1746L71.2865 18.9605V25.8233L67.6675 27.9542Z" fill="#302F2F"/>
<path d="M69.9542 8.37894L67.6758 6.09406L69.9708 3.79297L72.3296 6.07785L69.9542 8.37894Z" fill="#302F2F"/>
<path d="M76.4808 32.6056C75.5115 33.3267 74.3962 33.6832 73.1438 33.6832C72.5297 33.6832 71.8352 33.6184 71.0598 33.4725C69.662 33.2376 68.2239 32.7352 66.7292 31.9817C66.1151 31.6819 65.6222 31.374 65.2422 31.0499L67.3268 29.1701L68.3693 29.948L69.1773 30.4827C69.7749 30.8798 70.5101 31.2201 71.3825 31.5037C72.142 31.7224 72.8453 31.8278 73.4996 31.8278C74.0002 31.8278 74.4045 31.6495 74.7278 31.293C74.9051 31.0904 75.0428 30.8636 75.1397 30.6043C75.1799 30.4666 75.2041 30.2478 75.2041 29.948L75.0185 29.3808C74.8809 29.0405 74.6308 28.8137 74.275 28.6921L73.6532 28.603C73.3299 28.603 73.0634 28.6516 72.8453 28.7488L71.714 29.2593L71.2052 29.5267L70.4859 29.948V27.258L70.9705 27.0797L71.7945 26.8042L73.1361 26.4801L74.2348 26.391C74.6308 26.3505 75.0505 26.4315 75.5115 26.626C76.3756 27.0068 77.0624 27.6145 77.5553 28.4491C77.7574 28.8704 77.8461 29.3079 77.8219 29.7697C77.7817 31.0013 77.3372 31.9493 76.4808 32.6056Z" fill="#302F2F"/>
<path d="M92.3585 16.6108C92.9242 17.891 93.2067 19.1793 93.2067 20.4838C93.2067 21.3912 93.0778 22.2177 92.819 22.9793C92.2291 24.7051 91.268 25.88 89.9429 26.4958C89.2644 26.8037 88.5292 26.9576 87.7455 26.9576C85.8063 26.9576 84.2956 25.9529 83.2051 23.9354C82.8735 23.3196 82.5585 22.5013 82.2512 21.4804C82.1058 21.0591 81.9042 19.9895 81.6454 18.2799L81.4355 15.2253L84.8369 14.4069C84.8369 15.4036 84.9014 16.4082 85.0143 17.4292L85.2649 19.5601C85.451 21.1481 85.8465 22.4446 86.4363 23.4411C86.905 24.2919 87.4789 24.7213 88.1414 24.7213C89.0381 24.7213 89.5954 24.2109 89.8058 23.19L89.9105 22.088V21.3021C89.862 21.1644 89.8135 20.9861 89.7651 20.7754L89.45 19.3819L88.9896 18.1422C88.8684 17.8586 88.6905 17.5588 88.4565 17.2509L86.7194 17.8586L87.6078 15.1199L88.9169 14.8688L89.8785 14.65L90.7267 14.5447L91.7202 14.5123L95.6228 14.4069V12.1302H79.1973V9.74805H104.348V12.1302H99.2424V25.8233L95.6228 27.9542V16.6108H92.3585Z" fill="#302F2F"/>
<path fill-rule="evenodd" clip-rule="evenodd" d="M0.310547 9.46159L9.77138 1.31055L22.2054 2.30714L17.7456 6.09098L6.21651 9.82618L0.310547 9.46159Z" fill="#393D48"/>
<path d="M17.374 4.85658L18.6909 9.14278C18.5939 8.74577 16.049 9.00503 13.0111 9.73427C10.1026 10.4391 7.2829 12.5458 7.17787 12.9671L6.33765 10.1718L5.8125 8.6242C7.09708 7.05233 11.3306 4.05444 17.374 4.85658Z" fill="url(#paint0_linear_6032_60490)"/>
<path fill-rule="evenodd" clip-rule="evenodd" d="M14.2559 4.2566L15.9364 9.1829L17.6896 9.36925L15.9929 4.12695L14.2559 4.2566Z" fill="#EBECEC" fill-opacity="0.188235"/>
<path fill-rule="evenodd" clip-rule="evenodd" d="M12.9531 4.35352L14.7952 9.51475L15.3769 9.34463L13.4945 4.39403L12.9531 4.35352Z" fill="#EBECEC" fill-opacity="0.188235"/>
<path d="M2.18459 8.70312L3.16218 11.5066L2.89556 11.5957L1.91797 8.80033L2.18459 8.70312Z" fill="#393D48"/>
<path fill-rule="evenodd" clip-rule="evenodd" d="M3.16199 11.4587C3.49325 11.4344 3.77602 11.6856 3.80026 12.0177C3.82449 12.3499 3.57403 12.6416 3.24279 12.6659C2.91154 12.6821 2.62068 12.4391 2.59644 12.0987C2.58028 11.7666 2.83074 11.483 3.16199 11.4587Z" fill="#393D48"/>
<path fill-rule="evenodd" clip-rule="evenodd" d="M4.98864 14.8883L3.55053 15.3906L3.20312 12.0605L4.98864 14.8883Z" fill="#393D48"/>
<path fill-rule="evenodd" clip-rule="evenodd" d="M107.586 6.6078C106.738 6.67259 106.132 7.05342 105.736 7.49092C105.316 7.94465 104.985 8.60911 105.025 9.49222C105.065 10.3106 105.493 10.9831 105.897 11.3396C106.455 11.8339 107.101 12.0931 107.893 12.0607C108.596 12.0283 109.315 11.6718 109.743 11.1775C109.8 11.1208 109.848 11.0641 109.897 10.9993C110.293 10.4888 110.494 9.85687 110.454 9.17623C110.397 8.05004 109.662 7.16687 108.75 6.80222C108.418 6.66447 107.99 6.5835 107.586 6.6078ZM107.602 6.89949C106.835 6.95621 106.301 7.2965 105.954 7.68539C105.574 8.09864 105.275 8.6982 105.316 9.47604C105.381 10.7643 106.511 11.8582 107.885 11.769C108.241 11.7447 108.563 11.6556 108.838 11.5098C110.034 10.8859 110.519 9.44362 109.913 8.22828C109.703 7.83126 109.396 7.49904 109.04 7.2722C108.919 7.19923 108.781 7.12633 108.636 7.0696C108.329 6.94809 107.974 6.87518 107.602 6.89949Z" fill="#302F2F"/>
<path fill-rule="evenodd" clip-rule="evenodd" d="M106.656 7.82031V10.6882H107.292V9.4773H107.73C107.915 9.64913 108.049 9.84072 108.213 10.0509C108.398 10.2872 108.531 10.5288 108.563 10.6882H109.198C109.071 10.3377 108.881 9.99694 108.687 9.74998C108.603 9.6421 108.51 9.53702 108.416 9.43794C108.511 9.40689 108.61 9.35688 108.698 9.28588C108.872 9.14568 109.008 8.92321 109.008 8.61694C109.008 8.36338 108.903 8.15681 108.739 8.01763C108.58 7.88296 108.377 7.82031 108.183 7.82031H106.656ZM107.292 8.33015V8.96745H108.183C108.22 8.96745 108.306 8.94721 108.38 8.88802C108.444 8.83702 108.499 8.75678 108.499 8.61694C108.499 8.51361 108.461 8.44933 108.411 8.40687C108.355 8.35991 108.273 8.33015 108.183 8.33015H107.292Z" fill="#302F2F"/>
</g>
<defs>
<linearGradient id="paint0_linear_6032_60490" x1="7.47401" y1="11.1757" x2="17.0361" y2="6.53831" gradientUnits="userSpaceOnUse">
<stop stop-color="#393D48"/>
<stop offset="0.670588" stop-color="#535660"/>
<stop offset="1" stop-color="#393D48"/>
</linearGradient>
<clipPath id="clip0_6032_60490">
<rect width="110.15" height="33.1397" fill="white" transform="translate(0.310547 0.769531)"/>
</clipPath>
</defs>
</svg>
