<svg width="602" height="385" viewBox="0 0 602 385" fill="none" xmlns="http://www.w3.org/2000/svg">
<g clip-path="url(#clip0_1381_16236)">
<path d="M133.553 64.1313L21.3523 139.187L131.869 304.4L244.07 229.345L133.553 64.1313Z" fill="#F5F5F5"/>
<path d="M186.09 221.53L184.81 229.41L129.03 221.37L130.31 213.49L186.09 221.53Z" fill="#E0E0E0"/>
<path d="M158 193.41L166 194.57L157.13 249.49L149.12 248.33L158 193.41Z" fill="#E0E0E0"/>
<path d="M106.67 123.62C106.75 123.73 95.51 131.4 81.56 140.72C67.61 150.04 56.24 157.52 56.16 157.4C56.08 157.28 67.32 149.62 81.27 140.29C95.22 130.96 106.54 123.5 106.67 123.62Z" fill="#E0E0E0"/>
<path d="M147.89 113.26C147.97 113.38 129.27 126.02 106.13 141.5C82.99 156.98 64.13 169.43 64.07 169.32C64.01 169.21 82.67 156.55 105.84 141.07C129.01 125.59 147.81 113.14 147.89 113.26Z" fill="#E0E0E0"/>
<path d="M156.16 125.62C156.24 125.74 137.54 138.39 114.4 153.87C91.26 169.35 72.4 181.8 72.34 181.68C72.28 181.56 90.96 168.92 114.11 153.43C137.26 137.94 156.08 125.5 156.16 125.62Z" fill="#E0E0E0"/>
<path d="M164.43 137.99C164.51 138.11 145.81 150.76 122.67 166.23C99.53 181.7 80.67 194.17 80.67 194.05C80.67 193.93 99.28 181.28 122.43 165.8C145.58 150.32 164.35 137.87 164.43 137.99Z" fill="#E0E0E0"/>
<path d="M172.67 150.36C172.75 150.48 154.05 163.12 130.91 178.6C107.77 194.08 88.91 206.53 88.86 206.41C88.81 206.29 107.5 193.65 130.67 178.17C153.84 162.69 172.67 150.24 172.67 150.36Z" fill="#E0E0E0"/>
<path d="M508.739 174.835L414.509 237.869L507.323 376.618L601.553 313.583L508.739 174.835Z" fill="#F5F5F5"/>
<path d="M552.87 307.05L551.8 313.67L504.95 306.92L506.02 300.3L552.87 307.05Z" fill="#E0E0E0"/>
<path d="M529.27 283.44L536 284.41L528.54 330.53L521.82 329.56L529.27 283.44Z" fill="#E0E0E0"/>
<path d="M486.13 224.87C486.21 224.99 476.78 231.44 465.06 239.27C453.34 247.1 443.78 253.36 443.7 253.27C443.62 253.18 453.06 246.71 464.77 238.87C476.48 231.03 486.05 224.7 486.13 224.87Z" fill="#E0E0E0"/>
<path d="M520.78 216.12C520.86 216.24 505.17 226.88 485.78 239.87C466.39 252.86 450.52 263.32 450.44 263.2C450.36 263.08 466.05 252.44 485.44 239.44C504.83 226.44 520.67 216 520.78 216.12Z" fill="#E0E0E0"/>
<path d="M527.73 226.5C527.81 226.62 512.12 237.26 492.73 250.26C473.34 263.26 457.47 273.7 457.39 273.58C457.31 273.46 472.95 262.87 492.39 249.87C511.83 236.87 527.67 226.39 527.73 226.5Z" fill="#E0E0E0"/>
<path d="M534.67 236.87C534.75 236.99 519.05 247.63 499.67 260.63C480.29 273.63 464.41 284.07 464.33 283.95C464.25 283.83 479.94 273.2 499.33 260.19C518.72 247.18 534.6 236.77 534.67 236.87Z" fill="#E0E0E0"/>
<path d="M541.67 247.28C541.75 247.4 526.06 258.03 506.67 271.03C487.28 284.03 471.41 294.47 471.33 294.36C471.25 294.25 486.94 283.6 506.33 270.6C525.72 257.6 541.54 247.16 541.67 247.28Z" fill="#E0E0E0"/>
<path d="M359.651 70.2096L256.834 15.2178L175.86 166.614L278.678 221.605L359.651 70.2096Z" fill="#F5F5F5"/>
<path d="M261.09 174.24L254.57 176.47L238.01 130.7L244.53 128.46L261.09 174.24Z" fill="#E0E0E0"/>
<path d="M271.09 141.4L273.47 147.97L228.01 163.53L225.63 156.97L271.09 141.4Z" fill="#E0E0E0"/>
<path d="M303.39 73.8702C303.31 74.0202 292.89 68.6002 280.1 61.7702C267.31 54.9402 257.02 49.2702 257.1 49.1202C257.18 48.9702 267.61 54.3902 280.4 61.2202C293.19 68.0502 303.47 73.7102 303.39 73.8702Z" fill="#E0E0E0"/>
<path d="M328.07 101.1C327.99 101.25 310.73 92.1704 289.52 80.8304C268.31 69.4904 251.19 60.1704 251.27 60.0204C251.35 59.8704 268.6 68.9404 289.81 80.2904C311.02 91.6404 328.15 100.95 328.07 101.1Z" fill="#E0E0E0"/>
<path d="M322.01 112.43C321.93 112.58 304.67 103.51 283.46 92.1705C262.25 80.8305 245.13 71.5005 245.21 71.3505C245.29 71.2005 262.54 80.2805 283.75 91.6205C304.96 102.96 322.09 112.28 322.01 112.43Z" fill="#E0E0E0"/>
<path d="M315.95 123.76C315.87 123.91 298.61 114.84 277.4 103.5C256.19 92.1601 239.07 82.8701 239.15 82.6901C239.23 82.5101 256.48 91.6101 277.69 102.95C298.9 114.29 316.03 123.61 315.95 123.76Z" fill="#E0E0E0"/>
<path d="M309.89 135.09C309.81 135.24 292.55 126.17 271.34 114.83C250.13 103.49 233 94.1704 233.09 94.0204C233.18 93.8704 250.42 102.94 271.63 114.28C292.84 125.62 309.97 134.94 309.89 135.09Z" fill="#E0E0E0"/>
<path d="M577.34 381.7C577.34 381.84 448.09 381.96 288.68 381.96C129.27 381.96 0 381.87 0 381.7C0 381.53 129.23 381.44 288.68 381.44C448.13 381.44 577.34 381.55 577.34 381.7Z" fill="#202020"/>
<path d="M31.96 319.07C33.6507 319.192 35.2995 319.653 36.808 320.426C38.3165 321.199 39.6538 322.268 40.74 323.57C42.8998 326.188 44.4292 329.267 45.21 332.57C46.9 338.89 45.86 346.36 44.06 352.65C37.22 350.2 32.99 342.9 31.06 339.06C28.06 333 26.27 320.2 31.93 319.06" fill="#D3317D"/>
<path d="M53.91 360.32C52.8829 358.727 52.2956 356.891 52.2077 354.998C52.1199 353.104 52.5347 351.221 53.41 349.54C54.3127 347.875 55.5381 346.406 57.0147 345.22C58.4913 344.033 60.1894 343.153 62.01 342.63C63.68 342.11 65.62 341.9 67.07 342.87C67.7236 343.365 68.2327 344.025 68.544 344.783C68.8554 345.541 68.9576 346.369 68.84 347.18C68.5775 348.805 67.8872 350.331 66.84 351.6C63.51 356.11 59.47 359.86 53.84 360.32" fill="#D3317D"/>
<path d="M54.67 381.45C54.5216 381.025 54.4177 380.586 54.36 380.14C54.18 379.2 53.94 377.99 53.65 376.54C52.7524 372.57 52.5025 368.48 52.91 364.43C53.3815 360.36 54.9316 356.49 57.4 353.22C58.1542 352.242 59.0238 351.359 59.99 350.59C60.2525 350.382 60.5263 350.188 60.81 350.01C60.9002 349.935 61.0014 349.874 61.11 349.83C59.8451 350.911 58.6895 352.113 57.66 353.42C55.3218 356.693 53.8494 360.505 53.38 364.5C52.74 369.16 53.53 373.43 53.99 376.5C54.23 378.03 54.43 379.27 54.54 380.13C54.6188 380.566 54.6622 381.007 54.67 381.45Z" fill="#202020"/>
<path d="M34.16 328.7C34.2742 328.858 34.3682 329.029 34.44 329.21C34.62 329.61 34.86 330.11 35.14 330.74C35.75 332.07 36.6 334 37.63 336.39C39.69 341.18 42.45 347.84 45.33 355.26C48.21 362.68 50.66 369.45 52.33 374.38C53.19 376.84 53.86 378.84 54.33 380.23C54.54 380.89 54.7 381.42 54.83 381.83C54.9014 382.014 54.9517 382.205 54.98 382.4C54.8786 382.231 54.798 382.049 54.74 381.86C54.59 381.46 54.4 380.94 54.15 380.29L52.04 374.49C50.25 369.6 47.75 362.84 44.88 355.43C42.01 348.02 39.29 341.34 37.31 336.52C36.31 334.15 35.54 332.22 34.97 330.81C34.71 330.17 34.5 329.66 34.34 329.25C34.2649 329.072 34.2047 328.888 34.16 328.7Z" fill="#202020"/>
<path d="M46.54 367.47C44.4823 364.044 41.6388 361.157 38.2446 359.048C34.8503 356.939 31.0028 355.667 27.02 355.34C25.02 355.2 22.56 355.54 21.66 357.34C20.76 359.14 21.96 361.34 23.34 362.8C26.2721 365.867 30.0465 367.998 34.1877 368.923C38.3288 369.848 42.6512 369.527 46.61 368" fill="#D3317D"/>
<path d="M30.1 360.76C30.524 360.739 30.949 360.755 31.37 360.81C31.863 360.836 32.3539 360.893 32.84 360.98C33.41 361.09 34.08 361.15 34.78 361.35C35.5625 361.515 36.3339 361.729 37.09 361.99C37.966 362.271 38.8242 362.605 39.66 362.99C41.5825 363.851 43.4008 364.928 45.08 366.2C46.7398 367.502 48.2432 368.992 49.56 370.64C50.1287 371.357 50.653 372.109 51.13 372.89C51.5612 373.564 51.9551 374.262 52.31 374.98C52.6105 375.564 52.8776 376.165 53.11 376.78C53.3105 377.235 53.4809 377.702 53.62 378.18C53.7681 378.579 53.8786 378.99 53.95 379.41C53.84 379.41 53.36 377.69 52.01 375.13C51.6424 374.442 51.2385 373.775 50.8 373.13C50.3127 372.372 49.7853 371.641 49.22 370.94C46.6044 367.708 43.2689 365.132 39.48 363.42C38.61 363.04 37.78 362.68 36.97 362.42C36.2264 362.149 35.4686 361.919 34.7 361.73C31.9 360.96 30.09 360.87 30.1 360.76Z" fill="#202020"/>
<path d="M484.03 47.3495C481.09 48.0195 479.66 51.4095 479.38 54.4095C479.1 57.4095 479.48 60.5895 478.22 63.3295C476.8 66.4095 473.41 68.6895 473.3 72.0795C473.23 74.1495 474.46 76.0795 474.4 78.1695C474.3 81.5695 470.84 84.1695 470.65 87.5295C470.52 89.9795 472.15 92.3195 471.76 94.7395C471.46 96.6195 469.99 98.0995 469.37 99.8995C468.14 103.5 470.61 107.45 473.82 109.47C475.618 110.6 477.642 111.325 479.749 111.592C481.857 111.859 483.997 111.663 486.021 111.018C488.044 110.372 489.903 109.292 491.466 107.854C493.029 106.415 494.259 104.653 495.07 102.69C496.85 98.3695 496.46 93.4995 496.07 88.8495C494.87 74.3429 493.977 59.8162 493.39 45.2695" fill="#202020"/>
<path d="M475.49 98.5302C476.095 98.1542 476.567 97.5982 476.84 96.9402C477.128 96.1576 477.244 95.3218 477.18 94.4902C477.07 93.3876 476.825 92.3027 476.45 91.2602C475.972 89.9497 475.794 88.5486 475.93 87.1602C476.18 85.6002 477.3 84.3202 478.31 83.0602C478.854 82.4435 479.308 81.7534 479.66 81.0102C480.012 80.2586 480.07 79.402 479.82 78.6102C479.3 76.9802 477.7 75.7802 476.97 73.8902C476.627 72.9546 476.571 71.9377 476.81 70.9702C477.037 70.063 477.373 69.1867 477.81 68.3602C478.654 66.8717 479.325 65.2914 479.81 63.6502C480.51 60.4802 480.18 57.4502 480.66 54.9602C480.926 52.9659 481.811 51.1053 483.19 49.6402C483.58 49.2455 484.025 48.9088 484.51 48.6402C484.677 48.553 484.856 48.4891 485.04 48.4502C484.413 48.7952 483.838 49.2261 483.33 49.7302C482.053 51.21 481.248 53.0387 481.02 54.9802C480.845 56.3065 480.751 57.6424 480.74 58.9802C480.737 60.5546 480.583 62.1252 480.28 63.6702C479.803 65.3491 479.132 66.9667 478.28 68.4902C477.53 70.0602 476.84 71.9002 477.5 73.6202C478.16 75.3402 479.75 76.5302 480.36 78.3702C480.635 79.2792 480.568 80.2577 480.17 81.1202C479.78 81.9382 479.275 82.6959 478.67 83.3702C477.67 84.6302 476.58 85.8302 476.34 87.2302C476.2 88.5581 476.357 89.9005 476.8 91.1602C477.157 92.2351 477.379 93.3504 477.46 94.4802C477.509 95.3503 477.355 96.22 477.01 97.0202C476.795 97.5219 476.45 97.9569 476.01 98.2802C475.854 98.3947 475.677 98.4795 475.49 98.5302Z" fill="#455A64"/>
<path d="M467.67 122.24L458.67 148.24L421.03 150.24L414.75 164.24L454.05 168.24C455.907 169.003 457.899 169.38 459.906 169.351C461.913 169.322 463.893 168.886 465.727 168.07C467.56 167.254 469.21 166.075 470.575 164.604C471.94 163.133 472.993 161.4 473.67 159.51L484.16 130.23L467.67 122.24Z" fill="#E1AE9B"/>
<path d="M545.48 367.57C545.48 367.57 517.9 279.95 517.31 277.11C516.78 274.53 527.31 211.48 528.65 195.11L491.38 196.5V196.87L475.54 197.75L489.72 376.87H506.87L505.17 317.42C515.75 345.81 530.91 374.75 530.91 374.75L545.48 367.57Z" fill="#E1AE9B"/>
<path d="M505.87 338.75C505.87 338.21 505.66 318.83 505.66 318.83C505.45 319.99 499.09 302.01 499.24 300.92C499.32 300.35 505.87 338.75 505.87 338.75Z" fill="#D39E8E"/>
<path d="M498.52 292.4C498.432 292.757 498.395 293.124 498.41 293.49C498.355 294.49 498.355 295.491 498.41 296.49C498.41 297.12 498.5 297.8 498.58 298.54C498.66 299.28 498.77 300.06 498.94 300.87C499.296 302.639 499.767 304.383 500.35 306.09C501.59 309.72 502.97 312.89 503.94 315.19C504.4 316.19 504.8 317.14 505.14 317.9C505.263 318.254 505.431 318.59 505.64 318.9C505.587 318.555 505.486 318.218 505.34 317.9C505.11 317.24 504.76 316.29 504.34 315.12C503.46 312.78 502.14 309.58 500.91 305.99C500.328 304.308 499.851 302.591 499.48 300.85C499.3 300.05 499.18 299.28 499.07 298.56C498.96 297.84 498.88 297.16 498.83 296.56C498.71 295.32 498.66 294.32 498.63 293.62C498.649 293.211 498.612 292.8 498.52 292.4Z" fill="#D39E8E"/>
<path d="M489.4 377.78V376.17L506.97 375.4L507.02 382.05L505.94 382.12C501.11 382.4 481.39 383.22 478.17 382.25C474.56 381.17 489.4 377.78 489.4 377.78Z" fill="#455A64"/>
<path d="M507.25 381.65C507.15 381.657 507.05 381.657 506.95 381.65L506.09 381.71L502.91 381.85C500.23 381.96 496.52 382.06 492.43 382.08C488.34 382.1 484.62 382.03 481.93 381.95L478.76 381.82H477.89H477.59C477.69 381.812 477.79 381.812 477.89 381.82H478.76L481.94 381.88C484.62 381.88 488.33 381.96 492.42 381.94C496.51 381.92 500.23 381.85 502.91 381.78L506.09 381.7H507.25V381.65Z" fill="#202020"/>
<path d="M483.67 382.21C483.524 381.687 483.323 381.181 483.07 380.7C482.754 380.257 482.388 379.851 481.98 379.49C482.526 379.685 482.979 380.078 483.25 380.59C483.581 381.062 483.73 381.637 483.67 382.21Z" fill="#202020"/>
<path d="M488.85 379.58C488.85 379.58 488.56 379.31 488.3 378.91C488.04 378.51 487.88 378.16 487.93 378.13C487.98 378.1 488.22 378.39 488.48 378.79C488.74 379.19 488.9 379.55 488.85 379.58Z" fill="#202020"/>
<path d="M490.27 378.87C490.27 378.92 489.95 378.73 489.65 378.46C489.35 378.19 489.13 377.94 489.17 377.9C489.21 377.86 489.49 378.04 489.79 378.31C490.09 378.58 490.31 378.78 490.27 378.87Z" fill="#202020"/>
<path d="M491.16 377.17C490.866 377.278 490.552 377.319 490.24 377.29C489.934 377.331 489.622 377.3 489.33 377.2C489.621 377.093 489.932 377.052 490.24 377.08C490.55 377.038 490.865 377.068 491.16 377.17Z" fill="#202020"/>
<path d="M491.46 376.011C491.162 376.204 490.815 376.308 490.46 376.311C490.12 376.355 489.774 376.307 489.46 376.17C489.79 376.115 490.125 376.088 490.46 376.09C490.79 376.032 491.125 376.005 491.46 376.011Z" fill="#202020"/>
<path d="M488.26 378.05C487.887 378.12 487.503 378.12 487.13 378.05C486.726 378.001 486.328 377.914 485.94 377.79C485.7 377.724 485.468 377.63 485.25 377.51C485.117 377.432 485.017 377.307 484.97 377.16C484.952 377.077 484.958 376.99 484.988 376.91C485.018 376.83 485.071 376.76 485.14 376.71C485.417 376.576 485.72 376.505 486.028 376.502C486.336 376.499 486.64 376.565 486.919 376.694C487.199 376.823 487.446 377.013 487.643 377.249C487.84 377.485 487.983 377.762 488.06 378.06C488.08 378.159 488.08 378.261 488.06 378.36C487.947 377.999 487.771 377.66 487.54 377.36C487.274 377.06 486.927 376.845 486.54 376.74C486.097 376.597 485.617 376.633 485.2 376.84C485.03 376.97 485.1 377.18 485.29 377.3C485.494 377.41 485.709 377.501 485.93 377.57C486.306 377.694 486.69 377.79 487.08 377.86C487.83 378.02 488.26 378.02 488.26 378.05Z" fill="#202020"/>
<path d="M487.97 378.11C487.824 377.878 487.774 377.598 487.83 377.33C487.867 377.036 487.973 376.754 488.14 376.51C488.234 376.343 488.368 376.202 488.531 376.101C488.693 375.999 488.879 375.94 489.07 375.93C489.183 375.956 489.282 376.024 489.347 376.121C489.412 376.217 489.438 376.335 489.42 376.45C489.395 376.629 489.33 376.8 489.23 376.95C489.078 377.198 488.901 377.429 488.7 377.64C488.526 377.839 488.307 377.994 488.06 378.09C488.06 378.09 488.28 377.89 488.59 377.53C488.77 377.324 488.927 377.099 489.06 376.86C489.21 376.62 489.32 376.19 489.06 376.14C488.8 376.09 488.5 376.4 488.33 376.62C488.171 376.837 488.062 377.086 488.01 377.35C487.969 377.601 487.956 377.856 487.97 378.11Z" fill="#202020"/>
<path d="M506.88 376.87C506.88 376.87 506.38 376.87 505.59 376.92C504.561 377.043 503.588 377.452 502.78 378.101C501.972 378.75 501.362 379.612 501.02 380.59C500.76 381.34 500.74 381.85 500.7 381.84C500.66 381.83 500.7 381.71 500.7 381.49C500.726 381.168 500.786 380.849 500.88 380.54C501.198 379.516 501.81 378.609 502.64 377.93C503.48 377.264 504.501 376.863 505.57 376.78C505.902 376.74 506.238 376.74 506.57 376.78C506.677 376.797 506.781 376.827 506.88 376.87Z" fill="#202020"/>
<path d="M498.47 380.25C497.631 380.445 496.771 380.53 495.91 380.5C495.054 380.543 494.196 380.469 493.36 380.28C493.36 380.22 494.5 380.28 495.91 380.28C497.32 380.28 498.46 380.19 498.47 380.25Z" fill="#202020"/>
<path d="M501.89 380.22C501.89 380.22 501.8 380.46 501.68 380.72C501.56 380.98 501.5 381.22 501.44 381.21C501.38 381.2 501.35 380.94 501.49 380.63C501.63 380.32 501.85 380.17 501.89 380.22Z" fill="#202020"/>
<path d="M503.18 378.61C503.18 378.61 503.11 378.83 502.93 379.01C502.75 379.19 502.57 379.31 502.52 379.27C502.47 379.23 502.59 379.05 502.77 378.86C502.95 378.67 503.13 378.56 503.18 378.61Z" fill="#202020"/>
<path d="M505.02 377.87C505.02 377.93 504.78 377.93 504.52 378.02C504.26 378.11 504.08 378.25 504.03 378.21C503.98 378.17 504.13 377.93 504.45 377.82C504.77 377.71 505.04 377.81 505.02 377.87Z" fill="#202020"/>
<path d="M506.33 377.51C506.33 377.57 506.26 377.66 506.11 377.71C505.96 377.76 505.83 377.77 505.81 377.71C505.79 377.65 505.89 377.56 506.03 377.51C506.17 377.46 506.31 377.46 506.33 377.51Z" fill="#202020"/>
<path d="M530.56 376.23L529.9 374.76L545.61 366.87L548.38 372.87L547.38 373.38C543.09 375.61 525.44 384.43 522.1 384.87C518.41 385.4 530.56 376.23 530.56 376.23Z" fill="#455A64"/>
<path d="M548.44 372.44L548.18 372.6L547.41 373L544.57 374.44C542.17 375.63 538.83 377.24 535.1 378.94C531.37 380.64 527.95 382.09 525.47 383.12L522.52 384.31L521.72 384.62C521.628 384.663 521.53 384.693 521.43 384.71L521.7 384.58L522.49 384.23L525.41 382.98C527.88 381.92 531.28 380.44 535.01 378.74C538.74 377.04 542.09 375.46 544.51 374.3L547.37 372.93L548.16 372.56L548.44 372.44Z" fill="#202020"/>
<path d="M527.19 382.61C526.843 382.188 526.451 381.805 526.02 381.47C525.551 381.192 525.051 380.971 524.53 380.81C525.104 380.802 525.667 380.971 526.143 381.292C526.618 381.614 526.984 382.074 527.19 382.61Z" fill="#202020"/>
<path d="M530.8 378.09C530.8 378.09 530.42 377.97 530.02 377.71C529.62 377.45 529.33 377.2 529.36 377.15C529.39 377.1 529.74 377.27 530.14 377.53C530.54 377.79 530.83 378.04 530.8 378.09Z" fill="#202020"/>
<path d="M531.78 376.87C531.78 376.92 531.44 376.87 531.05 376.75C530.66 376.63 530.37 376.48 530.38 376.42C530.633 376.396 530.888 376.437 531.12 376.54C531.5 376.63 531.8 376.77 531.78 376.87Z" fill="#202020"/>
<path d="M531.92 374.95C531.92 375.01 531.59 375.22 531.13 375.44C530.865 375.599 530.568 375.698 530.26 375.73C530.26 375.67 530.59 375.46 531.04 375.24C531.309 375.082 531.609 374.983 531.92 374.95Z" fill="#202020"/>
<path d="M531.72 373.77C531.72 373.77 531.43 374.17 530.91 374.46C530.615 374.66 530.266 374.764 529.91 374.76C530.197 374.567 530.501 374.403 530.82 374.27C531.31 374 531.67 373.72 531.72 373.77Z" fill="#202020"/>
<path d="M529.67 376.95C529.365 377.159 529.027 377.315 528.67 377.41C528.277 377.525 527.876 377.608 527.47 377.66C527.224 377.691 526.976 377.691 526.73 377.66C526.576 377.649 526.432 377.577 526.33 377.46C526.283 377.389 526.259 377.305 526.259 377.22C526.259 377.135 526.283 377.052 526.33 376.98C526.634 376.612 527.057 376.361 527.525 376.269C527.994 376.178 528.48 376.253 528.9 376.48C529.148 376.61 529.366 376.791 529.54 377.01C529.66 377.17 529.71 377.27 529.7 377.28C529.454 377.005 529.159 376.778 528.83 376.61C528.478 376.445 528.085 376.386 527.7 376.44C527.471 376.464 527.249 376.533 527.046 376.643C526.844 376.752 526.665 376.901 526.52 377.08C526.41 377.27 526.52 377.43 526.79 377.46C527.02 377.48 527.25 377.48 527.48 377.46C527.878 377.42 528.273 377.35 528.66 377.25C529.23 377.09 529.67 376.92 529.67 376.95Z" fill="#202020"/>
<path d="M529.39 377.12C529.167 376.962 529.01 376.727 528.95 376.46C528.862 376.179 528.841 375.881 528.89 375.59C528.907 375.398 528.973 375.214 529.082 375.055C529.19 374.895 529.338 374.767 529.51 374.68C529.76 374.6 530.34 375.11 530.38 375.3C530.42 375.49 530.09 375.39 530.07 375.55C530.038 375.834 529.97 376.113 529.87 376.38C529.797 376.638 529.659 376.872 529.47 377.06C529.47 377.06 529.59 376.79 529.73 376.34C529.802 376.075 529.852 375.804 529.88 375.53C529.88 375.25 529.88 374.82 529.56 374.89C529.24 374.96 529.15 375.35 529.08 375.63C529.019 375.89 529.019 376.161 529.08 376.42C529.163 376.662 529.266 376.897 529.39 377.12Z" fill="#202020"/>
<path d="M546.14 368.23C546.14 368.23 545.66 368.4 544.98 368.81C544.091 369.342 543.367 370.111 542.89 371.03C542.427 371.959 542.23 372.997 542.32 374.03C542.38 374.83 542.57 375.29 542.53 375.31C542.465 375.211 542.415 375.104 542.38 374.99C542.281 374.684 542.211 374.37 542.17 374.05C542.027 372.986 542.211 371.902 542.699 370.945C543.187 369.987 543.954 369.201 544.9 368.69C545.183 368.534 545.481 368.407 545.79 368.31C545.902 368.267 546.02 368.24 546.14 368.23Z" fill="#202020"/>
<path d="M539.85 374.77C538.44 375.751 536.865 376.469 535.2 376.89C535.2 376.83 536.25 376.43 537.53 375.89C538.81 375.35 539.82 374.72 539.85 374.77Z" fill="#202020"/>
<path d="M542.96 373.34C543.01 373.34 542.96 373.59 542.96 373.88C542.96 374.17 542.96 374.41 542.96 374.43C542.96 374.45 542.76 374.21 542.76 373.88C542.76 373.55 542.91 373.31 542.96 373.34Z" fill="#202020"/>
<path d="M543.47 371.34C543.52 371.34 543.47 371.57 543.41 371.81C543.35 372.05 543.2 372.23 543.15 372.21C543.1 372.19 543.15 371.98 543.21 371.74C543.27 371.5 543.41 371.32 543.47 371.34Z" fill="#202020"/>
<path d="M544.85 369.87C544.85 369.93 544.65 370.02 544.45 370.21C544.25 370.4 544.14 370.6 544.09 370.58C544.04 370.56 544.09 370.28 544.31 370.05C544.53 369.82 544.84 369.87 544.85 369.87Z" fill="#202020"/>
<path d="M545.9 369.05C545.9 369.05 545.9 369.21 545.78 369.32C545.66 369.43 545.55 369.49 545.51 369.45C545.47 369.41 545.51 369.29 545.63 369.18C545.75 369.07 545.86 369.01 545.9 369.05Z" fill="#202020"/>
<path d="M526.23 165.51L523.31 129.81L538.31 130.08C538.31 130.08 539 124.81 536.79 113.27C535.43 106.19 530.72 101.85 525.43 99.27V99.17L524.97 99.05C520.615 97.0949 515.965 95.8815 511.21 95.46L492.76 95.67C492.76 95.67 478.67 93.87 470.9 103.96C467.9 107.83 458.59 134.32 458.59 134.32L480.74 144.98L478.67 130.29C478.67 130.29 479.09 140.94 480.45 144.29C481.2 146.17 483.45 152.01 483.45 152.01L483.16 169.63L526.23 165.51Z" fill="#D3317D"/>
<path d="M516.05 124.62L513.32 136.29H539.15L537.45 116.73L516.05 124.62Z" fill="#D3317D"/>
<path d="M539.15 136.29C538.021 136.082 536.877 135.968 535.73 135.95C533.61 135.83 530.73 135.72 527.45 135.74C524.17 135.76 521.28 135.9 519.16 136.06C518.013 136.1 516.872 136.24 515.75 136.48C516.895 136.571 518.045 136.571 519.19 136.48C521.3 136.41 524.19 136.33 527.45 136.32C530.71 136.31 533.6 136.32 535.72 136.37C536.864 136.434 538.011 136.407 539.15 136.29Z" fill="#202020"/>
<path d="M514.94 116.64C514.817 117.635 514.79 118.639 514.86 119.64C514.86 121.47 514.94 123.99 515.05 126.78C515.16 129.57 515.29 132.1 515.41 133.92C515.415 134.928 515.522 135.933 515.73 136.92C515.853 135.925 515.88 134.92 515.81 133.92C515.81 132.09 515.73 129.56 515.62 126.77C515.51 123.98 515.38 121.46 515.26 119.63C515.256 118.625 515.149 117.623 514.94 116.64Z" fill="#202020"/>
<g opacity="0.3">
<path d="M491.44 126.74C491.44 126.74 497.18 169.31 513.32 168.18C513.32 168.18 520.59 168.1 522.92 163.27V161.37L491.44 126.74Z" fill="black"/>
</g>
<g opacity="0.3">
<path d="M514.94 119.15L511.85 140.01L513.85 143.68L517.14 136.51L515.75 136.48L514.94 119.15Z" fill="black"/>
</g>
<path d="M483.36 152.03C483.168 151.718 483.02 151.381 482.92 151.03C482.67 150.38 482.34 149.43 481.92 148.24C480.919 145.139 480.094 141.984 479.45 138.79C478.808 135.594 478.4 132.355 478.23 129.1C478.17 127.85 478.15 126.84 478.17 126.1C478.144 125.738 478.168 125.375 478.24 125.02C478.32 125.02 478.38 126.56 478.59 129.02C478.871 132.245 479.329 135.454 479.96 138.63C480.7 142.35 481.59 145.68 482.27 148.07C482.59 149.18 482.86 150.13 483.08 150.91C483.217 151.27 483.311 151.646 483.36 152.03Z" fill="#202020"/>
<path d="M489.88 164.26C489.74 164.26 489.34 163.39 488.99 162.26C488.689 161.567 488.555 160.813 488.6 160.06C489.041 160.671 489.345 161.37 489.49 162.11C489.777 162.789 489.91 163.523 489.88 164.26Z" fill="#202020"/>
<path d="M492.11 164.1C491.354 162.094 491.322 159.887 492.02 157.86C492.098 158.899 492.098 159.942 492.02 160.98C492.129 162.017 492.159 163.06 492.11 164.1Z" fill="#202020"/>
<path d="M481.19 145.47C481.12 145.59 475.97 143.15 469.68 140.01C463.39 136.87 458.34 134.21 458.4 134.08C458.46 133.95 463.62 136.4 469.91 139.54C476.2 142.68 481.25 145.34 481.19 145.47Z" fill="#202020"/>
<path d="M490.27 99.12C490.38 94.06 490.41 88.7399 490.41 88.7399C490.41 88.7399 483.92 87.49 482.79 78.95C481.71 70.81 484.73 51.7 484.73 51.7C494.21 48.12 504.06 51.37 510.55 59.05L508.94 100.12C508.75 104.89 504.5 108.53 499.4 108.29C494.24 108.04 490.16 103.94 490.27 99.12Z" fill="#E1AE9B"/>
<path d="M484.23 66.9701C484.221 67.2504 484.32 67.5235 484.506 67.7336C484.692 67.9436 484.951 68.0747 485.23 68.1001C485.372 68.1138 485.515 68.0984 485.651 68.055C485.787 68.0115 485.912 67.9408 486.02 67.8473C486.128 67.7537 486.215 67.6392 486.277 67.5107C486.339 67.3823 486.374 67.2425 486.38 67.1001C486.389 66.8208 486.29 66.5489 486.104 66.3404C485.918 66.132 485.658 66.003 485.38 65.9801C485.238 65.9584 485.092 65.9679 484.954 66.0077C484.815 66.0476 484.687 66.1169 484.578 66.2109C484.468 66.3049 484.381 66.4214 484.321 66.5525C484.261 66.6835 484.23 66.8259 484.23 66.9701Z" fill="#202020"/>
<path d="M483.83 65.5403C483.96 65.6803 484.83 65.0903 485.98 65.1303C487.13 65.1703 487.98 65.7703 488.12 65.6303C488.26 65.4903 488.06 65.3103 487.69 65.0203C487.189 64.6575 486.588 64.4585 485.97 64.4503C485.361 64.4271 484.761 64.6025 484.26 64.9503C483.89 65.2203 483.76 65.4703 483.83 65.5403Z" fill="#202020"/>
<path d="M496.14 67.7103C496.129 67.9913 496.227 68.2657 496.413 68.4763C496.599 68.6869 496.86 68.8173 497.14 68.8403C497.283 68.8621 497.43 68.8524 497.569 68.812C497.708 68.7716 497.837 68.7014 497.946 68.6062C498.056 68.5111 498.143 68.3933 498.202 68.2611C498.262 68.1288 498.292 67.9853 498.29 67.8403C498.301 67.5604 498.203 67.2871 498.016 67.0781C497.83 66.8691 497.569 66.7408 497.29 66.7203C497.148 66.6987 497.002 66.7081 496.864 66.748C496.725 66.7878 496.597 66.8571 496.488 66.9511C496.378 67.0451 496.291 67.1617 496.231 67.2927C496.171 67.4237 496.14 67.5662 496.14 67.7103Z" fill="#202020"/>
<path d="M496.06 66.2798C496.19 66.4298 497.06 65.8398 498.21 65.8698C499.36 65.8998 500.21 66.5098 500.36 66.3698C500.51 66.2298 500.29 66.0498 499.92 65.7698C499.427 65.3975 498.828 65.1941 498.21 65.1898C497.598 65.1715 496.997 65.3464 496.49 65.6898C496.13 65.9598 496 66.2098 496.06 66.2798Z" fill="#202020"/>
<path d="M491.58 74.8704C490.966 74.6593 490.327 74.5282 489.68 74.4804C489.38 74.4804 489.1 74.3704 489.06 74.1704C489.036 73.8578 489.113 73.5457 489.28 73.2804L490.22 71.0304C491.095 69.118 491.814 67.1383 492.37 65.1104C491.346 66.9478 490.47 68.8638 489.75 70.8404C489.44 71.6304 489.13 72.3904 488.84 73.1104C488.646 73.4676 488.582 73.8813 488.66 74.2804C488.699 74.3888 488.763 74.4867 488.846 74.5664C488.93 74.6462 489.03 74.7057 489.14 74.7403C489.306 74.7884 489.477 74.8153 489.65 74.8204C490.289 74.9187 490.937 74.9355 491.58 74.8704Z" fill="#202020"/>
<path d="M490.41 88.7402C494.411 88.9004 498.378 87.9485 501.87 85.9902C501.87 85.9902 498.96 91.7602 490.47 90.7502L490.41 88.7402Z" fill="#D39E8E"/>
<path d="M499.82 62.8696C499.58 63.2396 498.68 63.0796 497.68 62.8696C496.68 62.6596 495.8 62.4896 495.68 62.0596C495.56 61.6296 496.61 61.0596 497.95 61.3296C499.29 61.5996 500.06 62.5496 499.82 62.8696Z" fill="#202020"/>
<path d="M488.15 61.1705C488.06 61.6005 487.1 61.7605 486 61.8105C484.9 61.8605 483.93 61.8105 483.8 61.3705C483.67 60.9305 484.6 60.3105 485.93 60.2505C487.26 60.1905 488.24 60.7605 488.15 61.1705Z" fill="#202020"/>
<path d="M491.6 77.6803C491.474 77.6504 491.341 77.6637 491.223 77.7181C491.105 77.7725 491.009 77.8648 490.95 77.9803C490.893 78.0823 490.864 78.1974 490.865 78.3142C490.866 78.431 490.898 78.5454 490.957 78.6461C491.016 78.7468 491.101 78.8304 491.202 78.8884C491.303 78.9464 491.418 78.9769 491.535 78.9769C491.652 78.9769 491.767 78.9464 491.868 78.8884C491.969 78.8304 492.054 78.7468 492.113 78.6461C492.172 78.5454 492.204 78.431 492.205 78.3142C492.206 78.1974 492.177 78.0823 492.12 77.9803C492.048 77.846 491.933 77.7401 491.793 77.6801C491.653 77.6202 491.497 77.6096 491.35 77.6503" fill="#D39E8E"/>
<path d="M491.87 77.7996C491.87 77.7496 491.68 77.4596 491.17 77.5696C491.017 77.6094 490.878 77.6885 490.766 77.7991C490.653 77.9097 490.572 78.0478 490.53 78.1996C490.476 78.3911 490.481 78.5942 490.543 78.783C490.606 78.9718 490.723 79.1378 490.88 79.2596C491.046 79.3736 491.243 79.4345 491.445 79.4345C491.647 79.4345 491.844 79.3736 492.01 79.2596C492.143 79.1701 492.247 79.0443 492.311 78.8972C492.375 78.7502 492.395 78.5879 492.37 78.4296C492.27 77.8996 491.88 77.8196 491.86 77.8896C491.84 77.9596 492 78.1396 491.97 78.4496C491.963 78.5262 491.938 78.6 491.896 78.6645C491.854 78.729 491.797 78.7823 491.73 78.8196C491.652 78.8644 491.564 78.888 491.475 78.888C491.385 78.888 491.298 78.8644 491.22 78.8196C491.15 78.7604 491.097 78.6842 491.065 78.5983C491.034 78.5125 491.025 78.4199 491.04 78.3296C491.051 78.2506 491.082 78.1756 491.129 78.1111C491.176 78.0467 491.238 77.9946 491.31 77.9596C491.59 77.7896 491.84 77.8696 491.87 77.7996Z" fill="#202020"/>
<path d="M506.67 69.0799C505.67 71.4199 503.19 73.2299 503.53 75.7599C503.75 77.3899 504.8 78.9099 504.6 80.5499C504.34 82.5499 502.21 84.0299 501.9 86.0799C501.53 88.5899 503.98 90.5399 504.95 92.8799C506.38 96.2999 504.56 100.14 504.51 103.88C504.569 106.719 505.655 109.441 507.567 111.541C509.48 113.641 512.088 114.976 514.91 115.3C517.19 115.49 519.76 114.8 520.91 112.84C521.91 111.22 521.69 109.16 522.27 107.37C523.15 104.69 525.7 102.73 526.27 99.9699C527.27 94.9699 521.17 90.7699 521.57 85.6499C521.74 83.4599 523.09 81.5599 523.66 79.4399C524.023 78.0466 524.051 76.5873 523.741 75.1811C523.432 73.775 522.794 72.4621 521.88 71.3499C520.37 69.5599 518.19 68.3499 516.88 66.4299C515.43 64.2199 515.38 61.4299 514.88 58.8199C514.209 55.6475 512.744 52.6971 510.623 50.2445C508.501 47.7919 505.793 45.9171 502.75 44.7954C499.708 43.6737 496.431 43.3417 493.225 43.8304C490.019 44.3191 486.99 45.6126 484.42 47.5899C484.42 47.5899 482.97 54.1799 489.74 55.2899C496.51 56.3999 499.64 55.1199 500.4 57.8299C500.221 58.9463 500.309 60.0892 500.656 61.1651C501.004 62.241 501.602 63.2193 502.4 64.0199C505.16 66.9999 507.79 66.3599 506.67 69.0799Z" fill="#202020"/>
<path d="M517.42 114.79C517.212 114.797 517.003 114.777 516.8 114.73C516.214 114.626 515.638 114.468 515.08 114.26C513.015 113.468 511.204 112.13 509.84 110.39C508.884 109.189 508.133 107.837 507.62 106.39C507.036 104.742 506.728 103.008 506.71 101.26C506.689 99.3325 506.931 97.4115 507.43 95.5498C507.703 94.5665 508.037 93.6013 508.43 92.6598C508.843 91.7226 509.207 90.7647 509.52 89.7898C509.795 88.8291 509.795 87.8105 509.52 86.8498C509.227 85.904 508.849 84.9869 508.39 84.1098C507.926 83.24 507.535 82.3336 507.22 81.3998C506.912 80.4755 506.84 79.489 507.01 78.5298C507.41 76.6498 508.55 75.2498 509.23 73.8198C509.878 72.496 510.187 71.0323 510.13 69.5598C510.039 67.4048 509.257 65.3362 507.9 63.6598C507.374 63.0725 506.81 62.5213 506.21 62.0098C506.911 62.4037 507.538 62.9183 508.06 63.5298C509.516 65.2037 510.375 67.3145 510.5 69.5298C510.583 71.0665 510.28 72.5996 509.62 73.9898C508.93 75.4698 507.82 76.8798 507.48 78.5998C507.14 80.3198 507.95 82.1298 508.84 83.8698C509.325 84.772 509.721 85.7199 510.02 86.6998C510.315 87.746 510.315 88.8535 510.02 89.8998C509.687 90.9086 509.303 91.8999 508.87 92.8698C508.477 93.7908 508.143 94.7361 507.87 95.6998C507.374 97.5144 507.128 99.3885 507.14 101.27C507.109 104.474 508.143 107.597 510.08 110.15C511.375 111.869 513.099 113.217 515.08 114.06C516.57 114.64 517.43 114.73 517.42 114.79Z" fill="#455A64"/>
<path d="M516.42 64.3301C515.933 64.4563 515.433 64.53 514.93 64.5501C513.558 64.6969 512.172 64.6599 510.81 64.4401C509.777 64.2872 508.786 63.9298 507.893 63.389C507 62.8481 506.224 62.1346 505.61 61.2901C505.038 60.2218 504.582 59.0954 504.25 57.9301C503.823 56.7662 503.021 55.7775 501.97 55.1201C499.78 53.7301 497.21 53.5601 494.97 53.2901C492.904 53.1871 490.898 52.5609 489.14 51.4701C487.963 50.69 487.112 49.5052 486.75 48.1401C486.663 47.7701 486.639 47.388 486.68 47.0101C486.68 46.7501 486.74 46.6201 486.76 46.6201C486.772 47.1154 486.835 47.6081 486.95 48.0901C487.364 49.3665 488.214 50.4567 489.35 51.1701C491.076 52.1768 493.024 52.7403 495.02 52.8101C497.26 53.0701 499.92 53.2001 502.26 54.6801C503.405 55.3992 504.278 56.4795 504.74 57.7501C505.053 58.8858 505.486 59.9853 506.03 61.0301C507.195 62.6279 508.94 63.7051 510.89 64.0301C512.208 64.2752 513.551 64.3658 514.89 64.3001C515.4 64.2714 515.912 64.2815 516.42 64.3301Z" fill="#455A64"/>
<path d="M513.94 56.1899C513.563 56.3159 513.167 56.3735 512.77 56.3599C510.906 56.3724 509.111 55.6545 507.77 54.3599C507.158 53.7465 506.636 53.0496 506.22 52.2899C505.32 50.7699 504.45 48.8999 502.58 48.1199C500.778 47.5155 498.859 47.3475 496.98 47.6299C495.394 47.8526 493.786 47.8526 492.2 47.6299C491.097 47.4768 490.058 47.0198 489.2 46.3099C488.978 46.1166 488.783 45.8946 488.62 45.6499C488.5 45.4765 488.45 45.3865 488.47 45.3799C488.47 45.3799 488.75 45.6999 489.33 46.1499C490.185 46.7581 491.178 47.143 492.22 47.2699C493.777 47.4454 495.35 47.4185 496.9 47.1899C498.861 46.8696 500.872 47.0414 502.75 47.6899C503.716 48.1238 504.543 48.8159 505.14 49.6899C505.667 50.4695 506.151 51.2773 506.59 52.1099C506.984 52.8367 507.472 53.509 508.04 54.1099C508.542 54.618 509.119 55.0463 509.75 55.3799C510.68 55.8655 511.703 56.1484 512.75 56.2099C513.52 56.1999 513.93 56.1399 513.94 56.1899Z" fill="#455A64"/>
<path d="M520.4 112.63C520.35 112.63 520.67 111.97 521.04 110.73C521.541 108.989 521.764 107.18 521.7 105.37C521.627 102.69 520.896 100.07 519.57 97.7401C518.84 96.4301 517.73 95.2601 516.82 93.8201C516.339 93.0865 515.999 92.269 515.82 91.4101C515.662 90.506 515.738 89.5767 516.04 88.7101C516.6 86.9801 517.6 85.5301 517.82 83.9401C518.04 82.3501 517.28 80.9401 516.52 79.6101C516.128 78.9629 515.771 78.2953 515.45 77.6101C515.157 76.9455 514.965 76.2412 514.88 75.5201C514.786 74.2494 514.826 72.9723 515 71.7101C515.32 69.9258 515.154 68.0883 514.52 66.3901C514.237 65.7952 513.835 65.2644 513.34 64.8301C513.34 64.8301 513.39 64.8301 513.46 64.8901C513.578 64.9489 513.686 65.0266 513.78 65.1201C514.171 65.4459 514.488 65.8516 514.71 66.3101C515.433 68.0229 515.659 69.905 515.36 71.7401C515.222 72.9788 515.205 74.2281 515.31 75.4701C515.557 76.8672 516.11 78.1923 516.93 79.3501C517.357 80.0259 517.721 80.7388 518.02 81.4801C518.335 82.2803 518.438 83.1483 518.32 84.0001C518.08 85.7501 517.05 87.2301 516.53 88.8601C516.257 89.6465 516.185 90.4887 516.32 91.3101C516.495 92.1046 516.813 92.8604 517.26 93.5401C518.11 94.9301 519.26 96.1201 519.99 97.4901C521.33 99.8985 522.045 102.604 522.07 105.36C522.102 107.205 521.818 109.041 521.23 110.79C521.07 111.263 520.876 111.725 520.65 112.17C520.589 112.335 520.505 112.489 520.4 112.63Z" fill="#455A64"/>
<path d="M479.67 298.96C479.67 298.96 472.93 235.12 472.54 211.53C472.15 187.94 483.15 164.66 483.15 164.66L526.23 162.87C526.23 162.87 534.75 186.8 534.9 196.87C535.2 216.41 529.71 235.7 530.34 251.2L531.78 299" fill="#202020"/>
<path d="M533.23 220.47C533.005 220.665 532.768 220.845 532.52 221.01L532.13 221.28L531.71 221.69C531.34 222.01 531.005 222.369 530.71 222.76C529.32 224.46 528.31 227.51 527.34 231.3C526.844 233.402 526.113 235.442 525.16 237.38C524.87 237.911 524.536 238.416 524.16 238.89C523.98 239.13 523.81 239.39 523.6 239.62L522.94 240.28C521.995 241.163 520.897 241.868 519.7 242.36C517.29 243.42 514.56 243.92 512.08 245.17C509.539 246.537 507.576 248.773 506.55 251.47C505.33 254.18 504.55 257.02 503.55 259.68C502.55 262.34 501.2 264.88 499.05 266.5C496.994 267.928 494.553 268.699 492.05 268.71C489.73 268.85 487.58 268.78 485.65 269.07C483.913 269.25 482.253 269.877 480.83 270.89C479.791 271.702 479.012 272.8 478.59 274.05C478.322 274.838 478.263 275.682 478.42 276.5C478.54 277.06 478.69 277.33 478.66 277.34C478.499 277.089 478.384 276.811 478.32 276.52C478.109 275.686 478.137 274.809 478.4 273.99C478.797 272.678 479.582 271.518 480.65 270.66C482.109 269.559 483.835 268.869 485.65 268.66C487.65 268.34 489.78 268.38 492.07 268.23C494.5 268.214 496.868 267.461 498.86 266.07C500.881 264.304 502.373 262.012 503.17 259.45C504.17 256.82 504.9 253.97 506.17 251.21C507.246 248.402 509.298 246.077 511.95 244.66C514.53 243.38 517.26 242.89 519.61 241.87C520.76 241.394 521.817 240.716 522.73 239.87L523.36 239.24C523.56 239.02 523.73 238.77 523.91 238.54C524.263 238.085 524.574 237.6 524.84 237.09C525.798 235.178 526.539 233.166 527.05 231.09C528.05 227.31 529.14 224.22 530.61 222.51C530.903 222.12 531.238 221.765 531.61 221.45C531.77 221.31 531.91 221.17 532.05 221.06L532.46 220.8C532.71 220.674 532.967 220.564 533.23 220.47Z" fill="#FAFAFA"/>
<path d="M533.49 190.93C533.536 191.211 533.556 191.495 533.55 191.78C533.547 192.605 533.446 193.428 533.25 194.23C532.389 197.155 530.697 199.767 528.38 201.75C526.851 203.156 525.174 204.393 523.38 205.44C521.45 206.58 519.32 207.67 517.13 208.91C514.83 210.143 512.687 211.651 510.75 213.4C508.763 215.372 507.126 217.668 505.91 220.19C504.684 222.746 503.284 225.215 501.72 227.58C500.925 228.682 500.006 229.688 498.98 230.58C497.969 231.44 496.857 232.175 495.67 232.77C493.522 233.825 491.283 234.685 488.98 235.34C486.84 236 484.84 236.59 483.1 237.34C481.521 237.968 480.018 238.773 478.62 239.74C477.568 240.469 476.623 241.341 475.81 242.33C475.13 243.187 474.562 244.128 474.12 245.13C474.191 244.853 474.285 244.582 474.4 244.32C474.728 243.564 475.148 242.852 475.65 242.2C476.448 241.169 477.391 240.259 478.45 239.5C479.854 238.499 481.367 237.66 482.96 237C484.886 236.215 486.852 235.53 488.85 234.95C491.12 234.28 493.328 233.417 495.45 232.37C496.576 231.783 497.632 231.071 498.6 230.25C499.587 229.371 500.472 228.385 501.24 227.31C502.782 224.956 504.169 222.504 505.39 219.97C506.645 217.392 508.336 215.05 510.39 213.05C512.362 211.275 514.545 209.75 516.89 208.51C519.09 207.28 521.22 206.21 523.15 205.08C524.939 204.068 526.616 202.868 528.15 201.5C530.448 199.577 532.153 197.042 533.07 194.19C533.327 193.121 533.468 192.028 533.49 190.93Z" fill="#FAFAFA"/>
<path d="M472.76 214.87C472.72 214.808 472.69 214.741 472.67 214.67C472.595 214.477 472.532 214.28 472.48 214.08C472.309 213.285 472.343 212.458 472.58 211.68C473.14 209.68 475.35 207.11 478.91 205.84C480.69 205.23 482.7 204.84 484.8 204.32C486.544 204.031 488.193 203.329 489.611 202.273C491.029 201.218 492.174 199.838 492.95 198.25C493.519 197.084 494.016 195.886 494.44 194.66C495.222 191.998 496.284 189.427 497.61 186.99C499.129 184.594 501.434 182.802 504.13 181.92C506.583 181.124 509.085 180.49 511.62 180.02C513.883 179.586 516.074 178.838 518.13 177.8C519.872 176.805 521.374 175.439 522.53 173.8C524.238 171.433 525.211 168.616 525.33 165.7C525.335 164.63 525.264 163.56 525.12 162.5C525.422 163.539 525.56 164.619 525.53 165.7C525.491 168.679 524.55 171.577 522.83 174.01C521.659 175.703 520.125 177.114 518.34 178.14C516.256 179.217 514.031 179.995 511.73 180.45C509.218 180.927 506.74 181.565 504.31 182.36C501.722 183.208 499.509 184.93 498.05 187.23C496.746 189.634 495.697 192.168 494.92 194.79C494.488 196.038 493.977 197.257 493.39 198.44C492.798 199.577 492.043 200.621 491.15 201.54C489.394 203.142 487.232 204.231 484.9 204.69C482.78 205.23 480.78 205.57 479.03 206.15C475.56 207.33 473.36 209.76 472.77 211.7C472.528 212.448 472.463 213.242 472.58 214.02C472.665 214.298 472.725 214.582 472.76 214.87Z" fill="#FAFAFA"/>
<path d="M529.79 268.87C529.831 269.078 529.854 269.289 529.86 269.5C529.879 270.106 529.815 270.712 529.67 271.3C529.042 273.469 527.712 275.368 525.89 276.7C524.673 277.67 523.327 278.464 521.89 279.06C520.36 279.71 518.67 280.23 516.89 280.78C515.042 281.32 513.235 281.988 511.48 282.78C509.657 283.651 508.023 284.871 506.67 286.37C505.21 287.89 503.95 289.56 502.55 291.04C501.211 292.474 499.655 293.688 497.94 294.64C495.021 296.233 491.755 297.084 488.43 297.12C486.203 297.144 483.989 296.775 481.89 296.03C481.32 295.834 480.765 295.597 480.23 295.32C480.035 295.239 479.85 295.135 479.68 295.01C479.883 295.059 480.081 295.13 480.27 295.22C480.819 295.455 481.38 295.662 481.95 295.84C484.045 296.497 486.235 296.805 488.43 296.75C491.682 296.666 494.865 295.798 497.71 294.22C499.372 293.279 500.879 292.088 502.18 290.69C503.55 289.23 504.8 287.57 506.29 286.01C507.723 284.454 509.45 283.197 511.37 282.31C513.151 281.515 514.985 280.847 516.86 280.31C518.62 279.77 520.3 279.31 521.86 278.65C523.255 278.079 524.567 277.322 525.76 276.4C527.552 275.135 528.888 273.325 529.57 271.24C529.717 270.459 529.791 269.665 529.79 268.87Z" fill="#FAFAFA"/>
<path d="M524.88 136.33L516.54 136.53C516.219 138.211 515.581 139.816 514.66 141.26C507.66 129.16 502.29 112.96 500.95 106.45C501.15 105.8 501.38 105.08 501.67 104.28C501.878 103.064 501.84 101.82 501.56 100.62C501.32 99.1695 500.92 97.2195 500.8 96.3195C500.43 93.5595 499.98 93.1295 499.02 93.4395C497.72 93.8695 499.56 101.17 498.49 101.33C497.91 101.41 497.21 98.9095 497.01 96.8595C496.81 94.8095 495.87 88.4895 495.2 88.0695C494.2 87.4495 493.33 88.4295 493.59 90.4695C493.85 92.5095 494.16 98.7095 493.08 98.7995C492 98.8895 491.08 88.4095 491.08 88.4095C491.08 88.4095 491.25 86.1295 489.99 86.1795C487.73 86.2795 489.5 97.3195 489.69 98.3695C489.83 99.0895 488.69 99.2295 488.55 98.4395C488.41 97.6495 487.89 87.9695 485.55 88.0495C483.77 88.0495 486.92 97.1395 485.92 99.2395C484.92 101.34 484.24 92.1195 482.55 92.2395C481.92 92.2895 481.45 92.4095 482.61 97.6195C483.721 101.759 485.056 105.835 486.61 109.83C489.29 124.28 501.05 170.51 519.48 162.05C529.8 157.31 533.98 136.33 533.98 136.33H524.88Z" fill="#E1AE9B"/>
<path d="M489.33 99.07C489.409 99.0899 489.491 99.0899 489.57 99.07C489.691 99.0332 489.794 98.9545 489.862 98.8482C489.93 98.7419 489.957 98.6149 489.94 98.49C489.94 97.87 489.82 96.97 489.68 95.8C489.446 94.3899 489.292 92.9676 489.22 91.54C489.22 90.7 489.22 89.8 489.27 88.85C489.285 88.367 489.335 87.8857 489.42 87.41C489.5 86.96 489.8 86.41 490.15 86.5H490.21C490.56 86.5 490.84 86.76 490.95 87.18C491.074 87.6153 491.121 88.0686 491.09 88.52C491.296 91.3206 491.653 94.108 492.16 96.87C492.24 97.24 492.32 97.62 492.44 98C492.493 98.1945 492.56 98.3849 492.64 98.57C492.691 98.673 492.748 98.7732 492.81 98.87C492.855 98.9431 492.916 99.0047 492.989 99.0498C493.062 99.095 493.145 99.1224 493.23 99.13C493.376 99.114 493.513 99.0551 493.626 98.9607C493.738 98.8664 493.819 98.7408 493.86 98.6C493.946 98.4044 494.01 98.1998 494.05 97.99C494.128 97.5869 494.181 97.1795 494.21 96.77C494.301 95.1037 494.278 93.4331 494.14 91.77C494.013 90.9397 493.98 90.0978 494.04 89.26C494.076 88.8981 494.252 88.5646 494.53 88.33C494.594 88.2919 494.666 88.2677 494.74 88.2591C494.814 88.2505 494.889 88.2576 494.96 88.28C495.045 88.3004 495.126 88.3341 495.2 88.38C495.251 88.418 495.289 88.4702 495.31 88.53C495.625 89.341 495.856 90.182 496 91.04C496.18 91.92 496.33 92.83 496.47 93.74C496.61 94.65 496.74 95.57 496.85 96.5C496.936 97.4597 497.089 98.4121 497.31 99.35C497.428 99.8296 497.579 100.301 497.76 100.76C497.862 101.017 498.004 101.257 498.18 101.47C498.248 101.559 498.339 101.626 498.443 101.665C498.548 101.704 498.661 101.713 498.77 101.69C498.871 101.657 498.962 101.598 499.034 101.519C499.106 101.44 499.156 101.344 499.18 101.24C499.298 100.729 499.335 100.203 499.29 99.68C499.29 99.18 499.23 98.68 499.18 98.2C499.11 97.36 499.03 96.53 499 95.71C498.975 95.3071 498.975 94.903 499 94.5C499.02 94.3216 499.064 94.1467 499.13 93.98C499.151 93.925 499.181 93.8742 499.22 93.83H499.35C500.01 93.56 500.23 94.48 500.41 95.22C500.59 95.96 500.66 96.8 500.82 97.59C501.08 99.16 501.42 100.73 501.59 102.23C501.706 102.948 501.679 103.682 501.51 104.39C501.27 105.11 501.03 105.82 500.8 106.53V106.6V106.66C501.971 111.573 503.465 116.403 505.27 121.12C506.85 125.39 508.44 129.12 509.83 132.12C511.22 135.12 512.48 137.47 513.34 139.05L514.34 140.84C514.448 141.053 514.579 141.254 514.73 141.44C514.646 141.218 514.542 141.004 514.42 140.8L513.42 138.97C512.6 137.36 511.42 134.97 510.06 131.97C508.7 128.97 507.16 125.24 505.62 120.97C503.858 116.26 502.395 111.444 501.24 106.55V106.69C501.47 105.99 501.7 105.28 501.94 104.57C502.148 103.791 502.189 102.976 502.06 102.18C501.88 100.61 501.55 99.09 501.29 97.51C501.14 96.73 501.04 95.93 500.88 95.11C500.87 94.6888 500.799 94.2712 500.67 93.87C500.556 93.6261 500.362 93.4285 500.12 93.31C499.863 93.226 499.587 93.226 499.33 93.31H499.17C499.085 93.3372 499.007 93.3814 498.94 93.44C498.829 93.5342 498.743 93.6545 498.69 93.79C498.598 94.0065 498.541 94.2359 498.52 94.47C498.49 94.9028 498.49 95.3372 498.52 95.77C498.52 96.61 498.64 97.45 498.71 98.29C498.71 98.78 498.79 99.29 498.81 99.74C498.85 100.191 498.826 100.645 498.74 101.09C498.74 101.19 498.66 101.17 498.74 101.22L498.68 101.16C498.553 100.997 498.451 100.814 498.38 100.62C498.205 100.187 498.062 99.743 497.95 99.29C497.73 98.3793 497.58 97.4534 497.5 96.52C497.393 95.58 497.263 94.65 497.11 93.73C496.97 92.81 496.81 91.91 496.63 91.01C496.479 90.094 496.224 89.1981 495.87 88.34C495.801 88.1967 495.694 88.0754 495.56 87.99C495.443 87.9224 495.319 87.8688 495.19 87.83C495.047 87.7926 494.899 87.7839 494.753 87.8045C494.607 87.8251 494.467 87.8746 494.34 87.95C494.134 88.1041 493.962 88.2991 493.834 88.5228C493.707 88.7465 493.627 88.9941 493.6 89.25C493.535 89.7044 493.535 90.1657 493.6 90.62C493.6 91.05 493.7 91.47 493.73 91.89C493.869 93.5262 493.899 95.1698 493.82 96.81C493.797 97.1997 493.746 97.5872 493.67 97.97C493.641 98.1488 493.591 98.3234 493.52 98.49C493.494 98.5559 493.457 98.6169 493.41 98.67C493.41 98.76 493.34 98.67 493.35 98.79C493.35 98.69 493.35 98.79 493.35 98.66C493.306 98.5925 493.266 98.5224 493.23 98.45C493.16 98.29 493.1 98.11 493.04 97.94C492.93 97.58 492.85 97.21 492.77 96.85C492.248 94.1117 491.871 91.3479 491.64 88.57C491.67 88.0673 491.612 87.5631 491.47 87.08C491.404 86.828 491.269 86.5994 491.08 86.42C490.982 86.3255 490.866 86.2519 490.739 86.2037C490.612 86.1556 490.476 86.1339 490.34 86.14H490.4C490.231 86.1153 490.058 86.141 489.903 86.2139C489.748 86.2868 489.619 86.4037 489.53 86.55C489.381 86.7886 489.279 87.0533 489.23 87.33C489.146 87.8258 489.099 88.3272 489.09 88.83C489.09 89.83 489.09 90.7 489.09 91.55C489.185 92.9867 489.369 94.4161 489.64 95.83C489.81 96.99 489.94 97.89 490 98.5C490.019 98.6069 490.001 98.717 489.948 98.8118C489.895 98.9066 489.811 98.9801 489.71 99.02C489.41 99.05 489.32 99.06 489.33 99.07Z" fill="#D39E8E"/>
<path d="M424.2 150.1C422.248 150.058 420.3 150.283 418.41 150.77C413.24 152.13 404.33 157.53 403.96 164.2H410.44C410.44 164.2 406.81 171.92 407.87 171.2C410.64 169.34 416.14 163.75 416.14 163.75L424.2 150.1Z" fill="#E1AE9B"/>
<path d="M512.53 33.8701C512.38 33.8701 511.8 28.5301 511.22 21.8701C510.64 15.2101 510.28 9.87012 510.42 9.87012C510.56 9.87012 511.15 15.2101 511.73 21.8701C512.31 28.5301 512.67 33.8701 512.53 33.8701Z" fill="#202020"/>
<path d="M540.94 10.2801C541.05 10.3601 536.68 16.7101 531.17 24.4601C525.66 32.2101 521.09 38.4601 520.97 38.3401C520.85 38.2201 525.23 31.9101 530.74 24.1601C536.25 16.4101 540.82 10.2001 540.94 10.2801Z" fill="#202020"/>
<path d="M552.74 39.0597C552.74 39.1997 547.66 40.3697 541.34 41.6697C535.02 42.9697 529.86 43.9097 529.83 43.7697C529.8 43.6297 534.9 42.4597 541.23 41.1597C547.56 39.8597 552.67 38.9197 552.74 39.0597Z" fill="#202020"/>
<path d="M212.67 176.41L177.27 358.21L172.67 382.01L408.67 380.87C419.27 380.82 428.67 371.41 432.06 357.43L473.92 185.8C476.51 175.19 470.83 164.15 462.79 164.16L223.87 164.41C218.67 164.4 214.01 169.32 212.67 176.41Z" fill="#D3317D"/>
<g opacity="0.5">
<path d="M212.67 176.41L177.27 358.21L172.67 382.01L408.67 380.87C419.27 380.82 428.67 371.41 432.06 357.43L473.92 185.8C476.51 175.19 470.83 164.15 462.79 164.16L223.87 164.41C218.67 164.4 214.01 169.32 212.67 176.41Z" fill="black"/>
</g>
<path d="M386.06 345.87L361.06 144.46C360.06 136.21 353.47 130.05 345.7 130.08L290.9 130.25C288.864 130.273 286.853 130.711 284.991 131.536C283.129 132.361 281.455 133.557 280.07 135.05L254.07 162.72L101.67 163.54C92.36 163.59 85.2 172.41 86.43 182.31L109.64 368.46C110.64 376.7 117.23 382.85 124.98 382.84L390.63 382.31C420.21 382.92 423.04 374.19 423.04 374.19C389.08 381.7 386.06 345.92 386.06 345.87Z" fill="#D3317D"/>
<path d="M423.99 45.6501C423.666 45.5136 423.388 45.2879 423.188 44.9993C422.988 44.7106 422.874 44.371 422.86 44.0201L422.46 34.7401C422.446 34.4517 422.499 34.164 422.615 33.8998C422.732 33.6356 422.908 33.402 423.13 33.2177C423.352 33.0333 423.614 32.9033 423.896 32.8377C424.177 32.7722 424.469 32.773 424.75 32.8401C425.524 33.0071 426.325 33.0143 427.102 32.8613C427.879 32.7083 428.617 32.3982 429.27 31.9501C429.871 31.5694 430.388 31.0695 430.789 30.4813C431.19 29.8931 431.466 29.229 431.6 28.5301C431.691 27.8223 431.638 27.1036 431.446 26.4165C431.253 25.7294 430.925 25.0879 430.48 24.5301C430.011 23.8954 429.422 23.3593 428.746 22.9527C428.07 22.546 427.32 22.2767 426.54 22.1601C424.967 22.0726 423.409 22.5186 422.121 23.426C420.832 24.3334 419.888 25.6491 419.44 27.1601C419.291 27.6179 418.97 28.0004 418.546 28.228C418.122 28.4556 417.626 28.5107 417.162 28.3818C416.698 28.2529 416.301 27.95 416.055 27.5361C415.809 27.1222 415.732 26.6293 415.84 26.1601C416.52 23.7835 417.998 21.7136 420.025 20.2986C422.052 18.8835 424.505 18.2096 426.97 18.3901C428.253 18.561 429.489 18.9882 430.604 19.6461C431.719 20.304 432.69 21.1794 433.46 22.2201C434.209 23.1846 434.757 24.2896 435.071 25.4696C435.386 26.6496 435.46 27.8808 435.29 29.0901C435.063 30.2976 434.591 31.4458 433.903 32.464C433.215 33.4821 432.326 34.3486 431.29 35.0101C429.79 36.0201 428.037 36.5915 426.23 36.6601L426.54 43.8201C426.552 44.1346 426.484 44.4471 426.342 44.7284C426.201 45.0097 425.991 45.2507 425.732 45.4292C425.472 45.6077 425.172 45.7179 424.859 45.7495C424.546 45.7811 424.23 45.7332 423.94 45.6101L423.99 45.6501Z" fill="#D3317D"/>
<path d="M426.73 49.4496C426.751 49.7516 426.682 50.053 426.532 50.3158C426.381 50.5786 426.157 50.7908 425.886 50.9257C425.615 51.0607 425.31 51.1121 425.009 51.0737C424.709 51.0352 424.427 50.9086 424.199 50.7097C423.97 50.5109 423.806 50.2488 423.727 49.9566C423.648 49.6644 423.657 49.3553 423.754 49.0684C423.85 48.7815 424.029 48.5296 424.269 48.3447C424.509 48.1598 424.798 48.0501 425.1 48.0296C425.301 48.0146 425.502 48.0396 425.693 48.1031C425.884 48.1665 426.06 48.2672 426.211 48.3993C426.363 48.5314 426.487 48.6922 426.576 48.8725C426.665 49.0528 426.717 49.2489 426.73 49.4496Z" fill="#D3317D"/>
<path d="M391.86 32.5596C391.903 32.3618 391.933 32.1613 391.95 31.9596C391.95 31.5196 392.06 30.9596 392.14 30.1696C392.238 29.1997 392.402 28.2375 392.63 27.2896C392.76 26.7296 392.83 26.1096 393.03 25.4796C393.23 24.8496 393.43 24.1696 393.65 23.4796C394.808 20.0609 396.495 16.8451 398.65 13.9496C401.474 10.2002 405.055 7.08628 409.16 4.8096C411.496 3.49224 413.985 2.46466 416.57 1.7496C419.36 1.01004 422.234 0.633596 425.12 0.629597C426.64 0.60518 428.161 0.685371 429.67 0.869598C430.44 0.949598 431.2 1.1496 431.97 1.2796C432.749 1.41297 433.517 1.60009 434.27 1.8396C437.422 2.72043 440.42 4.07956 443.16 5.8696C449.252 9.82086 453.893 15.6477 456.38 22.4696C457.72 26.1238 458.397 29.9876 458.38 33.8796C458.421 37.889 457.712 41.8708 456.29 45.6196L455.84 46.7596L455.78 46.9096L455.84 47.0596C458.35 52.8296 460.84 58.4996 463.19 63.9896L463.61 63.5096L448.61 57.7596L448.43 57.6896L448.28 57.8296C444.312 61.6744 439.454 64.4777 434.14 65.9896C429.599 67.2397 424.845 67.5126 420.191 66.7904C415.537 66.0681 411.088 64.3671 407.14 61.7996C403.906 59.6788 401.056 57.0245 398.71 53.9496C395.311 49.4614 393.109 44.1828 392.31 38.6096C392.19 37.6096 392.09 36.7696 392 36.0096C391.91 35.2496 392 34.6296 391.95 34.0996C391.9 33.5696 391.95 33.2196 391.95 32.9296C392 32.922 392.045 32.8959 392.076 32.8564C392.108 32.817 392.123 32.7671 392.119 32.7168C392.116 32.6665 392.093 32.6195 392.056 32.5852C392.019 32.5509 391.97 32.5319 391.92 32.5319C391.87 32.5319 391.821 32.5509 391.784 32.5852C391.747 32.6195 391.724 32.6665 391.721 32.7168C391.717 32.7671 391.732 32.817 391.764 32.8564C391.795 32.8959 391.84 32.922 391.89 32.9296C391.89 33.2196 391.89 33.6096 391.89 34.0996C391.89 34.5896 391.89 35.2696 391.89 36.0296C391.89 36.7896 392.06 37.6596 392.16 38.6496C392.489 41.0549 393.062 43.4204 393.87 45.7096C395.015 48.7327 396.555 51.5909 398.45 54.2096C400.805 57.3392 403.676 60.0446 406.94 62.2096C410.937 64.8413 415.448 66.5928 420.174 67.3479C424.9 68.1031 429.732 67.8446 434.35 66.5896C439.728 65.0621 444.647 62.2319 448.67 58.3496L448.34 58.4196L463.34 64.1996L464.09 64.4896L463.76 63.7196C461.38 58.2296 458.92 52.5696 456.42 46.7896V47.0796L456.88 45.9096C458.339 42.0791 459.065 38.0084 459.02 33.9096C459.051 29.935 458.374 25.9866 457.02 22.2496C454.479 15.2918 449.735 9.35411 443.51 5.3396C440.701 3.50781 437.624 2.12457 434.39 1.2396C433.625 0.997445 432.843 0.813586 432.05 0.689598C431.27 0.549598 430.5 0.349598 429.72 0.279598C428.191 0.0897536 426.651 0.00289282 425.11 0.0195997C422.178 0.0320126 419.259 0.428725 416.43 1.1996C413.811 1.94347 411.289 2.99761 408.92 4.3396C404.774 6.67214 401.171 9.85921 398.35 13.6896C396.201 16.633 394.537 19.9009 393.42 23.3696C393.21 24.0896 393.01 24.7796 392.83 25.3696C392.671 25.9724 392.544 26.5833 392.45 27.1996C392.236 28.154 392.095 29.1236 392.03 30.0996C391.97 30.8696 391.93 31.4596 391.9 31.8996C391.858 32.1169 391.845 32.3388 391.86 32.5596Z" fill="#202020"/>
<path d="M170.258 293.34H161.413L149.635 275.561V293.34H140.791V261.527H149.635L161.413 279.532V261.527H170.258V293.34ZM187.073 293.656C184.546 293.656 182.275 293.129 180.259 292.076C178.274 291.023 176.71 289.519 175.566 287.564C174.423 285.608 173.852 283.307 173.852 280.66C173.852 278.042 174.423 275.756 175.566 273.801C176.74 271.845 178.319 270.341 180.305 269.288C182.32 268.235 184.591 267.709 187.118 267.709C189.645 267.709 191.902 268.235 193.887 269.288C195.903 270.341 197.482 271.845 198.625 273.801C199.799 275.756 200.385 278.042 200.385 280.66C200.385 283.277 199.799 285.578 198.625 287.564C197.482 289.519 195.903 291.023 193.887 292.076C191.872 293.129 189.6 293.656 187.073 293.656ZM187.073 285.984C188.307 285.984 189.33 285.533 190.142 284.631C190.984 283.698 191.405 282.374 191.405 280.66C191.405 278.945 190.984 277.636 190.142 276.734C189.33 275.831 188.322 275.38 187.118 275.38C185.915 275.38 184.907 275.831 184.095 276.734C183.283 277.636 182.877 278.945 182.877 280.66C182.877 282.405 183.268 283.728 184.05 284.631C184.832 285.533 185.84 285.984 187.073 285.984ZM225.211 261.527C228.55 261.527 231.468 262.204 233.965 263.557C236.492 264.881 238.432 266.746 239.786 269.153C241.14 271.56 241.817 274.312 241.817 277.411C241.817 280.479 241.125 283.217 239.741 285.623C238.387 288.03 236.447 289.925 233.92 291.309C231.423 292.663 228.52 293.34 225.211 293.34H212.621V261.527H225.211ZM224.534 285.533C227.121 285.533 229.152 284.826 230.626 283.412C232.1 281.998 232.837 279.998 232.837 277.411C232.837 274.793 232.1 272.778 230.626 271.364C229.152 269.92 227.121 269.198 224.534 269.198H221.465V285.533H224.534ZM244.359 280.66C244.359 278.042 244.826 275.756 245.758 273.801C246.721 271.845 248.015 270.341 249.639 269.288C251.294 268.235 253.129 267.709 255.144 267.709C256.889 267.709 258.393 268.055 259.657 268.747C260.92 269.439 261.898 270.371 262.59 271.544V268.025H271.434V293.34H262.59V289.82C261.898 290.993 260.905 291.926 259.612 292.618C258.348 293.31 256.859 293.656 255.144 293.656C253.129 293.656 251.294 293.129 249.639 292.076C248.015 291.023 246.721 289.519 245.758 287.564C244.826 285.578 244.359 283.277 244.359 280.66ZM262.59 280.66C262.59 279.035 262.139 277.757 261.236 276.824C260.364 275.892 259.281 275.425 257.987 275.425C256.664 275.425 255.566 275.892 254.693 276.824C253.821 277.727 253.384 279.005 253.384 280.66C253.384 282.284 253.821 283.578 254.693 284.54C255.566 285.473 256.664 285.939 257.987 285.939C259.281 285.939 260.364 285.473 261.236 284.54C262.139 283.608 262.59 282.314 262.59 280.66ZM291.411 285.804V293.34H287.575C281.107 293.34 277.873 290.136 277.873 283.728V275.38H274.76V268.025H277.873V261.888H286.763V268.025H291.366V275.38H286.763V283.864C286.763 284.556 286.913 285.052 287.214 285.353C287.545 285.654 288.087 285.804 288.839 285.804H291.411ZM294.023 280.66C294.023 278.042 294.49 275.756 295.422 273.801C296.385 271.845 297.679 270.341 299.303 269.288C300.958 268.235 302.793 267.709 304.808 267.709C306.553 267.709 308.057 268.055 309.321 268.747C310.584 269.439 311.562 270.371 312.254 271.544V268.025H321.098V293.34H312.254V289.82C311.562 290.993 310.569 291.926 309.276 292.618C308.012 293.31 306.523 293.656 304.808 293.656C302.793 293.656 300.958 293.129 299.303 292.076C297.679 291.023 296.385 289.519 295.422 287.564C294.49 285.578 294.023 283.277 294.023 280.66ZM312.254 280.66C312.254 279.035 311.803 277.757 310.9 276.824C310.028 275.892 308.945 275.425 307.651 275.425C306.328 275.425 305.229 275.892 304.357 276.824C303.485 277.727 303.048 279.005 303.048 280.66C303.048 282.284 303.485 283.578 304.357 284.54C305.229 285.473 306.328 285.939 307.651 285.939C308.945 285.939 310.028 285.473 310.9 284.54C311.803 283.608 312.254 282.314 312.254 280.66Z" fill="white"/>
</g>
<defs>
<clipPath id="clip0_1381_16236">
<rect width="601.55" height="384.93" fill="white"/>
</clipPath>
</defs>
</svg>
